<?xml version="1.0" encoding="UTF-8"?>
<svg id="Layer_1" data-name="Layer 1" xmlns="http://www.w3.org/2000/svg" viewBox="0 0 308.2 169.04">
  <defs>
    <style>
      .cls-1 {
        opacity: .5;
      }

      .cls-2 {
        fill: #fff;
        stroke-width: 0px;
      }
    </style>
  </defs>
  <g>
    <g>
      <path class="cls-2" d="m71.1,91.74h.8l5.4,12.9h-1l-1.8-4.2h-6.1l-1.8,4.2h-1l5.5-12.9h0Zm3.2,7.9l-2.8-6.7-2.8,6.7h5.6Z"/>
      <path class="cls-2" d="m83.7,104.74c-.8,0-1.5-.2-2.2-.6-.6-.4-1.1-.9-1.5-1.6v5.9h-.9v-13.3h.8v1.9c.4-.6.9-1.1,1.5-1.5s1.3-.6,2-.6,1.3.1,1.8.4,1,.6,1.4,1.1.7,1,.9,1.6c.2.6.3,1.2.3,1.8,0,.7-.1,1.3-.3,1.9-.2.6-.5,1.1-.9,1.6s-.8.8-1.4,1.1c-.3.2-.9.4-1.5.3h0Zm-.3-.8c.5,0,1-.1,1.5-.3.5-.2.8-.5,1.1-.9.3-.4.5-.8.7-1.3s.3-1,.3-1.5-.1-1.1-.3-1.6c-.2-.5-.5-.9-.8-1.3s-.7-.7-1.2-.9c-.5-.2-.9-.3-1.5-.3-.3,0-.7.1-1,.2-.4.1-.7.3-1,.6-.3.2-.6.5-.8.8-.2.3-.4.6-.4,1v3.1c.2.4.4.7.6,1s.5.6.8.8c.3.2.6.4,1,.5.3,0,.7.1,1,.1h0Z"/>
      <path class="cls-2" d="m94.8,104.74c-.8,0-1.5-.2-2.2-.6-.6-.4-1.1-.9-1.5-1.6v5.9h-.9v-13.3h.8v1.9c.4-.6.9-1.1,1.5-1.5s1.3-.6,2-.6,1.3.1,1.8.4,1,.6,1.4,1.1.7,1,.9,1.6c.2.6.3,1.2.3,1.8,0,.7-.1,1.3-.3,1.9-.2.6-.5,1.1-.9,1.6s-.8.8-1.4,1.1c-.3.2-.9.4-1.5.3h0Zm-.3-.8c.5,0,1-.1,1.5-.3.5-.2.8-.5,1.1-.9.3-.4.5-.8.7-1.3s.3-1,.3-1.5-.1-1.1-.3-1.6c-.2-.5-.5-.9-.8-1.3s-.7-.7-1.2-.9c-.5-.2-.9-.3-1.5-.3-.3,0-.7.1-1,.2-.4.1-.7.3-1,.6-.3.2-.6.5-.8.8-.2.3-.4.6-.4,1v3.1c.2.4.4.7.6,1s.5.6.8.8c.3.2.6.4,1,.5.3,0,.7.1,1,.1h0Z"/>
    </g>
    <rect class="cls-2" x="56.9" y="86.04" width="1" height="4.4"/>
    <rect class="cls-2" x="56.8" y="114.14" width="1" height="4.4"/>
    <rect class="cls-2" x="79.54" y="96.82" width="1" height="46.4" transform="translate(-46.34 189.58) rotate(-85.13)"/>
    <polygon class="cls-2" points="103.2 122.24 102.2 122.24 102.2 82.34 103.2 82.24 103.2 122.24"/>
    <polygon class="cls-2" points="57 87.04 56.9 86.04 103.2 82.34 103.2 83.24 57 87.04"/>
    <g>
      <path class="cls-2" d="m37.7,111.94v.9q0,.1-.1.2c-.1,0-.1.1-.2.1s-.1,0-.2-.1q-.1-.1-.1-.2v-2.7q0-.1.1-.2t.2-.1h.7c.2,0,.4,0,.5.1s.3.1.3.2.1.2.2.3c0,.1.1.3.1.4,0,.2,0,.3-.1.4-.1.1-.1.2-.2.3-.1.1-.2.1-.3.2-.1,0-.3.1-.4.1l-.5.1h0Zm0-.5h.4c.4,0,.6-.2.6-.6v-.2q0-.1-.1-.2c0-.1-.1-.1-.2-.1s-.2-.1-.3-.1h-.4v1.2h0Z"/>
      <path class="cls-2" d="m39.7,112.94q0,.1-.1.1h-.1q-.1,0-.2-.1t-.1-.2h0l.9-2.7c0-.1.1-.1.1-.2s.1-.1.2-.1.2,0,.2.1.1.1.1.2l.9,2.7h0q0,.1-.1.2c-.1,0-.1.1-.2.1s-.1,0-.2-.1c0-.1-.1-.1-.1-.2l-.1-.4h-1.1l-.1.6h0Zm.7-2.4c-.1.2-.1.5-.2.7-.1.2-.1.4-.2.7h.8c-.1-.3-.1-.5-.2-.7-.1-.2-.1-.5-.2-.7h0Z"/>
      <path class="cls-2" d="m42.5,111.94v.9q0,.1-.1.2c-.1,0-.1.1-.2.1s-.1,0-.2-.1q-.1-.1-.1-.2v-2.7q0-.1.1-.2t.2-.1h.7c.2,0,.4,0,.5.1s.3.1.3.2c.1.1.1.2.2.3,0,.1.1.3.1.4,0,.2,0,.3-.1.4s-.1.2-.2.3c-.1.1-.2.1-.3.2-.1,0-.3.1-.4.1l-.5.1h0Zm0-.5h.4c.4,0,.6-.2.6-.6v-.2q0-.1-.1-.2c0-.1-.1-.1-.2-.1s-.2-.1-.3-.1h-.4v1.2h0Z"/>
      <path class="cls-2" d="m46.3,112.84q0,.1-.1.2c-.1,0-.1.1-.2.1h-1.2c-.1,0-.2,0-.3-.1-.1,0-.1-.1-.1-.2v-2.6q0-.1.1-.2t.2-.1h1.2q.1,0,.2.1s.1.1.1.2,0,.1-.1.2c0,0-.1.1-.2.1h-1v.7h.9q.1,0,.2.1.1.1.1.2,0,.1-.1.2s-.1.1-.2.1h-.9v.9h1.1q.1,0,.2.1c.1-.2.1-.1.1,0h0Z"/>
      <path class="cls-2" d="m48.8,110.74c0,.2-.1.4-.2.6-.1.1-.3.2-.5.3.1.2.2.4.3.5.1.2.2.3.3.5v.2q0,.1-.1.2t-.2.1c-.1,0-.2,0-.2-.1l-.8-1.3h-.4v1.1q0,.1-.1.2c-.1,0-.1.1-.2.1s-.1,0-.2-.1c0,0-.1-.1-.1-.2v-2.7q0-.1.1-.2.1-.1.2-.1h.8c.2,0,.4,0,.5.1s.2.1.3.2c.1.1.1.2.2.3.3.1.3.2.3.3h0Zm-.5,0v-.2q0-.1-.1-.1s-.1-.1-.2-.1h-.8v.9h.6c.2,0,.3,0,.4-.1.1-.1.1-.2.1-.4h0Z"/>
      <path class="cls-2" d="m51.1,112.84q0,.1-.1.2s-.1.1-.2.1h-1.3q-.1,0-.2-.1t-.1-.2v-2.7q0-.1.1-.2.1-.1.2-.1.1,0,.2.1.1.1.1.2v2.5h1q.1,0,.2.1.1,0,.1.1h0Z"/>
      <path class="cls-2" d="m53.3,112.84q0,.1-.1.2c-.1,0-.1.1-.2.1h-1.2c-.1,0-.2,0-.3-.1-.1,0-.1-.1-.1-.2v-2.6q0-.1.1-.2t.2-.1h1.2q.1,0,.2.1.1.1.1.2,0,.1-.1.2s-.1.1-.2.1h-1v.7h.9q.1,0,.2.1c.1,0,.1.1.1.2s0,.1-.1.2c0,0-.1.1-.2.1h-.9v.9h1.1q.1,0,.2.1c0-.2.1-.1.1,0h0Z"/>
      <path class="cls-2" d="m55,112.14c0-.1,0-.2-.1-.3l-.1-.1c-.1,0-.2-.1-.3-.1s-.2-.1-.3-.1-.2-.1-.3-.1-.2-.1-.2-.2c.1,0,0-.1,0-.2s-.1-.2-.1-.3c0-.3.1-.5.3-.7.2-.2.4-.2.7-.2h.2c.1,0,.2,0,.3.1s.2.1.2.1c0,0,.1.1.1.2s0,.1-.1.2c0,0-.1.1-.2.1h-.7q-.1,0-.2.1l-.1.1v.4q0,.1.1.1c.1,0,0,.1.1.1h.1c.1,0,.2.1.3.1s.2.1.3.1.2.1.3.1.2.1.2.2q.1.1.2.2c0,.1.1.2.1.3,0,.2,0,.3-.1.4-.1.1-.1.2-.2.3s-.2.1-.3.2c-.1,0-.3.1-.4.1h-.3c-.1,0-.2,0-.3-.1-.1,0-.2-.1-.2-.1,0,0-.1-.1-.1-.2s0-.1.1-.2c0,0,.1-.1.2-.1h.1s.1,0,.1.1.1,0,.2.1h.2c.2,0,.3,0,.4-.1-.2-.3-.1-.4-.2-.6h0Z"/>
      <path class="cls-2" d="m57.3,112.14c0-.1,0-.2-.1-.3l-.1-.1c-.1,0-.2-.1-.3-.1s-.2-.1-.3-.1-.2-.1-.3-.1-.2-.1-.2-.2q-.1-.1-.2-.2c0-.1-.1-.2-.1-.3,0-.3.1-.5.3-.7.2-.2.4-.2.7-.2h.2c.1,0,.2,0,.3.1s.2.1.2.1c.1,0,.1.1.1.2s0,.1-.1.2c0,0-.1.1-.2.1h-.7q-.1,0-.2.1l-.1.1v.4q0,.1.1.1s0,.1.1.1h.1c.1,0,.2.1.3.1s.2.1.3.1.2.1.3.1.2.1.2.2q.1.1.2.2c0,.1.1.2.1.3,0,.2,0,.3-.1.4s-.1.2-.2.3-.2.1-.3.2c-.1,0-.3.1-.4.1h-.3c-.1,0-.2,0-.3-.1s-.2-.1-.2-.1c-.1,0-.1-.1-.1-.2s0-.1.1-.2c0,0,.1-.1.2-.1h.1s.1,0,.1.1q.1,0,.2.1h.2c.2,0,.3,0,.4-.1s0-.4,0-.6h0Z"/>
      <path class="cls-2" d="m59.9,113.04q-.1,0-.2-.1t-.1-.2v-2.6q0-.1.1-.2.1-.1.2-.1h.8c.2,0,.3,0,.4.1s.2.1.3.2c.1.1.1.2.2.3,0,.1.1.2.1.3v.2c0,.1-.1.1-.1.2s-.1.1-.2.1-.1.1-.2.1c.1,0,.1.1.2.1s.1.1.2.1q.1.1.1.2c0,.1.1.2.1.3s0,.3-.1.4c0,.1-.1.2-.2.3s-.2.1-.3.2c-.1,0-.3.1-.4.1h-.9Zm.8-1.9h.2q.1,0,.2-.1l.1-.1v-.3s0-.1-.1-.1l-.1-.1h-.8v.8l.5-.1h0Zm-.6.5v1h.6c.2,0,.3,0,.4-.1s.1-.2.1-.3c0-.2-.1-.3-.2-.4-.1-.1-.2-.1-.4-.1l-.5-.1h0Z"/>
      <path class="cls-2" d="m64.2,112.44c0,.1-.1.3-.2.3-.1.1-.2.2-.3.2-.1.1-.3.1-.4.1-.2,0-.3,0-.5-.1-.1-.1-.2-.1-.3-.2s-.2-.2-.2-.3-.1-.3-.1-.4v-1.9q0-.1.1-.2s.1-.1.2-.1.1,0,.2.1.1.1.1.2v1.9c0,.2,0,.3.1.5s.2.2.4.2.3-.1.4-.2c.1-.1.1-.3.1-.5v-1.9q0-.1.1-.2s.1-.1.2-.1.1,0,.2.1.1.1.1.2v1.9c-.1.1-.2.2-.2.4h0Z"/>
      <path class="cls-2" d="m66.1,112.14c0-.1,0-.2-.1-.3l-.1-.1c-.1,0-.2-.1-.3-.1s-.2-.1-.3-.1-.2-.1-.3-.1-.2-.1-.2-.2q-.1-.1-.2-.2c0-.1-.1-.2-.1-.3,0-.3.1-.5.3-.7.2-.2.4-.2.7-.2h.2c.1,0,.2,0,.3.1.1,0,.2.1.2.1,0,0,.1.1.1.2s0,.1-.1.2-.1.1-.2.1h-.7q-.1,0-.2.1l-.1.1v.4s0,.1.1.1,0,.1.1.1h.1c.1,0,.2.1.3.1s.2.1.3.1.2.1.3.1.2.1.2.2q.1.1.2.2c.1.1.1.2.1.3,0,.2,0,.3-.1.4-.1.1-.1.2-.2.3s-.2.1-.3.2c-.1,0-.3.1-.4.1h-.3c-.1,0-.2,0-.3-.1s-.2-.1-.2-.1l-.2-.4q0-.1.1-.2s.1-.1.2-.1h.1s.1,0,.1.1.1,0,.2.1h.2c.2,0,.3,0,.4-.1s.1-.2.1-.4h0Z"/>
      <path class="cls-2" d="m67.1,110.04q0-.1.1-.2t.2-.1.2.1.1.2v2.8q0,.1-.1.2c-.1,0-.1.1-.2.1s-.1,0-.2-.1c0-.1-.1-.1-.1-.2v-2.8Z"/>
      <path class="cls-2" d="m70.1,113.04h-.1l-.1-.1-1.2-2.1v2q0,.1-.1.2t-.2.1-.2-.1s-.1-.1-.1-.2v-2.8q0-.1.1-.2c.1,0,.1-.1.2-.1h.1l.1.1c0,.1.1.1.1.3.1.1.1.2.2.4.1.1.2.3.2.4.1.1.2.3.2.4.1.1.1.3.2.4.1.1.1.2.1.3v-2q0-.1.1-.2c.1,0,.1-.1.2-.1s.1,0,.2.1c0,0,.1.1.1.2v2.8q0,.1-.1.2c-.1.1.1,0,0,0h0Z"/>
      <path class="cls-2" d="m72.8,112.84q0,.1-.1.2c-.1,0-.1.1-.2.1h-1.2c-.1,0-.2,0-.3-.1-.1,0-.1-.1-.1-.2v-2.6q0-.1.1-.2t.2-.1h1.2q.1,0,.2.1s.1.1.1.2,0,.1-.1.2c0,0-.1.1-.2.1h-1v.7h.9q.1,0,.2.1.1.1.1.2,0,.1-.1.2s-.1.1-.2.1h-.9v.9h1.1q.1,0,.2.1c.1-.2.1-.1.1,0h0Z"/>
      <path class="cls-2" d="m74.6,112.14c0-.1,0-.2-.1-.3l-.1-.1c-.1,0-.2-.1-.3-.1s-.2-.1-.3-.1-.2-.1-.3-.1-.2-.1-.2-.2-.1-.1-.2-.2c0-.1-.1-.2-.1-.3,0-.3.1-.5.3-.7.2-.2.4-.2.7-.2h.2c.1,0,.2,0,.3.1s.2.1.2.1c.1,0,.1.1.1.2s0,.1-.1.2c0,0-.1.1-.2.1h-.7q-.1,0-.2.1l-.1.1v.4s0,.1.1.1c0,0,0,.1.1.1h.1c.1,0,.2.1.3.1s.2.1.3.1.2.1.3.1.2.1.2.2q.1.1.2.2c.1.1.1.2.1.3,0,.2,0,.3-.1.4s-.1.2-.2.3-.2.1-.3.2-.3.1-.4.1h-.3c-.1,0-.2,0-.3-.1-.1,0-.2-.1-.2-.1,0,0-.1-.1-.1-.2s0-.1.1-.2c0,0,.1-.1.2-.1h.1s.1,0,.1.1.1,0,.2.1h.2c.2,0,.3,0,.4-.1-.1-.3,0-.4,0-.6h0Z"/>
      <path class="cls-2" d="m76.8,112.14c0-.1,0-.2-.1-.3l-.1-.1c-.1,0-.2-.1-.3-.1s-.2-.1-.3-.1-.2-.1-.3-.1-.2-.1-.2-.2q-.1-.1-.2-.2c0-.1-.1-.2-.1-.3,0-.3.1-.5.3-.7.2-.2.4-.2.7-.2h.2c.1,0,.2,0,.3.1s.2.1.2.1c.1,0,.1.1.1.2s0,.1-.1.2-.1.1-.2.1h-.7q-.1,0-.2.1l-.1.1v.4s0,.1.1.1c0,0,0,.1.1.1h.1c.1,0,.2.1.3.1s.3-.2.4-.2.2.1.3.1.2.1.2.2q.1.1.2.2c.1.1.1.2.1.3,0,.2,0,.3-.1.4s-.1.2-.2.3-.2.1-.3.2c-.1,0-.3.1-.4.1h-.3c-.1,0-.2,0-.3-.1s-.2-.1-.2-.1c0,0-.1-.1-.1-.2s0-.1.1-.2c0,0,.1-.1.2-.1h.1s.1,0,.1.1.1,0,.2.1h.2c.2,0,.3,0,.4-.1-.1,0,0-.1-.1-.3h0Z"/>
    </g>
    <g>
      <path class="cls-2" d="m2.6,91.64l3.5,9.9,3.5-9.9h2.7l-5.1,13.1h-2.1l-5.1-13.1h2.6Z"/>
      <path class="cls-2" d="m16.8,104.94c-.8,0-1.5-.1-2.1-.4s-1.2-.6-1.6-1.1-.8-1-1-1.6c-.3-.6-.4-1.2-.4-1.9s.1-1.3.4-1.9c.2-.6.6-1.1,1-1.6s1-.8,1.6-1.1c.6-.3,1.3-.4,2.1-.4s1.5.1,2.1.4,1.1.6,1.6,1.1c.4.5.8,1,1,1.6s.3,1.2.3,1.9v.9h-7.5c0,.4.1.7.3,1,.1.3.3.5.6.8.2.2.5.4.8.5s.6.2.9.2c.5,0,1-.1,1.4-.4.4-.2.7-.6.9-.9l2.1.6c-.4.7-.9,1.3-1.7,1.8-.8.2-1.7.5-2.8.5h0Zm2.5-5.9c-.1-.7-.3-1.3-.8-1.7-.5-.4-1.1-.7-1.7-.7-.3,0-.6.1-.9.2s-.5.3-.8.5-.4.5-.5.8-.2.6-.3,1l5-.1h0Z"/>
      <path class="cls-2" d="m32.3,104.74h-2.5v-5.4c0-.8-.1-1.3-.4-1.7-.3-.4-.6-.5-1.1-.5-.2,0-.5,0-.8.1s-.5.2-.7.4c-.2.2-.4.4-.6.6-.2.2-.3.5-.4.8v5.6h-2.5v-9.7h2.2v1.8c.4-.6.9-1.1,1.5-1.4.7-.3,1.4-.5,2.3-.5.6,0,1.1.1,1.5.3.4.2.7.5.9.9s.4.8.4,1.2c.1.5.1.9.1,1.4v6.1h.1Z"/>
      <path class="cls-2" d="m38.5,104.94c-.7,0-1.3-.1-1.8-.4-.6-.3-1.1-.6-1.5-1.1s-.7-1-.9-1.6-.3-1.3-.3-2,.1-1.3.3-2c.2-.6.5-1.1.9-1.6s.8-.8,1.4-1.1,1.1-.4,1.7-.4c.7,0,1.4.2,1.9.5.6.3,1,.8,1.3,1.3v-5.3h2.5v10.6c0,.3,0,.4.1.5s.2.2.4.2v2.1c-.4.1-.8.1-1.1.1-.4,0-.8-.1-1.1-.3-.3-.2-.4-.5-.5-.9l-.1-.6c-.4.6-.8,1.1-1.5,1.4-.5.4-1.1.6-1.7.6h0Zm.6-2.1c.2,0,.5,0,.7-.1s.5-.2.7-.3c.2-.1.4-.3.6-.5.2-.2.3-.4.4-.6v-2.3c-.1-.3-.2-.5-.4-.7s-.4-.4-.6-.6c-.2-.2-.5-.3-.7-.4s-.5-.1-.7-.1c-.4,0-.7.1-1,.2-.3.2-.6.4-.8.7-.2.3-.4.6-.5.9-.1.4-.2.7-.2,1.1s.1.8.2,1.1c.1.3.3.6.5.9s.5.5.8.6c.2,0,.6.1,1,.1h0Z"/>
      <path class="cls-2" d="m50.8,104.94c-.8,0-1.5-.1-2.1-.4s-1.2-.6-1.6-1.1c-.4-.5-.8-1-1-1.6s-.4-1.3-.4-1.9c0-.7.1-1.3.4-1.9.2-.6.6-1.1,1-1.6s1-.8,1.6-1.1c.6-.3,1.3-.4,2.1-.4s1.5.1,2.1.4,1.1.6,1.6,1.1c.4.5.8,1,1,1.6s.4,1.2.4,1.9-.1,1.3-.4,1.9c-.2.6-.6,1.1-1,1.6s-1,.8-1.6,1.1-1.3.4-2.1.4Zm-2.5-5c0,.4.1.8.2,1.2s.3.7.5.9c.2.3.5.5.8.6s.6.2,1,.2.7-.1,1-.2c.3-.1.6-.3.8-.6.2-.3.4-.6.5-.9s.2-.8.2-1.2-.1-.8-.2-1.2c-.1-.4-.3-.7-.5-.9-.2-.3-.5-.5-.8-.6-.3-.1-.6-.2-1-.2s-.7.1-1,.2-.6.4-.8.6c-.2.3-.4.6-.5.9-.2.4-.2.8-.2,1.2Z"/>
      <path class="cls-2" d="m63.3,97.24c-.8,0-1.4.2-2,.4-.6.3-1,.7-1.3,1.2v5.8h-2.5v-9.7h2.3v2.1c.2-.3.4-.6.6-.9s.5-.5.8-.7.5-.3.8-.5c.3-.1.5-.2.8-.2h.5v2.5h0Z"/>
    </g>
  </g>
  <g class="cls-1">
    <g>
      <path class="cls-2" d="m134.67,147.93c-1.1,0-2.1-.2-3-.7s-1.7-1-2.3-1.7-1.1-1.5-1.5-2.5c-.4-.9-.5-1.9-.5-2.8,0-1,.2-2,.6-2.9.4-.9.9-1.7,1.6-2.5.7-.7,1.4-1.3,2.4-1.7.9-.4,1.9-.6,3-.6s2.1.2,3,.7c.9.4,1.7,1,2.3,1.8.6.7,1.1,1.6,1.5,2.5s.5,1.9.5,2.8c0,1-.2,2-.6,2.9s-.9,1.7-1.5,2.4c-.7.7-1.4,1.3-2.4,1.7-1,.4-2,.6-3.1.6h0Zm-4.4-7.7c0,.7.1,1.3.3,1.9s.5,1.2.9,1.6c.4.5.8.8,1.4,1.1.6.3,1.2.4,1.9.4s1.3-.1,1.9-.4,1-.7,1.4-1.2.7-1,.9-1.6c.2-.6.3-1.2.3-1.8s-.1-1.3-.3-1.9c-.2-.6-.5-1.2-.9-1.6-.4-.5-.8-.8-1.4-1.1-.6-.3-1.2-.4-1.8-.4-.7,0-1.3.1-1.9.4s-1,.7-1.4,1.2-.7,1-.8,1.6c-.4.5-.5,1.2-.5,1.8h0Z"/>
      <path class="cls-2" d="m150.77,139.13c-.9,0-1.6.2-2.3.5s-1.2.8-1.5,1.4v6.8h-2.9v-11.2h2.6v2.4c.2-.4.4-.7.7-1,.3-.3.6-.6.9-.8.3-.2.6-.4,1-.5.3-.1.6-.2.9-.2h.6v2.6h0Z"/>
      <path class="cls-2" d="m156.47,148.03c-.8,0-1.5-.1-2.1-.4-.7-.3-1.2-.7-1.7-1.2s-.8-1.1-1.1-1.8-.4-1.6-.4-2.4.1-1.6.4-2.3.6-1.3,1-1.8,1-.9,1.6-1.2,1.3-.4,2-.4c.8,0,1.6.2,2.2.6.7.4,1.2.9,1.6,1.6v-6.4h2.9v12.3c0,.3,0,.5.1.6s.3.2.5.2v2.4c-.5.1-.9.1-1.2.1-.5,0-.9-.1-1.3-.4-.3-.3-.5-.6-.6-1l-.1-.7c-.4.7-1,1.3-1.7,1.6-.6.4-1.3.6-2.1.6h0Zm.7-2.4c.3,0,.6,0,.8-.1.3-.1.6-.2.8-.4.2-.2.5-.4.7-.6s.3-.5.4-.7v-2.7c-.1-.3-.3-.6-.5-.9s-.4-.5-.7-.7-.5-.3-.8-.5-.6-.2-.9-.2c-.4,0-.8.1-1.2.3-.4.2-.7.4-.9.8-.3.3-.5.7-.6,1.1s-.2.8-.2,1.3.1.9.2,1.3c.2.4.4.7.6,1,.3.3.6.5,1,.7.5.2.9.3,1.3.3h0Z"/>
      <path class="cls-2" d="m170.77,148.03c-.9,0-1.7-.2-2.4-.5s-1.3-.7-1.9-1.3c-.5-.5-.9-1.1-1.2-1.8-.3-.7-.4-1.4-.4-2.2s.1-1.6.4-2.3c.3-.7.7-1.3,1.2-1.9s1.1-1,1.9-1.3c.7-.3,1.6-.5,2.5-.5s1.7.2,2.4.5,1.3.7,1.8,1.3c.5.5.9,1.1,1.2,1.8.3.7.4,1.4.4,2.2v.5c0,.1,0,.3-.1.4h-8.7c0,.4.1.8.3,1.2.2.3.4.6.7.9s.6.4.9.6.7.2,1.1.2c.6,0,1.1-.1,1.6-.4s.8-.6,1-1.1l2.5.7c-.4.9-1.1,1.6-2,2.1-.8.6-1.9.9-3.2.9h0Zm3-6.8c-.1-.8-.4-1.5-.9-2-.6-.5-1.2-.8-2-.8-.4,0-.7.1-1.1.2-.3.1-.6.3-.9.6-.3.2-.5.5-.6.9s-.3.7-.3,1.1h5.8Z"/>
      <path class="cls-2" d="m185.07,139.13c-.9,0-1.6.2-2.3.5-.7.3-1.2.8-1.5,1.4v6.8h-2.9v-11.2h2.6v2.4c.2-.4.4-.7.7-1,.3-.3.6-.6.9-.8.3-.2.6-.4,1-.5s.6-.2.9-.2h.6v2.6h0Z"/>
    </g>
    <g>
      <path class="cls-2" d="m192.87,132.73h.9l6.4,15.2h-1.2l-2.1-5h-7.3l-2.1,5h-1.2l6.6-15.2h0Zm3.8,9.3l-3.3-8-3.4,8h6.7Z"/>
      <path class="cls-2" d="m207.67,148.13c-1,0-1.8-.3-2.6-.8-.7-.5-1.4-1.1-1.8-1.8v7h-1.1v-15.8h1v2.2c.5-.7,1.1-1.3,1.8-1.7.7-.4,1.6-.7,2.4-.7s1.5.2,2.1.5c.7.3,1.2.8,1.7,1.3s.8,1.1,1.1,1.8c.3.7.4,1.4.4,2.1,0,.8-.1,1.5-.4,2.2-.2.7-.6,1.3-1,1.8s-1,.9-1.6,1.3c-.5.4-1.2.6-2,.6h0Zm-.2-1c.6,0,1.2-.1,1.8-.4.5-.3,1-.6,1.3-1.1.4-.4.7-1,.9-1.5.2-.6.3-1.2.3-1.8s-.1-1.3-.3-1.8c-.2-.6-.5-1.1-1-1.5-.4-.4-.9-.8-1.4-1.1-.5-.3-1.1-.4-1.7-.4-.4,0-.8.1-1.2.2-.4.2-.8.4-1.2.7s-.7.6-1,1-.4.7-.5,1.1v3.7c.2.4.4.8.7,1.2.3.4.6.7,1,.9.4.3.7.5,1.2.6.2.1.6.2,1.1.2h0Z"/>
      <path class="cls-2" d="m220.77,148.13c-1,0-1.8-.3-2.6-.8-.7-.5-1.4-1.1-1.8-1.8v7h-1.1v-15.8h1v2.2c.5-.7,1.1-1.3,1.8-1.7.7-.4,1.6-.7,2.4-.7s1.5.2,2.1.5c.7.3,1.2.8,1.7,1.3s.8,1.1,1.1,1.8c.3.7.4,1.4.4,2.1,0,.8-.1,1.5-.4,2.2-.2.7-.6,1.3-1,1.8s-1,.9-1.6,1.3c-.5.4-1.2.6-2,.6h0Zm-.2-1c.6,0,1.2-.1,1.8-.4.5-.3,1-.6,1.3-1.1.4-.4.7-1,.9-1.5.2-.6.3-1.2.3-1.8s-.1-1.3-.3-1.8c-.2-.6-.5-1.1-1-1.5-.4-.4-.9-.8-1.4-1.1-.5-.3-1.1-.4-1.7-.4-.4,0-.8.1-1.2.2-.4.2-.8.4-1.2.7s-.7.6-1,1-.4.7-.5,1.1v3.7c.2.4.4.8.7,1.2.3.4.6.7,1,.9.4.3.7.5,1.2.6.2.1.6.2,1.1.2h0Z"/>
    </g>
    <rect class="cls-2" x="176.17" y="125.93" width="1.2" height="5.2"/>
    <rect class="cls-2" x="176.07" y="159.13" width="1.2" height="5.2"/>
    <rect class="cls-2" x="202.75" y="138.72" width="1.2" height="54.8" transform="translate(20.57 354.63) rotate(-85.13)"/>
    <polygon class="cls-2" points="230.77 168.73 229.57 168.73 229.57 121.63 230.77 121.53 230.77 168.73"/>
    <polygon class="cls-2" points="176.17 127.13 176.07 125.93 230.77 121.53 230.77 122.73 176.17 127.13"/>
    <g>
      <path class="cls-2" d="m153.37,156.53v1.1q0,.1-.1.2t-.2.1-.2-.1-.1-.2v-3.2c0-.1,0-.2.1-.2.1-.1.2-.1.3-.1h.8c.2,0,.4,0,.6.1.2.1.3.2.4.3.1.1.2.2.2.4,0,.1.1.3.1.5s0,.4-.1.5-.1.3-.3.4c-.1.1-.2.2-.4.2-.2.1-.3.1-.5.1l-.6-.1h0Zm0-.6h.5c.5,0,.7-.2.7-.7v-.2c0-.1-.1-.1-.1-.2q-.1-.1-.2-.1c-.1,0-.2-.1-.3-.1h-.5v1.3h-.1Z"/>
      <path class="cls-2" d="m155.87,157.73c0,.1-.1.1-.1.1-.1,0-.1.1-.2.1s-.1,0-.2-.1-.1-.1-.1-.2v-.1h0l1-3.2c0-.1.1-.2.1-.2q.1-.1.2-.1c.1,0,.2,0,.2.1q.1.1.1.2l1,3.2h0v.1q0,.1-.1.2t-.2.1c-.1,0-.2,0-.2-.1s-.1-.1-.1-.2l-.2-.5h-1.2v.6h0Zm.8-2.8c-.1.3-.1.6-.2.8-.1.3-.2.5-.2.8h.9c-.1-.3-.2-.5-.2-.8-.2-.3-.3-.5-.3-.8h0Z"/>
      <path class="cls-2" d="m159.07,156.53v1.1q0,.1-.1.2t-.2.1-.2-.1-.1-.2v-3.2c0-.1,0-.2.1-.2q.1-.1.2-.1h.8c.2,0,.4,0,.6.1.2.1.3.2.4.3.1.1.2.2.2.4,0,.1.1.3.1.5s0,.4-.1.5-.1.3-.3.4c-.1.1-.2.2-.4.2-.2.1-.3.1-.5.1l-.5-.1h0Zm0-.6h.5c.5,0,.7-.2.7-.7v-.2c0-.1-.1-.1-.1-.2q-.1-.1-.2-.1c-.1,0-.2-.1-.3-.1h-.5v1.3h-.1Z"/>
      <path class="cls-2" d="m163.57,157.53q0,.1-.1.2t-.2.1h-1.4c-.1,0-.2,0-.3-.1-.1,0-.1-.1-.1-.2v-3.1q0-.1.1-.2.1-.1.2-.1h1.4q.1,0,.2.1.1.1.1.2,0,.1-.1.2c-.1,0-.1.1-.2.1h-1.2v1h1.2q.1,0,.2.1.1.1.1.2,0,.1-.1.2-.1.1-.2.1h-1.1v1.1h1.2q.1,0,.2.1c.1-.1.1,0,.1,0h0Z"/>
      <path class="cls-2" d="m166.57,155.23c0,.3-.1.5-.2.7-.1.2-.3.3-.6.3.1.2.3.4.4.6.1.2.3.4.4.6v.2q0,.1-.1.2t-.2.1c-.1,0-.2,0-.2-.1l-.9-1.6h-.5v1.4q0,.1-.1.2-.1.1-.2.1-.1,0-.2-.1-.1-.1-.1-.2v-3.2c0-.1,0-.2.1-.2q.1-.1.2-.1h.9c.2,0,.4,0,.6.1.2.1.3.1.4.3.1.1.2.2.2.4.1,0,.1.1.1.3h0Zm-.6,0v-.2c0-.1-.1-.1-.1-.2s-.1-.1-.2-.1h-.9v1.1h.7c.2,0,.4,0,.5-.1-.1-.2,0-.4,0-.5h0Z"/>
      <path class="cls-2" d="m169.27,157.63q0,.1-.1.2t-.2.1h-1.5c-.1,0-.2,0-.2-.1-.1-.1-.1-.2-.1-.3v-3.2q0-.1.1-.2.1-.1.2-.1.1,0,.2.1.1.1.1.2v3h1.2q.1,0,.2.1c.1,0,.1.1.1.2h0Z"/>
      <path class="cls-2" d="m171.77,157.53q0,.1-.1.2t-.2.1h-1.4c-.1,0-.2,0-.3-.1-.1,0-.1-.1-.1-.2v-3.1q0-.1.1-.2.1-.1.2-.1h1.4q.1,0,.2.1.1.1.1.2,0,.1-.1.2c-.1,0-.1.1-.2.1h-1.2v1h1.1q.1,0,.2.1.1.1.1.2,0,.1-.1.2-.1.1-.2.1h-1.1v1.1h1.2q.1,0,.2.1c.2-.1.2,0,.2,0h0Z"/>
      <path class="cls-2" d="m173.87,156.83c0-.1,0-.2-.1-.3s-.1-.1-.2-.1-.2-.1-.3-.1-.2-.1-.3-.1-.2-.1-.3-.1-.2-.1-.3-.2c-.1-.1-.1-.2-.2-.3,0-.1-.1-.2-.1-.4,0-.3.1-.6.3-.8s.5-.3.8-.3h.3c.1,0,.2,0,.3.1s.2.1.3.1.1.1.1.2,0,.1-.1.2c0,.1-.1.1-.2.1h-.8q-.1,0-.2.1c-.1,0-.1.1-.1.2v.4q0,.1.1.1c.1,0,.1.1.1.1h.1c.1,0,.2.1.3.1s.2.1.3.1.2.1.3.1.2.1.3.2c.1.1.1.2.2.3,0,.1.1.2.1.4s0,.3-.1.5c-.1.1-.1.3-.3.4-.1.1-.2.2-.4.2s-.3.1-.5.1h-.3c-.1,0-.2,0-.3-.1-.1,0-.2-.1-.3-.1q-.1-.1-.1-.2t.1-.2.2-.1h.1s.1,0,.2.1.1,0,.2.1h.3c.2,0,.4,0,.5-.1,0-.4,0-.5,0-.7h0Z"/>
      <path class="cls-2" d="m176.57,156.83c0-.1,0-.2-.1-.3s-.1-.1-.2-.1-.2-.1-.3-.1-.2-.1-.3-.1-.2-.1-.3-.1-.2-.2-.2-.3c-.1-.1-.1-.2-.2-.3,0-.1-.1-.2-.1-.4,0-.3.1-.6.3-.8s.5-.3.8-.3h.3c.1,0,.2,0,.3.1s.2.1.3.1.1.1.1.2,0,.1-.1.2c0,.1-.1.1-.2.1h-.8q-.1,0-.2.1c-.1,0-.1.1-.1.2v.4q0,.1.1.1c.1,0,.1.1.1.1h.1c.1,0,.2.1.3.1s.2.1.3.1.2.1.3.1.2.1.3.2c.1.1.1.2.2.3,0,.1.1.2.1.4s0,.3-.1.5c-.1.1-.1.3-.3.4-.1.1-.2.2-.4.2-.1,0-.3.1-.5.1h-.3c-.1,0-.2,0-.3-.1-.1,0-.2-.1-.3-.1q-.1-.1-.1-.2t.1-.2.2-.1h.1s.1,0,.2.1.1,0,.2.1h.3c.2,0,.4,0,.5-.1-.1-.3-.1-.4-.1-.6h0Z"/>
      <path class="cls-2" d="m179.67,157.83c-.1,0-.2,0-.2-.1q-.1-.1-.1-.2v-3.1c0-.1,0-.2.1-.2s.1-.1.2-.1h.9c.2,0,.3,0,.5.1s.3.1.4.2c.1.1.2.2.2.3s.1.2.1.4v.3c0,.1-.1.2-.1.2q-.1.1-.2.2c-.1.1-.2.1-.2.1.1,0,.2.1.3.1s.2.1.2.2.1.1.2.2c0,.1.1.2.1.3s0,.3-.1.4c-.1.1-.1.2-.2.3s-.2.2-.4.2c-.1.1-.3.1-.5.1h-1.2v.1Zm.9-2.2h.2c.1,0,.1-.1.2-.1s.1-.1.1-.2v-.4q0-.1-.1-.1s-.1-.1-.2-.1h-.9v1l.7-.1h0Zm-.7.6v1.1h.6c.2,0,.4,0,.5-.1s.2-.2.2-.4-.1-.3-.2-.4c-.1-.1-.3-.1-.5-.1.1-.1-.6-.1-.6-.1Z"/>
      <path class="cls-2" d="m184.67,157.13c-.1.2-.1.3-.2.4-.1.1-.2.2-.4.3-.2.1-.3.1-.5.1s-.4,0-.5-.1c-.2-.1-.3-.2-.4-.3s-.2-.3-.2-.4c-.1-.2-.1-.3-.1-.5v-2.3q0-.1.1-.2t.2-.1.2.1.1.2v2.3c0,.2.1.4.2.5s.3.2.5.2.4-.1.5-.2c.1-.1.2-.3.2-.5v-2.3q0-.1.1-.2.1-.1.2-.1c.1,0,.2,0,.2.1q.1.1.1.2v2.3c-.2.2-.2.3-.3.5h0Z"/>
      <path class="cls-2" d="m186.97,156.83c0-.1,0-.2-.1-.3s-.1-.1-.2-.1-.2-.1-.3-.1-.2-.1-.3-.1-.2-.1-.3-.1-.2-.1-.3-.2c-.1-.1-.1-.2-.2-.3,0-.1-.1-.2-.1-.4,0-.3.1-.6.3-.8.2-.2.5-.3.8-.3h.3c.1,0,.2,0,.3.1s.2.1.3.1q.1.1.1.2t-.1.2c0,.1-.1.1-.2.1h-.8q-.1,0-.2.1c-.1,0-.1.1-.1.2v.4s0,.1.1.1.1.1.1.1h.1c.1,0,.2.1.3.1s.2.1.3.1.2.1.3.1.2.1.3.2c.1.1.1.2.2.3,0,.1.1.2.1.4s0,.3-.1.5c-.1.1-.1.3-.3.4-.1.1-.2.2-.4.2-.1,0-.3.1-.5.1h-.3c-.1,0-.2,0-.3-.1s-.2-.1-.3-.1q-.1-.1-.1-.2,0-.1.1-.2c0-.1.1-.1.2-.1h.1s.1,0,.2.1q.1,0,.2.1c.1.1.2,0,.3,0,.2,0,.4,0,.5-.1,0-.4,0-.5,0-.7h0Z"/>
      <path class="cls-2" d="m188.17,154.33q0-.1.1-.2t.2-.1.2.1.1.2v3.3q0,.1-.1.2-.1.1-.2.1-.1,0-.2-.1-.1-.1-.1-.2v-3.3Z"/>
      <path class="cls-2" d="m191.67,157.93h-.2c-.1,0-.1-.1-.1-.1l-1.4-2.5v2.4q0,.1-.1.2t-.2.1-.2-.1-.1-.2v-3.3c0-.1,0-.2.1-.2q.1-.1.2-.1h.2c.1,0,.1.1.1.1,0,.1.1.2.2.3s.2.3.2.4c.1.2.2.3.3.5.1.2.2.3.3.5.1.2.2.3.2.4.1.1.1.2.2.3v-2.4q0-.1.1-.2.1-.1.2-.1.1,0,.2.1.1.1.1.2v3.3q0,.1-.1.2c0,.2-.1.2-.2.2h0Z"/>
      <path class="cls-2" d="m194.87,157.53q0,.1-.1.2t-.2.1h-1.4c-.1,0-.2,0-.3-.1-.1,0-.1-.1-.1-.2v-3.1q0-.1.1-.2.1-.1.2-.1h1.4q.1,0,.2.1.1.1.1.2,0,.1-.1.2c-.1,0-.1.1-.2.1h-1.2v1h1.1q.1,0,.2.1.1.1.1.2,0,.1-.1.2-.1.1-.2.1h-1.1v1.1h1.2q.1,0,.2.1c.1.1.2,0,.2,0h0Z"/>
      <path class="cls-2" d="m196.97,156.83c0-.1,0-.2-.1-.3s-.1-.1-.2-.1-.2-.1-.3-.1-.2-.1-.3-.1-.2-.1-.3-.1-.2-.1-.3-.2c-.1-.1-.1-.2-.2-.3,0-.1-.1-.2-.1-.4,0-.3.1-.6.3-.8.2-.2.5-.3.8-.3h.3c.1,0,.2,0,.3.1.1,0,.2.1.3.1s.1.1.1.2,0,.1-.1.2c0,.1-.1.1-.2.1h-.8q-.1,0-.2.1c-.1,0-.1.1-.1.2v.4s0,.1.1.1.1.1.1.1h.1c.1,0,.2.1.3.1s.2.1.3.1.2.1.3.1.2.1.3.2c.1.1.1.2.2.3,0,.1.1.2.1.4s0,.3-.1.5c-.1.1-.1.3-.3.4-.1.1-.2.2-.4.2s-.3.1-.5.1h-.3c-.1,0-.2,0-.3-.1s-.2-.1-.3-.1q-.1-.1-.1-.2t.1-.2.2-.1h.1s.1,0,.2.1q.1,0,.2.1c.1.1.2,0,.3,0,.2,0,.4,0,.5-.1,0-.4,0-.5,0-.7h0Z"/>
      <path class="cls-2" d="m199.67,156.83c0-.1,0-.2-.1-.3s-.1-.1-.2-.1-.2-.1-.3-.1-.2-.1-.3-.1-.2-.1-.3-.1-.2-.1-.3-.2c-.1-.1-.1-.2-.2-.3,0-.1-.1-.2-.1-.4,0-.3.1-.6.3-.8.2-.2.5-.3.8-.3h.3c.1,0,.2,0,.3.1.1,0,.2.1.3.1q.1.1.1.2t-.1.2c0,.1-.1.1-.2.1h-.8q-.1,0-.2.1c-.1,0-.1.1-.1.2v.4s0,.1.1.1.1.1.1.1h.1c.1,0,.2.1.3.1s.2.1.3.1.2.1.3.1.2.1.3.2c.1.1.1.2.2.3,0,.1.1.2.1.4s0,.3-.1.5c-.1.1-.1.3-.3.4-.1.1-.2.2-.4.2-.1,0-.3.1-.5.1h-.3c-.1,0-.2,0-.3-.1-.1,0-.2-.1-.3-.1q-.1-.1-.1-.2,0-.1.1-.2c0-.1.1-.1.2-.1h.1s.1,0,.2.1q.1,0,.2.1h.3c.2,0,.4,0,.5-.1-.1-.4,0-.5,0-.7h0Z"/>
    </g>
  </g>
  <g>
    <g>
      <path class="cls-2" d="m276.1,9.5h.8l5.4,12.9h-1l-1.8-4.2h-6.1l-1.8,4.2h-1l5.5-12.9h0Zm3.2,7.9l-2.8-6.7-2.8,6.7h5.6Z"/>
      <path class="cls-2" d="m288.7,22.5c-.8,0-1.5-.2-2.2-.6-.6-.4-1.1-.9-1.5-1.6v5.9h-.9v-13.3h.8v1.9c.4-.6.9-1.1,1.5-1.5s1.3-.6,2-.6,1.3.1,1.8.4,1,.6,1.4,1.1.7,1,.9,1.6c.2.6.3,1.2.3,1.8,0,.7-.1,1.3-.3,1.9-.2.6-.5,1.1-.9,1.6s-.8.8-1.4,1.1c-.3.2-.9.4-1.5.3h0Zm-.3-.8c.5,0,1-.1,1.5-.3.5-.2.8-.5,1.1-.9.3-.4.5-.8.7-1.3s.3-1,.3-1.5-.1-1.1-.3-1.6c-.2-.5-.5-.9-.8-1.3s-.7-.7-1.2-.9c-.5-.2-.9-.3-1.5-.3-.3,0-.7.1-1,.2-.4.1-.7.3-1,.6-.3.2-.6.5-.8.8-.2.3-.4.6-.4,1v3.1c.2.4.4.7.6,1s.5.6.8.8c.3.2.6.4,1,.5.3,0,.7.1,1,.1h0Z"/>
      <path class="cls-2" d="m299.8,22.5c-.8,0-1.5-.2-2.2-.6-.6-.4-1.1-.9-1.5-1.6v5.9h-.9v-13.3h.8v1.9c.4-.6.9-1.1,1.5-1.5s1.3-.6,2-.6,1.3.1,1.8.4,1,.6,1.4,1.1.7,1,.9,1.6c.2.6.3,1.2.3,1.8,0,.7-.1,1.3-.3,1.9-.2.6-.5,1.1-.9,1.6s-.8.8-1.4,1.1c-.3.2-.9.4-1.5.3h0Zm-.3-.8c.5,0,1-.1,1.5-.3.5-.2.8-.5,1.1-.9.3-.4.5-.8.7-1.3s.3-1,.3-1.5-.1-1.1-.3-1.6c-.2-.5-.5-.9-.8-1.3s-.7-.7-1.2-.9c-.5-.2-.9-.3-1.5-.3-.3,0-.7.1-1,.2-.4.1-.7.3-1,.6-.3.2-.6.5-.8.8-.2.3-.4.6-.4,1v3.1c.2.4.4.7.6,1s.5.6.8.8c.3.2.6.4,1,.5.3,0,.7.1,1,.1h0Z"/>
    </g>
    <rect class="cls-2" x="261.9" y="3.8" width="1" height="4.4"/>
    <rect class="cls-2" x="261.8" y="31.9" width="1" height="4.4"/>
    <rect class="cls-2" x="284.54" y="14.58" width="1" height="46.4" transform="translate(223.2 318.59) rotate(-85.13)"/>
    <polygon class="cls-2" points="308.2 40 307.2 40 307.2 .1 308.2 0 308.2 40"/>
    <polygon class="cls-2" points="262 4.8 261.9 3.8 308.2 .1 308.2 1 262 4.8"/>
    <g>
      <path class="cls-2" d="m242.7,29.7v.9q0,.1-.1.2c-.1,0-.1.1-.2.1s-.1,0-.2-.1q-.1-.1-.1-.2v-2.7q0-.1.1-.2t.2-.1h.7c.2,0,.4,0,.5.1s.3.1.3.2.1.2.2.3c0,.1.1.3.1.4,0,.2,0,.3-.1.4-.1.1-.1.2-.2.3-.1.1-.2.1-.3.2-.1,0-.3.1-.4.1l-.5.1h0Zm0-.5h.4c.4,0,.6-.2.6-.6v-.2q0-.1-.1-.2c0-.1-.1-.1-.2-.1s-.2-.1-.3-.1h-.4v1.2h0Z"/>
      <path class="cls-2" d="m244.7,30.7q0,.1-.1.1h-.1q-.1,0-.2-.1t-.1-.2h0l.9-2.7c0-.1.1-.1.1-.2s.1-.1.2-.1.2,0,.2.1.1.1.1.2l.9,2.7h0q0,.1-.1.2c-.1,0-.1.1-.2.1s-.1,0-.2-.1c0-.1-.1-.1-.1-.2l-.1-.4h-1.1l-.1.6h0Zm.7-2.4c-.1.2-.1.5-.2.7-.1.2-.1.4-.2.7h.8c-.1-.3-.1-.5-.2-.7-.1-.2-.1-.5-.2-.7h0Z"/>
      <path class="cls-2" d="m247.5,29.7v.9q0,.1-.1.2c-.1,0-.1.1-.2.1s-.1,0-.2-.1q-.1-.1-.1-.2v-2.7q0-.1.1-.2t.2-.1h.7c.2,0,.4,0,.5.1s.3.1.3.2c.1.1.1.2.2.3,0,.1.1.3.1.4,0,.2,0,.3-.1.4s-.1.2-.2.3c-.1.1-.2.1-.3.2-.1,0-.3.1-.4.1l-.5.1h0Zm0-.5h.4c.4,0,.6-.2.6-.6v-.2q0-.1-.1-.2c0-.1-.1-.1-.2-.1s-.2-.1-.3-.1h-.4v1.2h0Z"/>
      <path class="cls-2" d="m251.3,30.6q0,.1-.1.2c-.1,0-.1.1-.2.1h-1.2c-.1,0-.2,0-.3-.1-.1,0-.1-.1-.1-.2v-2.6q0-.1.1-.2t.2-.1h1.2q.1,0,.2.1s.1.1.1.2,0,.1-.1.2c0,0-.1.1-.2.1h-1v.7h.9q.1,0,.2.1.1.1.1.2,0,.1-.1.2s-.1.1-.2.1h-.9v.9h1.1q.1,0,.2.1c.1-.2.1-.1.1,0h0Z"/>
      <path class="cls-2" d="m253.8,28.5c0,.2-.1.4-.2.6-.1.1-.3.2-.5.3.1.2.2.4.3.5.1.2.2.3.3.5v.2q0,.1-.1.2t-.2.1c-.1,0-.2,0-.2-.1l-.8-1.3h-.4v1.1q0,.1-.1.2c-.1,0-.1.1-.2.1s-.1,0-.2-.1c0,0-.1-.1-.1-.2v-2.7q0-.1.1-.2.1-.1.2-.1h.8c.2,0,.4,0,.5.1s.2.1.3.2c.1.1.1.2.2.3.3.1.3.2.3.3h0Zm-.5,0v-.2q0-.1-.1-.1s-.1-.1-.2-.1h-.8v.9h.6c.2,0,.3,0,.4-.1.1-.1.1-.2.1-.4h0Z"/>
      <path class="cls-2" d="m256.1,30.6q0,.1-.1.2s-.1.1-.2.1h-1.3q-.1,0-.2-.1t-.1-.2v-2.7q0-.1.1-.2.1-.1.2-.1.1,0,.2.1.1.1.1.2v2.5h1q.1,0,.2.1.1,0,.1.1h0Z"/>
      <path class="cls-2" d="m258.3,30.6q0,.1-.1.2c-.1,0-.1.1-.2.1h-1.2c-.1,0-.2,0-.3-.1-.1,0-.1-.1-.1-.2v-2.6q0-.1.1-.2t.2-.1h1.2q.1,0,.2.1.1.1.1.2,0,.1-.1.2s-.1.1-.2.1h-1v.7h.9q.1,0,.2.1c.1,0,.1.1.1.2s0,.1-.1.2c0,0-.1.1-.2.1h-.9v.9h1.1q.1,0,.2.1c0-.2.1-.1.1,0h0Z"/>
      <path class="cls-2" d="m260,29.9c0-.1,0-.2-.1-.3l-.1-.1c-.1,0-.2-.1-.3-.1s-.2-.1-.3-.1-.2-.1-.3-.1-.2-.1-.2-.2c.1,0,0-.1,0-.2s-.1-.2-.1-.3c0-.3.1-.5.3-.7.2-.2.4-.2.7-.2h.2c.1,0,.2,0,.3.1s.2.1.2.1c0,0,.1.1.1.2s0,.1-.1.2c0,0-.1.1-.2.1h-.7q-.1,0-.2.1l-.1.1v.4q0,.1.1.1c.1,0,0,.1.1.1h.1c.1,0,.2.1.3.1s.2.1.3.1.2.1.3.1.2.1.2.2q.1.1.2.2c0,.1.1.2.1.3,0,.2,0,.3-.1.4-.1.1-.1.2-.2.3s-.2.1-.3.2c-.1,0-.3.1-.4.1h-.3c-.1,0-.2,0-.3-.1-.1,0-.2-.1-.2-.1,0,0-.1-.1-.1-.2s0-.1.1-.2c0,0,.1-.1.2-.1h.1s.1,0,.1.1.1,0,.2.1h.2c.2,0,.3,0,.4-.1-.2-.3-.1-.4-.2-.6h0Z"/>
      <path class="cls-2" d="m262.3,29.9c0-.1,0-.2-.1-.3l-.1-.1c-.1,0-.2-.1-.3-.1s-.2-.1-.3-.1-.2-.1-.3-.1-.2-.1-.2-.2q-.1-.1-.2-.2c0-.1-.1-.2-.1-.3,0-.3.1-.5.3-.7.2-.2.4-.2.7-.2h.2c.1,0,.2,0,.3.1s.2.1.2.1c.1,0,.1.1.1.2s0,.1-.1.2c0,0-.1.1-.2.1h-.7q-.1,0-.2.1l-.1.1v.4q0,.1.1.1s0,.1.1.1h.1c.1,0,.2.1.3.1s.2.1.3.1.2.1.3.1.2.1.2.2q.1.1.2.2c0,.1.1.2.1.3,0,.2,0,.3-.1.4s-.1.2-.2.3-.2.1-.3.2c-.1,0-.3.1-.4.1h-.3c-.1,0-.2,0-.3-.1s-.2-.1-.2-.1c-.1,0-.1-.1-.1-.2s0-.1.1-.2c0,0,.1-.1.2-.1h.1s.1,0,.1.1q.1,0,.2.1h.2c.2,0,.3,0,.4-.1s0-.4,0-.6h0Z"/>
      <path class="cls-2" d="m264.9,30.8q-.1,0-.2-.1t-.1-.2v-2.6q0-.1.1-.2.1-.1.2-.1h.8c.2,0,.3,0,.4.1s.2.1.3.2c.1.1.1.2.2.3,0,.1.1.2.1.3v.2c0,.1-.1.1-.1.2s-.1.1-.2.1-.1.1-.2.1c.1,0,.1.1.2.1s.1.1.2.1q.1.1.1.2c0,.1.1.2.1.3s0,.3-.1.4c0,.1-.1.2-.2.3s-.2.1-.3.2c-.1,0-.3.1-.4.1h-.9Zm.8-1.9h.2q.1,0,.2-.1l.1-.1v-.3s0-.1-.1-.1l-.1-.1h-.8v.8l.5-.1h0Zm-.6.5v1h.6c.2,0,.3,0,.4-.1s.1-.2.1-.3c0-.2-.1-.3-.2-.4-.1-.1-.2-.1-.4-.1l-.5-.1h0Z"/>
      <path class="cls-2" d="m269.2,30.2c0,.1-.1.3-.2.3-.1.1-.2.2-.3.2-.1.1-.3.1-.4.1-.2,0-.3,0-.5-.1-.1-.1-.2-.1-.3-.2s-.2-.2-.2-.3-.1-.3-.1-.4v-1.9q0-.1.1-.2s.1-.1.2-.1.1,0,.2.1.1.1.1.2v1.9c0,.2,0,.3.1.5s.2.2.4.2.3-.1.4-.2c.1-.1.1-.3.1-.5v-1.9q0-.1.1-.2s.1-.1.2-.1.1,0,.2.1.1.1.1.2v1.9c-.1.1-.2.2-.2.4h0Z"/>
      <path class="cls-2" d="m271.1,29.9c0-.1,0-.2-.1-.3l-.1-.1c-.1,0-.2-.1-.3-.1s-.2-.1-.3-.1-.2-.1-.3-.1-.2-.1-.2-.2q-.1-.1-.2-.2c0-.1-.1-.2-.1-.3,0-.3.1-.5.3-.7.2-.2.4-.2.7-.2h.2c.1,0,.2,0,.3.1.1,0,.2.1.2.1,0,0,.1.1.1.2s0,.1-.1.2-.1.1-.2.1h-.7q-.1,0-.2.1l-.1.1v.4s0,.1.1.1,0,.1.1.1h.1c.1,0,.2.1.3.1s.2.1.3.1.2.1.3.1.2.1.2.2q.1.1.2.2c.1.1.1.2.1.3,0,.2,0,.3-.1.4-.1.1-.1.2-.2.3s-.2.1-.3.2c-.1,0-.3.1-.4.1h-.3c-.1,0-.2,0-.3-.1s-.2-.1-.2-.1l-.2-.4q0-.1.1-.2s.1-.1.2-.1h.1s.1,0,.1.1.1,0,.2.1h.2c.2,0,.3,0,.4-.1s.1-.2.1-.4h0Z"/>
      <path class="cls-2" d="m272.1,27.8q0-.1.1-.2t.2-.1.2.1.1.2v2.8q0,.1-.1.2c-.1,0-.1.1-.2.1s-.1,0-.2-.1c0-.1-.1-.1-.1-.2v-2.8Z"/>
      <path class="cls-2" d="m275.1,30.8h-.1l-.1-.1-1.2-2.1v2q0,.1-.1.2t-.2.1-.2-.1s-.1-.1-.1-.2v-2.8q0-.1.1-.2c.1,0,.1-.1.2-.1h.1l.1.1c0,.1.1.1.1.3.1.1.1.2.2.4.1.1.2.3.2.4.1.1.2.3.2.4.1.1.1.3.2.4.1.1.1.2.1.3v-2q0-.1.1-.2c.1,0,.1-.1.2-.1s.1,0,.2.1c0,0,.1.1.1.2v2.8q0,.1-.1.2c-.1.1.1,0,0,0h0Z"/>
      <path class="cls-2" d="m277.8,30.6q0,.1-.1.2c-.1,0-.1.1-.2.1h-1.2c-.1,0-.2,0-.3-.1-.1,0-.1-.1-.1-.2v-2.6q0-.1.1-.2t.2-.1h1.2q.1,0,.2.1s.1.1.1.2,0,.1-.1.2c0,0-.1.1-.2.1h-1v.7h.9q.1,0,.2.1.1.1.1.2,0,.1-.1.2s-.1.1-.2.1h-.9v.9h1.1q.1,0,.2.1c.1-.2.1-.1.1,0h0Z"/>
      <path class="cls-2" d="m279.6,29.9c0-.1,0-.2-.1-.3l-.1-.1c-.1,0-.2-.1-.3-.1s-.2-.1-.3-.1-.2-.1-.3-.1-.2-.1-.2-.2-.1-.1-.2-.2c0-.1-.1-.2-.1-.3,0-.3.1-.5.3-.7.2-.2.4-.2.7-.2h.2c.1,0,.2,0,.3.1s.2.1.2.1c.1,0,.1.1.1.2s0,.1-.1.2c0,0-.1.1-.2.1h-.7q-.1,0-.2.1l-.1.1v.4s0,.1.1.1c0,0,0,.1.1.1h.1c.1,0,.2.1.3.1s.2.1.3.1.2.1.3.1.2.1.2.2q.1.1.2.2c.1.1.1.2.1.3,0,.2,0,.3-.1.4s-.1.2-.2.3-.2.1-.3.2-.3.1-.4.1h-.3c-.1,0-.2,0-.3-.1-.1,0-.2-.1-.2-.1,0,0-.1-.1-.1-.2s0-.1.1-.2c0,0,.1-.1.2-.1h.1s.1,0,.1.1.1,0,.2.1h.2c.2,0,.3,0,.4-.1-.1-.3,0-.4,0-.6h0Z"/>
      <path class="cls-2" d="m281.8,29.9c0-.1,0-.2-.1-.3l-.1-.1c-.1,0-.2-.1-.3-.1s-.2-.1-.3-.1-.2-.1-.3-.1-.2-.1-.2-.2q-.1-.1-.2-.2c0-.1-.1-.2-.1-.3,0-.3.1-.5.3-.7.2-.2.4-.2.7-.2h.2c.1,0,.2,0,.3.1s.2.1.2.1c.1,0,.1.1.1.2s0,.1-.1.2-.1.1-.2.1h-.7q-.1,0-.2.1l-.1.1v.4s0,.1.1.1c0,0,0,.1.1.1h.1c.1,0,.2.1.3.1s.3-.2.4-.2.2.1.3.1.2.1.2.2q.1.1.2.2c.1.1.1.2.1.3,0,.2,0,.3-.1.4s-.1.2-.2.3-.2.1-.3.2c-.1,0-.3.1-.4.1h-.3c-.1,0-.2,0-.3-.1s-.2-.1-.2-.1c0,0-.1-.1-.1-.2s0-.1.1-.2c0,0,.1-.1.2-.1h.1s.1,0,.1.1.1,0,.2.1h.2c.2,0,.3,0,.4-.1-.1,0,0-.1-.1-.3h0Z"/>
    </g>
    <g>
      <path class="cls-2" d="m207.6,9.4l3.5,9.9,3.5-9.9h2.7l-5.1,13.1h-2.1l-5.1-13.1h2.6Z"/>
      <path class="cls-2" d="m221.8,22.7c-.8,0-1.5-.1-2.1-.4s-1.2-.6-1.6-1.1-.8-1-1-1.6c-.3-.6-.4-1.2-.4-1.9s.1-1.3.4-1.9c.2-.6.6-1.1,1-1.6s1-.8,1.6-1.1c.6-.3,1.3-.4,2.1-.4s1.5.1,2.1.4,1.1.6,1.6,1.1c.4.5.8,1,1,1.6s.3,1.2.3,1.9v.9h-7.5c0,.4.1.7.3,1,.1.3.3.5.6.8.2.2.5.4.8.5s.6.2.9.2c.5,0,1-.1,1.4-.4.4-.2.7-.6.9-.9l2.1.6c-.4.7-.9,1.3-1.7,1.8-.8.2-1.7.5-2.8.5h0Zm2.5-5.9c-.1-.7-.3-1.3-.8-1.7-.5-.4-1.1-.7-1.7-.7-.3,0-.6.1-.9.2s-.5.3-.8.5-.4.5-.5.8-.2.6-.3,1l5-.1h0Z"/>
      <path class="cls-2" d="m237.3,22.5h-2.5v-5.4c0-.8-.1-1.3-.4-1.7-.3-.4-.6-.5-1.1-.5-.2,0-.5,0-.8.1s-.5.2-.7.4c-.2.2-.4.4-.6.6-.2.2-.3.5-.4.8v5.6h-2.5v-9.7h2.2v1.8c.4-.6.9-1.1,1.5-1.4.7-.3,1.4-.5,2.3-.5.6,0,1.1.1,1.5.3.4.2.7.5.9.9s.4.8.4,1.2c.1.5.1.9.1,1.4v6.1h.1Z"/>
      <path class="cls-2" d="m243.5,22.7c-.7,0-1.3-.1-1.8-.4-.6-.3-1.1-.6-1.5-1.1s-.7-1-.9-1.6-.3-1.3-.3-2,.1-1.3.3-2c.2-.6.5-1.1.9-1.6s.8-.8,1.4-1.1,1.1-.4,1.7-.4c.7,0,1.4.2,1.9.5.6.3,1,.8,1.3,1.3v-5.3h2.5v10.6c0,.3,0,.4.1.5s.2.2.4.2v2.1c-.4.1-.8.1-1.1.1-.4,0-.8-.1-1.1-.3-.3-.2-.4-.5-.5-.9l-.1-.6c-.4.6-.8,1.1-1.5,1.4-.5.4-1.1.6-1.7.6h0Zm.6-2.1c.2,0,.5,0,.7-.1s.5-.2.7-.3c.2-.1.4-.3.6-.5.2-.2.3-.4.4-.6v-2.3c-.1-.3-.2-.5-.4-.7s-.4-.4-.6-.6c-.2-.2-.5-.3-.7-.4s-.5-.1-.7-.1c-.4,0-.7.1-1,.2-.3.2-.6.4-.8.7-.2.3-.4.6-.5.9-.1.4-.2.7-.2,1.1s.1.8.2,1.1c.1.3.3.6.5.9s.5.5.8.6c.2,0,.6.1,1,.1h0Z"/>
      <path class="cls-2" d="m255.8,22.7c-.8,0-1.5-.1-2.1-.4s-1.2-.6-1.6-1.1c-.4-.5-.8-1-1-1.6s-.4-1.3-.4-1.9c0-.7.1-1.3.4-1.9.2-.6.6-1.1,1-1.6s1-.8,1.6-1.1c.6-.3,1.3-.4,2.1-.4s1.5.1,2.1.4,1.1.6,1.6,1.1c.4.5.8,1,1,1.6s.4,1.2.4,1.9-.1,1.3-.4,1.9c-.2.6-.6,1.1-1,1.6s-1,.8-1.6,1.1-1.3.4-2.1.4Zm-2.5-5c0,.4.1.8.2,1.2s.3.7.5.9c.2.3.5.5.8.6s.6.2,1,.2.7-.1,1-.2c.3-.1.6-.3.8-.6.2-.3.4-.6.5-.9s.2-.8.2-1.2-.1-.8-.2-1.2c-.1-.4-.3-.7-.5-.9-.2-.3-.5-.5-.8-.6-.3-.1-.6-.2-1-.2s-.7.1-1,.2-.6.4-.8.6c-.2.3-.4.6-.5.9-.2.4-.2.8-.2,1.2Z"/>
      <path class="cls-2" d="m268.3,15c-.8,0-1.4.2-2,.4-.6.3-1,.7-1.3,1.2v5.8h-2.5v-9.7h2.3v2.1c.2-.3.4-.6.6-.9s.5-.5.8-.7.5-.3.8-.5c.3-.1.5-.2.8-.2h.5v2.5h0Z"/>
    </g>
  </g>
  <g>
    <g>
      <g>
        <path class="cls-2" d="m191.31,58.78h.9l6.4,15.2h-1.2l-2.1-5h-7.3l-2.1,5h-1.2l6.6-15.2h0Zm3.8,9.3l-3.3-8-3.4,8h6.7Z"/>
        <path class="cls-2" d="m206.11,74.18c-1,0-1.8-.3-2.6-.8-.7-.5-1.4-1.1-1.8-1.8v7h-1.1v-15.8h1v2.2c.5-.7,1.1-1.3,1.8-1.7.7-.4,1.6-.7,2.4-.7s1.5.2,2.1.5c.7.3,1.2.8,1.7,1.3s.8,1.1,1.1,1.8c.3.7.4,1.4.4,2.1,0,.8-.1,1.5-.4,2.2-.2.7-.6,1.3-1,1.8s-1,.9-1.6,1.3c-.5.4-1.2.6-2,.6h0Zm-.2-1c.6,0,1.2-.1,1.8-.4.5-.3,1-.6,1.3-1.1.4-.4.7-1,.9-1.5.2-.6.3-1.2.3-1.8s-.1-1.3-.3-1.8c-.2-.6-.5-1.1-1-1.5-.4-.4-.9-.8-1.4-1.1-.5-.3-1.1-.4-1.7-.4-.4,0-.8.1-1.2.2-.4.2-.8.4-1.2.7s-.7.6-1,1-.4.7-.5,1.1v3.7c.2.4.4.8.7,1.2.3.4.6.7,1,.9.4.3.7.5,1.2.6.2.1.6.2,1.1.2h0Z"/>
        <path class="cls-2" d="m219.21,74.18c-1,0-1.8-.3-2.6-.8-.7-.5-1.4-1.1-1.8-1.8v7h-1.1v-15.8h1v2.2c.5-.7,1.1-1.3,1.8-1.7.7-.4,1.6-.7,2.4-.7s1.5.2,2.1.5c.7.3,1.2.8,1.7,1.3s.8,1.1,1.1,1.8c.3.7.4,1.4.4,2.1,0,.8-.1,1.5-.4,2.2-.2.7-.6,1.3-1,1.8s-1,.9-1.6,1.3c-.5.4-1.2.6-2,.6h0Zm-.2-1c.6,0,1.2-.1,1.8-.4.5-.3,1-.6,1.3-1.1.4-.4.7-1,.9-1.5.2-.6.3-1.2.3-1.8s-.1-1.3-.3-1.8c-.2-.6-.5-1.1-1-1.5-.4-.4-.9-.8-1.4-1.1-.5-.3-1.1-.4-1.7-.4-.4,0-.8.1-1.2.2-.4.2-.8.4-1.2.7s-.7.6-1,1-.4.7-.5,1.1v3.7c.2.4.4.8.7,1.2.3.4.6.7,1,.9.4.3.7.5,1.2.6.2.1.6.2,1.1.2h0Z"/>
      </g>
      <rect class="cls-2" x="174.61" y="51.98" width="1.2" height="5.2"/>
      <rect class="cls-2" x="174.51" y="85.18" width="1.2" height="5.2"/>
      <rect class="cls-2" x="201.18" y="64.76" width="1.2" height="54.8" transform="translate(92.83 285.39) rotate(-85.13)"/>
      <polygon class="cls-2" points="229.21 94.78 228.01 94.78 228.01 47.68 229.21 47.58 229.21 94.78"/>
      <polygon class="cls-2" points="174.61 53.18 174.51 51.98 229.21 47.58 229.21 48.78 174.61 53.18"/>
      <g>
        <path class="cls-2" d="m151.81,82.58v1.1q0,.1-.1.2t-.2.1-.2-.1-.1-.2v-3.2c0-.1,0-.2.1-.2.1-.1.2-.1.3-.1h.8c.2,0,.4,0,.6.1.2.1.3.2.4.3.1.1.2.2.2.4,0,.1.1.3.1.5s0,.4-.1.5-.1.3-.3.4c-.1.1-.2.2-.4.2-.2.1-.3.1-.5.1l-.6-.1h0Zm0-.6h.5c.5,0,.7-.2.7-.7v-.2c0-.1-.1-.1-.1-.2q-.1-.1-.2-.1c-.1,0-.2-.1-.3-.1h-.5v1.3h-.1Z"/>
        <path class="cls-2" d="m154.31,83.78c0,.1-.1.1-.1.1-.1,0-.1.1-.2.1s-.1,0-.2-.1-.1-.1-.1-.2v-.1h0l1-3.2c0-.1.1-.2.1-.2q.1-.1.2-.1c.1,0,.2,0,.2.1q.1.1.1.2l1,3.2h0v.1q0,.1-.1.2t-.2.1c-.1,0-.2,0-.2-.1s-.1-.1-.1-.2l-.2-.5h-1.2v.6h0Zm.8-2.8c-.1.3-.1.6-.2.8-.1.3-.2.5-.2.8h.9c-.1-.3-.2-.5-.2-.8-.2-.3-.3-.5-.3-.8h0Z"/>
        <path class="cls-2" d="m157.51,82.58v1.1q0,.1-.1.2t-.2.1-.2-.1-.1-.2v-3.2c0-.1,0-.2.1-.2q.1-.1.2-.1h.8c.2,0,.4,0,.6.1.2.1.3.2.4.3.1.1.2.2.2.4,0,.1.1.3.1.5s0,.4-.1.5-.1.3-.3.4c-.1.1-.2.2-.4.2-.2.1-.3.1-.5.1l-.5-.1h0Zm0-.6h.5c.5,0,.7-.2.7-.7v-.2c0-.1-.1-.1-.1-.2q-.1-.1-.2-.1c-.1,0-.2-.1-.3-.1h-.5v1.3h-.1Z"/>
        <path class="cls-2" d="m162.01,83.58q0,.1-.1.2t-.2.1h-1.4c-.1,0-.2,0-.3-.1-.1,0-.1-.1-.1-.2v-3.1q0-.1.1-.2.1-.1.2-.1h1.4q.1,0,.2.1.1.1.1.2,0,.1-.1.2c-.1,0-.1.1-.2.1h-1.2v1h1.2q.1,0,.2.1.1.1.1.2,0,.1-.1.2-.1.1-.2.1h-1.1v1.1h1.2q.1,0,.2.1c.1-.1.1,0,.1,0h0Z"/>
        <path class="cls-2" d="m165.01,81.28c0,.3-.1.5-.2.7-.1.2-.3.3-.6.3.1.2.3.4.4.6.1.2.3.4.4.6v.2q0,.1-.1.2t-.2.1c-.1,0-.2,0-.2-.1l-.9-1.6h-.5v1.4q0,.1-.1.2-.1.1-.2.1-.1,0-.2-.1-.1-.1-.1-.2v-3.2c0-.1,0-.2.1-.2q.1-.1.2-.1h.9c.2,0,.4,0,.6.1.2.1.3.1.4.3.1.1.2.2.2.4.1,0,.1.1.1.3h0Zm-.6,0v-.2c0-.1-.1-.1-.1-.2s-.1-.1-.2-.1h-.9v1.1h.7c.2,0,.4,0,.5-.1-.1-.2,0-.4,0-.5h0Z"/>
        <path class="cls-2" d="m167.71,83.68q0,.1-.1.2t-.2.1h-1.5c-.1,0-.2,0-.2-.1-.1-.1-.1-.2-.1-.3v-3.2q0-.1.1-.2.1-.1.2-.1.1,0,.2.1.1.1.1.2v3h1.2q.1,0,.2.1c.1,0,.1.1.1.2h0Z"/>
        <path class="cls-2" d="m170.21,83.58q0,.1-.1.2t-.2.1h-1.4c-.1,0-.2,0-.3-.1-.1,0-.1-.1-.1-.2v-3.1q0-.1.1-.2.1-.1.2-.1h1.4q.1,0,.2.1.1.1.1.2,0,.1-.1.2c-.1,0-.1.1-.2.1h-1.2v1h1.1q.1,0,.2.1.1.1.1.2,0,.1-.1.2-.1.1-.2.1h-1.1v1.1h1.2q.1,0,.2.1c.2-.1.2,0,.2,0h0Z"/>
        <path class="cls-2" d="m172.31,82.88c0-.1,0-.2-.1-.3s-.1-.1-.2-.1-.2-.1-.3-.1-.2-.1-.3-.1-.2-.1-.3-.1-.2-.1-.3-.2c-.1-.1-.1-.2-.2-.3,0-.1-.1-.2-.1-.4,0-.3.1-.6.3-.8s.5-.3.8-.3h.3c.1,0,.2,0,.3.1s.2.1.3.1.1.1.1.2,0,.1-.1.2c0,.1-.1.1-.2.1h-.8q-.1,0-.2.1c-.1,0-.1.1-.1.2v.4q0,.1.1.1c.1,0,.1.1.1.1h.1c.1,0,.2.1.3.1s.2.1.3.1.2.1.3.1.2.1.3.2c.1.1.1.2.2.3,0,.1.1.2.1.4s0,.3-.1.5c-.1.1-.1.3-.3.4-.1.1-.2.2-.4.2s-.3.1-.5.1h-.3c-.1,0-.2,0-.3-.1-.1,0-.2-.1-.3-.1q-.1-.1-.1-.2t.1-.2.2-.1h.1s.1,0,.2.1.1,0,.2.1h.3c.2,0,.4,0,.5-.1,0-.4,0-.5,0-.7h0Z"/>
        <path class="cls-2" d="m175.01,82.88c0-.1,0-.2-.1-.3s-.1-.1-.2-.1-.2-.1-.3-.1-.2-.1-.3-.1-.2-.1-.3-.1-.2-.2-.2-.3c-.1-.1-.1-.2-.2-.3,0-.1-.1-.2-.1-.4,0-.3.1-.6.3-.8s.5-.3.8-.3h.3c.1,0,.2,0,.3.1s.2.1.3.1.1.1.1.2,0,.1-.1.2c0,.1-.1.1-.2.1h-.8q-.1,0-.2.1c-.1,0-.1.1-.1.2v.4q0,.1.1.1c.1,0,.1.1.1.1h.1c.1,0,.2.1.3.1s.2.1.3.1.2.1.3.1.2.1.3.2c.1.1.1.2.2.3,0,.1.1.2.1.4s0,.3-.1.5c-.1.1-.1.3-.3.4-.1.1-.2.2-.4.2-.1,0-.3.1-.5.1h-.3c-.1,0-.2,0-.3-.1-.1,0-.2-.1-.3-.1q-.1-.1-.1-.2t.1-.2.2-.1h.1s.1,0,.2.1.1,0,.2.1h.3c.2,0,.4,0,.5-.1-.1-.3-.1-.4-.1-.6h0Z"/>
        <path class="cls-2" d="m178.11,83.88c-.1,0-.2,0-.2-.1q-.1-.1-.1-.2v-3.1c0-.1,0-.2.1-.2s.1-.1.2-.1h.9c.2,0,.3,0,.5.1s.3.1.4.2c.1.1.2.2.2.3s.1.2.1.4v.3c0,.1-.1.2-.1.2q-.1.1-.2.2c-.1.1-.2.1-.2.1.1,0,.2.1.3.1s.2.1.2.2.1.1.2.2c0,.1.1.2.1.3s0,.3-.1.4c-.1.1-.1.2-.2.3s-.2.2-.4.2c-.1.1-.3.1-.5.1h-1.2v.1Zm.9-2.2h.2c.1,0,.1-.1.2-.1s.1-.1.1-.2v-.4q0-.1-.1-.1s-.1-.1-.2-.1h-.9v1l.7-.1h0Zm-.7.6v1.1h.6c.2,0,.4,0,.5-.1s.2-.2.2-.4-.1-.3-.2-.4c-.1-.1-.3-.1-.5-.1.1-.1-.6-.1-.6-.1Z"/>
        <path class="cls-2" d="m183.11,83.18c-.1.2-.1.3-.2.4-.1.1-.2.2-.4.3-.2.1-.3.1-.5.1s-.4,0-.5-.1c-.2-.1-.3-.2-.4-.3s-.2-.3-.2-.4c-.1-.2-.1-.3-.1-.5v-2.3q0-.1.1-.2t.2-.1.2.1.1.2v2.3c0,.2.1.4.2.5s.3.2.5.2.4-.1.5-.2c.1-.1.2-.3.2-.5v-2.3q0-.1.1-.2.1-.1.2-.1c.1,0,.2,0,.2.1q.1.1.1.2v2.3c-.2.2-.2.3-.3.5h0Z"/>
        <path class="cls-2" d="m185.41,82.88c0-.1,0-.2-.1-.3s-.1-.1-.2-.1-.2-.1-.3-.1-.2-.1-.3-.1-.2-.1-.3-.1-.2-.1-.3-.2c-.1-.1-.1-.2-.2-.3,0-.1-.1-.2-.1-.4,0-.3.1-.6.3-.8.2-.2.5-.3.8-.3h.3c.1,0,.2,0,.3.1s.2.1.3.1q.1.1.1.2t-.1.2c0,.1-.1.1-.2.1h-.8q-.1,0-.2.1c-.1,0-.1.1-.1.2v.4s0,.1.1.1.1.1.1.1h.1c.1,0,.2.1.3.1s.2.1.3.1.2.1.3.1.2.1.3.2c.1.1.1.2.2.3,0,.1.1.2.1.4s0,.3-.1.5c-.1.1-.1.3-.3.4-.1.1-.2.2-.4.2-.1,0-.3.1-.5.1h-.3c-.1,0-.2,0-.3-.1s-.2-.1-.3-.1q-.1-.1-.1-.2,0-.1.1-.2c0-.1.1-.1.2-.1h.1s.1,0,.2.1q.1,0,.2.1c.1.1.2,0,.3,0,.2,0,.4,0,.5-.1,0-.4,0-.5,0-.7h0Z"/>
        <path class="cls-2" d="m186.61,80.38q0-.1.1-.2t.2-.1.2.1.1.2v3.3q0,.1-.1.2-.1.1-.2.1-.1,0-.2-.1-.1-.1-.1-.2v-3.3Z"/>
        <path class="cls-2" d="m190.11,83.98h-.2c-.1,0-.1-.1-.1-.1l-1.4-2.5v2.4q0,.1-.1.2t-.2.1-.2-.1-.1-.2v-3.3c0-.1,0-.2.1-.2q.1-.1.2-.1h.2c.1,0,.1.1.1.1,0,.1.1.2.2.3s.2.3.2.4c.1.2.2.3.3.5.1.2.2.3.3.5.1.2.2.3.2.4.1.1.1.2.2.3v-2.4q0-.1.1-.2.1-.1.2-.1.1,0,.2.1.1.1.1.2v3.3q0,.1-.1.2c0,.2-.1.2-.2.2h0Z"/>
        <path class="cls-2" d="m193.31,83.58q0,.1-.1.2t-.2.1h-1.4c-.1,0-.2,0-.3-.1-.1,0-.1-.1-.1-.2v-3.1q0-.1.1-.2.1-.1.2-.1h1.4q.1,0,.2.1.1.1.1.2,0,.1-.1.2c-.1,0-.1.1-.2.1h-1.2v1h1.1q.1,0,.2.1.1.1.1.2,0,.1-.1.2-.1.1-.2.1h-1.1v1.1h1.2q.1,0,.2.1c.1.1.2,0,.2,0h0Z"/>
        <path class="cls-2" d="m195.41,82.88c0-.1,0-.2-.1-.3s-.1-.1-.2-.1-.2-.1-.3-.1-.2-.1-.3-.1-.2-.1-.3-.1-.2-.1-.3-.2c-.1-.1-.1-.2-.2-.3,0-.1-.1-.2-.1-.4,0-.3.1-.6.3-.8.2-.2.5-.3.8-.3h.3c.1,0,.2,0,.3.1.1,0,.2.1.3.1s.1.1.1.2,0,.1-.1.2c0,.1-.1.1-.2.1h-.8q-.1,0-.2.1c-.1,0-.1.1-.1.2v.4s0,.1.1.1.1.1.1.1h.1c.1,0,.2.1.3.1s.2.1.3.1.2.1.3.1.2.1.3.2c.1.1.1.2.2.3,0,.1.1.2.1.4s0,.3-.1.5c-.1.1-.1.3-.3.4-.1.1-.2.2-.4.2s-.3.1-.5.1h-.3c-.1,0-.2,0-.3-.1s-.2-.1-.3-.1q-.1-.1-.1-.2t.1-.2.2-.1h.1s.1,0,.2.1q.1,0,.2.1c.1.1.2,0,.3,0,.2,0,.4,0,.5-.1,0-.4,0-.5,0-.7h0Z"/>
        <path class="cls-2" d="m198.11,82.88c0-.1,0-.2-.1-.3s-.1-.1-.2-.1-.2-.1-.3-.1-.2-.1-.3-.1-.2-.1-.3-.1-.2-.1-.3-.2c-.1-.1-.1-.2-.2-.3,0-.1-.1-.2-.1-.4,0-.3.1-.6.3-.8.2-.2.5-.3.8-.3h.3c.1,0,.2,0,.3.1.1,0,.2.1.3.1q.1.1.1.2t-.1.2c0,.1-.1.1-.2.1h-.8q-.1,0-.2.1c-.1,0-.1.1-.1.2v.4s0,.1.1.1.1.1.1.1h.1c.1,0,.2.1.3.1s.2.1.3.1.2.1.3.1.2.1.3.2c.1.1.1.2.2.3,0,.1.1.2.1.4s0,.3-.1.5c-.1.1-.1.3-.3.4-.1.1-.2.2-.4.2-.1,0-.3.1-.5.1h-.3c-.1,0-.2,0-.3-.1-.1,0-.2-.1-.3-.1q-.1-.1-.1-.2,0-.1.1-.2c0-.1.1-.1.2-.1h.1s.1,0,.2.1q.1,0,.2.1h.3c.2,0,.4,0,.5-.1-.1-.4,0-.5,0-.7h0Z"/>
      </g>
    </g>
    <g>
      <path class="cls-2" d="m122.67,59.38l3.49,9.88,3.49-9.88h2.7l-5.09,13.08h-2.1l-5.09-13.08h2.6Z"/>
      <path class="cls-2" d="m136.85,72.66c-.8,0-1.5-.1-2.1-.4s-1.2-.6-1.6-1.1-.8-1-1-1.6c-.3-.6-.4-1.2-.4-1.9s.1-1.3.4-1.9c.2-.6.6-1.1,1-1.6s1-.8,1.6-1.1c.6-.3,1.3-.4,2.1-.4s1.5.1,2.1.4,1.1.6,1.6,1.1c.4.5.8,1,1,1.6s.3,1.2.3,1.9v.9h-7.49c0,.4.1.7.3,1,.1.3.3.5.6.8.2.2.5.4.8.5s.6.2.9.2c.5,0,1-.1,1.4-.4.4-.2.7-.6.9-.9l2.1.6c-.4.7-.9,1.3-1.7,1.8-.8.2-1.7.5-2.79.5h0Zm2.5-5.89c-.1-.7-.3-1.3-.8-1.7-.5-.4-1.1-.7-1.7-.7-.3,0-.6.1-.9.2s-.5.3-.8.5-.4.5-.5.8-.2.6-.3,1l4.99-.1h0Z"/>
      <path class="cls-2" d="m152.32,72.46h-2.5v-5.39c0-.8-.1-1.3-.4-1.7-.3-.4-.6-.5-1.1-.5-.2,0-.5,0-.8.1s-.5.2-.7.4c-.2.2-.4.4-.6.6-.2.2-.3.5-.4.8v5.59h-2.5v-9.68h2.2v1.8c.4-.6.9-1.1,1.5-1.4.7-.3,1.4-.5,2.3-.5.6,0,1.1.1,1.5.3.4.2.7.5.9.9s.4.8.4,1.2c.1.5.1.9.1,1.4v6.09h.1Z"/>
      <path class="cls-2" d="m158.51,72.66c-.7,0-1.3-.1-1.8-.4-.6-.3-1.1-.6-1.5-1.1s-.7-1-.9-1.6-.3-1.3-.3-2,.1-1.3.3-2c.2-.6.5-1.1.9-1.6s.8-.8,1.4-1.1,1.1-.4,1.7-.4c.7,0,1.4.2,1.9.5.6.3,1,.8,1.3,1.3v-5.29h2.5v10.58c0,.3,0,.4.1.5s.2.2.4.2v2.1c-.4.1-.8.1-1.1.1-.4,0-.8-.1-1.1-.3-.3-.2-.4-.5-.5-.9l-.1-.6c-.4.6-.8,1.1-1.5,1.4-.5.4-1.1.6-1.7.6h0Zm.6-2.1c.2,0,.5,0,.7-.1s.5-.2.7-.3c.2-.1.4-.3.6-.5.2-.2.3-.4.4-.6v-2.3c-.1-.3-.2-.5-.4-.7s-.4-.4-.6-.6c-.2-.2-.5-.3-.7-.4s-.5-.1-.7-.1c-.4,0-.7.1-1,.2-.3.2-.6.4-.8.7-.2.3-.4.6-.5.9-.1.4-.2.7-.2,1.1s.1.8.2,1.1c.1.3.3.6.5.9s.5.5.8.6c.2,0,.6.1,1,.1h0Z"/>
      <path class="cls-2" d="m170.78,72.66c-.8,0-1.5-.1-2.1-.4s-1.2-.6-1.6-1.1c-.4-.5-.8-1-1-1.6s-.4-1.3-.4-1.9c0-.7.1-1.3.4-1.9.2-.6.6-1.1,1-1.6s1-.8,1.6-1.1c.6-.3,1.3-.4,2.1-.4s1.5.1,2.1.4,1.1.6,1.6,1.1c.4.5.8,1,1,1.6s.4,1.2.4,1.9-.1,1.3-.4,1.9c-.2.6-.6,1.1-1,1.6s-1,.8-1.6,1.1-1.3.4-2.1.4Zm-2.5-4.99c0,.4.1.8.2,1.2s.3.7.5.9c.2.3.5.5.8.6s.6.2,1,.2.7-.1,1-.2c.3-.1.6-.3.8-.6.2-.3.4-.6.5-.9s.2-.8.2-1.2-.1-.8-.2-1.2c-.1-.4-.3-.7-.5-.9-.2-.3-.5-.5-.8-.6-.3-.1-.6-.2-1-.2s-.7.1-1,.2-.6.4-.8.6c-.2.3-.4.6-.5.9-.2.4-.2.8-.2,1.2Z"/>
      <path class="cls-2" d="m183.26,64.97c-.8,0-1.4.2-2,.4-.6.3-1,.7-1.3,1.2v5.79h-2.5v-9.68h2.3v2.1c.2-.3.4-.6.6-.9s.5-.5.8-.7.5-.3.8-.5c.3-.1.5-.2.8-.2h.5v2.5h0Z"/>
    </g>
  </g>
</svg>