<?xml version="1.0" encoding="utf-8"?>
<!-- Generator: Adobe Illustrator 27.9.0, SVG Export Plug-In . SVG Version: 6.00 Build 0)  -->
<svg version="1.1" id="Layer_1" xmlns="http://www.w3.org/2000/svg" xmlns:xlink="http://www.w3.org/1999/xlink" x="0px" y="0px"
	 viewBox="0 0 127.7 58.3" style="enable-background:new 0 0 127.7 58.3;" xml:space="preserve">
<style type="text/css">
	.st0{fill:#FFFFFF;}
</style>
<g>
	<g>
		<g>
			<path class="st0" d="M80.5,16.6h0.9l6.4,15.2h-1.2l-2.1-5h-7.3l-2.1,5h-1.2L80.5,16.6L80.5,16.6L80.5,16.6z M84.3,25.9l-3.3-8
				l-3.4,8H84.3z"/>
			<path class="st0" d="M95.3,32c-1,0-1.8-0.3-2.6-0.8c-0.7-0.5-1.4-1.1-1.8-1.8v7h-1.1V20.6h1v2.2c0.5-0.7,1.1-1.3,1.8-1.7
				c0.7-0.4,1.6-0.7,2.4-0.7s1.5,0.2,2.1,0.5c0.7,0.3,1.2,0.8,1.7,1.3s0.8,1.1,1.1,1.8c0.3,0.7,0.4,1.4,0.4,2.1
				c0,0.8-0.1,1.5-0.4,2.2c-0.2,0.7-0.6,1.3-1,1.8s-1,0.9-1.6,1.3C96.8,31.8,96.1,32,95.3,32L95.3,32z M95.1,31
				c0.6,0,1.2-0.1,1.8-0.4c0.5-0.3,1-0.6,1.3-1.1c0.4-0.4,0.7-1,0.9-1.5c0.2-0.6,0.3-1.2,0.3-1.8c0-0.6-0.1-1.3-0.3-1.8
				c-0.2-0.6-0.5-1.1-1-1.5c-0.4-0.4-0.9-0.8-1.4-1.1c-0.5-0.3-1.1-0.4-1.7-0.4c-0.4,0-0.8,0.1-1.2,0.2c-0.4,0.2-0.8,0.4-1.2,0.7
				s-0.7,0.6-1,1s-0.4,0.7-0.5,1.1v3.7c0.2,0.4,0.4,0.8,0.7,1.2c0.3,0.4,0.6,0.7,1,0.9c0.4,0.3,0.7,0.5,1.2,0.6
				C94.2,30.9,94.6,31,95.1,31L95.1,31L95.1,31z"/>
			<path class="st0" d="M108.4,32c-1,0-1.8-0.3-2.6-0.8c-0.7-0.5-1.4-1.1-1.8-1.8v7h-1.1V20.6h1v2.2c0.5-0.7,1.1-1.3,1.8-1.7
				c0.7-0.4,1.6-0.7,2.4-0.7s1.5,0.2,2.1,0.5c0.7,0.3,1.2,0.8,1.7,1.3s0.8,1.1,1.1,1.8c0.3,0.7,0.4,1.4,0.4,2.1
				c0,0.8-0.1,1.5-0.4,2.2c-0.2,0.7-0.6,1.3-1,1.8s-1,0.9-1.6,1.3C109.9,31.8,109.2,32,108.4,32L108.4,32L108.4,32z M108.2,31
				c0.6,0,1.2-0.1,1.8-0.4c0.5-0.3,1-0.6,1.3-1.1c0.4-0.4,0.7-1,0.9-1.5c0.2-0.6,0.3-1.2,0.3-1.8c0-0.6-0.1-1.3-0.3-1.8
				c-0.2-0.6-0.5-1.1-1-1.5c-0.4-0.4-0.9-0.8-1.4-1.1c-0.5-0.3-1.1-0.4-1.7-0.4c-0.4,0-0.8,0.1-1.2,0.2c-0.4,0.2-0.8,0.4-1.2,0.7
				s-0.7,0.6-1,1s-0.4,0.7-0.5,1.1v3.7c0.2,0.4,0.4,0.8,0.7,1.2c0.3,0.4,0.6,0.7,1,0.9c0.4,0.3,0.7,0.5,1.2,0.6
				C107.3,30.9,107.8,31,108.2,31L108.2,31L108.2,31z"/>
		</g>
		<rect x="63.8" y="9.8" class="st0" width="1.2" height="5.2"/>
		<rect x="63.7" y="43" class="st0" width="1.2" height="5.2"/>
		
			<rect x="90.4" y="22.5" transform="matrix(8.489358e-02 -0.9964 0.9964 8.489358e-02 33.5451 136.4208)" class="st0" width="1.2" height="54.8"/>
		<polygon class="st0" points="118.4,52.6 117.2,52.6 117.2,5.5 118.4,5.4 		"/>
		<polygon class="st0" points="63.8,11 63.7,9.8 118.4,5.4 118.4,6.6 		"/>
		<g>
			<path class="st0" d="M41,40.4v1.1c0,0.1,0,0.1-0.1,0.2s-0.1,0.1-0.2,0.1s-0.1,0-0.2-0.1s-0.1-0.1-0.1-0.2v-3.2
				c0-0.1,0-0.2,0.1-0.2c0.1-0.1,0.2-0.1,0.3-0.1h0.8c0.2,0,0.4,0,0.6,0.1c0.2,0.1,0.3,0.2,0.4,0.3c0.1,0.1,0.2,0.2,0.2,0.4
				c0,0.1,0.1,0.3,0.1,0.5s0,0.4-0.1,0.5s-0.1,0.3-0.3,0.4c-0.1,0.1-0.2,0.2-0.4,0.2c-0.2,0.1-0.3,0.1-0.5,0.1L41,40.4L41,40.4z
				 M41,39.8h0.5c0.5,0,0.7-0.2,0.7-0.7c0-0.1,0-0.2,0-0.2c0-0.1-0.1-0.1-0.1-0.2c-0.1-0.1-0.1-0.1-0.2-0.1c-0.1,0-0.2-0.1-0.3-0.1
				h-0.5v1.3H41L41,39.8z"/>
			<path class="st0" d="M43.5,41.6C43.5,41.7,43.4,41.7,43.5,41.6c-0.2,0.1-0.2,0.2-0.3,0.2s-0.1,0-0.2-0.1s-0.1-0.1-0.1-0.2
				c0,0,0,0,0-0.1l0,0l1-3.2c0-0.1,0.1-0.2,0.1-0.2c0.1-0.1,0.1-0.1,0.2-0.1c0.1,0,0.2,0,0.2,0.1c0.1,0.1,0.1,0.1,0.1,0.2l1,3.2l0,0
				c0,0,0,0,0,0.1s0,0.1-0.1,0.2s-0.1,0.1-0.2,0.1c-0.1,0-0.2,0-0.2-0.1s-0.1-0.1-0.1-0.2L44.7,41h-1.2V41.6L43.5,41.6L43.5,41.6z
				 M44.3,38.8c-0.1,0.3-0.1,0.6-0.2,0.8c-0.1,0.3-0.2,0.5-0.2,0.8h0.9c-0.1-0.3-0.2-0.5-0.2-0.8C44.4,39.3,44.3,39.1,44.3,38.8
				L44.3,38.8L44.3,38.8z"/>
			<path class="st0" d="M46.7,40.4v1.1c0,0.1,0,0.1-0.1,0.2c-0.1,0.1-0.1,0.1-0.2,0.1s-0.1,0-0.2-0.1c-0.1-0.1-0.1-0.1-0.1-0.2v-3.2
				c0-0.1,0-0.2,0.1-0.2c0.1-0.1,0.1-0.1,0.2-0.1h0.8c0.2,0,0.4,0,0.6,0.1c0.2,0.1,0.3,0.2,0.4,0.3c0.1,0.1,0.2,0.2,0.2,0.4
				c0,0.1,0.1,0.3,0.1,0.5s0,0.4-0.1,0.5s-0.1,0.3-0.3,0.4c-0.1,0.1-0.2,0.2-0.4,0.2c-0.2,0.1-0.3,0.1-0.5,0.1L46.7,40.4L46.7,40.4z
				 M46.7,39.8h0.5c0.5,0,0.7-0.2,0.7-0.7c0-0.1,0-0.2,0-0.2c0-0.1-0.1-0.1-0.1-0.2c-0.1-0.1-0.1-0.1-0.2-0.1s-0.2-0.1-0.3-0.1h-0.5
				v1.3H46.7L46.7,39.8z"/>
			<path class="st0" d="M51.2,41.4c0,0.1,0,0.1-0.1,0.2c-0.1,0.1-0.1,0.1-0.2,0.1h-1.4c-0.1,0-0.2,0-0.3-0.1c-0.1,0-0.1-0.1-0.1-0.2
				v-3.1c0-0.1,0-0.1,0.1-0.2c0.1-0.1,0.1-0.1,0.2-0.1h1.4c0.1,0,0.1,0,0.2,0.1c0.1,0.1,0.1,0.1,0.1,0.2c0,0.1,0,0.1-0.1,0.2
				c-0.1,0-0.1,0.1-0.2,0.1h-1.2v1h1.2c0.1,0,0.1,0,0.2,0.1c0.1,0.1,0.1,0.1,0.1,0.2c0,0.1,0,0.1-0.1,0.2c-0.1,0.1-0.1,0.1-0.2,0.1
				h-1.1v1.1h1.2C51,41.3,51,41.3,51.2,41.4C51.2,41.3,51.2,41.4,51.2,41.4L51.2,41.4L51.2,41.4z"/>
			<path class="st0" d="M54.2,39.1c0,0.3-0.1,0.5-0.2,0.7c-0.1,0.2-0.3,0.3-0.6,0.3c0.1,0.2,0.3,0.4,0.4,0.6
				c0.1,0.2,0.3,0.4,0.4,0.6c0,0,0,0,0,0.1v0.1c0,0.1,0,0.1-0.1,0.2s-0.1,0.1-0.2,0.1s-0.2,0-0.2-0.1l-0.9-1.6h-0.5v1.4
				c0,0.1,0,0.1-0.1,0.2c-0.1,0.1-0.1,0.1-0.2,0.1c-0.1,0-0.1,0-0.2-0.1c-0.1-0.1-0.1-0.1-0.1-0.2v-3.2c0-0.1,0-0.2,0.1-0.2
				C51.9,38,51.9,38,52,38h0.9c0.2,0,0.4,0,0.6,0.1c0.2,0.1,0.3,0.1,0.4,0.3c0.1,0.1,0.2,0.2,0.2,0.4C54.2,38.8,54.2,38.9,54.2,39.1
				L54.2,39.1L54.2,39.1z M53.6,39.1c0-0.1,0-0.1,0-0.2c0-0.1-0.1-0.1-0.1-0.2s-0.1-0.1-0.2-0.1c-0.1,0-0.2,0-0.3,0h-0.6v1.1h0.7
				c0.2,0,0.4,0,0.5-0.1C53.5,39.4,53.6,39.2,53.6,39.1L53.6,39.1L53.6,39.1z"/>
			<path class="st0" d="M56.9,41.5c0,0.1,0,0.1-0.1,0.2c-0.1,0.1-0.1,0.1-0.2,0.1h-1.5c-0.1,0-0.2,0-0.2-0.1
				c-0.1-0.1-0.1-0.2-0.1-0.3v-3.2c0-0.1,0-0.1,0.1-0.2c0.1-0.1,0.1-0.1,0.2-0.1s0.1,0,0.2,0.1c0.1,0.1,0.1,0.1,0.1,0.2v3h1.2
				c0.1,0,0.1,0,0.2,0.1C56.9,41.3,56.9,41.4,56.9,41.5L56.9,41.5z"/>
			<path class="st0" d="M59.4,41.4c0,0.1,0,0.1-0.1,0.2c-0.1,0.1-0.1,0.1-0.2,0.1h-1.4c-0.1,0-0.2,0-0.3-0.1c-0.1,0-0.1-0.1-0.1-0.2
				v-3.1c0-0.1,0-0.1,0.1-0.2s0.1-0.1,0.2-0.1H59c0.1,0,0.1,0,0.2,0.1c0.1,0.1,0.1,0.1,0.1,0.2c0,0.1,0,0.1-0.1,0.2
				c-0.1,0-0.1,0.1-0.2,0.1h-1.2v1h1.1c0.1,0,0.1,0,0.2,0.1c0.1,0.1,0.1,0.1,0.1,0.2c0,0.1,0,0.1-0.1,0.2c-0.1,0.1-0.1,0.1-0.2,0.1
				h-1.1v1.1H59c0.1,0,0.1,0,0.2,0.1C59.4,41.3,59.4,41.4,59.4,41.4L59.4,41.4L59.4,41.4z"/>
			<path class="st0" d="M61.5,40.7c0-0.1,0-0.2-0.1-0.3s-0.1-0.1-0.2-0.1c-0.1,0-0.2-0.1-0.3-0.1s-0.2-0.1-0.3-0.1S60.4,40,60.3,40
				s-0.2-0.1-0.3-0.2c-0.1-0.1-0.1-0.2-0.2-0.3c0-0.1-0.1-0.2-0.1-0.4c0-0.3,0.1-0.6,0.3-0.8s0.5-0.3,0.8-0.3c0.1,0,0.2,0,0.3,0
				s0.2,0,0.3,0.1s0.2,0.1,0.3,0.1s0.1,0.1,0.1,0.2c0,0.1,0,0.1-0.1,0.2c0,0.1-0.1,0.1-0.2,0.1h-0.1h-0.1c0,0-0.1,0-0.2,0
				s-0.1,0-0.2,0c-0.1,0-0.1,0-0.2,0s-0.1,0-0.2,0.1c-0.1,0-0.1,0.1-0.1,0.2c0,0.1,0,0.1,0,0.2c0,0.1,0,0.1,0,0.2s0,0.1,0.1,0.1
				s0.1,0.1,0.1,0.1h0.1c0.1,0,0.2,0.1,0.3,0.1s0.2,0.1,0.3,0.1s0.2,0.1,0.3,0.1s0.2,0.1,0.3,0.2c0.1,0.1,0.1,0.2,0.2,0.3
				c0,0.1,0.1,0.2,0.1,0.4s0,0.3-0.1,0.5c-0.1,0.1-0.1,0.3-0.3,0.4c-0.1,0.1-0.2,0.2-0.4,0.2S61.1,42,60.9,42c-0.1,0-0.2,0-0.3,0
				s-0.2,0-0.3-0.1c-0.1,0-0.2-0.1-0.3-0.1c-0.1-0.1-0.1-0.1-0.1-0.2c0-0.1,0-0.1,0.1-0.2s0.1-0.1,0.2-0.1h0.1c0,0,0.1,0,0.2,0.1
				s0.1,0,0.2,0.1c0.1,0,0.2,0,0.3,0c0.2,0,0.4,0,0.5-0.1C61.5,41,61.5,40.9,61.5,40.7L61.5,40.7L61.5,40.7z"/>
			<path class="st0" d="M64.2,40.7c0-0.1,0-0.2-0.1-0.3s-0.1-0.1-0.2-0.1c-0.1,0-0.2-0.1-0.3-0.1s-0.2-0.1-0.3-0.1S63.1,40,63,40
				s-0.2-0.2-0.2-0.3c-0.1-0.1-0.1-0.2-0.2-0.3c0-0.1-0.1-0.2-0.1-0.4c0-0.3,0.1-0.6,0.3-0.8s0.5-0.3,0.8-0.3c0.1,0,0.2,0,0.3,0
				s0.2,0,0.3,0.1s0.2,0.1,0.3,0.1s0.1,0.1,0.1,0.2c0,0.1,0,0.1-0.1,0.2c0,0.1-0.1,0.1-0.2,0.1h-0.1h-0.1c0,0-0.1,0-0.2,0
				c-0.1,0-0.1,0-0.2,0c-0.1,0-0.1,0-0.2,0s-0.1,0-0.2,0.1c-0.1,0-0.1,0.1-0.1,0.2c0,0.1,0,0.1,0,0.2c0,0.1,0,0.1,0,0.2
				s0,0.1,0.1,0.1s0.1,0.1,0.1,0.1h0.1c0.1,0,0.2,0.1,0.3,0.1s0.2,0.1,0.3,0.1s0.2,0.1,0.3,0.1s0.2,0.1,0.3,0.2
				c0.1,0.1,0.1,0.2,0.2,0.3c0,0.1,0.1,0.2,0.1,0.4s0,0.3-0.1,0.5c-0.1,0.1-0.1,0.3-0.3,0.4c-0.1,0.1-0.2,0.2-0.4,0.2
				c-0.1,0-0.3,0.1-0.5,0.1c-0.1,0-0.2,0-0.3,0s-0.2,0-0.3-0.1c-0.1,0-0.2-0.1-0.3-0.1c-0.1-0.1-0.1-0.1-0.1-0.2
				c0-0.1,0-0.1,0.1-0.2s0.1-0.1,0.2-0.1h0.1c0,0,0.1,0,0.2,0.1s0.1,0,0.2,0.1c0.1,0,0.2,0,0.3,0c0.2,0,0.4,0,0.5-0.1
				C64.2,41,64.2,40.9,64.2,40.7L64.2,40.7L64.2,40.7z"/>
			<path class="st0" d="M67.3,41.7c-0.1,0-0.2,0-0.2-0.1c-0.1-0.1-0.1-0.1-0.1-0.2v-3.1c0-0.1,0-0.2,0.1-0.2s0.1-0.1,0.2-0.1h0.9
				c0.2,0,0.3,0,0.5,0.1s0.3,0.1,0.4,0.2c0.1,0.1,0.2,0.2,0.2,0.3s0.1,0.2,0.1,0.4c0,0.1,0,0.2,0,0.3s-0.1,0.2-0.1,0.2
				c-0.1,0.1-0.1,0.1-0.2,0.2s-0.2,0.1-0.2,0.1c0.1,0,0.2,0.1,0.3,0.1c0.1,0,0.2,0.1,0.2,0.2s0.1,0.1,0.2,0.2c0,0.1,0.1,0.2,0.1,0.3
				s0,0.3-0.1,0.4c-0.1,0.1-0.1,0.2-0.2,0.3s-0.2,0.2-0.4,0.2c-0.1,0.1-0.3,0.1-0.5,0.1L67.3,41.7L67.3,41.7z M68.2,39.5
				c0.1,0,0.1,0,0.2,0s0.1-0.1,0.2-0.1s0.1-0.1,0.1-0.2c0-0.1,0-0.1,0-0.2c0-0.1,0-0.1,0-0.2c0-0.1,0-0.1-0.1-0.1
				c0,0-0.1-0.1-0.2-0.1s-0.1,0-0.2,0h-0.7v1L68.2,39.5L68.2,39.5z M67.5,40.1v1.1h0.6c0.2,0,0.4,0,0.5-0.1s0.2-0.2,0.2-0.4
				s-0.1-0.3-0.2-0.4c-0.1-0.1-0.3-0.1-0.5-0.1C68.2,40.1,67.5,40.1,67.5,40.1z"/>
			<path class="st0" d="M72.3,41c-0.1,0.2-0.1,0.3-0.2,0.4c-0.1,0.1-0.2,0.2-0.4,0.3s-0.3,0.1-0.5,0.1s-0.4,0-0.5-0.1
				c-0.2-0.1-0.3-0.2-0.4-0.3s-0.2-0.3-0.2-0.4c-0.1-0.2-0.1-0.3-0.1-0.5v-2.3c0-0.1,0-0.1,0.1-0.2c0.1-0.1,0.1-0.1,0.2-0.1
				s0.1,0,0.2,0.1s0.1,0.1,0.1,0.2v2.3c0,0.2,0.1,0.4,0.2,0.5s0.3,0.2,0.5,0.2s0.4-0.1,0.5-0.2c0.1-0.1,0.2-0.3,0.2-0.5v-2.3
				c0-0.1,0-0.1,0.1-0.2c0.1-0.1,0.1-0.1,0.2-0.1s0.2,0,0.2,0.1c0.1,0.1,0.1,0.1,0.1,0.2v2.3C72.4,40.7,72.4,40.8,72.3,41L72.3,41z"
				/>
			<path class="st0" d="M74.6,40.7c0-0.1,0-0.2-0.1-0.3s-0.1-0.1-0.2-0.1s-0.2-0.1-0.3-0.1c-0.1,0-0.2-0.1-0.3-0.1
				c-0.1,0-0.2-0.1-0.3-0.1s-0.2-0.1-0.3-0.2c-0.1-0.1-0.1-0.2-0.2-0.3c0-0.1-0.1-0.2-0.1-0.4c0-0.3,0.1-0.6,0.3-0.8
				c0.2-0.2,0.5-0.3,0.8-0.3c0.1,0,0.2,0,0.3,0c0.1,0,0.2,0,0.3,0.1s0.2,0.1,0.3,0.1c0.1,0.1,0.1,0.1,0.1,0.2c0,0.1,0,0.1-0.1,0.2
				c0,0.1-0.1,0.1-0.2,0.1h-0.1h-0.1c0,0-0.1,0-0.2,0s-0.1,0-0.2,0s-0.1,0-0.2,0s-0.1,0-0.2,0.1c-0.1,0-0.1,0.1-0.1,0.2
				c0,0.1,0,0.1,0,0.2c0,0.1,0,0.1,0,0.2c0,0,0,0.1,0.1,0.1s0.1,0.1,0.1,0.1h0.1c0.1,0,0.2,0.1,0.3,0.1c0.1,0,0.2,0.1,0.3,0.1
				s0.2,0.1,0.3,0.1c0.1,0,0.2,0.1,0.3,0.2c0.1,0.1,0.1,0.2,0.2,0.3c0,0.1,0.1,0.2,0.1,0.4s0,0.3-0.1,0.5c-0.1,0.1-0.1,0.3-0.3,0.4
				c-0.1,0.1-0.2,0.2-0.4,0.2c-0.1,0-0.3,0.1-0.5,0.1c-0.1,0-0.2,0-0.3,0s-0.2,0-0.3-0.1s-0.2-0.1-0.3-0.1C73,41.7,73,41.7,73,41.6
				c0-0.1,0-0.1,0.1-0.2c0-0.1,0.1-0.1,0.2-0.1h0.1c0,0,0.1,0,0.2,0.1c0.1,0,0.1,0,0.2,0.1s0.2,0,0.3,0c0.2,0,0.4,0,0.5-0.1
				C74.6,41,74.6,40.9,74.6,40.7L74.6,40.7L74.6,40.7z"/>
			<path class="st0" d="M75.8,38.2c0-0.1,0-0.1,0.1-0.2c0.1-0.1,0.1-0.1,0.2-0.1s0.1,0,0.2,0.1s0.1,0.1,0.1,0.2v3.3
				c0,0.1,0,0.1-0.1,0.2c-0.1,0.1-0.1,0.1-0.2,0.1s-0.1,0-0.2-0.1s-0.1-0.1-0.1-0.2V38.2z"/>
			<path class="st0" d="M79.3,41.8c-0.1,0-0.1,0-0.2,0s-0.1-0.1-0.1-0.1l-1.4-2.5v2.4c0,0.1,0,0.1-0.1,0.2c-0.1,0.1-0.1,0.1-0.2,0.1
				s-0.1,0-0.2-0.1s-0.1-0.1-0.1-0.2v-3.3c0-0.1,0-0.2,0.1-0.2c0.1-0.1,0.1-0.1,0.2-0.1s0.1,0,0.2,0s0.1,0.1,0.1,0.1
				c0,0.1,0.1,0.2,0.2,0.3s0.2,0.3,0.2,0.4c0.1,0.2,0.2,0.3,0.3,0.5c0.1,0.2,0.2,0.3,0.3,0.5c0.1,0.2,0.2,0.3,0.2,0.4
				c0.1,0.1,0.1,0.2,0.2,0.3v-2.4c0-0.1,0-0.1,0.1-0.2c0.1-0.1,0.1-0.1,0.2-0.1s0.1,0,0.2,0.1s0.1,0.1,0.1,0.2v3.3
				c0,0.1,0,0.1-0.1,0.2C79.5,41.8,79.4,41.8,79.3,41.8L79.3,41.8L79.3,41.8z"/>
			<path class="st0" d="M82.5,41.4c0,0.1,0,0.1-0.1,0.2c-0.1,0.1-0.1,0.1-0.2,0.1h-1.4c-0.1,0-0.2,0-0.3-0.1c-0.1,0-0.1-0.1-0.1-0.2
				v-3.1c0-0.1,0-0.1,0.1-0.2c0.1-0.1,0.1-0.1,0.2-0.1h1.4c0.1,0,0.1,0,0.2,0.1s0.1,0.1,0.1,0.2c0,0.1,0,0.1-0.1,0.2
				c-0.1,0-0.1,0.1-0.2,0.1h-1.2v1H82c0.1,0,0.1,0,0.2,0.1s0.1,0.1,0.1,0.2c0,0.1,0,0.1-0.1,0.2s-0.1,0.1-0.2,0.1h-1.1v1.1h1.2
				c0.1,0,0.1,0,0.2,0.1S82.5,41.4,82.5,41.4L82.5,41.4L82.5,41.4z"/>
			<path class="st0" d="M84.6,40.7c0-0.1,0-0.2-0.1-0.3s-0.1-0.1-0.2-0.1s-0.2-0.1-0.3-0.1c-0.1,0-0.2-0.1-0.3-0.1
				c-0.1,0-0.2-0.1-0.3-0.1s-0.2-0.1-0.3-0.2c-0.1-0.1-0.1-0.2-0.2-0.3c0-0.1-0.1-0.2-0.1-0.4c0-0.3,0.1-0.6,0.3-0.8
				c0.2-0.2,0.5-0.3,0.8-0.3c0.1,0,0.2,0,0.3,0c0.1,0,0.2,0,0.3,0.1c0.1,0,0.2,0.1,0.3,0.1s0.1,0.1,0.1,0.2c0,0.1,0,0.1-0.1,0.2
				c0,0.1-0.1,0.1-0.2,0.1h-0.1h-0.1c0,0-0.1,0-0.2,0s-0.1,0-0.2,0s-0.1,0-0.2,0s-0.1,0-0.2,0.1c-0.1,0-0.1,0.1-0.1,0.2
				c0,0.1,0,0.1,0,0.2c0,0.1,0,0.1,0,0.2c0,0,0,0.1,0.1,0.1s0.1,0.1,0.1,0.1h0.1c0.1,0,0.2,0.1,0.3,0.1c0.1,0,0.2,0.1,0.3,0.1
				s0.2,0.1,0.3,0.1c0.1,0,0.2,0.1,0.3,0.2c0.1,0.1,0.1,0.2,0.2,0.3c0,0.1,0.1,0.2,0.1,0.4s0,0.3-0.1,0.5c-0.1,0.1-0.1,0.3-0.3,0.4
				c-0.1,0.1-0.2,0.2-0.4,0.2S84.3,42,84.1,42c-0.1,0-0.2,0-0.3,0s-0.2,0-0.3-0.1s-0.2-0.1-0.3-0.1C83,41.7,83,41.7,83,41.6
				c0-0.1,0-0.1,0.1-0.2s0.1-0.1,0.2-0.1h0.1c0,0,0.1,0,0.2,0.1c0.1,0,0.1,0,0.2,0.1s0.2,0,0.3,0c0.2,0,0.4,0,0.5-0.1
				C84.6,41,84.6,40.9,84.6,40.7L84.6,40.7L84.6,40.7z"/>
			<path class="st0" d="M87.3,40.7c0-0.1,0-0.2-0.1-0.3s-0.1-0.1-0.2-0.1s-0.2-0.1-0.3-0.1c-0.1,0-0.2-0.1-0.3-0.1
				c-0.1,0-0.2-0.1-0.3-0.1c-0.1,0-0.2-0.1-0.3-0.2c-0.1-0.1-0.1-0.2-0.2-0.3c0-0.1-0.1-0.2-0.1-0.4c0-0.3,0.1-0.6,0.3-0.8
				c0.2-0.2,0.5-0.3,0.8-0.3c0.1,0,0.2,0,0.3,0c0.1,0,0.2,0,0.3,0.1c0.1,0,0.2,0.1,0.3,0.1c0.1,0.1,0.1,0.1,0.1,0.2
				c0,0.1,0,0.1-0.1,0.2c0,0.1-0.1,0.1-0.2,0.1h-0.1h-0.1c0,0-0.1,0-0.2,0s-0.1,0-0.2,0s-0.1,0-0.2,0s-0.1,0-0.2,0.1
				c-0.1,0-0.1,0.1-0.1,0.2c0,0.1,0,0.1,0,0.2c0,0.1,0,0.1,0,0.2c0,0,0,0.1,0.1,0.1s0.1,0.1,0.1,0.1h0.1c0.1,0,0.2,0.1,0.3,0.1
				c0.1,0,0.2,0.1,0.3,0.1c0.1,0,0.2,0.1,0.3,0.1c0.1,0,0.2,0.1,0.3,0.2c0.1,0.1,0.1,0.2,0.2,0.3c0,0.1,0.1,0.2,0.1,0.4
				s0,0.3-0.1,0.5c-0.1,0.1-0.1,0.3-0.3,0.4c-0.1,0.1-0.2,0.2-0.4,0.2c-0.1,0-0.3,0.1-0.5,0.1c-0.1,0-0.2,0-0.3,0
				c-0.1,0-0.2,0-0.3-0.1c-0.1,0-0.2-0.1-0.3-0.1c-0.1-0.1-0.1-0.1-0.1-0.2c0-0.1,0-0.1,0.1-0.2c0-0.1,0.1-0.1,0.2-0.1h0.1
				c0,0,0.1,0,0.2,0.1c0.1,0,0.1,0,0.2,0.1c0.1,0,0.2,0,0.3,0c0.2,0,0.4,0,0.5-0.1C87.2,41,87.3,40.9,87.3,40.7L87.3,40.7L87.3,40.7
				z"/>
		</g>
	</g>
	<g>
		<path class="st0" d="M11.8,17.2l3.5,9.9l3.5-9.9h2.7l-5.1,13.1h-2.1L9.2,17.2H11.8L11.8,17.2z"/>
		<path class="st0" d="M26,30.5c-0.8,0-1.5-0.1-2.1-0.4s-1.2-0.6-1.6-1.1s-0.8-1-1-1.6c-0.3-0.6-0.4-1.2-0.4-1.9
			c0-0.7,0.1-1.3,0.4-1.9c0.2-0.6,0.6-1.1,1-1.6s1-0.8,1.6-1.1c0.6-0.3,1.3-0.4,2.1-0.4s1.5,0.1,2.1,0.4s1.1,0.6,1.6,1.1
			c0.4,0.5,0.8,1,1,1.6s0.3,1.2,0.3,1.9c0,0.2,0,0.3,0,0.5c0,0.1,0,0.3,0,0.4h-7.5c0,0.4,0.1,0.7,0.3,1c0.1,0.3,0.3,0.5,0.6,0.8
			c0.2,0.2,0.5,0.4,0.8,0.5s0.6,0.2,0.9,0.2c0.5,0,1-0.1,1.4-0.4c0.4-0.2,0.7-0.6,0.9-0.9l2.1,0.6c-0.4,0.7-0.9,1.3-1.7,1.8
			C28,30.2,27.1,30.5,26,30.5L26,30.5z M28.5,24.6c-0.1-0.7-0.3-1.3-0.8-1.7c-0.5-0.4-1.1-0.7-1.7-0.7c-0.3,0-0.6,0.1-0.9,0.2
			s-0.5,0.3-0.8,0.5s-0.4,0.5-0.5,0.8s-0.2,0.6-0.3,1L28.5,24.6L28.5,24.6z"/>
		<path class="st0" d="M41.5,30.3H39v-5.4c0-0.8-0.1-1.3-0.4-1.7c-0.3-0.4-0.6-0.5-1.1-0.5c-0.2,0-0.5,0-0.8,0.1S36.2,23,36,23.2
			s-0.4,0.4-0.6,0.6c-0.2,0.2-0.3,0.5-0.4,0.8v5.6h-2.5v-9.7h2.2v1.8c0.4-0.6,0.9-1.1,1.5-1.4c0.7-0.3,1.4-0.5,2.3-0.5
			c0.6,0,1.1,0.1,1.5,0.3c0.4,0.2,0.7,0.5,0.9,0.9s0.4,0.8,0.4,1.2c0.1,0.5,0.1,0.9,0.1,1.4L41.5,30.3L41.5,30.3z"/>
		<path class="st0" d="M47.7,30.5c-0.7,0-1.3-0.1-1.8-0.4c-0.6-0.3-1.1-0.6-1.5-1.1s-0.7-1-0.9-1.6s-0.3-1.3-0.3-2s0.1-1.3,0.3-2
			c0.2-0.6,0.5-1.1,0.9-1.6s0.8-0.8,1.4-1.1c0.6-0.3,1.1-0.4,1.7-0.4c0.7,0,1.4,0.2,1.9,0.5c0.6,0.3,1,0.8,1.3,1.3v-5.3h2.5v10.6
			c0,0.3,0,0.4,0.1,0.5s0.2,0.2,0.4,0.2v2.1c-0.4,0.1-0.8,0.1-1.1,0.1c-0.4,0-0.8-0.1-1.1-0.3c-0.3-0.2-0.4-0.5-0.5-0.9l-0.1-0.6
			c-0.4,0.6-0.8,1.1-1.5,1.4C48.9,30.3,48.3,30.5,47.7,30.5L47.7,30.5z M48.3,28.4c0.2,0,0.5,0,0.7-0.1s0.5-0.2,0.7-0.3
			c0.2-0.1,0.4-0.3,0.6-0.5c0.2-0.2,0.3-0.4,0.4-0.6v-2.3c-0.1-0.3-0.2-0.5-0.4-0.7s-0.4-0.4-0.6-0.6c-0.2-0.2-0.5-0.3-0.7-0.4
			s-0.5-0.1-0.7-0.1c-0.4,0-0.7,0.1-1,0.2c-0.3,0.2-0.6,0.4-0.8,0.7s-0.4,0.6-0.5,0.9c-0.1,0.4-0.2,0.7-0.2,1.1s0.1,0.8,0.2,1.1
			c0.1,0.3,0.3,0.6,0.5,0.9s0.5,0.5,0.8,0.6C47.5,28.3,47.9,28.4,48.3,28.4L48.3,28.4z"/>
		<path class="st0" d="M60,30.5c-0.8,0-1.5-0.1-2.1-0.4s-1.2-0.6-1.6-1.1s-0.8-1-1-1.6s-0.4-1.3-0.4-1.9c0-0.7,0.1-1.3,0.4-1.9
			c0.2-0.6,0.6-1.1,1-1.6s1-0.8,1.6-1.1c0.6-0.3,1.3-0.4,2.1-0.4s1.5,0.1,2.1,0.4s1.1,0.6,1.6,1.1c0.4,0.5,0.8,1,1,1.6
			c0.2,0.6,0.4,1.2,0.4,1.9c0,0.7-0.1,1.3-0.4,1.9c-0.2,0.6-0.6,1.1-1,1.6s-1,0.8-1.6,1.1C61.5,30.4,60.8,30.5,60,30.5z M57.5,25.5
			c0,0.4,0.1,0.8,0.2,1.2c0.1,0.4,0.3,0.7,0.5,0.9c0.2,0.3,0.5,0.5,0.8,0.6s0.6,0.2,1,0.2s0.7-0.1,1-0.2s0.6-0.3,0.8-0.6
			c0.2-0.3,0.4-0.6,0.5-0.9s0.2-0.8,0.2-1.2s-0.1-0.8-0.2-1.2c-0.1-0.4-0.3-0.7-0.5-0.9c-0.2-0.3-0.5-0.5-0.8-0.6s-0.6-0.2-1-0.2
			s-0.7,0.1-1,0.2s-0.6,0.4-0.8,0.6c-0.2,0.3-0.4,0.6-0.5,0.9C57.5,24.7,57.5,25.1,57.5,25.5z"/>
		<path class="st0" d="M72.4,22.8c-0.8,0-1.4,0.2-2,0.4c-0.6,0.3-1,0.7-1.3,1.2v5.8h-2.5v-9.7h2.3v2.1c0.2-0.3,0.4-0.6,0.6-0.9
			s0.5-0.5,0.8-0.7s0.5-0.3,0.8-0.5c0.3-0.1,0.5-0.2,0.8-0.2h0.3c0.1,0,0.1,0,0.2,0L72.4,22.8L72.4,22.8z"/>
	</g>
</g>
</svg>
