<svg width="250" height="55" viewBox="0 0 250 55" fill="none" xmlns="http://www.w3.org/2000/svg">
<g clip-path="url(#clip0_101_201)">
<path d="M53.7755 0.0256598L0 13.5216V17.156C20.7362 17.156 37.541 34.1016 37.541 55H41.1464L54.7379 0.995886C54.8856 0.41067 54.3611 -0.123211 53.7806 0.0256598H53.7755Z" fill="#D9E821"/>
<path d="M-4.05964e-06 33.3932V36.9713C9.86393 36.9713 17.8844 45.0616 17.8844 55H21.4338C21.4338 43.0852 11.8194 33.3881 -0.00509644 33.3881L-4.05964e-06 33.3932Z" fill="#D9E821"/>
<path d="M0 23.4805V27.0585C15.2822 27.0585 27.7178 39.5945 27.7178 55H31.2672C31.2672 37.6181 17.2428 23.4805 0 23.4805Z" fill="#D9E821"/>
<path d="M77.8879 46.1807H73.6154V23.963H66.1041V20.2823H85.4144V23.963H77.8879V46.1807Z" fill="white"/>
<path d="M98.4967 20.2823C100.305 20.2823 101.853 20.6109 103.146 21.268C104.44 21.9251 105.427 22.8542 106.12 24.0452C106.813 25.2361 107.154 26.6427 107.154 28.2495C107.154 29.4764 106.94 30.575 106.512 31.54C106.084 32.5051 105.514 33.3265 104.801 33.999C104.088 34.6715 103.294 35.1694 102.428 35.498L107.622 46.1807H102.82L98.2065 36.2166H92.8798V46.1807H88.6634V20.2823H98.4865H98.4967ZM92.8849 32.808H97.7787C99.3573 32.808 100.585 32.4384 101.45 31.6992C102.316 30.96 102.749 29.8614 102.749 28.4086C102.749 26.9559 102.311 25.7957 101.44 25.0051C100.569 24.2146 99.3828 23.8193 97.8907 23.8193H92.8849V32.8131V32.808Z" fill="white"/>
<path d="M122.446 20.2823C124.203 20.2823 125.71 20.6468 126.973 21.3758C128.236 22.1047 129.204 23.0955 129.881 24.3532C130.558 25.6109 130.9 27.0431 130.9 28.6499C130.9 30.2567 130.558 31.6889 129.876 32.9466C129.194 34.2043 128.221 35.1951 126.958 35.9138C125.695 36.6325 124.183 36.9969 122.411 36.9969H116.86V46.1807H112.587V20.2823H122.451H122.446ZM126.535 28.6499C126.535 27.1201 126.123 25.9343 125.293 25.1027C124.463 24.2711 123.302 23.8501 121.81 23.8501H116.839V33.4702H121.81C122.803 33.4702 123.648 33.2803 124.351 32.9004C125.053 32.5205 125.593 31.9764 125.97 31.2577C126.347 30.539 126.535 29.6715 126.535 28.6499Z" fill="white"/>
<path d="M139.007 46.1807H134.734V20.2823H139.007V46.1807Z" fill="#D9E821"/>
<path d="M144.578 46.1807V26.1242H148.682V29.7279H148.891C149.064 29.1992 149.364 28.6294 149.787 28.0185C150.21 27.4076 150.826 26.8943 151.641 26.463C152.456 26.0318 153.535 25.8162 154.88 25.8162C156.876 25.8162 158.49 26.3809 159.727 27.5051C160.965 28.6294 161.581 30.3388 161.581 32.6283V46.1756H157.4V33.8604C157.4 32.8337 157.232 31.9969 156.901 31.345C156.57 30.693 156.107 30.2053 155.516 29.8819C154.925 29.5585 154.238 29.3994 153.443 29.3994C152.425 29.3994 151.569 29.6407 150.872 30.1283C150.174 30.616 149.65 31.2834 149.293 32.1304C148.937 32.9774 148.758 33.9476 148.758 35.0359V46.1756H144.578V46.1807Z" fill="#D9E821"/>
<path d="M165.955 31.9713C165.955 30.5031 166.317 29.3173 167.04 28.4138C167.763 27.5103 168.71 26.8429 169.882 26.422C171.053 26.001 172.311 25.7854 173.655 25.7854C175.122 25.7854 176.405 26.0216 177.505 26.4887C178.605 26.9559 179.46 27.6181 180.082 28.4702C180.703 29.3224 181.014 30.344 181.014 31.5349H177.25C177.215 31.0934 177.052 30.6674 176.772 30.2618C176.492 29.8563 176.084 29.5226 175.56 29.2557C175.035 28.9887 174.363 28.8552 173.548 28.8552C172.484 28.8552 171.618 29.0965 170.961 29.5739C170.304 30.0513 169.973 30.7238 169.973 31.5863C169.973 32.1407 170.131 32.5924 170.442 32.9312C170.752 33.27 171.16 33.537 171.654 33.7269C172.148 33.9168 172.693 34.0709 173.283 34.1838C173.874 34.2967 174.444 34.3994 174.994 34.4867C176.237 34.7023 177.352 35.0051 178.345 35.3953C179.338 35.7854 180.122 36.3552 180.698 37.1047C181.273 37.8542 181.564 38.8552 181.564 40.1232C181.564 41.4785 181.233 42.6335 180.565 43.5883C179.898 44.5431 178.951 45.2721 177.714 45.77C176.476 46.268 175.02 46.5195 173.339 46.5195C171.771 46.5195 170.401 46.2885 169.235 45.8265C168.069 45.3645 167.167 44.7074 166.536 43.8552C165.904 43.0031 165.584 41.9815 165.584 40.7906H169.647C169.724 41.3193 169.907 41.7916 170.192 42.1971C170.477 42.6027 170.9 42.9107 171.455 43.1263C172.01 43.3419 172.703 43.4497 173.543 43.4497C174.47 43.4497 175.229 43.3214 175.809 43.0698C176.39 42.8183 176.817 42.4743 177.087 42.0431C177.357 41.6119 177.49 41.1396 177.49 40.6212C177.49 39.923 177.266 39.3994 176.812 39.0349C176.359 38.6704 175.758 38.3984 175.005 38.2084C174.251 38.0185 173.431 37.844 172.54 37.6797C171.333 37.4281 170.233 37.1047 169.225 36.7197C168.216 36.3347 167.422 35.77 166.836 35.0308C166.251 34.2916 165.95 33.27 165.95 31.9661L165.955 31.9713Z" fill="#D9E821"/>
<path d="M185.546 20.0924C185.546 19.3327 185.806 18.7115 186.32 18.2341C186.834 17.7567 187.486 17.5154 188.275 17.5154C189.065 17.5154 189.778 17.7567 190.297 18.2341C190.816 18.7115 191.076 19.3327 191.076 20.0924C191.076 20.8522 190.816 21.4476 190.297 21.9251C189.778 22.4025 189.1 22.6386 188.275 22.6386C187.45 22.6386 186.834 22.4025 186.32 21.9251C185.806 21.4476 185.546 20.8419 185.546 20.0924ZM186.223 46.1807V26.1242H190.384V46.1807H186.223Z" fill="#D9E821"/>
<path d="M202.819 25.8624C203.761 25.8624 204.612 25.9908 205.381 26.2526C206.15 26.5144 206.801 26.8891 207.346 27.382C207.891 27.8748 208.288 28.4651 208.543 29.1479H208.752V18.922H212.933V46.1859H208.869V42.9774H208.66C208.523 43.4959 208.273 43.9682 207.906 44.3891C207.54 44.8101 207.097 45.1746 206.572 45.4826C206.048 45.7906 205.462 46.0216 204.82 46.1961C204.179 46.3707 203.496 46.4528 202.768 46.4528C201.235 46.4528 199.906 46.1089 198.776 45.421C197.645 44.7331 196.769 43.7423 196.148 42.4538C195.527 41.1653 195.216 39.6407 195.216 37.8799V34.4456C195.216 32.6746 195.532 31.1499 196.168 29.8717C196.805 28.5935 197.691 27.6078 198.832 26.9097C199.972 26.2115 201.302 25.8676 202.824 25.8676L202.819 25.8624ZM203.985 29.3121C203.058 29.3121 202.259 29.538 201.587 29.9846C200.915 30.4312 200.395 31.0832 200.023 31.9405C199.652 32.7978 199.468 33.8296 199.468 35.0411V37.2434C199.468 38.46 199.652 39.4969 200.023 40.3542C200.395 41.2115 200.925 41.8686 201.612 42.3204C202.3 42.7721 203.125 42.9928 204.077 42.9928C205.029 42.9928 205.839 42.7721 206.531 42.3306C207.224 41.8891 207.769 41.2577 208.161 40.4415C208.553 39.6253 208.747 38.6499 208.747 37.5103V34.4764C208.747 33.4395 208.538 32.536 208.125 31.7608C207.713 30.9857 207.148 30.3902 206.44 29.959C205.732 29.5277 204.912 29.3121 203.985 29.3121Z" fill="#D9E821"/>
<path d="M226.157 46.5247C224.365 46.5247 222.807 46.1653 221.488 45.4518C220.169 44.7382 219.155 43.7064 218.437 42.3614C217.725 41.0164 217.363 39.3994 217.363 37.5154V34.7998C217.363 32.9004 217.74 31.2834 218.493 29.9435C219.247 28.6037 220.266 27.577 221.554 26.8583C222.842 26.1396 224.294 25.7854 225.913 25.7854C227.532 25.7854 229.055 26.155 230.328 26.8943C231.601 27.6335 232.604 28.6756 233.333 30.0154C234.061 31.3552 234.422 32.9518 234.422 34.7947V37.1458H221.508V38.1314C221.508 39.5585 221.91 40.7546 222.72 41.7095C223.53 42.6643 224.671 43.1417 226.137 43.1417C226.865 43.1417 227.512 43.039 228.077 42.8286C228.643 42.6181 229.096 42.3409 229.442 41.9918C229.788 41.6427 230.012 41.2628 230.109 40.8419H234.193C234.132 41.422 233.928 42.0431 233.582 42.7002C233.236 43.3573 232.742 43.9733 232.095 44.5483C231.448 45.1232 230.634 45.5955 229.646 45.96C228.658 46.3244 227.497 46.5093 226.152 46.5093L226.157 46.5247ZM221.508 34.3994H230.338V34.1325C230.338 33.1212 230.155 32.2382 229.793 31.4836C229.432 30.729 228.918 30.1437 228.261 29.7279C227.604 29.3121 226.825 29.1017 225.939 29.1017C225.052 29.1017 224.268 29.3121 223.606 29.7279C222.944 30.1437 222.425 30.729 222.063 31.4836C221.702 32.2382 221.518 33.116 221.518 34.1325V34.3994H221.508Z" fill="#D9E821"/>
<path d="M238.99 46.1807V26.1242H243.151V29.2556H243.375C243.528 28.7988 243.797 28.3111 244.195 27.7875C244.592 27.2639 245.147 26.807 245.86 26.422C246.573 26.037 247.484 25.8419 248.589 25.8419C248.864 25.8419 249.119 25.8522 249.353 25.8727C249.588 25.8932 249.801 25.9189 250.005 25.96V29.6766C249.817 29.6253 249.562 29.5893 249.231 29.5637C248.9 29.538 248.564 29.5277 248.213 29.5277C247.097 29.5277 246.165 29.7331 245.427 30.1437C244.689 30.5544 244.134 31.1191 243.772 31.8326C243.41 32.5462 243.227 33.3522 243.227 34.2505V46.1858H238.99V46.1807Z" fill="#D9E821"/>
</g>
<defs>
<clipPath id="clip0_101_201">
<rect width="250" height="55" fill="white"/>
</clipPath>
</defs>
</svg>
