<?xml version="1.0" encoding="UTF-8"?>
<svg id="Layer_1" data-name="Layer 1" xmlns="http://www.w3.org/2000/svg" viewBox="0 0 127.7 58.3">
  <defs>
    <style>
      .cls-1 {
        fill: #fff;
        stroke-width: 0px;
      }
    </style>
  </defs>
  <g>
    <path class="cls-1" d="m-3.58,65.53c-.8,0-1.5-.2-2.2-.6-.6-.4-1.1-.9-1.5-1.6v5.9h-.9v-13.3h.8v1.9c.4-.6.9-1.1,1.5-1.5s1.3-.6,2-.6,1.3.1,1.8.4,1,.6,1.4,1.1.7,1,.9,1.6c.2.6.3,1.2.3,1.8,0,.7-.1,1.3-.3,1.9-.2.6-.5,1.1-.9,1.6s-.8.8-1.4,1.1c-.3.2-.9.4-1.5.3h0Zm-.3-.8c.5,0,1-.1,1.5-.3.5-.2.8-.5,1.1-.9.3-.4.5-.8.7-1.3s.3-1,.3-1.5-.1-1.1-.3-1.6c-.2-.5-.5-.9-.8-1.3s-.7-.7-1.2-.9c-.5-.2-.9-.3-1.5-.3-.3,0-.7.1-1,.2-.4.1-.7.3-1,.6-.3.2-.6.5-.8.8-.2.3-.4.6-.4,1v3.1c.2.4.4.7.6,1s.5.6.8.8c.3.2.6.4,1,.5.3,0,.7.1,1,.1h0Z"/>
    <polygon class="cls-1" points="4.82 83.03 3.82 83.03 3.82 43.13 4.82 43.03 4.82 83.03"/>
    <polygon class="cls-1" points="-41.38 47.83 -41.48 46.83 4.82 43.13 4.82 44.03 -41.38 47.83"/>
  </g>
  <g>
    <g>
      <g>
        <path class="cls-1" d="m78.58,15.78h.9l6.4,15.2h-1.2l-2.1-5h-7.3l-2.1,5h-1.2l6.6-15.2h0Zm3.8,9.3l-3.3-8-3.4,8h6.7Z"/>
        <path class="cls-1" d="m93.38,31.18c-1,0-1.8-.3-2.6-.8-.7-.5-1.4-1.1-1.8-1.8v7h-1.1v-15.8h1v2.2c.5-.7,1.1-1.3,1.8-1.7.7-.4,1.6-.7,2.4-.7s1.5.2,2.1.5c.7.3,1.2.8,1.7,1.3s.8,1.1,1.1,1.8c.3.7.4,1.4.4,2.1,0,.8-.1,1.5-.4,2.2-.2.7-.6,1.3-1,1.8s-1,.9-1.6,1.3c-.5.4-1.2.6-2,.6h0Zm-.2-1c.6,0,1.2-.1,1.8-.4.5-.3,1-.6,1.3-1.1.4-.4.7-1,.9-1.5.2-.6.3-1.2.3-1.8s-.1-1.3-.3-1.8c-.2-.6-.5-1.1-1-1.5-.4-.4-.9-.8-1.4-1.1-.5-.3-1.1-.4-1.7-.4-.4,0-.8.1-1.2.2-.4.2-.8.4-1.2.7s-.7.6-1,1-.4.7-.5,1.1v3.7c.2.4.4.8.7,1.2.3.4.6.7,1,.9.4.3.7.5,1.2.6.2.1.6.2,1.1.2h0Z"/>
        <path class="cls-1" d="m106.48,31.18c-1,0-1.8-.3-2.6-.8-.7-.5-1.4-1.1-1.8-1.8v7h-1.1v-15.8h1v2.2c.5-.7,1.1-1.3,1.8-1.7.7-.4,1.6-.7,2.4-.7s1.5.2,2.1.5c.7.3,1.2.8,1.7,1.3s.8,1.1,1.1,1.8c.3.7.4,1.4.4,2.1,0,.8-.1,1.5-.4,2.2-.2.7-.6,1.3-1,1.8s-1,.9-1.6,1.3c-.5.4-1.2.6-2,.6h0Zm-.2-1c.6,0,1.2-.1,1.8-.4.5-.3,1-.6,1.3-1.1.4-.4.7-1,.9-1.5.2-.6.3-1.2.3-1.8s-.1-1.3-.3-1.8c-.2-.6-.5-1.1-1-1.5-.4-.4-.9-.8-1.4-1.1-.5-.3-1.1-.4-1.7-.4-.4,0-.8.1-1.2.2-.4.2-.8.4-1.2.7s-.7.6-1,1-.4.7-.5,1.1v3.7c.2.4.4.8.7,1.2.3.4.6.7,1,.9.4.3.7.5,1.2.6.2.1.6.2,1.1.2h0Z"/>
      </g>
      <rect class="cls-1" x="61.88" y="8.98" width="1.2" height="5.2"/>
      <rect class="cls-1" x="61.78" y="42.18" width="1.2" height="5.2"/>
      <rect class="cls-1" x="88.45" y="21.77" width="1.2" height="54.8" transform="translate(32.5 133.72) rotate(-85.13)"/>
      <polygon class="cls-1" points="116.48 51.78 115.28 51.78 115.28 4.68 116.48 4.58 116.48 51.78"/>
      <polygon class="cls-1" points="61.88 10.18 61.78 8.98 116.48 4.58 116.48 5.78 61.88 10.18"/>
      <g>
        <path class="cls-1" d="m39.08,39.58v1.1q0,.1-.1.2t-.2.1-.2-.1-.1-.2v-3.2c0-.1,0-.2.1-.2.1-.1.2-.1.3-.1h.8c.2,0,.4,0,.6.1.2.1.3.2.4.3.1.1.2.2.2.4,0,.1.1.3.1.5s0,.4-.1.5-.1.3-.3.4c-.1.1-.2.2-.4.2-.2.1-.3.1-.5.1l-.6-.1h0Zm0-.6h.5c.5,0,.7-.2.7-.7v-.2c0-.1-.1-.1-.1-.2q-.1-.1-.2-.1c-.1,0-.2-.1-.3-.1h-.5v1.3h-.1Z"/>
        <path class="cls-1" d="m41.58,40.78c0,.1-.1.1-.1.1-.1,0-.1.1-.2.1s-.1,0-.2-.1-.1-.1-.1-.2v-.1h0l1-3.2c0-.1.1-.2.1-.2q.1-.1.2-.1c.1,0,.2,0,.2.1q.1.1.1.2l1,3.2h0v.1q0,.1-.1.2t-.2.1c-.1,0-.2,0-.2-.1s-.1-.1-.1-.2l-.2-.5h-1.2v.6h0Zm.8-2.8c-.1.3-.1.6-.2.8-.1.3-.2.5-.2.8h.9c-.1-.3-.2-.5-.2-.8-.2-.3-.3-.5-.3-.8h0Z"/>
        <path class="cls-1" d="m44.78,39.58v1.1q0,.1-.1.2t-.2.1-.2-.1-.1-.2v-3.2c0-.1,0-.2.1-.2q.1-.1.2-.1h.8c.2,0,.4,0,.6.1.2.1.3.2.4.3.1.1.2.2.2.4,0,.1.1.3.1.5s0,.4-.1.5-.1.3-.3.4c-.1.1-.2.2-.4.2-.2.1-.3.1-.5.1l-.5-.1h0Zm0-.6h.5c.5,0,.7-.2.7-.7v-.2c0-.1-.1-.1-.1-.2q-.1-.1-.2-.1c-.1,0-.2-.1-.3-.1h-.5v1.3h-.1Z"/>
        <path class="cls-1" d="m49.28,40.58q0,.1-.1.2t-.2.1h-1.4c-.1,0-.2,0-.3-.1-.1,0-.1-.1-.1-.2v-3.1q0-.1.1-.2.1-.1.2-.1h1.4q.1,0,.2.1.1.1.1.2,0,.1-.1.2c-.1,0-.1.1-.2.1h-1.2v1h1.2q.1,0,.2.1.1.1.1.2,0,.1-.1.2-.1.1-.2.1h-1.1v1.1h1.2q.1,0,.2.1c.1-.1.1,0,.1,0h0Z"/>
        <path class="cls-1" d="m52.28,38.28c0,.3-.1.5-.2.7-.1.2-.3.3-.6.3.1.2.3.4.4.6.1.2.3.4.4.6v.2q0,.1-.1.2t-.2.1c-.1,0-.2,0-.2-.1l-.9-1.6h-.5v1.4q0,.1-.1.2-.1.1-.2.1-.1,0-.2-.1-.1-.1-.1-.2v-3.2c0-.1,0-.2.1-.2q.1-.1.2-.1h.9c.2,0,.4,0,.6.1.2.1.3.1.4.3.1.1.2.2.2.4.1,0,.1.1.1.3h0Zm-.6,0v-.2c0-.1-.1-.1-.1-.2s-.1-.1-.2-.1h-.9v1.1h.7c.2,0,.4,0,.5-.1-.1-.2,0-.4,0-.5h0Z"/>
        <path class="cls-1" d="m54.98,40.68q0,.1-.1.2t-.2.1h-1.5c-.1,0-.2,0-.2-.1-.1-.1-.1-.2-.1-.3v-3.2q0-.1.1-.2.1-.1.2-.1.1,0,.2.1.1.1.1.2v3h1.2q.1,0,.2.1c.1,0,.1.1.1.2h0Z"/>
        <path class="cls-1" d="m57.48,40.58q0,.1-.1.2t-.2.1h-1.4c-.1,0-.2,0-.3-.1-.1,0-.1-.1-.1-.2v-3.1q0-.1.1-.2.1-.1.2-.1h1.4q.1,0,.2.1.1.1.1.2,0,.1-.1.2c-.1,0-.1.1-.2.1h-1.2v1h1.1q.1,0,.2.1.1.1.1.2,0,.1-.1.2-.1.1-.2.1h-1.1v1.1h1.2q.1,0,.2.1c.2-.1.2,0,.2,0h0Z"/>
        <path class="cls-1" d="m59.58,39.88c0-.1,0-.2-.1-.3s-.1-.1-.2-.1-.2-.1-.3-.1-.2-.1-.3-.1-.2-.1-.3-.1-.2-.1-.3-.2c-.1-.1-.1-.2-.2-.3,0-.1-.1-.2-.1-.4,0-.3.1-.6.3-.8s.5-.3.8-.3h.3c.1,0,.2,0,.3.1s.2.1.3.1.1.1.1.2,0,.1-.1.2c0,.1-.1.1-.2.1h-.8q-.1,0-.2.1c-.1,0-.1.1-.1.2v.4q0,.1.1.1c.1,0,.1.1.1.1h.1c.1,0,.2.1.3.1s.2.1.3.1.2.1.3.1.2.1.3.2c.1.1.1.2.2.3,0,.1.1.2.1.4s0,.3-.1.5c-.1.1-.1.3-.3.4-.1.1-.2.2-.4.2s-.3.1-.5.1h-.3c-.1,0-.2,0-.3-.1-.1,0-.2-.1-.3-.1q-.1-.1-.1-.2t.1-.2.2-.1h.1s.1,0,.2.1.1,0,.2.1h.3c.2,0,.4,0,.5-.1,0-.4,0-.5,0-.7h0Z"/>
        <path class="cls-1" d="m62.28,39.88c0-.1,0-.2-.1-.3s-.1-.1-.2-.1-.2-.1-.3-.1-.2-.1-.3-.1-.2-.1-.3-.1-.2-.2-.2-.3c-.1-.1-.1-.2-.2-.3,0-.1-.1-.2-.1-.4,0-.3.1-.6.3-.8s.5-.3.8-.3h.3c.1,0,.2,0,.3.1s.2.1.3.1.1.1.1.2,0,.1-.1.2c0,.1-.1.1-.2.1h-.8q-.1,0-.2.1c-.1,0-.1.1-.1.2v.4q0,.1.1.1c.1,0,.1.1.1.1h.1c.1,0,.2.1.3.1s.2.1.3.1.2.1.3.1.2.1.3.2c.1.1.1.2.2.3,0,.1.1.2.1.4s0,.3-.1.5c-.1.1-.1.3-.3.4-.1.1-.2.2-.4.2-.1,0-.3.1-.5.1h-.3c-.1,0-.2,0-.3-.1-.1,0-.2-.1-.3-.1q-.1-.1-.1-.2t.1-.2.2-.1h.1s.1,0,.2.1.1,0,.2.1h.3c.2,0,.4,0,.5-.1-.1-.3-.1-.4-.1-.6h0Z"/>
        <path class="cls-1" d="m65.38,40.88c-.1,0-.2,0-.2-.1q-.1-.1-.1-.2v-3.1c0-.1,0-.2.1-.2s.1-.1.2-.1h.9c.2,0,.3,0,.5.1s.3.1.4.2c.1.1.2.2.2.3s.1.2.1.4v.3c0,.1-.1.2-.1.2q-.1.1-.2.2c-.1.1-.2.1-.2.1.1,0,.2.1.3.1s.2.1.2.2.1.1.2.2c0,.1.1.2.1.3s0,.3-.1.4c-.1.1-.1.2-.2.3s-.2.2-.4.2c-.1.1-.3.1-.5.1h-1.2v.1Zm.9-2.2h.2c.1,0,.1-.1.2-.1s.1-.1.1-.2v-.4q0-.1-.1-.1s-.1-.1-.2-.1h-.9v1l.7-.1h0Zm-.7.6v1.1h.6c.2,0,.4,0,.5-.1s.2-.2.2-.4-.1-.3-.2-.4c-.1-.1-.3-.1-.5-.1.1-.1-.6-.1-.6-.1Z"/>
        <path class="cls-1" d="m70.38,40.18c-.1.2-.1.3-.2.4-.1.1-.2.2-.4.3-.2.1-.3.1-.5.1s-.4,0-.5-.1c-.2-.1-.3-.2-.4-.3s-.2-.3-.2-.4c-.1-.2-.1-.3-.1-.5v-2.3q0-.1.1-.2t.2-.1.2.1.1.2v2.3c0,.2.1.4.2.5s.3.2.5.2.4-.1.5-.2c.1-.1.2-.3.2-.5v-2.3q0-.1.1-.2.1-.1.2-.1c.1,0,.2,0,.2.1q.1.1.1.2v2.3c-.2.2-.2.3-.3.5h0Z"/>
        <path class="cls-1" d="m72.68,39.88c0-.1,0-.2-.1-.3s-.1-.1-.2-.1-.2-.1-.3-.1-.2-.1-.3-.1-.2-.1-.3-.1-.2-.1-.3-.2c-.1-.1-.1-.2-.2-.3,0-.1-.1-.2-.1-.4,0-.3.1-.6.3-.8.2-.2.5-.3.8-.3h.3c.1,0,.2,0,.3.1s.2.1.3.1q.1.1.1.2t-.1.2c0,.1-.1.1-.2.1h-.8q-.1,0-.2.1c-.1,0-.1.1-.1.2v.4s0,.1.1.1.1.1.1.1h.1c.1,0,.2.1.3.1s.2.1.3.1.2.1.3.1.2.1.3.2c.1.1.1.2.2.3,0,.1.1.2.1.4s0,.3-.1.5c-.1.1-.1.3-.3.4-.1.1-.2.2-.4.2-.1,0-.3.1-.5.1h-.3c-.1,0-.2,0-.3-.1s-.2-.1-.3-.1q-.1-.1-.1-.2,0-.1.1-.2c0-.1.1-.1.2-.1h.1s.1,0,.2.1q.1,0,.2.1c.1.1.2,0,.3,0,.2,0,.4,0,.5-.1,0-.4,0-.5,0-.7h0Z"/>
        <path class="cls-1" d="m73.88,37.38q0-.1.1-.2t.2-.1.2.1.1.2v3.3q0,.1-.1.2-.1.1-.2.1-.1,0-.2-.1-.1-.1-.1-.2v-3.3Z"/>
        <path class="cls-1" d="m77.38,40.98h-.2c-.1,0-.1-.1-.1-.1l-1.4-2.5v2.4q0,.1-.1.2t-.2.1-.2-.1-.1-.2v-3.3c0-.1,0-.2.1-.2q.1-.1.2-.1h.2c.1,0,.1.1.1.1,0,.1.1.2.2.3s.2.3.2.4c.1.2.2.3.3.5.1.2.2.3.3.5.1.2.2.3.2.4.1.1.1.2.2.3v-2.4q0-.1.1-.2.1-.1.2-.1.1,0,.2.1.1.1.1.2v3.3q0,.1-.1.2c0,.2-.1.2-.2.2h0Z"/>
        <path class="cls-1" d="m80.58,40.58q0,.1-.1.2t-.2.1h-1.4c-.1,0-.2,0-.3-.1-.1,0-.1-.1-.1-.2v-3.1q0-.1.1-.2.1-.1.2-.1h1.4q.1,0,.2.1.1.1.1.2,0,.1-.1.2c-.1,0-.1.1-.2.1h-1.2v1h1.1q.1,0,.2.1.1.1.1.2,0,.1-.1.2-.1.1-.2.1h-1.1v1.1h1.2q.1,0,.2.1c.1.1.2,0,.2,0h0Z"/>
        <path class="cls-1" d="m82.68,39.88c0-.1,0-.2-.1-.3s-.1-.1-.2-.1-.2-.1-.3-.1-.2-.1-.3-.1-.2-.1-.3-.1-.2-.1-.3-.2c-.1-.1-.1-.2-.2-.3,0-.1-.1-.2-.1-.4,0-.3.1-.6.3-.8.2-.2.5-.3.8-.3h.3c.1,0,.2,0,.3.1.1,0,.2.1.3.1s.1.1.1.2,0,.1-.1.2c0,.1-.1.1-.2.1h-.8q-.1,0-.2.1c-.1,0-.1.1-.1.2v.4s0,.1.1.1.1.1.1.1h.1c.1,0,.2.1.3.1s.2.1.3.1.2.1.3.1.2.1.3.2c.1.1.1.2.2.3,0,.1.1.2.1.4s0,.3-.1.5c-.1.1-.1.3-.3.4-.1.1-.2.2-.4.2s-.3.1-.5.1h-.3c-.1,0-.2,0-.3-.1s-.2-.1-.3-.1q-.1-.1-.1-.2t.1-.2.2-.1h.1s.1,0,.2.1q.1,0,.2.1c.1.1.2,0,.3,0,.2,0,.4,0,.5-.1,0-.4,0-.5,0-.7h0Z"/>
        <path class="cls-1" d="m85.38,39.88c0-.1,0-.2-.1-.3s-.1-.1-.2-.1-.2-.1-.3-.1-.2-.1-.3-.1-.2-.1-.3-.1-.2-.1-.3-.2c-.1-.1-.1-.2-.2-.3,0-.1-.1-.2-.1-.4,0-.3.1-.6.3-.8.2-.2.5-.3.8-.3h.3c.1,0,.2,0,.3.1.1,0,.2.1.3.1q.1.1.1.2t-.1.2c0,.1-.1.1-.2.1h-.8q-.1,0-.2.1c-.1,0-.1.1-.1.2v.4s0,.1.1.1.1.1.1.1h.1c.1,0,.2.1.3.1s.2.1.3.1.2.1.3.1.2.1.3.2c.1.1.1.2.2.3,0,.1.1.2.1.4s0,.3-.1.5c-.1.1-.1.3-.3.4-.1.1-.2.2-.4.2-.1,0-.3.1-.5.1h-.3c-.1,0-.2,0-.3-.1-.1,0-.2-.1-.3-.1q-.1-.1-.1-.2,0-.1.1-.2c0-.1.1-.1.2-.1h.1s.1,0,.2.1q.1,0,.2.1h.3c.2,0,.4,0,.5-.1-.1-.4,0-.5,0-.7h0Z"/>
      </g>
    </g>
    <g>
      <path class="cls-1" d="m9.94,16.39l3.49,9.88,3.49-9.88h2.7l-5.09,13.08h-2.1l-5.09-13.08h2.6Z"/>
      <path class="cls-1" d="m24.12,29.66c-.8,0-1.5-.1-2.1-.4s-1.2-.6-1.6-1.1-.8-1-1-1.6c-.3-.6-.4-1.2-.4-1.9s.1-1.3.4-1.9c.2-.6.6-1.1,1-1.6s1-.8,1.6-1.1c.6-.3,1.3-.4,2.1-.4s1.5.1,2.1.4,1.1.6,1.6,1.1c.4.5.8,1,1,1.6s.3,1.2.3,1.9v.9h-7.49c0,.4.1.7.3,1,.1.3.3.5.6.8.2.2.5.4.8.5s.6.2.9.2c.5,0,1-.1,1.4-.4.4-.2.7-.6.9-.9l2.1.6c-.4.7-.9,1.3-1.7,1.8-.8.2-1.7.5-2.79.5h0Zm2.5-5.89c-.1-.7-.3-1.3-.8-1.7-.5-.4-1.1-.7-1.7-.7-.3,0-.6.1-.9.2s-.5.3-.8.5-.4.5-.5.8-.2.6-.3,1l4.99-.1h0Z"/>
      <path class="cls-1" d="m39.59,29.46h-2.5v-5.39c0-.8-.1-1.3-.4-1.7-.3-.4-.6-.5-1.1-.5-.2,0-.5,0-.8.1s-.5.2-.7.4c-.2.2-.4.4-.6.6-.2.2-.3.5-.4.8v5.59h-2.5v-9.68h2.2v1.8c.4-.6.9-1.1,1.5-1.4.7-.3,1.4-.5,2.3-.5.6,0,1.1.1,1.5.3.4.2.7.5.9.9s.4.8.4,1.2c.1.5.1.9.1,1.4v6.09h.1Z"/>
      <path class="cls-1" d="m45.78,29.66c-.7,0-1.3-.1-1.8-.4-.6-.3-1.1-.6-1.5-1.1s-.7-1-.9-1.6-.3-1.3-.3-2,.1-1.3.3-2c.2-.6.5-1.1.9-1.6s.8-.8,1.4-1.1,1.1-.4,1.7-.4c.7,0,1.4.2,1.9.5.6.3,1,.8,1.3,1.3v-5.29h2.5v10.58c0,.3,0,.4.1.5s.2.2.4.2v2.1c-.4.1-.8.1-1.1.1-.4,0-.8-.1-1.1-.3-.3-.2-.4-.5-.5-.9l-.1-.6c-.4.6-.8,1.1-1.5,1.4-.5.4-1.1.6-1.7.6h0Zm.6-2.1c.2,0,.5,0,.7-.1s.5-.2.7-.3c.2-.1.4-.3.6-.5.2-.2.3-.4.4-.6v-2.3c-.1-.3-.2-.5-.4-.7s-.4-.4-.6-.6c-.2-.2-.5-.3-.7-.4s-.5-.1-.7-.1c-.4,0-.7.1-1,.2-.3.2-.6.4-.8.7-.2.3-.4.6-.5.9-.1.4-.2.7-.2,1.1s.1.8.2,1.1c.1.3.3.6.5.9s.5.5.8.6c.2,0,.6.1,1,.1h0Z"/>
      <path class="cls-1" d="m58.05,29.66c-.8,0-1.5-.1-2.1-.4s-1.2-.6-1.6-1.1c-.4-.5-.8-1-1-1.6s-.4-1.3-.4-1.9c0-.7.1-1.3.4-1.9.2-.6.6-1.1,1-1.6s1-.8,1.6-1.1c.6-.3,1.3-.4,2.1-.4s1.5.1,2.1.4,1.1.6,1.6,1.1c.4.5.8,1,1,1.6s.4,1.2.4,1.9-.1,1.3-.4,1.9c-.2.6-.6,1.1-1,1.6s-1,.8-1.6,1.1-1.3.4-2.1.4Zm-2.5-4.99c0,.4.1.8.2,1.2s.3.7.5.9c.2.3.5.5.8.6s.6.2,1,.2.7-.1,1-.2c.3-.1.6-.3.8-.6.2-.3.4-.6.5-.9s.2-.8.2-1.2-.1-.8-.2-1.2c-.1-.4-.3-.7-.5-.9-.2-.3-.5-.5-.8-.6-.3-.1-.6-.2-1-.2s-.7.1-1,.2-.6.4-.8.6c-.2.3-.4.6-.5.9-.2.4-.2.8-.2,1.2Z"/>
      <path class="cls-1" d="m70.53,21.98c-.8,0-1.4.2-2,.4-.6.3-1,.7-1.3,1.2v5.79h-2.5v-9.68h2.3v2.1c.2-.3.4-.6.6-.9s.5-.5.8-.7.5-.3.8-.5c.3-.1.5-.2.8-.2h.5v2.5h0Z"/>
    </g>
  </g>
</svg>