<?xml version="1.0" encoding="UTF-8"?>
<svg id="Layer_1" data-name="Layer 1" xmlns="http://www.w3.org/2000/svg" viewBox="0 0 115 52">
  <defs>
    <style>
      .cls-1 {
        fill: #fff;
        stroke-width: 0px;
      }
    </style>
  </defs>
  <g>
    <path class="cls-1" d="m78.87,13.17h.85l5.84,13.84h-1.05l-1.93-4.56h-6.61l-1.93,4.56h-1.07l5.89-13.84h0Zm3.45,8.46l-3.02-7.25-3.08,7.25h6.1Z"/>
    <path class="cls-1" d="m92.34,27.2c-.87,0-1.65-.23-2.33-.69-.68-.46-1.23-1.02-1.65-1.68v6.33h-.97v-14.28h.9v2.02c.41-.65.97-1.18,1.65-1.59s1.41-.61,2.19-.61c.7,0,1.35.15,1.95.45.59.3,1.11.69,1.54,1.18.43.49.76,1.05,1,1.68s.36,1.29.36,1.95c0,.7-.11,1.37-.33,2.01-.22.64-.54,1.19-.95,1.68s-.9.86-1.47,1.14c-.57.28-1.2.42-1.89.42h0Zm-.24-.88c.58,0,1.11-.12,1.6-.37s.89-.58,1.23-.98c.34-.41.59-.88.78-1.41.18-.53.27-1.06.27-1.61,0-.58-.11-1.14-.31-1.67-.21-.53-.5-.99-.87-1.39s-.8-.72-1.29-.97c-.5-.24-1.02-.36-1.58-.36-.35,0-.72.07-1.12.22s-.77.35-1.12.61-.65.54-.9.87c-.25.32-.39.67-.43,1.03v3.33c.17.38.38.73.64,1.05s.55.61.88.85c.32.25.67.44,1.05.58s.77.2,1.17.2h0Z"/>
    <path class="cls-1" d="m104.27,27.2c-.87,0-1.65-.23-2.33-.69s-1.23-1.02-1.65-1.68v6.33h-.97v-14.28h.9v2.02c.41-.65.97-1.18,1.65-1.59s1.41-.61,2.19-.61c.7,0,1.35.15,1.95.45.59.3,1.11.69,1.54,1.18s.76,1.05,1,1.68.36,1.29.36,1.95c0,.7-.11,1.37-.33,2.01-.22.64-.54,1.19-.95,1.68s-.9.86-1.47,1.14c-.57.28-1.2.42-1.89.42h0Zm-.24-.88c.58,0,1.11-.12,1.6-.37s.89-.58,1.23-.98c.34-.41.59-.88.78-1.41.18-.53.27-1.06.27-1.61,0-.58-.11-1.14-.31-1.67-.21-.53-.5-.99-.87-1.39-.37-.4-.8-.72-1.29-.97s-1.02-.36-1.58-.36c-.35,0-.72.07-1.12.22s-.77.35-1.12.61c-.35.25-.65.54-.9.87s-.39.67-.43,1.03v3.33c.17.38.38.73.64,1.05s.55.61.88.85c.32.25.67.44,1.05.58s.77.2,1.17.2h0Z"/>
  </g>
  <rect class="cls-1" x="63.58" y="7.01" width="1.09" height="4.77"/>
  <rect class="cls-1" x="63.51" y="37.25" width="1.09" height="4.77"/>
  <rect class="cls-1" x="87.88" y="18.61" width="1.09" height="49.92" transform="translate(37.5 127.98) rotate(-85.13)"/>
  <polygon class="cls-1" points="113.37 46.01 112.28 46.01 112.27 3.09 113.37 3 113.37 46.01"/>
  <polygon class="cls-1" points="63.63 8.1 63.54 7.01 113.31 3.02 113.34 4.08 63.63 8.1"/>
  <g>
    <path class="cls-1" d="m42.89,34.86v1c0,.07-.02.13-.08.18s-.11.08-.19.08-.13-.02-.19-.08-.08-.11-.08-.19v-2.91c0-.08.03-.14.09-.2s.13-.09.22-.09h.71c.21,0,.4.03.54.09s.27.14.36.25c.09.11.16.22.2.35.04.13.06.27.06.41,0,.17-.02.33-.08.46s-.13.25-.24.35c-.1.09-.22.16-.37.21s-.3.07-.48.07h-.5Zm0-.5h.48c.42,0,.63-.2.63-.61,0-.07,0-.15-.02-.22s-.05-.14-.1-.19c-.05-.06-.11-.1-.19-.14s-.19-.06-.32-.06h-.48v1.21h0Z"/>
    <path class="cls-1" d="m45.1,35.93c-.02.06-.05.11-.11.14-.06.03-.1.05-.15.05-.07,0-.14-.02-.19-.07s-.08-.11-.08-.18v-.05s0-.03,0-.04l.94-2.87c.02-.09.06-.15.11-.21s.12-.08.21-.08.17.02.21.08c.05.06.09.12.11.21l.94,2.87s.01.02.01.04v.05c0,.07-.02.14-.08.18s-.12.07-.2.07c-.09,0-.15-.02-.19-.08s-.07-.12-.11-.21l-.15-.47h-1.13l-.18.58h.01Zm.75-2.52c-.06.26-.13.51-.2.74-.07.24-.15.48-.22.72h.84c-.07-.25-.15-.49-.22-.73s-.14-.49-.19-.74h0Z"/>
    <path class="cls-1" d="m48.09,34.86v1c0,.07-.02.13-.08.18s-.11.08-.19.08-.13-.02-.19-.08-.08-.11-.08-.19v-2.91c0-.08.03-.14.09-.2s.13-.09.22-.09h.71c.21,0,.4.03.54.09s.27.14.36.25c.09.11.16.22.2.35.04.13.06.27.06.41,0,.17-.02.33-.08.46s-.13.25-.24.35c-.1.09-.22.16-.37.21s-.3.07-.48.07h-.5Zm0-.5h.48c.42,0,.63-.2.63-.61,0-.07,0-.15-.02-.22s-.05-.14-.1-.19c-.05-.06-.11-.1-.19-.14s-.19-.06-.32-.06h-.48v1.21h0Z"/>
    <path class="cls-1" d="m52.14,35.82c0,.07-.02.14-.08.19s-.11.07-.19.07h-1.28c-.1,0-.19-.02-.27-.06-.07-.04-.11-.12-.11-.22v-2.84c0-.07.03-.14.09-.2s.13-.09.22-.09h1.31c.07,0,.14.02.19.07s.08.11.08.18-.02.13-.08.17c-.05.04-.11.07-.19.07h-1.08v.95h.99c.06,0,.12.02.18.07.06.05.08.11.08.18s-.02.13-.07.18c-.05.05-.11.07-.19.07h-.99v.97h1.13c.07,0,.13.02.19.07.06.05.08.1.08.17h0Z"/>
    <path class="cls-1" d="m54.88,33.66c0,.25-.06.46-.19.61s-.3.26-.52.32c.12.19.24.38.36.57s.24.37.36.57c.01.01.02.03.03.06,0,.03,0,.05,0,.07,0,.07-.03.14-.09.19-.06.05-.12.07-.19.07-.1,0-.17-.04-.22-.12l-.84-1.37h-.44v1.23c0,.07-.02.13-.08.18s-.12.08-.19.08-.13-.02-.19-.07c-.05-.05-.08-.11-.08-.18v-2.91c0-.08.03-.14.09-.2.06-.06.13-.09.21-.09h.84c.21,0,.39.03.53.09s.26.14.35.23c.09.09.15.2.19.32.04.12.06.24.06.37h.01Zm-.53,0c0-.06,0-.12-.02-.18-.02-.06-.05-.11-.09-.16-.04-.05-.11-.09-.19-.11s-.18-.04-.31-.04h-.59v.98h.61c.19,0,.33-.04.43-.12s.15-.2.15-.36h0Z"/>
    <path class="cls-1" d="m57.33,35.83c0,.07-.02.13-.07.18s-.11.07-.18.07h-1.37c-.08,0-.14-.02-.2-.08-.06-.06-.09-.12-.09-.2v-2.93c0-.07.02-.12.08-.18s.11-.07.19-.07.14.02.19.07.08.11.08.18v2.72h1.12c.07,0,.13.02.18.07.05.05.08.11.08.17h0Z"/>
    <path class="cls-1" d="m59.65,35.82c0,.07-.02.14-.08.19s-.11.07-.19.07h-1.28c-.1,0-.19-.02-.27-.06-.07-.04-.11-.12-.11-.22v-2.84c0-.07.03-.14.09-.2s.13-.09.22-.09h1.31c.07,0,.14.02.19.07s.08.11.08.18-.02.13-.08.17c-.05.04-.11.07-.19.07h-1.08v.95h.99c.06,0,.12.02.18.07.06.05.08.11.08.18s-.02.13-.07.18-.11.07-.19.07h-.99v.97h1.13c.07,0,.13.02.19.07.06.05.08.1.08.17h0Z"/>
    <path class="cls-1" d="m61.56,35.12c0-.13-.02-.22-.08-.28s-.11-.1-.15-.13c-.08-.04-.17-.07-.27-.11-.09-.03-.19-.06-.28-.1-.1-.03-.19-.07-.28-.12s-.17-.1-.24-.17c-.07-.07-.12-.15-.17-.26s-.06-.22-.06-.37c0-.3.09-.54.28-.71s.45-.26.77-.26c.06,0,.15,0,.25.01.1,0,.2.03.3.06s.18.07.25.12c.07.05.11.12.11.2,0,.06-.02.12-.07.17s-.11.07-.2.07c-.04,0-.08,0-.12-.02-.04-.01-.08-.03-.12-.04s-.09-.03-.15-.04-.12-.02-.2-.02c-.07,0-.14,0-.2.02s-.12.04-.17.07c-.05.03-.09.08-.12.14s-.04.13-.04.22c0,.07,0,.12.02.17s.04.09.06.12.05.06.08.07c.02.02.06.03.08.04.08.04.17.08.27.11.1.03.19.06.29.1s.19.07.28.12.17.1.24.17.12.15.17.25.06.22.06.37c0,.17-.03.31-.09.44s-.14.24-.24.32c-.1.09-.22.15-.36.2s-.29.07-.45.07c-.09,0-.18,0-.29-.02s-.22-.04-.32-.07-.19-.07-.25-.12-.11-.11-.11-.19c0-.06.02-.12.07-.17s.11-.07.18-.07c.04,0,.07,0,.12.02s.09.04.15.06.12.04.2.06.16.02.26.02c.19,0,.34-.04.43-.13.09-.09.14-.21.14-.37h-.01Z"/>
    <path class="cls-1" d="m63.99,35.12c0-.13-.02-.22-.08-.28s-.11-.1-.15-.13c-.08-.04-.17-.07-.27-.11-.09-.03-.19-.06-.28-.1-.1-.03-.19-.07-.28-.12s-.17-.1-.24-.17c-.07-.07-.12-.15-.17-.26s-.06-.22-.06-.37c0-.3.09-.54.28-.71s.45-.26.77-.26c.06,0,.15,0,.25.01.1,0,.2.03.3.06s.18.07.25.12c.07.05.11.12.11.2,0,.06-.02.12-.07.17s-.11.07-.2.07c-.04,0-.08,0-.12-.02-.04-.01-.08-.03-.12-.04s-.09-.03-.15-.04-.12-.02-.2-.02c-.07,0-.14,0-.2.02s-.12.04-.17.07c-.05.03-.09.08-.12.14s-.04.13-.04.22c0,.07,0,.12.02.17s.04.09.06.12.05.06.08.07c.02.02.06.03.08.04.08.04.17.08.27.11.1.03.19.06.29.1s.19.07.28.12.17.1.24.17.12.15.17.25.06.22.06.37c0,.17-.03.31-.09.44s-.14.24-.24.32c-.1.09-.22.15-.36.2s-.29.07-.45.07c-.09,0-.18,0-.29-.02s-.22-.04-.32-.07-.19-.07-.25-.12-.11-.11-.11-.19c0-.06.02-.12.07-.17s.11-.07.18-.07c.04,0,.07,0,.12.02s.09.04.15.06.12.04.2.06.16.02.26.02c.19,0,.34-.04.43-.13.09-.09.14-.21.14-.37h-.01Z"/>
    <path class="cls-1" d="m66.81,36.08c-.09,0-.16-.03-.22-.09s-.09-.12-.09-.2v-2.83c0-.09.03-.15.09-.21s.13-.08.22-.08h.82c.17,0,.32.02.45.08s.24.12.32.2.15.19.19.29.06.22.06.34c0,.09-.01.18-.04.25s-.07.14-.12.2c-.05.06-.11.11-.18.15s-.14.09-.22.12c.08.03.15.06.24.1s.15.09.21.15.11.13.15.22c.04.09.06.19.06.31,0,.14-.02.27-.08.39-.05.12-.12.22-.22.32-.1.09-.22.16-.36.21-.14.05-.3.08-.47.08h-.81Zm.79-2.02c.06,0,.12,0,.19-.03.06-.02.12-.05.17-.09.05-.04.09-.09.12-.15s.04-.13.04-.21c0-.06,0-.11-.02-.16-.02-.05-.04-.1-.08-.14s-.08-.07-.14-.09c-.06-.02-.13-.04-.22-.04h-.61v.9h.56Zm-.56.5v1.03h.56c.2,0,.35-.04.45-.14s.15-.21.15-.37c0-.17-.06-.3-.17-.39s-.25-.14-.43-.14c0,0-.57,0-.57,0Z"/>
    <path class="cls-1" d="m71.39,35.41c-.05.14-.12.27-.22.37-.1.11-.22.19-.36.25s-.3.09-.48.09-.35-.03-.49-.09-.26-.14-.36-.25c-.1-.11-.17-.23-.22-.37s-.07-.3-.07-.48v-2.06c0-.07.02-.14.08-.19.05-.05.12-.07.19-.07s.13.02.19.07.08.11.08.19v2.06c0,.2.05.37.15.5s.25.19.46.19.36-.06.46-.19c.1-.13.15-.29.15-.5v-2.06c0-.07.02-.13.07-.19.05-.05.11-.08.19-.08s.14.02.2.08.08.11.08.19v2.06c0,.17-.02.33-.08.48h-.01Z"/>
    <path class="cls-1" d="m73.46,35.12c0-.13-.02-.22-.08-.28s-.11-.1-.15-.13c-.08-.04-.17-.07-.27-.11-.09-.03-.19-.06-.28-.1s-.19-.07-.28-.12-.17-.1-.24-.17c-.07-.07-.12-.15-.17-.26s-.06-.22-.06-.37c0-.3.09-.54.28-.71s.45-.26.77-.26c.06,0,.15,0,.25.01.1,0,.2.03.3.06s.18.07.25.12c.07.05.11.12.11.2,0,.06-.02.12-.07.17s-.11.07-.2.07c-.04,0-.08,0-.12-.02-.04-.01-.08-.03-.12-.04-.04-.02-.09-.03-.15-.04s-.12-.02-.2-.02c-.07,0-.14,0-.2.02s-.12.04-.17.07c-.05.03-.09.08-.12.14s-.04.13-.04.22c0,.07,0,.12.02.17s.04.09.06.12.05.06.08.07c.02.02.06.03.08.04.08.04.17.08.27.11.1.03.19.06.29.1s.19.07.28.12.17.1.24.17.12.15.17.25.06.22.06.37c0,.17-.03.31-.09.44s-.14.24-.24.32-.22.15-.36.2-.29.07-.45.07c-.09,0-.18,0-.29-.02s-.22-.04-.32-.07-.19-.07-.25-.12-.11-.11-.11-.19c0-.06.02-.12.07-.17s.11-.07.18-.07c.04,0,.07,0,.12.02s.09.04.15.06.12.04.2.06.16.02.26.02c.19,0,.34-.04.43-.13.09-.09.14-.21.14-.37h-.01Z"/>
    <path class="cls-1" d="m74.52,32.87c0-.07.02-.12.08-.18s.11-.07.19-.07.14.02.19.07.08.11.08.18v3c0,.06-.02.12-.08.17s-.11.08-.19.08-.14-.02-.19-.08-.08-.11-.08-.17v-3Z"/>
    <path class="cls-1" d="m77.77,36.13s-.1-.01-.15-.04c-.05-.02-.09-.06-.11-.1l-1.26-2.27v2.15c0,.07-.02.13-.08.18s-.12.08-.19.08-.14-.02-.19-.08c-.05-.05-.07-.11-.07-.18v-2.98c0-.08.02-.14.08-.19s.12-.08.2-.08c.06,0,.11.01.15.04s.09.06.11.11c.04.06.09.15.15.27s.14.25.22.4.17.3.25.46c.09.16.17.32.25.46.08.15.15.28.22.4s.12.21.15.28v-2.16c0-.07.02-.13.08-.18s.12-.07.19-.07.14.02.19.07.07.11.07.18v2.98c0,.07-.02.14-.08.19s-.12.08-.2.08h-.01Z"/>
    <path class="cls-1" d="m80.65,35.82c0,.07-.02.14-.08.19s-.11.07-.19.07h-1.28c-.1,0-.19-.02-.27-.06-.07-.04-.11-.12-.11-.22v-2.84c0-.07.03-.14.09-.2s.13-.09.22-.09h1.31c.07,0,.14.02.19.07s.08.11.08.18-.02.13-.08.17c-.05.04-.11.07-.19.07h-1.08v.95h.99c.06,0,.12.02.18.07.06.05.08.11.08.18s-.02.13-.07.18-.11.07-.19.07h-.99v.97h1.13c.07,0,.14.02.19.07s.08.1.08.17h0Z"/>
    <path class="cls-1" d="m82.56,35.12c0-.13-.02-.22-.08-.28s-.11-.1-.15-.13c-.08-.04-.17-.07-.27-.11-.09-.03-.19-.06-.28-.1s-.19-.07-.28-.12-.17-.1-.24-.17c-.07-.07-.12-.15-.17-.26s-.06-.22-.06-.37c0-.3.09-.54.28-.71s.45-.26.77-.26c.06,0,.15,0,.25.01.1,0,.2.03.3.06s.18.07.25.12c.07.05.11.12.11.2,0,.06-.02.12-.07.17s-.11.07-.2.07c-.04,0-.08,0-.12-.02-.04-.01-.08-.03-.12-.04s-.09-.03-.15-.04-.12-.02-.2-.02c-.07,0-.14,0-.2.02s-.12.04-.17.07c-.05.03-.09.08-.12.14s-.04.13-.04.22c0,.07,0,.12.02.17s.04.09.06.12.05.06.08.07c.02.02.06.03.08.04.08.04.17.08.27.11.1.03.19.06.29.1s.19.07.28.12.17.1.24.17.12.15.17.25.06.22.06.37c0,.17-.03.31-.09.44s-.14.24-.24.32-.22.15-.36.2-.29.07-.45.07c-.09,0-.18,0-.29-.02s-.22-.04-.32-.07-.19-.07-.25-.12-.11-.11-.11-.19c0-.06.02-.12.07-.17s.11-.07.18-.07c.04,0,.07,0,.12.02s.09.04.15.06.12.04.2.06.16.02.26.02c.19,0,.34-.04.43-.13.09-.09.14-.21.14-.37h-.01Z"/>
    <path class="cls-1" d="m84.99,35.12c0-.13-.02-.22-.08-.28s-.11-.1-.15-.13c-.08-.04-.17-.07-.27-.11-.09-.03-.19-.06-.28-.1s-.19-.07-.28-.12-.17-.1-.24-.17c-.07-.07-.12-.15-.17-.26s-.06-.22-.06-.37c0-.3.09-.54.28-.71s.45-.26.77-.26c.06,0,.15,0,.25.01.1,0,.2.03.3.06s.18.07.25.12c.07.05.11.12.11.2,0,.06-.02.12-.07.17s-.11.07-.2.07c-.04,0-.08,0-.12-.02-.04-.01-.08-.03-.12-.04s-.09-.03-.15-.04-.12-.02-.2-.02c-.07,0-.14,0-.2.02s-.12.04-.17.07c-.05.03-.09.08-.12.14s-.04.13-.04.22c0,.07,0,.12.02.17s.04.09.06.12.05.06.08.07c.02.02.06.03.08.04.08.04.17.08.27.11.1.03.19.06.29.1s.19.07.28.12.17.1.24.17.12.15.17.25.06.22.06.37c0,.17-.03.31-.09.44s-.14.24-.24.32-.22.15-.36.2-.29.07-.45.07c-.09,0-.18,0-.29-.02s-.22-.04-.32-.07-.19-.07-.25-.12-.11-.11-.11-.19c0-.06.02-.12.07-.17s.11-.07.18-.07c.04,0,.07,0,.12.02s.09.04.15.06.12.04.2.06.16.02.26.02c.19,0,.34-.04.43-.13.09-.09.14-.21.14-.37h-.01Z"/>
  </g>
  <g>
    <path class="cls-1" d="m5.18,13.07l3.8,10.64,3.76-10.64h2.87l-5.49,14.07h-2.3L2.3,13.07h2.87Z"/>
    <path class="cls-1" d="m20.41,27.33c-.83,0-1.59-.14-2.26-.43-.67-.28-1.25-.67-1.72-1.16-.48-.49-.84-1.06-1.1-1.7-.26-.65-.39-1.33-.39-2.04s.13-1.44.38-2.09c.25-.65.61-1.23,1.09-1.72.48-.5,1.05-.89,1.73-1.18s1.44-.44,2.29-.44,1.6.15,2.27.44,1.23.68,1.7,1.17c.47.49.83,1.06,1.07,1.7.24.65.37,1.32.37,2.02,0,.17,0,.34-.01.5,0,.16-.02.29-.05.4h-8.02c.04.41.14.77.3,1.09.16.32.36.59.61.81.25.22.53.4.85.52.32.12.65.18.99.18.53,0,1.03-.13,1.5-.39.47-.26.79-.6.96-1.02l2.28.63c-.38.79-.99,1.44-1.83,1.95-.84.51-1.84.76-3,.76Zm2.69-6.26c-.07-.78-.35-1.4-.86-1.87-.51-.47-1.13-.7-1.85-.7-.36,0-.69.06-1,.19-.31.13-.58.3-.82.52s-.43.5-.58.81c-.15.32-.24.67-.27,1.05h5.39Z"/>
    <path class="cls-1" d="m37.12,27.13h-2.65v-5.83c0-.83-.15-1.44-.44-1.82-.29-.38-.69-.57-1.21-.57-.26,0-.53.05-.81.16-.28.11-.54.25-.78.45-.24.19-.47.42-.66.68-.2.26-.34.55-.44.87v6.06h-2.66v-10.38h2.4v1.92c.38-.66.94-1.18,1.66-1.55.73-.37,1.55-.55,2.46-.55.65,0,1.18.12,1.58.36.41.24.73.55.95.93s.38.82.47,1.31c.09.49.13.98.13,1.49v6.48Z"/>
    <path class="cls-1" d="m43.73,27.33c-.71,0-1.37-.14-1.98-.42-.61-.28-1.13-.66-1.57-1.15-.44-.49-.78-1.06-1.02-1.71-.24-.65-.37-1.36-.37-2.11s.12-1.45.35-2.1c.23-.65.55-1.21.96-1.7.41-.49.9-.87,1.47-1.15.57-.28,1.19-.42,1.86-.42.77,0,1.46.19,2.07.55.61.37,1.09.85,1.44,1.45v-5.9h2.65v11.41c0,.28.05.48.14.59.09.12.25.19.48.2v2.26c-.46.09-.84.14-1.13.14-.48,0-.87-.12-1.17-.36-.3-.24-.48-.55-.52-.93l-.06-.65c-.38.66-.9,1.16-1.56,1.5-.65.34-1.34.51-2.05.51Zm.69-2.26c.25,0,.51-.04.77-.13.26-.09.51-.21.73-.37.22-.16.43-.34.6-.56.18-.21.31-.44.41-.69v-2.48c-.11-.29-.25-.56-.45-.8-.19-.24-.41-.46-.65-.63-.24-.18-.5-.32-.77-.43-.27-.11-.54-.16-.8-.16-.4,0-.76.09-1.1.26-.34.17-.62.41-.86.7s-.42.64-.55,1.02c-.13.38-.2.78-.2,1.19,0,.44.07.84.22,1.21s.34.69.59.97c.25.28.55.5.9.65.35.16.74.24,1.16.24Z"/>
    <path class="cls-1" d="m57.01,27.33c-.85,0-1.6-.15-2.28-.44-.67-.29-1.25-.68-1.71-1.18-.47-.5-.83-1.07-1.08-1.71-.25-.65-.38-1.33-.38-2.04s.13-1.41.38-2.06c.25-.65.61-1.22,1.08-1.71.47-.5,1.04-.89,1.71-1.18.67-.29,1.43-.44,2.28-.44s1.6.15,2.27.44c.67.29,1.23.68,1.7,1.18.47.5.83,1.07,1.08,1.71.25.65.38,1.33.38,2.06s-.13,1.39-.38,2.04c-.25.65-.61,1.22-1.07,1.71-.46.5-1.03.89-1.7,1.18s-1.43.44-2.28.44Zm-2.71-5.37c0,.46.07.88.21,1.26s.33.7.57.98c.24.28.53.49.86.64.33.15.69.23,1.07.23s.74-.08,1.07-.23c.33-.15.62-.37.86-.64.25-.28.44-.61.58-.99s.21-.81.21-1.27-.07-.87-.21-1.25c-.14-.38-.33-.71-.58-.99-.24-.28-.53-.49-.86-.64s-.69-.23-1.07-.23-.74.08-1.07.24c-.33.16-.62.38-.86.65-.24.28-.44.61-.57.99-.14.38-.21.8-.21,1.25Z"/>
    <path class="cls-1" d="m70.4,19.05c-.81.01-1.53.17-2.16.47s-1.09.74-1.37,1.34v6.28h-2.65v-10.38h2.44v2.22c.18-.36.4-.68.65-.96.25-.28.52-.53.81-.74.29-.21.58-.37.88-.49.3-.11.58-.17.86-.17h.33c.07,0,.14,0,.21.02v2.42Z"/>
  </g>
</svg>