<svg width="20" height="20" viewBox="0 0 20 20" fill="none" xmlns="http://www.w3.org/2000/svg">
<path d="M2.79154 1.66667H10.2082C10.8249 1.66667 11.3332 2.17501 11.3332 2.79168V4.02499C11.3332 4.47499 11.0499 5.03334 10.7749 5.31668L8.35826 7.45001C8.02492 7.73334 7.79989 8.29166 7.79989 8.74166V11.1584C7.79989 11.4917 7.5749 11.9417 7.29156 12.1167L6.50823 12.625C5.7749 13.075 4.76654 12.5667 4.76654 11.6667V8.69167C4.76654 8.3 4.54156 7.79168 4.31656 7.50835L2.18323 5.25834C1.89989 4.975 1.67491 4.475 1.67491 4.13333V2.84167C1.66657 2.17501 2.17488 1.66667 2.79154 1.66667Z" stroke="white" stroke-width="1.5" stroke-miterlimit="10" stroke-linecap="round" stroke-linejoin="round"/>
<path d="M1.66699 9.99999V12.5C1.66699 16.6667 3.33366 18.3333 7.50033 18.3333H12.5003C16.667 18.3333 18.3337 16.6667 18.3337 12.5V7.49999C18.3337 4.89999 17.6836 3.26666 16.1753 2.41666C15.7503 2.17499 14.9003 1.99165 14.1253 1.86665" stroke="white" stroke-width="1.5" stroke-linecap="round" stroke-linejoin="round"/>
<path d="M10.833 10.8333H14.9997" stroke="white" stroke-width="1.5" stroke-linecap="round" stroke-linejoin="round"/>
<path d="M9.16699 14.1667H15.0003" stroke="white" stroke-width="1.5" stroke-linecap="round" stroke-linejoin="round"/>
</svg>
