<svg width="30" height="30" viewBox="0 0 30 30" fill="none" xmlns="http://www.w3.org/2000/svg">
<path fill-rule="evenodd" clip-rule="evenodd" d="M2.8125 5.625C2.8125 4.0717 4.0717 2.8125 5.625 2.8125H24.375C25.9284 2.8125 27.1875 4.07171 27.1875 5.625V15C27.1875 15.5177 26.7677 15.9375 26.25 15.9375C25.7323 15.9375 25.3125 15.5177 25.3125 15V5.625C25.3125 5.10722 24.8927 4.6875 24.375 4.6875H5.625C5.10724 4.6875 4.6875 5.10724 4.6875 5.625V24.375C4.6875 24.8927 5.10722 25.3125 5.625 25.3125H15C15.5177 25.3125 15.9375 25.7323 15.9375 26.25C15.9375 26.7677 15.5177 27.1875 15 27.1875H5.625C4.07171 27.1875 2.8125 25.9284 2.8125 24.375V5.625Z" fill="#00B38D"/>
<path fill-rule="evenodd" clip-rule="evenodd" d="M20 17.1875C18.4468 17.1875 17.1875 18.4468 17.1875 20C17.1875 21.5532 18.4468 22.8125 20 22.8125C21.5532 22.8125 22.8125 21.5532 22.8125 20C22.8125 18.4468 21.5532 17.1875 20 17.1875ZM15.3125 20C15.3125 17.4111 17.4111 15.3125 20 15.3125C22.5889 15.3125 24.6875 17.4111 24.6875 20C24.6875 22.5889 22.5889 24.6875 20 24.6875C17.4111 24.6875 15.3125 22.5889 15.3125 20Z" fill="#00B38D"/>
<path fill-rule="evenodd" clip-rule="evenodd" d="M22.393 21.9144C22.7164 21.5101 23.3064 21.4446 23.7106 21.7679L26.8356 24.2679C27.24 24.5914 27.3055 25.1814 26.9821 25.5857C26.6586 25.9901 26.0687 26.0556 25.6644 25.7321L22.5394 23.2321C22.1351 22.9087 22.0695 22.3187 22.393 21.9144Z" fill="#00B38D"/>
<path fill-rule="evenodd" clip-rule="evenodd" d="M7.8125 10C7.8125 9.48224 8.23224 9.0625 8.75 9.0625H21.25C21.7678 9.0625 22.1875 9.48224 22.1875 10C22.1875 10.5178 21.7678 10.9375 21.25 10.9375H8.75C8.23224 10.9375 7.8125 10.5178 7.8125 10Z" fill="#00B38D"/>
<path fill-rule="evenodd" clip-rule="evenodd" d="M7.8125 15C7.8125 14.4822 8.23224 14.0625 8.75 14.0625H13.75C14.2678 14.0625 14.6875 14.4822 14.6875 15C14.6875 15.5178 14.2678 15.9375 13.75 15.9375H8.75C8.23224 15.9375 7.8125 15.5178 7.8125 15Z" fill="#00B38D"/>
</svg>
