<svg width="20" height="20" viewBox="0 0 20 20" fill="none" xmlns="http://www.w3.org/2000/svg">
<path d="M9.99998 13.3333C9.53974 13.3333 9.16665 13.7064 9.16665 14.1667C9.16665 14.6269 9.53974 15 9.99998 15C10.4602 15 10.8333 14.6269 10.8333 14.1667C10.8333 13.7064 10.4602 13.3333 9.99998 13.3333Z" fill="white"/>
<path d="M9.37499 11.6665C9.37499 12.0117 9.65482 12.2915 9.99999 12.2915C10.3452 12.2915 10.625 12.0117 10.625 11.6665H9.37499ZM10.625 5.83317C10.625 5.488 10.3452 5.20817 9.99999 5.20817C9.65482 5.20817 9.37499 5.488 9.37499 5.83317H10.625ZM17.7083 9.99984C17.7083 14.257 14.2572 17.7082 9.99999 17.7082V18.9582C14.9476 18.9582 18.9583 14.9474 18.9583 9.99984H17.7083ZM9.99999 17.7082C5.7428 17.7082 2.29166 14.257 2.29166 9.99984H1.04166C1.04166 14.9474 5.05244 18.9582 9.99999 18.9582V17.7082ZM2.29166 9.99984C2.29166 5.74265 5.7428 2.2915 9.99999 2.2915V1.0415C5.05244 1.0415 1.04166 5.05229 1.04166 9.99984H2.29166ZM9.99999 2.2915C14.2572 2.2915 17.7083 5.74265 17.7083 9.99984H18.9583C18.9583 5.05229 14.9476 1.0415 9.99999 1.0415V2.2915ZM10.625 11.6665V5.83317H9.37499V11.6665H10.625Z" fill="white"/>
</svg>
