<?xml version="1.0" encoding="UTF-8"?>
<svg id="Layer_1" data-name="Layer 1" xmlns="http://www.w3.org/2000/svg" viewBox="0 0 150 150">
  <defs>
    <style>
      .cls-1 {
        fill: #c51724;
      }

      .cls-1, .cls-2 {
        stroke-width: 0px;
      }
    </style>
  </defs>
  <g>
    <path class="cls-2" d="m17.2,106.8h-1.5c-.2,0-.3,0-.4-.1-.1,0-.2-.2-.2-.3l-1.3-3.5h-6.4l-1.3,3.5c0,.1-.1.2-.2.3-.1,0-.3.1-.4.1h-1.5l5.7-14.3h2l5.7,14.3Zm-4-5.3l-2.2-5.8c0-.2-.1-.4-.2-.6,0-.2-.1-.5-.2-.7-.1.5-.3,1-.4,1.4l-2.2,5.8h5.4Z"/>
    <path class="cls-2" d="m31.6,99.7c0,1.1-.2,2-.5,2.9-.3.9-.8,1.6-1.4,2.3-.6.6-1.4,1.1-2.2,1.5-.9.3-1.8.5-2.9.5h-5.4v-14.3h5.4c1.1,0,2,.2,2.9.5.9.3,1.6.8,2.2,1.5.6.6,1.1,1.4,1.4,2.3.3.9.5,1.9.5,2.9Zm-2,0c0-.9-.1-1.7-.4-2.4-.2-.7-.6-1.3-1-1.8-.4-.5-1-.8-1.6-1.1-.6-.3-1.3-.4-2.1-.4h-3.4v11.2h3.4c.8,0,1.5-.1,2.1-.4.6-.3,1.2-.6,1.6-1.1s.8-1.1,1-1.8c.2-.7.4-1.5.4-2.4Z"/>
    <path class="cls-2" d="m46.8,99.7c0,1.1-.2,2-.5,2.9-.3.9-.8,1.6-1.4,2.3-.6.6-1.4,1.1-2.2,1.5-.9.3-1.8.5-2.9.5h-5.4v-14.3h5.4c1.1,0,2,.2,2.9.5.9.3,1.6.8,2.2,1.5.6.6,1.1,1.4,1.4,2.3.3.9.5,1.9.5,2.9Zm-2,0c0-.9-.1-1.7-.4-2.4-.2-.7-.6-1.3-1-1.8-.4-.5-1-.8-1.6-1.1-.6-.3-1.3-.4-2.1-.4h-3.4v11.2h3.4c.8,0,1.5-.1,2.1-.4.6-.3,1.2-.6,1.6-1.1s.8-1.1,1-1.8c.2-.7.4-1.5.4-2.4Z"/>
    <path class="cls-2" d="m65.6,92.5l-5.8,14.3h-1.7l-5.8-14.3h1.5c.2,0,.3,0,.4.1.1,0,.2.2.2.3l4,10.1c0,.2.2.5.3.7s.2.5.2.8c0-.3.1-.6.2-.8s.2-.5.2-.7l4-10.1c0-.1.1-.2.2-.3s.3-.1.4-.1h1.5Z"/>
    <path class="cls-2" d="m76.3,105.3v1.6h-8.8v-14.3h8.8v1.6h-6.9v4.8h5.6v1.5h-5.6v4.9h6.9Z"/>
    <path class="cls-2" d="m90.7,92.5v14.3h-1c-.2,0-.3,0-.4,0-.1,0-.2-.1-.3-.3l-8.3-10.8c0,.2,0,.3,0,.5,0,.2,0,.3,0,.5v10.2h-1.7v-14.3h1c0,0,.2,0,.2,0,0,0,.1,0,.2,0s0,0,.1,0c0,0,0,0,.1.2l8.3,10.8c0-.2,0-.3,0-.5,0-.2,0-.3,0-.5v-10.2h1.7Z"/>
    <path class="cls-2" d="m106.7,99.7c0,1.1-.2,2-.5,2.9-.3.9-.8,1.6-1.4,2.3-.6.6-1.4,1.1-2.2,1.5-.9.3-1.8.5-2.9.5h-5.3v-14.3h5.3c1.1,0,2,.2,2.9.5.9.3,1.6.8,2.2,1.5.6.6,1.1,1.4,1.4,2.3.3.9.5,1.9.5,2.9Zm-2,0c0-.9-.1-1.7-.4-2.4-.2-.7-.6-1.3-1-1.8-.4-.5-1-.8-1.6-1.1-.6-.3-1.3-.4-2.1-.4h-3.4v11.2h3.4c.8,0,1.5-.1,2.1-.4.6-.3,1.2-.6,1.6-1.1.4-.5.8-1.1,1-1.8.2-.7.4-1.5.4-2.4Z"/>
    <path class="cls-2" d="m122.8,99.7c0,1.1-.2,2.1-.5,3s-.8,1.7-1.4,2.3-1.4,1.1-2.2,1.5-1.8.5-2.9.5-2-.2-2.9-.5c-.9-.4-1.6-.9-2.2-1.5s-1.1-1.4-1.4-2.3c-.3-.9-.5-1.9-.5-3s.2-2.1.5-3c.3-.9.8-1.7,1.4-2.3.6-.7,1.4-1.2,2.2-1.5.9-.4,1.8-.5,2.9-.5s2,.2,2.9.5c.9.4,1.6.9,2.2,1.5.6.6,1.1,1.4,1.4,2.3s.5,1.9.5,3Zm-2,0c0-.9-.1-1.7-.4-2.4s-.6-1.3-1-1.8c-.4-.5-1-.9-1.6-1.1s-1.3-.4-2.1-.4-1.5.1-2.1.4c-.6.3-1.2.6-1.6,1.1s-.8,1.1-1,1.8c-.2.7-.4,1.5-.4,2.4s.1,1.7.4,2.4c.2.7.6,1.3,1,1.8.4.5,1,.9,1.6,1.1.6.3,1.3.4,2.1.4s1.5-.1,2.1-.4,1.2-.6,1.6-1.1c.4-.5.8-1.1,1-1.8s.4-1.5.4-2.4Z"/>
    <path class="cls-2" d="m136.1,106.8h-1.7c-.4,0-.6-.1-.8-.4l-3.7-5.1c-.1-.2-.2-.3-.4-.3s-.3-.1-.6-.1h-1.5v6h-1.9v-14.3h4c.9,0,1.7,0,2.3.3s1.2.4,1.6.8c.4.3.7.8,1,1.3.2.5.3,1,.3,1.6s0,1-.2,1.4c-.2.4-.4.8-.7,1.2-.3.3-.7.6-1.1.9-.4.2-.9.4-1.5.6.2.1.5.3.6.6l4.2,5.7Zm-6.6-7.4c.6,0,1.1,0,1.5-.2.4-.1.8-.3,1.1-.6.3-.2.5-.5.7-.9s.2-.7.2-1.1c0-.9-.3-1.5-.8-1.9-.6-.4-1.4-.6-2.5-.6h-2.1v5.4h2Z"/>
    <path class="cls-2" d="m143.7,107c0,.2-.2.4-.4.5-.2.1-.4.2-.6.2h-.8l6-15c0-.2.2-.4.4-.5.2-.1.4-.2.6-.2h.8l-6,14.9Z"/>
  </g>
  <g>
    <path class="cls-2" d="m38.1,117.1v14.3h-1.7v-10.5c0-.1,0-.3,0-.5,0-.2,0-.3,0-.5l-4.9,9c-.2.3-.4.5-.7.5h-.3c-.3,0-.5-.2-.7-.5l-5-9c0,.4,0,.7,0,1v10.5h-1.7v-14.3h1.4c.2,0,.3,0,.4,0,0,0,.2.1.3.3l4.9,8.8c0,.2.2.3.2.5,0,.2.1.3.2.5,0-.2.1-.4.2-.5s.2-.3.2-.5l4.9-8.8c0-.2.2-.2.3-.3,0,0,.2,0,.4,0h1.4Z"/>
    <path class="cls-2" d="m50.6,129.8v1.6h-8.8v-14.3h8.8v1.6h-6.9v4.8h5.6v1.5h-5.6v4.9h6.9Z"/>
    <path class="cls-2" d="m63.9,131.4h-1.7c-.4,0-.6-.1-.8-.4l-3.7-5.1c-.1-.2-.2-.3-.4-.3s-.3-.1-.6-.1h-1.5v6h-1.9v-14.3h4c.9,0,1.7,0,2.4.3s1.2.4,1.6.8c.4.3.7.8,1,1.3s.3,1,.3,1.6,0,1-.2,1.4c-.2.4-.4.8-.7,1.2-.3.3-.7.6-1.1.9-.4.2-.9.4-1.5.6.2.1.5.3.6.6l4.2,5.7Zm-6.6-7.4c.6,0,1.1,0,1.5-.2.4-.1.8-.3,1.1-.6.3-.2.5-.5.7-.9.1-.3.2-.7.2-1.1,0-.9-.3-1.5-.8-1.9-.6-.4-1.4-.6-2.5-.6h-2.1v5.4h2Z"/>
    <path class="cls-2" d="m75.7,128.5c.1,0,.2,0,.3.1l.8.8c-.6.7-1.3,1.2-2.1,1.6-.8.4-1.8.6-3,.6s-2-.2-2.8-.5c-.8-.4-1.6-.9-2.2-1.5s-1.1-1.4-1.4-2.3c-.3-.9-.5-1.9-.5-3s.2-2.1.5-3c.3-.9.8-1.7,1.4-2.3s1.4-1.1,2.2-1.5c.9-.4,1.8-.5,2.9-.5s1.9.2,2.7.5c.8.3,1.5.8,2.1,1.3l-.6.9c0,0,0,.1-.2.2,0,0-.1,0-.3,0s-.3,0-.4-.2c-.2-.1-.4-.3-.7-.4-.3-.2-.6-.3-1-.4s-.9-.2-1.5-.2-1.4.1-2,.4-1.1.6-1.6,1.1c-.4.5-.8,1.1-1,1.8s-.4,1.5-.4,2.4.1,1.7.4,2.4c.3.7.6,1.3,1.1,1.8.4.5,1,.9,1.6,1.1.6.3,1.3.4,2,.4s.8,0,1.2,0,.7-.1,1-.2c.3-.1.6-.2.8-.4.2-.2.5-.4.7-.6.1-.1.2-.2.3-.2Z"/>
    <path class="cls-2" d="m90.7,117.1v14.3h-1.9v-6.5h-7.7v6.5h-1.9v-14.3h1.9v6.4h7.7v-6.4h1.9Z"/>
    <path class="cls-2" d="m106,131.4h-1.5c-.2,0-.3,0-.4-.1s-.2-.2-.2-.3l-1.3-3.5h-6.4l-1.3,3.5c0,.1-.1.2-.2.3-.1,0-.3.1-.4.1h-1.5l5.7-14.3h2l5.7,14.3Zm-4-5.3l-2.2-5.8c0-.2-.1-.4-.2-.6,0-.2-.1-.5-.2-.7-.1.5-.3,1-.4,1.4l-2.2,5.8h5.3Z"/>
    <path class="cls-2" d="m119.5,117.1v14.3h-1c-.2,0-.3,0-.4,0-.1,0-.2-.1-.3-.3l-8.3-10.8c0,.2,0,.3,0,.5s0,.3,0,.5v10.2h-1.7v-14.3h1c0,0,.2,0,.2,0,0,0,.1,0,.2,0,0,0,0,0,.1,0,0,0,0,0,.2.2l8.3,10.8c0-.2,0-.3,0-.5s0-.3,0-.5v-10.2h1.7Z"/>
    <path class="cls-2" d="m132.8,118.7h-4.6v12.7h-1.9v-12.7h-4.7v-1.6h11.2v1.6Z"/>
  </g>
  <g>
    <path class="cls-1" d="m58.2,46c-4.3,0-8.6,0-12.9,0-1.2,0-1.5-.3-1.5-1.5,0-1.4,0-2.9.1-4.3.3-2,1.5-3.4,3.3-4.2,2-.9,4.1-1.8,6.1-2.7.4-.2.6-.4.5-.8,0,0,0,0,0,0,.1-1.3,0-2.5-1.3-3.4-1.1-.9-1.6-2.3-2-3.8,0-.2-.3-.5-.5-.6-1.9-.8-3-2.3-2.9-4.4,0-2.1-.2-4.2.4-6.2,1.4-5,6.3-8.5,11.5-8,5.2.4,9.5,4.4,10.1,9.6.2,1.7.2,3.5,0,5.3-.1,1.8-1.2,3-2.8,3.7-.4.1-.5.3-.6.7-.4,1.8-1.3,3.3-2.7,4.6-.2.2-.4.6-.4.9,0,.6,0,1.3,0,1.9,0,.4.1.6.5.7,2,.9,3.9,1.7,5.9,2.6,2.4,1.1,3.7,2.9,3.6,5.6,0,1,0,2.1,0,3.1,0,1-.4,1.4-1.4,1.4-4.4,0-8.7,0-13.1,0Zm12.2-2.3c0-.9,0-1.6,0-2.4,0-1.5-.7-2.7-2.1-3.3-2.1-.9-4.2-1.9-6.3-2.8-.2,0-.6,0-.8,0-.8.5-1.5,1-2.3,1.5-.5.4-1.1.4-1.6,0-.7-.5-1.5-1-2.3-1.5-.2-.1-.5-.2-.7,0-2.2.9-4.3,1.9-6.5,2.9-1.1.5-1.8,1.3-1.9,2.5-.1,1,0,2.1,0,3.2h24.4Zm-4.4-21.5c.8-.5,1.1-1.1,1.1-1.9,0-1.2,0-2.3,0-3.5,0-4.5-3.5-8.2-8-8.7-4.3-.5-8.6,2.4-9.5,6.7-.4,1.9-.3,3.9-.3,5.8,0,.6.4,1.2,1.1,1.5,0-1.4,0-2.6,0-3.9,0-.9.4-1.3,1.3-1.3.8,0,1.6,0,2.4,0,1.7.2,3.1-.2,4.2-1.7.6-.8,1.3-.8,1.9,0,1.1,1.5,2.5,1.9,4.3,1.7,1.1-.1,1.5.3,1.5,1.4,0,1.2,0,2.4,0,3.8Zm-2.3-3c-1.8.4-3.3,0-4.3-1.8-.3.4-.5.6-.7.8-.7.9-1.5,1.2-2.6,1.1-1.1,0-2.2,0-3.4,0,0,1.6,0,3.1,0,4.7,0,2.8,2.3,5.1,5.1,5.3,2.8.2,5.5-1.7,5.9-4.5.2-1.8,0-3.6,0-5.6Zm-7.7,12.2c0,.4,0,.8,0,1.2,0,.4.1.6.5.8,1.9,1.3,1.9,1.3,3.7-.1.1,0,.3-.2.3-.3,0-.6,0-1.2,0-1.6h-4.4Z"/>
    <path class="cls-1" d="m96,72.6c-4.3,0-8.6,0-12.9,0-1.2,0-1.6-.3-1.6-1.6,0-1.1,0-2.2,0-3.3,0-2.4,1.2-4.2,3.3-5.2,2-.9,4.1-1.8,6.1-2.7.4-.2.6-.4.6-.9,0-1.4,0-2.5-1.3-3.5-1.1-.9-1.6-2.3-1.9-3.8,0-.2-.3-.5-.5-.6-2-.8-3-2.3-3-4.5,0-1.8,0-3.7.3-5.5,1-5.2,5.9-8.9,11.4-8.6,5.2.2,9.8,4.4,10.4,9.6.2,1.7.2,3.5.1,5.3-.1,1.8-1.1,3-2.7,3.7-.5.2-.6.4-.7.9-.4,1.8-1.3,3.2-2.7,4.3-.3.3-.5.6-.5,1,0,.8-.2,1.7.1,2.2.3.5,1.3.7,1.9,1,1.5.7,3,1.3,4.5,2,2.3,1,3.4,2.8,3.4,5.3,0,1.1,0,2.1,0,3.2,0,1.1-.4,1.5-1.5,1.5-4.3,0-8.6,0-12.9,0Zm12.2-2.2c0-.8,0-1.6,0-2.4,0-1.6-.7-2.7-2.1-3.4-2.1-.9-4.1-1.9-6.2-2.8-.2-.1-.6,0-.9,0-.8.4-1.5.9-2.2,1.5-.6.4-1.1.4-1.7,0-.7-.5-1.5-1-2.3-1.5-.2-.1-.5-.2-.7,0-2.2.9-4.4,1.9-6.5,2.9-.9.4-1.6,1.1-1.7,2-.2,1.2-.2,2.5-.3,3.7h24.5Zm-20-21.5c0-1.4,0-2.7,0-4,0-.8.4-1.2,1.2-1.2.9,0,1.8,0,2.7,0,1.6.2,2.8-.3,3.8-1.6.8-1,1.4-1,2.2,0,1,1.2,2.2,1.7,3.8,1.6,1.5-.1,1.8.2,1.8,1.8,0,1.1,0,2.2,0,3.4.8-.5,1.1-1.2,1.1-1.9,0-1.1,0-2.3,0-3.4,0-4.5-3.5-8.2-8-8.7-4.3-.5-8.6,2.5-9.4,6.8-.4,1.9-.2,3.9-.3,5.8,0,.6.4,1.1,1.1,1.5Zm8.9-4.9c-.4.5-.7.7-.9,1.1-.5.7-1.2.9-2.1.9-1.2,0-2.4,0-3.7,0,0,1.7,0,3.3,0,4.9.2,2.7,2.5,4.9,5.2,5.1,2.8.2,5.3-1.7,5.8-4.5.2-1.4.1-2.8.1-4.2,0-.4,0-.9,0-1.4-1.9.4-3.4,0-4.4-1.8Zm-3.3,14c-.2,1.1-.1,2.1,1.2,2.6.3.1.5.3.7.4.2,0,.4.1.5,0,.6-.4,1.2-.7,1.7-1.1.1,0,.2-.3.2-.4,0-.5,0-1.1,0-1.5h-4.4Z"/>
    <path class="cls-2" d="m92.8,23.7c1.1,1.3,2.1,2.5,3.2,3.8,1-1.3,2.1-2.5,3.2-3.8-.3,0-.5,0-.7,0-.9,0-1.3-.4-1.3-1.3,0-2.4,0-4.7,0-7.1,0-3.1-1.8-4.9-4.9-4.9-6.3,0-12.6,0-19,0-.2,0-.5,0-.7,0-.6,0-1-.6-1-1.1,0-.6.4-1,1-1.1.2,0,.4,0,.6,0,6.4,0,12.7,0,19.1,0,4.2,0,7.1,2.8,7.1,7,0,2.1,0,4.1,0,6.3.7,0,1.3,0,2,0,.5,0,1,.1,1.2.6.3.5,0,1-.3,1.4-1.8,2.1-3.5,4.2-5.3,6.3-.7.8-1.4.8-2,0-1.8-2.1-3.5-4.2-5.3-6.3-.3-.4-.5-.8-.3-1.3.2-.5.7-.7,1.3-.7.6,0,1.2,0,1.9,0v-6.7h-.8c-6.2,0-12.4,0-18.6,0-.2,0-.5,0-.7,0-.6-.1-1-.5-1-1.1,0-.6.4-1,1-1.1.2,0,.4,0,.6,0,6.4,0,12.8,0,19.2,0,1.7,0,2.6.9,2.6,2.5,0,2.3,0,4.6,0,6.9,0,1.4-.3,1.7-1.6,1.7,0,0-.2,0-.4,0Z"/>
    <path class="cls-2" d="m61.5,57.1v6.7h.8c5.1,0,10.2,0,15.4,0,.2,0,.5,0,.7,0,.6.1,1,.5.9,1.1,0,.6-.4.9-.9,1.1-.2,0-.4,0-.6,0-5.3,0-10.6,0-15.8,0-1.8,0-2.6-.8-2.6-2.6,0-2.2,0-4.3,0-6.5,0-1.8.1-1.9,2-2-1.1-1.3-2.1-2.5-3.1-3.8-1,1.3-2.1,2.5-3.1,3.7,0,0,0,.1.1.1,1.7,0,1.9.6,1.8,1.9,0,2.2,0,4.5,0,6.7,0,2.8,1.9,4.7,4.7,4.7,5.3,0,10.6,0,15.9,0,.2,0,.4,0,.6,0,.6,0,1,.5,1,1.1,0,.6-.4,1-1,1.1-.2,0-.4,0-.6,0-5.3,0-10.6,0-15.8,0-4.2,0-7-2.9-7-7,0-2.1,0-4.2,0-6.3-.7,0-1.4,0-2.1,0-.5,0-1-.2-1.2-.7-.2-.5,0-.9.3-1.3,1.8-2.1,3.6-4.3,5.3-6.4.6-.7,1.3-.7,1.9,0,1.8,2.1,3.6,4.3,5.3,6.4.3.4.5.8.3,1.3-.2.5-.7.7-1.2.7-.6,0-1.3,0-2,0Z"/>
  </g>
</svg>