<?xml version="1.0" encoding="UTF-8"?><svg id="Layer_1" xmlns="http://www.w3.org/2000/svg" width="150" height="150" viewBox="0 0 150 150"><defs><style>.cls-1{fill:#c51724;}.cls-1,.cls-2{stroke-width:0px;}</style></defs><path class="cls-2" d="M42.7,103.7h-1.5c-.2,0-.3,0-.4-.1-.1,0-.2-.2-.2-.3l-1.3-3.5h-6.4l-1.3,3.5c0,.1-.1.2-.2.3-.1,0-.3.1-.4.1h-1.5l5.7-14.3h2l5.7,14.3ZM38.6,98.4l-2.2-5.8c0-.2-.1-.4-.2-.6,0-.2-.1-.5-.2-.7-.1.5-.3,1-.4,1.4l-2.2,5.8h5.4Z"/><path class="cls-2" d="M57,96.5c0,1.1-.2,2-.5,2.9-.3.9-.8,1.6-1.4,2.3-.6.6-1.4,1.1-2.2,1.5-.9.3-1.8.5-2.9.5h-5.4v-14.3h5.4c1.1,0,2,.2,2.9.5.9.3,1.6.8,2.2,1.5.6.6,1.1,1.4,1.4,2.3.3.9.5,1.9.5,2.9ZM55,96.5c0-.9-.1-1.7-.4-2.4-.2-.7-.6-1.3-1-1.8-.4-.5-1-.8-1.6-1.1-.6-.3-1.3-.4-2.1-.4h-3.4v11.2h3.4c.8,0,1.5-.1,2.1-.4.6-.3,1.2-.6,1.6-1.1s.8-1.1,1-1.8c.2-.7.4-1.5.4-2.4Z"/><path class="cls-2" d="M72.2,96.5c0,1.1-.2,2-.5,2.9-.3.9-.8,1.6-1.4,2.3-.6.6-1.4,1.1-2.2,1.5-.9.3-1.8.5-2.9.5h-5.4v-14.3h5.4c1.1,0,2,.2,2.9.5.9.3,1.6.8,2.2,1.5.6.6,1.1,1.4,1.4,2.3.3.9.5,1.9.5,2.9ZM70.2,96.5c0-.9-.1-1.7-.4-2.4-.2-.7-.6-1.3-1-1.8-.4-.5-1-.8-1.6-1.1-.6-.3-1.3-.4-2.1-.4h-3.4v11.2h3.4c.8,0,1.5-.1,2.1-.4.6-.3,1.2-.6,1.6-1.1s.8-1.1,1-1.8c.2-.7.4-1.5.4-2.4Z"/><path class="cls-2" d="M87.4,91.6c0,0-.1.2-.2.2s-.2,0-.3,0-.2,0-.4-.2-.3-.2-.6-.4c-.2-.1-.5-.3-.8-.4s-.7-.2-1.2-.2-.8,0-1.1.2c-.3.1-.6.3-.8.5-.2.2-.4.4-.5.7-.1.3-.2.6-.2.9s0,.7.3,1c.2.3.5.5.8.7.3.2.7.3,1.1.5s.8.3,1.3.4c.4.1.9.3,1.3.5.4.2.8.4,1.1.7s.6.6.8,1c.2.4.3.9.3,1.5s-.1,1.2-.3,1.8c-.2.5-.5,1-.9,1.4-.4.4-.9.7-1.5,1-.6.2-1.3.4-2,.4s-1.8-.2-2.5-.5c-.8-.3-1.4-.8-1.9-1.4l.6-.9c0,0,.1-.1.2-.2,0,0,.2,0,.3,0s.2,0,.3.1.2.2.4.3c.1.1.3.2.5.3s.4.2.6.3c.2.1.5.2.8.3.3,0,.6.1,1,.1s.9,0,1.2-.2c.4-.1.7-.3.9-.5.2-.2.4-.5.6-.8.1-.3.2-.7.2-1.1s0-.8-.3-1.1-.5-.5-.8-.7c-.3-.2-.7-.3-1.1-.5s-.8-.3-1.3-.4-.8-.3-1.3-.5c-.4-.2-.8-.4-1.1-.7-.3-.3-.6-.6-.8-1.1-.2-.4-.3-1-.3-1.6s0-1,.3-1.5c.2-.5.5-.9.9-1.3.4-.4.8-.7,1.4-.9.5-.2,1.2-.3,1.9-.3s1.5.1,2.2.4c.7.3,1.2.6,1.7,1.1l-.5.9Z"/><path class="cls-2" d="M92.9,103.7h-1.9v-14.3h1.9v14.3Z"/><path class="cls-2" d="M106.1,90.1c0,.2,0,.4-.2.6l-8.1,11.4h8.2v1.6h-10.7v-.8c0-.1,0-.2,0-.3,0,0,0-.2.1-.3l8.1-11.4h-7.9v-1.6h10.5v.7Z"/><path class="cls-2" d="M117.4,102.1v1.6h-8.8v-14.3h8.8v1.6h-6.9v4.8h5.6v1.5h-5.6v4.9h6.9Z"/><path class="cls-1" d="M55.9,39.4c-1.7,0-3.3,0-4.8,0-.7,0-1.5,0-2.2,0-2.8-.3-4.3-3.1-2.9-5.6,1.5-2.7,3.1-5.4,4.7-8.1.7-1.2,1.4-2.5,2.3-3.6,3.9-5,9.1-7.5,15.4-7.6,3.1,0,6.3,0,9.4,0,7.4.2,13.1,3.5,16.9,9.8,1.9,3.1,3.7,6.3,5.5,9.5,1.2,2.2.2,4.8-2.1,5.5-.5.1-1,.2-1.5.2-2.1,0-4.1,0-6.2,0,0,.3,0,.5,0,.7,0,1.9,0,3.7,0,5.6,0,.2,0,.5,0,.7-.1.4-.5.7-1,.7-.5,0-.8-.3-.9-.8,0-.2,0-.4,0-.6,0-3.7,0-7.5,0-11.2,0-.1,0-.2,0-.3,0-.7.4-1.1,1-1.1.6,0,1,.4,1,1.1,0,.9,0,1.7,0,2.6,0,.2,0,.4,0,.7.3,0,.4,0,.6,0,1.9,0,3.9,0,5.8,0,1.8,0,2.5-1.3,1.6-2.8-1.7-3-3.5-6.1-5.2-9.1-2.3-3.9-5.5-6.6-9.8-8.1,0,0-.2,0-.2,0,0,0,0,0-.2,0-1.2,4.6-4.1,7.3-8.9,8.1,0,1.2,0,2.4,0,3.6,0,1-.3,1.5-1,1.5-.7,0-1-.5-1-1.5,0-1.2,0-2.4,0-3.6-4.7-.8-7.7-3.5-8.9-8.2-1.5.4-2.8,1.1-4.1,1.8-2.7,1.7-4.8,4-6.4,6.9-1.6,2.9-3.2,5.7-4.9,8.5-.8,1.2-.2,2.9,1.6,2.9,2,0,3.9,0,5.9,0,.2,0,.3,0,.6,0,0-.8,0-1.5,0-2.2,0-.4,0-.9,0-1.3,0-.6.5-.8,1-.8.5,0,.8.3.9.9,0,.2,0,.5,0,.7,0,10.9,0,21.9,0,32.8q0,1,1,1c5.3,0,10.6,0,15.9,0,.2,0,.4,0,.6,0,.5,0,.9.5,1,1,0,.5-.4,1-1,1-.2,0-.3,0-.5,0-5.4,0-10.8,0-16.2,0-1.8,0-2.7-.9-2.7-2.8,0-9.1,0-18.2,0-27.3,0-.3,0-.5,0-.9ZM65.2,16.6c.3,3,3.2,6.8,7.8,6.8,4.7,0,7.6-3.8,7.9-6.8-5.2-.3-10.4-.3-15.7,0Z"/><path class="cls-2" d="M85,70.3c-6.3,0-11-4.8-11-11.1,0-6,5-10.9,11.1-10.8,6,0,10.9,5,10.9,10.9,0,6.3-4.8,11-11,11ZM85.1,50.4c-5-.1-8.9,3.7-9.1,8.8-.1,4.8,3.9,9,8.7,9.1,5,0,9.2-3.8,9.3-8.7.1-5.2-3.7-9.1-8.9-9.2Z"/><path class="cls-2" d="M84,60.4c-1.4,0-2.7,0-4,0-.3,0-.8-.3-1-.6-.1-.2,0-.7.1-1,.2-.2.6-.4,1-.4,1.3,0,2.5,0,3.9,0,0-1.3,0-2.6,0-3.9,0-.5.2-.9.7-1.1.7-.2,1.2.3,1.3,1.1,0,1.3,0,2.6,0,3.9,1.3,0,2.6,0,3.9,0,.6,0,1,.2,1.1.8.2.7-.3,1.2-1.1,1.2-1.3,0-2.6,0-3.9,0,0,1.1,0,2.1,0,3.2,0,.3,0,.6,0,.9,0,.6-.4,1-1,1-.5,0-1-.4-1-1,0-1.2,0-2.4,0-3.6,0-.1,0-.3,0-.5Z"/></svg>