<?xml version="1.0" encoding="utf-8"?>
<!-- Generator: Adobe Illustrator 28.2.0, SVG Export Plug-In . SVG Version: 6.00 Build 0)  -->
<svg version="1.1" id="Layer_1" xmlns="http://www.w3.org/2000/svg" xmlns:xlink="http://www.w3.org/1999/xlink" x="0px" y="0px"
	 viewBox="0 0 150 150" style="enable-background:new 0 0 150 150;" xml:space="preserve">
<style type="text/css">
	.st0{fill:#C51724;}
</style>
<path class="st0" d="M80.4,75.6h2.2c13.6,0,27.1,0,41,0c12.2,0,21.6,9.7,21.6,21.6c0,8.9,0,18,0,26.9c0,12.2-9.7,21.6-21.9,21.6
	c-32.4,0-64.5,0-96.9,0c-12.2,0-21.9-9.4-21.9-21.9c0-32.4,0-64.8,0-97.2C4.5,14.4,14.2,5,26.1,5c10.8,0,21.6,0,32.4,0
	c12.2,0,21.6,9.7,21.6,21.9c0,15.5,0,30.7,0,46.2v2.2L80.4,75.6z M69.6,75.6c0-0.6,0-1.1,0-1.7c0-15.5,0-30.7,0-46.2
	c0-6.9-4.4-11.4-11.6-11.6c-10.2,0-20.5,0-30.7,0c-7.2,0-11.9,4.4-11.9,11.6c0,15.2,0,30.5,0,45.7v1.9h54L69.6,75.6z M69.6,135.1
	V86.6h-54v1.7c0,11.6,0,23.5,0,35.2c0,7.2,4.4,11.6,11.6,11.6c13.6,0,27.1,0,40.4,0s1.1,0,1.7,0H69.6z M80.7,135.1h1.7
	c13.6,0,27.1,0,41,0c6.9,0,11.4-4.4,11.6-11.6c0-8.6,0-16.9,0-25.5c0-7.2-4.4-11.6-11.6-11.6c-13.6,0-27.1,0-40.7,0
	c-0.6,0-1.1,0-1.7,0v48.4L80.7,135.1z"/>
<path d="M123.9,37.6c0,3.3,0,6.6,0,9.7c0,2.2,0,4.2,0,6.4c0,3-2.5,5.5-5.5,5.5s-5.3-2.5-5.3-5.5c0-4.7,0-9.4,0-14.1
	c0-0.6,0-1.1,0-1.9h-7.2c-2.8,0-5.3,0-8,0c-4.2,0-6.6-2.2-6.4-5.5c0-3.3,2.5-5.3,6.4-5.3c4.4,0,8.9,0,13.3,0c0.6,0,1.1,0,1.9,0
	c0-0.8,0-1.4,0-1.9c0-4.7,0-9.4,0-14.1c0-3.3,2.2-5.8,5.3-5.8s5.3,2.5,5.5,5.8c0,5.3,0,10.5,0,16.1c0.6,0,1.4,0,1.9,0
	c4.7,0,9.1,0,13.8,0c3.3,0,5.8,2.2,5.8,5.3c0,3.3-2.5,5.5-6.1,5.5C134.4,37.6,129.1,37.6,123.9,37.6z"/>
</svg>
