<?xml version="1.0" encoding="UTF-8"?>
<svg id="Layer_1" data-name="Layer 1" xmlns="http://www.w3.org/2000/svg" viewBox="0 0 150 150">
  <defs>
    <style>
      .cls-1 {
        fill: #c51724;
      }

      .cls-1, .cls-2 {
        stroke-width: 0px;
      }
    </style>
  </defs>
  <g>
    <path class="cls-2" d="m64.7,109.5h-.8c0,0-.2,0-.2,0s-.1-.1-.1-.2l-1.7-4.1h-6.9l-1.7,4.1c0,0,0,.1-.1.2,0,0-.1,0-.2,0h-.8l5.8-14.2h1l5.8,14.2Zm-3.1-5.1l-2.9-7.2c0-.2-.2-.5-.3-.8,0,.2,0,.3-.1.5s0,.3-.1.4l-2.9,7.1h6.3Z"/>
    <path class="cls-2" d="m79,102.4c0,1.1-.2,2.1-.5,3-.3.9-.8,1.6-1.4,2.2-.6.6-1.3,1.1-2.1,1.4-.8.3-1.7.5-2.7.5h-5.2v-14.2h5.2c1,0,1.9.2,2.7.5.8.3,1.5.8,2.1,1.4.6.6,1.1,1.4,1.4,2.2.3.9.5,1.9.5,2.9Zm-1.1,0c0-1-.1-1.9-.4-2.6s-.7-1.4-1.2-2-1.1-.9-1.8-1.2c-.7-.3-1.5-.4-2.3-.4h-4.1v12.5h4.1c.8,0,1.6-.1,2.3-.4.7-.3,1.3-.7,1.8-1.2s.9-1.2,1.2-2,.4-1.7.4-2.7Z"/>
    <path class="cls-2" d="m94.2,102.4c0,1.1-.2,2.1-.5,3-.3.9-.8,1.6-1.4,2.2-.6.6-1.3,1.1-2.1,1.4-.8.3-1.7.5-2.7.5h-5.2v-14.2h5.2c1,0,1.9.2,2.7.5.8.3,1.5.8,2.1,1.4s1.1,1.4,1.4,2.2c.3.9.5,1.9.5,2.9Zm-1.1,0c0-1-.1-1.9-.4-2.6s-.7-1.4-1.2-2-1.1-.9-1.8-1.2c-.7-.3-1.5-.4-2.3-.4h-4.1v12.5h4.1c.8,0,1.6-.1,2.3-.4.7-.3,1.3-.7,1.8-1.2s.9-1.2,1.2-2,.4-1.7.4-2.7Z"/>
  </g>
  <g>
    <path class="cls-2" d="m26.9,120.7c1.7,0,2.9.4,3.8,1.1s1.3,1.8,1.3,3.1-.1,1.2-.4,1.7c-.2.5-.6,1-1,1.3-.4.4-1,.7-1.6.9-.6.2-1.3.3-2.1.3h-2.6v5.7h-1v-14.2h3.7Zm0,7.6c.6,0,1.2,0,1.7-.3.5-.2.9-.4,1.3-.7s.6-.7.8-1.1c.2-.4.3-.9.3-1.4,0-1.1-.3-1.9-1-2.5-.7-.6-1.7-.9-3-.9h-2.6v6.8h2.6Z"/>
    <path class="cls-2" d="m44.6,134.8h-.9c-.1,0-.2,0-.3,0,0,0-.1-.1-.2-.2l-4.5-5.7c0,0-.1-.1-.2-.2,0,0-.1,0-.2-.1,0,0-.2,0-.2,0,0,0-.2,0-.4,0h-1.9v6.4h-1v-14.2h3.6c1.6,0,2.8.3,3.7.9.8.6,1.2,1.6,1.2,2.8s0,1-.3,1.5c-.2.4-.5.8-.8,1.2-.4.3-.8.6-1.3.8-.5.2-1.1.4-1.7.4.2,0,.3.2.4.4l4.9,6.1Zm-6.3-7.2c.6,0,1.2,0,1.7-.2.5-.2.9-.4,1.3-.6.3-.3.6-.6.8-1,.2-.4.3-.8.3-1.3,0-1-.3-1.8-1-2.2-.7-.5-1.6-.7-2.9-.7h-2.6v6.2h2.4Z"/>
    <path class="cls-2" d="m59.5,127.8c0,1.1-.2,2.1-.5,3-.3.9-.8,1.7-1.4,2.3s-1.3,1.1-2.1,1.5c-.8.3-1.7.5-2.7.5s-1.9-.2-2.7-.5c-.8-.3-1.5-.8-2.1-1.5s-1.1-1.4-1.4-2.3c-.3-.9-.5-1.9-.5-3s.2-2.1.5-3c.3-.9.8-1.7,1.4-2.3s1.3-1.1,2.1-1.5,1.7-.5,2.7-.5,1.9.2,2.7.5c.8.3,1.5.8,2.1,1.5.6.6,1.1,1.4,1.4,2.3s.5,1.9.5,3Zm-1.1,0c0-1-.1-1.9-.4-2.7-.3-.8-.7-1.5-1.2-2-.5-.5-1.1-1-1.8-1.3s-1.5-.4-2.3-.4-1.6.1-2.3.4c-.7.3-1.3.7-1.8,1.3-.5.5-.9,1.2-1.2,2-.3.8-.4,1.7-.4,2.7s.1,1.9.4,2.7c.3.8.7,1.4,1.2,2s1.1,1,1.8,1.2c.7.3,1.5.4,2.3.4s1.6-.1,2.3-.4,1.3-.7,1.8-1.2.9-1.2,1.2-2,.4-1.7.4-2.7Z"/>
    <path class="cls-2" d="m74.6,127.8c0,1.1-.2,2.1-.5,3s-.8,1.6-1.4,2.2c-.6.6-1.3,1.1-2.1,1.4-.8.3-1.7.5-2.7.5h-5.2v-14.2h5.2c1,0,1.9.2,2.7.5.8.3,1.5.8,2.1,1.4.6.6,1.1,1.4,1.4,2.2.3.9.5,1.9.5,2.9Zm-1.1,0c0-1-.1-1.9-.4-2.6s-.7-1.4-1.2-2-1.1-.9-1.8-1.2c-.7-.3-1.5-.4-2.3-.4h-4.1v12.5h4.1c.8,0,1.6-.1,2.3-.4.7-.3,1.3-.7,1.8-1.2s.9-1.2,1.2-2,.4-1.7.4-2.7Z"/>
    <path class="cls-2" d="m83.1,134.1c.7,0,1.3-.1,1.8-.4.5-.2,1-.6,1.4-1s.7-.9.9-1.5c.2-.6.3-1.2.3-1.8v-8.8h1v8.8c0,.8-.1,1.5-.4,2.2-.2.7-.6,1.3-1.1,1.8-.5.5-1,.9-1.7,1.2-.7.3-1.4.4-2.2.4s-1.6-.1-2.2-.4c-.7-.3-1.2-.7-1.7-1.2-.5-.5-.8-1.1-1.1-1.8-.2-.7-.4-1.4-.4-2.2v-8.8h1v8.7c0,.7,0,1.3.3,1.8.2.6.5,1.1.8,1.5s.8.8,1.4,1c.5.2,1.1.4,1.8.4Z"/>
    <path class="cls-2" d="m102.7,132.5c0,0,.1,0,.2,0l.4.4c-.3.3-.6.6-1,.8-.3.2-.7.5-1.1.6-.4.2-.9.3-1.4.4-.5,0-1,.1-1.6.1-1,0-1.9-.2-2.7-.5-.8-.3-1.5-.8-2.1-1.5-.6-.6-1-1.4-1.4-2.3-.3-.9-.5-1.9-.5-3s.2-2.1.5-2.9.8-1.6,1.4-2.3c.6-.6,1.3-1.1,2.2-1.5.8-.3,1.8-.5,2.8-.5s1.8.1,2.6.4c.7.3,1.4.7,2,1.3l-.3.5c0,0-.1.1-.2.1s-.2,0-.4-.2-.4-.3-.8-.5-.7-.3-1.2-.5-1-.2-1.7-.2-1.6.1-2.3.4c-.7.3-1.3.7-1.8,1.3-.5.5-.9,1.2-1.2,2-.3.8-.4,1.7-.4,2.7s.1,1.9.4,2.7c.3.8.7,1.5,1.2,2,.5.5,1.1,1,1.8,1.2.7.3,1.4.4,2.2.4s1,0,1.4-.1c.4,0,.8-.2,1.1-.3.3-.1.6-.3.9-.5.3-.2.6-.4.8-.7,0,0,0,0,.1,0,0,0,0,0,0,0Z"/>
    <path class="cls-2" d="m115.2,121.6h-5v13.3h-1v-13.3h-5v-.9h11v.9Z"/>
    <path class="cls-2" d="m124.3,122.4c0,.1-.1.2-.3.2s-.2,0-.3-.2c-.1-.1-.3-.3-.6-.4-.2-.1-.5-.3-.9-.4-.3-.1-.8-.2-1.3-.2s-1,0-1.4.2c-.4.1-.7.3-1,.6-.3.3-.5.5-.6.9-.1.3-.2.7-.2,1s.1.9.3,1.2c.2.3.5.6.8.8.3.2.7.4,1.1.6.4.2.9.3,1.3.4s.9.3,1.3.5c.4.2.8.4,1.1.7.3.3.6.6.8,1s.3.9.3,1.5-.1,1.2-.3,1.7-.5,1-.9,1.4-.9.7-1.4.9c-.6.2-1.2.3-1.9.3s-1.7-.2-2.4-.5c-.7-.3-1.3-.8-1.8-1.4l.3-.4c0-.1.2-.2.3-.2s.1,0,.2.1c0,0,.2.2.3.3.1.1.3.2.5.4.2.1.4.3.7.4.2.1.5.2.8.3.3,0,.7.1,1.1.1s1.1,0,1.5-.3c.4-.2.8-.4,1.1-.7.3-.3.5-.6.7-1,.2-.4.2-.8.2-1.3s-.1-.9-.3-1.2-.5-.6-.8-.8c-.3-.2-.7-.4-1.1-.5-.4-.1-.9-.3-1.3-.4s-.9-.3-1.3-.5c-.4-.2-.8-.4-1.1-.7-.3-.3-.6-.6-.8-1s-.3-.9-.3-1.5,0-.9.3-1.4c.2-.4.4-.8.8-1.2.3-.3.8-.6,1.3-.8s1.1-.3,1.7-.3,1.4.1,2,.3c.6.2,1.1.6,1.6,1.1l-.2.5Z"/>
  </g>
  <g>
    <path class="cls-1" d="m69,12.7c0,0,.2,0,.2,0,.2.1.3.2.5.3,8,4.6,15.9,9.2,23.9,13.8.6.3.7.7.7,1.3,0,6,0,12,0,18,0,.5.1.6.6.8,4.1,1.6,6.7,4.5,7.9,8.7.2.7.3,1.4.5,2.1v2.4c0,.4-.1.7-.2,1.1-1.1,5.3-4.3,8.9-9.6,10.2-5.3,1.3-9.7-.3-13.2-4.5-.5-.6-.9-1.2-1.3-1.9-3.1,1.8-6.1,3.5-9.2,5.3-.4.2-.7.2-1.1,0-8-4.7-16.1-9.3-24.2-13.9-.4-.2-.5-.4-.5-.8,0-9.3,0-18.6,0-27.9,0-.4.1-.6.5-.8,8-4.6,16-9.2,24-13.9.2-.1.3-.2.5-.4Zm-19.7,15.5c.2.1.3.2.4.2,6.3,3.6,12.6,7.3,18.9,10.9.5.3.8.3,1.2,0,6.2-3.6,12.5-7.2,18.7-10.8.2,0,.3-.2.5-.3-.1,0-.2-.2-.3-.2-6.4-3.7-12.8-7.4-19.1-11.1-.4-.2-.6-.1-.9,0-5.9,3.4-11.8,6.8-17.7,10.2-.5.3-1.1.6-1.7,1Zm18.1,37.5c0-.2,0-.3,0-.3,0-7.4,0-14.8,0-22.3,0-.4-.2-.5-.4-.7-6.3-3.6-12.6-7.3-19-10.9-.2,0-.3-.2-.5-.3v.6c0,7.3,0,14.5,0,21.8,0,.5.2.7.5.9,4.8,2.7,9.5,5.5,14.3,8.2,1.7,1,3.3,1.9,5.1,2.9Zm3.5,0c.2,0,.2,0,.3,0,2.1-1.2,4.2-2.4,6.3-3.6.3-.2.3-.4.2-.7-1.2-6.6,2.8-13,9.2-14.7,1.2-.3,2.6-.4,3.9-.6v-14.7c-.2.1-.3.2-.5.2-6.3,3.7-12.7,7.3-19,11-.4.2-.4.5-.4.8,0,7.2,0,14.5,0,21.7v.6Zm10-6.7c0,5.2,4.2,9.5,9.4,9.5,5.2,0,9.4-4.2,9.4-9.4,0-5.2-4.2-9.5-9.4-9.5-5.2,0-9.4,4.2-9.4,9.4Z"/>
    <path class="cls-2" d="m88.6,64.5v-3.7h-3.7v-3.5h3.7v-3.7h3.5v3.7h3.8v3.5c-1,0-2,0-3,0-.5,0-.7.1-.7.7,0,1,0,2,0,3.1h-3.5Z"/>
  </g>
</svg>