<?xml version="1.0" encoding="UTF-8"?>
<svg id="Layer_1" data-name="Layer 1" xmlns="http://www.w3.org/2000/svg" viewBox="0 0 50 50">
  <defs>
    <style>
      .cls-1 {
        fill: #c51724;
      }

      .cls-1, .cls-2 {
        stroke-width: 0px;
      }
    </style>
  </defs>
  <path class="cls-1" d="m15.6,48.5c-.8,0-1.6-.1-2.5-.2-1.8-.2-3.5-.4-5.1-1.1-3-1.2-4.4-3.4-4.5-6.5,0-3,.9-5.7,2.6-8.2,2.6-3.8,6.1-6.4,10.3-8.1.2,0,.4-.2.6-.2-.6-.7-1.2-1.3-1.7-2-5.6-7.3-2-17.9,7-20.3C30.5-.2,38.8,6.5,38.3,15.1c-.2,3.4-1.6,6.3-4.1,8.7-.1.1-.2.2-.4.4,2,.8,3.9,1.7,5.7,3-.3.4-.6.8-.9,1.3-2.5-1.8-5.2-2.9-8.3-3.7.3-.2.4-.3.6-.4,1.7-1.1,3.2-2.4,4.2-4.2,4-6.8-.1-15.5-7.9-16.8-6.3-1.1-12.3,3.3-13.1,9.6-.6,4.5,1.1,8.1,4.8,10.8.4.3.9.6,1.4.9,0,0,0,0,0,.1-.7.2-1.3.4-2,.6-4.3,1.4-8,3.8-10.7,7.5-1.5,2-2.5,4.3-2.6,6.8,0,.9,0,1.9.3,2.8.5,1.8,1.8,2.8,3.5,3.4,1.9.6,3.8.9,5.7.9,3.7,0,7.3,0,11,0,1.8,0,3.6,0,5.4,0v1.6h-15.4Z"/>
  <rect class="cls-2" x="36.4" y="31.2" width="2.8" height="16.3" rx="1.3" ry="1.3"/>
  <rect class="cls-2" x="36" y="31.2" width="2.7" height="16.3" rx="1.3" ry="1.3" transform="translate(-2 76.8) rotate(-90)"/>
</svg>