<?xml version="1.0" encoding="UTF-8"?>
<svg id="Layer_1" data-name="Layer 1" xmlns="http://www.w3.org/2000/svg" viewBox="0 0 150 150">
  <defs>
    <style>
      .cls-1 {
        fill: #c51724;
      }

      .cls-1, .cls-2 {
        stroke-width: 0px;
      }
    </style>
  </defs>
  <g>
    <path class="cls-2" d="m65.6,109.5h-1.5c-.2,0-.3,0-.4,0,0,0-.2-.2-.2-.3l-1.3-3.5h-6.4l-1.3,3.5c0,0,0,.2-.2.3,0,0-.3,0-.4,0h-1.5l5.7-14.3h2l5.7,14.3h-.2Zm-4-5.3l-2.2-5.8c0-.2,0-.4-.2-.6,0-.2,0-.5-.2-.7,0,.5-.3,1-.4,1.4l-2.2,5.8h5.4-.2Z"/>
    <path class="cls-2" d="m79.9,102.3c0,1.1-.2,2-.5,2.9s-.8,1.6-1.4,2.3c-.6.6-1.4,1.1-2.2,1.5-.9.3-1.8.5-2.9.5h-5.4v-14.3h5.4c1.1,0,2,.2,2.9.5s1.6.8,2.2,1.5c.6.6,1.1,1.4,1.4,2.3s.5,1.9.5,2.9h0Zm-2,0c0-.9,0-1.7-.4-2.4-.2-.7-.6-1.3-1-1.8s-1-.8-1.6-1.1c-.6-.3-1.3-.4-2.1-.4h-3.4v11.2h3.4c.8,0,1.5,0,2.1-.4s1.2-.6,1.6-1.1.8-1.1,1-1.8c.2-.7.4-1.5.4-2.4v.2Z"/>
    <path class="cls-2" d="m95.2,102.3c0,1.1-.2,2-.5,2.9s-.8,1.6-1.4,2.3c-.6.6-1.4,1.1-2.2,1.5-.9.3-1.8.5-2.9.5h-5.3v-14.3h5.3c1.1,0,2,.2,2.9.5s1.6.8,2.2,1.5c.6.6,1.1,1.4,1.4,2.3s.5,1.9.5,2.9h0Zm-2,0c0-.9,0-1.7-.4-2.4-.2-.7-.6-1.3-1-1.8s-1-.8-1.6-1.1c-.6-.3-1.3-.4-2.1-.4h-3.4v11.2h3.4c.8,0,1.5,0,2.1-.4s1.2-.6,1.6-1.1.8-1.1,1-1.8c.2-.7.4-1.5.4-2.4v.2Z"/>
  </g>
  <g>
    <path class="cls-2" d="m26.2,120.5c.9,0,1.7,0,2.4.3.7.2,1.2.5,1.7.9s.8.9,1,1.4c.2.5.3,1.2.3,1.8s0,1.3-.4,1.8c-.2.6-.6,1-1,1.4s-1,.7-1.7.9-1.4.3-2.3.3h-2.3v5.4h-1.9v-14.3h4.2,0Zm0,7.4c.6,0,1,0,1.5-.2s.8-.4,1.1-.6c.3-.3.5-.6.7-.9.1-.4.2-.8.2-1.2,0-.9-.3-1.6-.8-2.1-.6-.5-1.4-.8-2.6-.8h-2.3v5.9h2.3-.1Z"/>
    <path class="cls-2" d="m44.6,134.8h-1.7c-.4,0-.6-.1-.8-.4l-3.7-5.1c0-.2-.2-.3-.4-.3s-.3-.1-.6-.1h-1.5v6h-1.9v-14.3h4c.9,0,1.7,0,2.4.3s1.2.4,1.6.8c.4.3.7.8,1,1.3s.3,1,.3,1.6,0,1-.2,1.4-.4.8-.7,1.2c-.3.3-.7.6-1.1.9-.4.2-.9.4-1.5.6.2.1.5.3.6.6l4.2,5.7v-.2Zm-6.6-7.4c.6,0,1.1,0,1.5-.2.4,0,.8-.3,1.1-.6.3-.2.5-.5.7-.9,0-.3.2-.7.2-1.1,0-.9-.3-1.5-.8-1.9-.6-.4-1.4-.6-2.5-.6h-2.1v5.4h2-.1Z"/>
    <path class="cls-2" d="m59.7,127.7c0,1.1-.2,2.1-.5,3s-.8,1.7-1.4,2.3-1.4,1.1-2.2,1.5c-.9.4-1.8.5-2.9.5s-2-.2-2.9-.5c-.9-.4-1.6-.9-2.2-1.5-.6-.6-1.1-1.4-1.4-2.3-.3-.9-.5-1.9-.5-3s.2-2.1.5-3,.8-1.7,1.4-2.3c.6-.7,1.4-1.2,2.2-1.5.9-.4,1.8-.5,2.9-.5s2,.2,2.9.5c.9.4,1.6.9,2.2,1.5.6.6,1.1,1.4,1.4,2.3s.5,1.9.5,3Zm-2,0c0-.9,0-1.7-.4-2.4-.2-.7-.6-1.3-1-1.8s-1-.9-1.6-1.1c-.6-.3-1.3-.4-2.1-.4s-1.5,0-2.1.4-1.2.6-1.6,1.1c-.4.5-.8,1.1-1,1.8-.2.7-.4,1.5-.4,2.4s0,1.7.4,2.4c.2.7.6,1.3,1,1.8s1,.9,1.6,1.1c.6.3,1.3.4,2.1.4s1.5-.1,2.1-.4c.6-.3,1.2-.6,1.6-1.1.4-.5.8-1.1,1-1.8s.4-1.5.4-2.4Z"/>
    <path class="cls-2" d="m74.8,127.7c0,1.1-.2,2-.5,2.9s-.8,1.6-1.4,2.3c-.6.6-1.4,1.1-2.2,1.5-.9.3-1.8.5-2.9.5h-5.3v-14.3h5.3c1.1,0,2,.2,2.9.5s1.6.8,2.2,1.5c.6.6,1.1,1.4,1.4,2.3s.5,1.9.5,2.9h0Zm-2,0c0-.9,0-1.7-.4-2.4s-.6-1.3-1-1.8-1-.8-1.6-1.1c-.6-.3-1.3-.4-2.1-.4h-3.4v11.2h3.4c.8,0,1.5-.1,2.1-.4.6-.3,1.2-.6,1.6-1.1s.8-1.1,1-1.8.4-1.5.4-2.4v.2Z"/>
    <path class="cls-2" d="m83.2,133.3c.6,0,1.1,0,1.6-.3s.9-.5,1.2-.8c.3-.4.6-.8.7-1.3s.3-1,.3-1.7v-8.7h1.9v8.7c0,.8,0,1.6-.4,2.3s-.6,1.3-1.1,1.8-1.1.9-1.8,1.2c-.7.3-1.5.4-2.4.4s-1.7-.1-2.4-.4c-.7-.3-1.3-.7-1.8-1.2s-.9-1.1-1.1-1.8c-.3-.7-.4-1.5-.4-2.3v-8.7h1.9v8.7c0,.6,0,1.1.3,1.6s.4.9.7,1.3c.3.4.7.6,1.2.8s1,.3,1.6.3h0Z"/>
    <path class="cls-2" d="m102.4,131.9c0,0,.2,0,.3.1l.8.8c-.6.7-1.3,1.2-2.1,1.6-.8.4-1.8.6-3,.6s-2-.2-2.8-.5-1.6-.9-2.1-1.5c-.6-.6-1.1-1.4-1.4-2.3-.3-.9-.5-1.9-.5-3s.2-2.1.5-3,.8-1.7,1.4-2.3c.6-.6,1.4-1.1,2.2-1.5.9-.4,1.8-.5,2.8-.5s1.9.2,2.7.5c.8.3,1.5.8,2.1,1.3l-.6.9s0,0-.2.2h-.3c-.2,0-.3,0-.4-.2-.2,0-.4-.3-.7-.4s-.6-.3-1-.4-.9-.2-1.5-.2-1.4,0-2,.4-1.1.6-1.6,1.1c-.4.5-.8,1.1-1,1.8-.2.7-.4,1.5-.4,2.4s0,1.7.4,2.4.6,1.3,1,1.8,1,.9,1.6,1.1c.6.3,1.3.4,2,.4h1.2c.4,0,.7-.1,1-.2.3-.1.6-.2.8-.4.2-.2.5-.4.7-.6s.2-.2.3-.2l-.2-.2Z"/>
    <path class="cls-2" d="m115.4,122.1h-4.6v12.7h-1.9v-12.7h-4.7v-1.6h11.2s0,1.6,0,1.6Z"/>
    <path class="cls-2" d="m124.8,122.7s0,.2-.2.2h-.3c-.1,0-.2,0-.4-.2s-.3-.2-.6-.4c-.2,0-.5-.3-.8-.4s-.7-.2-1.2-.2-.8,0-1.1.2c-.3,0-.6.3-.8.5-.2.2-.4.4-.5.7,0,.3-.2.6-.2.9s0,.7.3,1c.2.3.5.5.8.7s.7.3,1.1.5.8.3,1.3.4c.4,0,.9.3,1.3.5s.8.4,1.1.7c.3.3.6.6.8,1,.2.4.3.9.3,1.5s0,1.2-.3,1.8c-.2.5-.5,1-.9,1.4s-.9.7-1.5,1c-.6.2-1.3.4-2,.4s-1.8-.2-2.5-.5c-.8-.3-1.4-.8-2-1.4l.6-.9s0-.1.2-.2h.3c.1,0,.2,0,.3.1,0,0,.2.2.4.3,0,.1.3.2.5.3s.4.2.6.3.5.2.8.3c.3,0,.6.1,1,.1s.9,0,1.2-.2c.4-.1.7-.3.9-.5.2-.2.4-.5.6-.8,0-.3.2-.7.2-1.1s0-.8-.3-1.1-.5-.5-.8-.7-.7-.3-1.1-.5-.8-.3-1.3-.4-.8-.3-1.3-.5c-.4-.2-.8-.4-1.1-.7s-.6-.6-.8-1.1c-.2-.4-.3-1-.3-1.6s0-1,.3-1.5c.2-.5.5-.9.9-1.3s.8-.7,1.4-.9c.5-.2,1.2-.3,1.9-.3s1.5,0,2.2.4,1.2.6,1.7,1.1l-.5.9-.2.2Z"/>
  </g>
  <g>
    <path class="cls-1" d="m100.2,40.7h-2.5c0-.3,0-.5,0-.7,0-5.5,0-10.9,0-16.4,0-2.7-1.5-4.2-4.2-4.2-3.4,0-6.8,0-10.1,0-.2,0-.4,0-.7,0,0,.3,0,.5,0,.7,0,5.1,0,10.2,0,15.3,0,.5,0,1-.5,1.4-.4.3-.9.3-1.3.1-2.1-.7-4.3-1.4-6.4-2.1-.3,0-.7,0-1,0-2.1.7-4.2,1.4-6.4,2.1-1.2.4-1.9-.1-1.9-1.4,0-5.1,0-10.2,0-15.3,0-.2,0-.5,0-.7-.3,0-.5,0-.6,0-3.4,0-6.9,0-10.3,0-2.6,0-4.1,1.6-4.1,4.1,0,13.2,0,26.4,0,39.6,0,2.5,1.6,4.1,4.1,4.1,5.5,0,11,0,16.5,0,.2,0,.5,0,.8,0v2.5c-.2,0-.4,0-.6,0-5.6,0-11.1,0-16.7,0-3.9,0-6.6-2.7-6.6-6.6,0-13.2,0-26.5,0-39.7,0-3.9,2.7-6.6,6.6-6.6,13.2,0,26.4,0,39.6,0,3.9,0,6.6,2.7,6.6,6.6,0,5.6,0,11.1,0,16.7,0,.2,0,.4,0,.6Zm-20.2-21.3h-12.5v14.5c1.8-.6,3.7-1.2,5.5-1.8.6-.2,1-.2,1.6,0,1.8.6,3.6,1.2,5.5,1.8v-14.5Z"/>
    <path class="cls-1" d="m72.6,55.3c.3-7.7,6.6-13.7,14.3-13.4,7.8.3,13.8,6.8,13.4,14.5-.4,7.6-6.9,13.4-14.5,13.1-7.4-.3-13.4-6.9-13.1-14.3Zm2.5.4c0,6.3,5,11.3,11.3,11.4,6.2,0,11.3-5.1,11.4-11.3,0-6.2-5-11.3-11.3-11.3-6.3,0-11.3,5-11.3,11.3Z"/>
    <path class="cls-2" d="m85.1,49.5h2.5v5h5v2.5h-5v5h-2.5v-5h-5v-2.5h5v-5Z"/>
  </g>
</svg>