<?xml version="1.0" encoding="UTF-8"?>
<svg id="Layer_1" data-name="Layer 1" xmlns="http://www.w3.org/2000/svg" viewBox="0 0 150 150">
  <defs>
    <style>
      .cls-1 {
        fill: #c51724;
      }

      .cls-1, .cls-2 {
        stroke-width: 0px;
      }
    </style>
  </defs>
  <g>
    <path class="cls-2" d="m65.4,109.5h-1.5c-.2,0-.3,0-.4-.1-.1,0-.2-.2-.2-.3l-1.3-3.5h-6.4l-1.3,3.5c0,.1-.1.2-.2.3-.1,0-.3.1-.4.1h-1.5l5.7-14.3h2l5.7,14.3Zm-4-5.3l-2.2-5.8c0-.2-.1-.4-.2-.6,0-.2-.1-.5-.2-.7-.1.5-.3,1-.4,1.4l-2.2,5.8h5.4Z"/>
    <path class="cls-2" d="m79.7,102.3c0,1.1-.2,2-.5,2.9-.3.9-.8,1.6-1.4,2.3-.6.6-1.4,1.1-2.2,1.5-.9.3-1.8.5-2.9.5h-5.4v-14.3h5.4c1.1,0,2,.2,2.9.5.9.3,1.6.8,2.2,1.5.6.6,1.1,1.4,1.4,2.3.3.9.5,1.9.5,2.9Zm-2,0c0-.9-.1-1.7-.4-2.4-.2-.7-.6-1.3-1-1.8-.4-.5-1-.8-1.6-1.1-.6-.3-1.3-.4-2.1-.4h-3.4v11.2h3.4c.8,0,1.5-.1,2.1-.4.6-.3,1.2-.6,1.6-1.1.4-.5.8-1.1,1-1.8.2-.7.4-1.5.4-2.4Z"/>
    <path class="cls-2" d="m95,102.3c0,1.1-.2,2-.5,2.9-.3.9-.8,1.6-1.4,2.3-.6.6-1.4,1.1-2.2,1.5-.9.3-1.8.5-2.9.5h-5.3v-14.3h5.3c1.1,0,2,.2,2.9.5.9.3,1.6.8,2.2,1.5.6.6,1.1,1.4,1.4,2.3.3.9.5,1.9.5,2.9Zm-2,0c0-.9-.1-1.7-.4-2.4-.2-.7-.6-1.3-1-1.8-.4-.5-1-.8-1.6-1.1-.6-.3-1.3-.4-2.1-.4h-3.4v11.2h3.4c.8,0,1.5-.1,2.1-.4.6-.3,1.2-.6,1.6-1.1.4-.5.8-1.1,1-1.8.2-.7.4-1.5.4-2.4Z"/>
  </g>
  <g>
    <path class="cls-2" d="m26.8,120.5c.9,0,1.7.1,2.4.3.7.2,1.2.5,1.7.9s.8.9,1,1.4c.2.5.3,1.2.3,1.8s-.1,1.3-.4,1.8c-.2.6-.6,1-1,1.4-.4.4-1,.7-1.7.9-.7.2-1.4.3-2.3.3h-2.3v5.4h-1.9v-14.3h4.2Zm0,7.4c.6,0,1,0,1.5-.2s.8-.4,1.1-.6c.3-.3.5-.6.7-.9.1-.4.2-.8.2-1.2,0-.9-.3-1.6-.8-2.1-.6-.5-1.4-.8-2.6-.8h-2.3v5.9h2.3Z"/>
    <path class="cls-2" d="m45.2,134.8h-1.7c-.4,0-.6-.1-.8-.4l-3.7-5.1c-.1-.2-.2-.3-.4-.3s-.3-.1-.6-.1h-1.5v6h-1.9v-14.3h4c.9,0,1.7,0,2.4.3s1.2.4,1.6.8c.4.3.7.8,1,1.3s.3,1,.3,1.6,0,1-.2,1.4c-.2.4-.4.8-.7,1.2-.3.3-.7.6-1.1.9-.4.2-.9.4-1.5.6.2.1.5.3.6.6l4.2,5.7Zm-6.6-7.4c.6,0,1.1,0,1.5-.2.4-.1.8-.3,1.1-.6.3-.2.5-.5.7-.9.1-.3.2-.7.2-1.1,0-.9-.3-1.5-.8-1.9-.6-.4-1.4-.6-2.5-.6h-2.1v5.4h2Z"/>
    <path class="cls-2" d="m60.3,127.7c0,1.1-.2,2.1-.5,3s-.8,1.7-1.4,2.3-1.4,1.1-2.2,1.5c-.9.4-1.8.5-2.9.5s-2-.2-2.9-.5c-.9-.4-1.6-.9-2.2-1.5-.6-.6-1.1-1.4-1.4-2.3-.3-.9-.5-1.9-.5-3s.2-2.1.5-3c.3-.9.8-1.7,1.4-2.3.6-.7,1.4-1.2,2.2-1.5.9-.4,1.8-.5,2.9-.5s2,.2,2.9.5c.9.4,1.6.9,2.2,1.5.6.6,1.1,1.4,1.4,2.3s.5,1.9.5,3Zm-2,0c0-.9-.1-1.7-.4-2.4-.2-.7-.6-1.3-1-1.8-.4-.5-1-.9-1.6-1.1-.6-.3-1.3-.4-2.1-.4s-1.5.1-2.1.4c-.6.3-1.2.6-1.6,1.1-.4.5-.8,1.1-1,1.8-.2.7-.4,1.5-.4,2.4s.1,1.7.4,2.4c.2.7.6,1.3,1,1.8.4.5,1,.9,1.6,1.1.6.3,1.3.4,2.1.4s1.5-.1,2.1-.4c.6-.3,1.2-.6,1.6-1.1.4-.5.8-1.1,1-1.8.2-.7.4-1.5.4-2.4Z"/>
    <path class="cls-2" d="m75.4,127.7c0,1.1-.2,2-.5,2.9-.3.9-.8,1.6-1.4,2.3-.6.6-1.4,1.1-2.2,1.5-.9.3-1.8.5-2.9.5h-5.3v-14.3h5.3c1.1,0,2,.2,2.9.5.9.3,1.6.8,2.2,1.5.6.6,1.1,1.4,1.4,2.3s.5,1.9.5,2.9Zm-2,0c0-.9-.1-1.7-.4-2.4s-.6-1.3-1-1.8c-.4-.5-1-.8-1.6-1.1-.6-.3-1.3-.4-2.1-.4h-3.4v11.2h3.4c.8,0,1.5-.1,2.1-.4.6-.3,1.2-.6,1.6-1.1s.8-1.1,1-1.8.4-1.5.4-2.4Z"/>
    <path class="cls-2" d="m83.8,133.3c.6,0,1.1,0,1.6-.3s.9-.5,1.2-.8c.3-.4.6-.8.7-1.3s.3-1,.3-1.7v-8.7h1.9v8.7c0,.8-.1,1.6-.4,2.3-.3.7-.6,1.3-1.1,1.8s-1.1.9-1.8,1.2c-.7.3-1.5.4-2.4.4s-1.7-.1-2.4-.4c-.7-.3-1.3-.7-1.8-1.2s-.9-1.1-1.1-1.8c-.3-.7-.4-1.5-.4-2.3v-8.7h1.9v8.7c0,.6,0,1.1.3,1.6s.4.9.7,1.3c.3.4.7.6,1.2.8.5.2,1,.3,1.6.3Z"/>
    <path class="cls-2" d="m103,131.9c.1,0,.2,0,.3.1l.8.8c-.6.7-1.3,1.2-2.1,1.6-.8.4-1.8.6-3,.6s-2-.2-2.8-.5-1.6-.9-2.1-1.5c-.6-.6-1.1-1.4-1.4-2.3-.3-.9-.5-1.9-.5-3s.2-2.1.5-3c.3-.9.8-1.7,1.4-2.3.6-.6,1.4-1.1,2.2-1.5.9-.4,1.8-.5,2.8-.5s1.9.2,2.7.5c.8.3,1.5.8,2.1,1.3l-.6.9c0,0,0,.1-.2.2,0,0-.1,0-.3,0s-.3,0-.4-.2c-.2-.1-.4-.3-.7-.4s-.6-.3-1-.4-.9-.2-1.5-.2-1.4.1-2,.4-1.1.6-1.6,1.1c-.4.5-.8,1.1-1,1.8-.2.7-.4,1.5-.4,2.4s.1,1.7.4,2.4c.3.7.6,1.3,1,1.8s1,.9,1.6,1.1c.6.3,1.3.4,2,.4s.8,0,1.2,0,.7-.1,1-.2c.3-.1.6-.2.8-.4.2-.2.5-.4.7-.6.1-.1.2-.2.3-.2Z"/>
    <path class="cls-2" d="m116,122.1h-4.6v12.7h-1.9v-12.7h-4.7v-1.6h11.2v1.6Z"/>
    <path class="cls-2" d="m125.4,122.7c0,0-.1.2-.2.2s-.2,0-.3,0-.2,0-.4-.2-.3-.2-.6-.4c-.2-.1-.5-.3-.8-.4s-.7-.2-1.2-.2-.8,0-1.1.2c-.3.1-.6.3-.8.5-.2.2-.4.4-.5.7-.1.3-.2.6-.2.9s0,.7.3,1c.2.3.5.5.8.7.3.2.7.3,1.1.5s.8.3,1.3.4c.4.1.9.3,1.3.5.4.2.8.4,1.1.7s.6.6.8,1c.2.4.3.9.3,1.5s-.1,1.2-.3,1.8c-.2.5-.5,1-.9,1.4-.4.4-.9.7-1.5,1-.6.2-1.3.4-2,.4s-1.8-.2-2.5-.5c-.8-.3-1.4-.8-2-1.4l.6-.9c0,0,.1-.1.2-.2,0,0,.2,0,.3,0s.2,0,.3.1c.1,0,.2.2.4.3.1.1.3.2.5.3.2.1.4.2.6.3.2.1.5.2.8.3.3,0,.6.1,1,.1s.9,0,1.2-.2c.4-.1.7-.3.9-.5.2-.2.4-.5.6-.8.1-.3.2-.7.2-1.1s0-.8-.3-1.1-.5-.5-.8-.7c-.3-.2-.7-.3-1.1-.5s-.8-.3-1.3-.4-.8-.3-1.3-.5c-.4-.2-.8-.4-1.1-.7-.3-.3-.6-.6-.8-1.1-.2-.4-.3-1-.3-1.6s0-1,.3-1.5c.2-.5.5-.9.9-1.3.4-.4.8-.7,1.4-.9.5-.2,1.2-.3,1.9-.3s1.5.1,2.2.4c.7.3,1.2.6,1.7,1.1l-.5.9Z"/>
  </g>
  <g>
    <path class="cls-1" d="m69.3,12.7c0,0,.2,0,.2,0,.2.1.3.2.5.3,8,4.6,15.9,9.2,23.9,13.8.6.3.7.7.7,1.3,0,6,0,12,0,18,0,.5.1.6.6.8,4.1,1.6,6.7,4.5,7.9,8.7.2.7.3,1.4.5,2.1v2.4c0,.4-.1.7-.2,1.1-1.1,5.3-4.3,8.9-9.6,10.2-5.3,1.3-9.7-.3-13.2-4.5-.5-.6-.9-1.2-1.3-1.9-3.1,1.8-6.1,3.5-9.2,5.3-.4.2-.7.2-1.1,0-8-4.7-16.1-9.3-24.2-13.9-.4-.2-.5-.4-.5-.8,0-9.3,0-18.6,0-27.9,0-.4.1-.6.5-.8,8-4.6,16-9.2,24-13.9.2-.1.3-.2.5-.4Zm-19.7,15.5c.2.1.3.2.4.2,6.3,3.6,12.6,7.3,18.9,10.9.5.3.8.3,1.2,0,6.2-3.6,12.5-7.2,18.7-10.8.2,0,.3-.2.5-.3-.1,0-.2-.2-.3-.2-6.4-3.7-12.8-7.4-19.1-11.1-.4-.2-.6-.1-.9,0-5.9,3.4-11.8,6.8-17.7,10.2-.5.3-1.1.6-1.7,1Zm18.1,37.5c0-.2,0-.3,0-.3,0-7.4,0-14.8,0-22.3,0-.4-.2-.5-.4-.7-6.3-3.6-12.6-7.3-19-10.9-.2,0-.3-.2-.5-.3v.6c0,7.3,0,14.5,0,21.8,0,.5.2.7.5.9,4.8,2.7,9.5,5.5,14.3,8.2,1.7,1,3.3,1.9,5.1,2.9Zm3.5,0c.2,0,.2,0,.3,0,2.1-1.2,4.2-2.4,6.3-3.6.3-.2.3-.4.2-.7-1.2-6.6,2.8-13,9.2-14.7,1.2-.3,2.6-.4,3.9-.6v-14.7c-.2.1-.3.2-.5.2-6.3,3.7-12.7,7.3-19,11-.4.2-.4.5-.4.8,0,7.2,0,14.5,0,21.7v.6Zm10-6.7c0,5.2,4.2,9.5,9.4,9.5,5.2,0,9.4-4.2,9.4-9.4,0-5.2-4.2-9.5-9.4-9.5-5.2,0-9.4,4.2-9.4,9.4Z"/>
    <path class="cls-2" d="m88.9,64.5v-3.7h-3.7v-3.5h3.7v-3.7h3.5v3.7h3.8v3.5c-1,0-2,0-3,0-.5,0-.7.1-.7.7,0,1,0,2,0,3.1h-3.5Z"/>
  </g>
</svg>