<?xml version="1.0" encoding="utf-8"?>
<!-- Generator: Adobe Illustrator 26.4.0, SVG Export Plug-In . SVG Version: 6.00 Build 0)  -->
<svg version="1.1" id="Layer_1" xmlns="http://www.w3.org/2000/svg" xmlns:xlink="http://www.w3.org/1999/xlink" x="0px" y="0px"
	 viewBox="0 0 21 21" style="enable-background:new 0 0 21 21;" xml:space="preserve">
<style type="text/css">
	.st0{fill:#C51724;}
</style>
<g>
	<path d="M2.2,21c-0.4-0.1-0.8-0.2-1.1-0.5c-0.8-0.6-1.2-1.6-1-2.6c0.5-2.1,1.4-3.9,2.9-5.3c1.1-1.1,2.4-1.9,3.9-2.5
		c0.1,0,0.1-0.1,0.2-0.1C5.7,8.9,4.9,7.4,4.9,5.6c0-1.5,0.6-2.8,1.6-3.9c2.2-2.2,5.6-2.2,7.9,0c2.1,2,2.5,6.1-0.6,8.4
		c0.4,0.2,0.8,0.3,1.2,0.5c0.4,0.2,0.6,0.5,0.5,0.9c-0.1,0.5-0.6,0.8-1.1,0.6c-0.6-0.2-1.1-0.4-1.7-0.6c-2.2-0.6-4.3-0.3-6.3,0.7
		c-1.7,0.9-3.1,2.2-4,4c-0.4,0.7-0.6,1.4-0.8,2.2c-0.1,0.5,0.2,0.9,0.7,1c0.1,0,0.2,0,0.3,0c3.3,0,6.5,0,9.8,0c0.1,0,0.3,0,0.4,0.1
		c0.3,0.1,0.5,0.4,0.5,0.7c0,0.3-0.2,0.6-0.5,0.8c-0.1,0-0.1,0.1-0.2,0.1C9.2,21,5.7,21,2.2,21z M14.4,5.6c0-2.2-1.8-3.9-3.9-3.9
		c-2.2,0-3.9,1.8-3.9,3.9c0,2.2,1.8,3.9,4,3.9C12.7,9.5,14.4,7.7,14.4,5.6z"/>
	<path class="st0" d="M16.9,21c-0.5-0.2-0.7-0.5-0.7-1c0-0.7,0-1.4,0-2.1c-0.1,0-0.2,0-0.2,0c-0.6,0-1.3,0-1.9,0
		c-0.5,0-0.9-0.3-0.9-0.8c0-0.5,0.4-0.8,0.9-0.8c0.7,0,1.4,0,2.2,0c0-0.1,0-0.2,0-0.2c0-0.6,0-1.3,0-1.9c0-0.5,0.3-0.9,0.8-0.9
		c0.5,0,0.8,0.4,0.8,0.9c0,0.7,0,1.4,0,2.2c0.1,0,0.2,0,0.2,0c0.6,0,1.2,0,1.8,0c0.5,0,0.9,0.2,1,0.7c0,0.1,0,0.2,0,0.3
		c-0.2,0.5-0.5,0.7-1,0.7c-0.6,0-1.2,0-1.8,0c-0.1,0-0.1,0-0.2,0c0,0.7,0,1.4,0,2.1c0,0.5-0.2,0.9-0.7,1C17.2,21,17,21,16.9,21z"/>
</g>
</svg>
