<?xml version="1.0" encoding="UTF-8"?>
<svg id="Layer_1" data-name="Layer 1" xmlns="http://www.w3.org/2000/svg" viewBox="0 0 158.9 150">
  <defs>
    <style>
      .cls-1 {
        fill: #c51724;
      }

      .cls-1, .cls-2 {
        stroke-width: 0px;
      }
    </style>
  </defs>
  <g>
    <path class="cls-2" d="m77.1,109.5h-1.5c-.2,0-.3,0-.4-.1-.1,0-.2-.2-.2-.3l-1.3-3.5h-6.4l-1.3,3.5c0,.1-.1.2-.2.3-.1,0-.3.1-.4.1h-1.5l5.7-14.3h2l5.7,14.3Zm-4-5.3l-2.2-5.8c0-.2-.1-.4-.2-.6,0-.2-.1-.5-.2-.7-.1.5-.3,1-.4,1.4l-2.2,5.8h5.4Z"/>
    <path class="cls-2" d="m87.1,107.9v1.6h-8.1v-14.3h1.9v12.7h6.2Z"/>
    <path class="cls-2" d="m97.3,107.9v1.6h-8.1v-14.3h1.9v12.7h6.2Z"/>
  </g>
  <g>
    <path class="cls-2" d="m19.1,120.5l-5.8,14.3h-1.7l-5.8-14.3h1.5c.2,0,.3,0,.4.1.1,0,.2.2.2.3l4,10.1c0,.2.2.5.3.7s.2.5.2.8c0-.3.1-.6.2-.8s.2-.5.2-.7l4-10.1c0-.1.1-.2.2-.3s.3-.1.4-.1h1.5Z"/>
    <path class="cls-2" d="m29.8,133.3v1.6h-8.8v-14.3h8.8v1.6h-6.9v4.8h5.6v1.5h-5.6v4.9h6.9Z"/>
    <path class="cls-2" d="m44.1,120.5v14.3h-1c-.2,0-.3,0-.4,0-.1,0-.2-.1-.3-.3l-8.3-10.8c0,.2,0,.3,0,.5,0,.2,0,.3,0,.5v10.2h-1.7v-14.3h1c0,0,.2,0,.2,0,0,0,.1,0,.2,0,0,0,0,0,.1,0,0,0,0,0,.1.2l8.3,10.8c0-.2,0-.3,0-.5,0-.2,0-.3,0-.5v-10.2h1.7Z"/>
    <path class="cls-2" d="m60.2,127.7c0,1.1-.2,2-.5,2.9-.3.9-.8,1.6-1.4,2.3-.6.6-1.4,1.1-2.2,1.5-.9.3-1.8.5-2.9.5h-5.3v-14.3h5.3c1.1,0,2,.2,2.9.5.9.3,1.6.8,2.2,1.5.6.6,1.1,1.4,1.4,2.3s.5,1.9.5,2.9Zm-2,0c0-.9-.1-1.7-.4-2.4-.2-.7-.6-1.3-1-1.8-.4-.5-1-.8-1.6-1.1-.6-.3-1.3-.4-2.1-.4h-3.4v11.2h3.4c.8,0,1.5-.1,2.1-.4.6-.3,1.2-.6,1.6-1.1.4-.5.8-1.1,1-1.8.2-.7.4-1.5.4-2.4Z"/>
    <path class="cls-2" d="m76.2,127.7c0,1.1-.2,2.1-.5,3-.3.9-.8,1.7-1.4,2.3s-1.4,1.1-2.2,1.5-1.8.5-2.9.5-2-.2-2.9-.5c-.9-.4-1.6-.9-2.2-1.5s-1.1-1.4-1.4-2.3-.5-1.9-.5-3,.2-2.1.5-3,.8-1.7,1.4-2.3c.6-.7,1.4-1.2,2.2-1.5.9-.4,1.8-.5,2.9-.5s2,.2,2.9.5c.9.4,1.6.9,2.2,1.5.6.6,1.1,1.4,1.4,2.3.3.9.5,1.9.5,3Zm-2,0c0-.9-.1-1.7-.4-2.4-.2-.7-.6-1.3-1-1.8-.4-.5-1-.9-1.6-1.1-.6-.3-1.3-.4-2.1-.4s-1.5.1-2.1.4c-.6.3-1.2.6-1.6,1.1s-.8,1.1-1,1.8c-.2.7-.4,1.5-.4,2.4s.1,1.7.4,2.4c.2.7.6,1.3,1,1.8.4.5,1,.9,1.6,1.1.6.3,1.3.4,2.1.4s1.5-.1,2.1-.4c.6-.3,1.2-.6,1.6-1.1.4-.5.8-1.1,1-1.8.2-.7.4-1.5.4-2.4Z"/>
    <path class="cls-2" d="m89.6,134.8h-1.7c-.4,0-.6-.1-.8-.4l-3.7-5.1c-.1-.2-.2-.3-.4-.3s-.3-.1-.6-.1h-1.5v6h-1.9v-14.3h4c.9,0,1.7,0,2.4.3.7.2,1.2.4,1.6.8.4.3.7.8,1,1.3.2.5.3,1,.3,1.6s0,1-.2,1.4c-.2.4-.4.8-.7,1.2-.3.3-.7.6-1.1.9-.4.2-.9.4-1.5.6.2.1.5.3.6.6l4.2,5.7Zm-6.6-7.4c.6,0,1.1,0,1.5-.2s.8-.3,1.1-.6.5-.5.7-.9c.1-.3.2-.7.2-1.1,0-.9-.3-1.5-.8-1.9-.6-.4-1.4-.6-2.5-.6h-2.1v5.4h2Z"/>
    <path class="cls-2" d="m102.2,133.3c.6,0,1.1,0,1.6-.3s.9-.5,1.2-.8c.3-.4.6-.8.7-1.3s.3-1,.3-1.7v-8.7h1.9v8.7c0,.8-.1,1.6-.4,2.3-.3.7-.6,1.3-1.1,1.8s-1.1.9-1.8,1.2c-.7.3-1.5.4-2.4.4s-1.7-.1-2.4-.4c-.7-.3-1.3-.7-1.8-1.2s-.9-1.1-1.1-1.8c-.3-.7-.4-1.5-.4-2.3v-8.7h1.9v8.7c0,.6,0,1.1.3,1.6s.4.9.7,1.3c.3.4.7.6,1.2.8.5.2,1,.3,1.6.3Z"/>
    <path class="cls-2" d="m118.7,122.7c0,0-.1.2-.2.2s-.2,0-.3,0-.2,0-.4-.2-.3-.2-.6-.4c-.2-.1-.5-.3-.8-.4s-.7-.2-1.2-.2-.8,0-1.1.2c-.3.1-.6.3-.8.5-.2.2-.4.4-.5.7-.1.3-.2.6-.2.9s0,.7.3,1c.2.3.5.5.8.7.3.2.7.3,1.1.5s.8.3,1.3.4c.4.1.9.3,1.3.5.4.2.8.4,1.1.7s.6.6.8,1c.2.4.3.9.3,1.5s-.1,1.2-.3,1.8c-.2.5-.5,1-.9,1.4-.4.4-.9.7-1.5,1-.6.2-1.3.4-2,.4s-1.8-.2-2.5-.5c-.8-.3-1.4-.8-2-1.4l.6-.9c0,0,.1-.1.2-.2,0,0,.2,0,.3,0s.2,0,.3.1c.1,0,.2.2.4.3.1.1.3.2.5.3.2.1.4.2.6.3.2.1.5.2.8.3.3,0,.6.1,1,.1s.9,0,1.2-.2c.4-.1.7-.3.9-.5.2-.2.4-.5.6-.8.1-.3.2-.7.2-1.1s0-.8-.3-1.1-.5-.5-.8-.7c-.3-.2-.7-.3-1.1-.5s-.8-.3-1.3-.4-.8-.3-1.3-.5c-.4-.2-.8-.4-1.1-.7-.3-.3-.6-.6-.8-1.1-.2-.4-.3-1-.3-1.6s0-1,.3-1.5c.2-.5.5-.9.9-1.3.4-.4.8-.7,1.4-.9.5-.2,1.2-.3,1.9-.3s1.5.1,2.2.4c.7.3,1.2.6,1.7,1.1l-.5.9Z"/>
    <path class="cls-2" d="m131.1,133.3v1.6h-8.8v-14.3h8.8v1.6h-6.9v4.8h5.6v1.5h-5.6v4.9h6.9Z"/>
    <path class="cls-2" d="m144.4,134.8h-1.7c-.4,0-.6-.1-.8-.4l-3.7-5.1c-.1-.2-.2-.3-.4-.3s-.3-.1-.6-.1h-1.5v6h-1.9v-14.3h4c.9,0,1.7,0,2.4.3.7.2,1.2.4,1.6.8.4.3.7.8,1,1.3.2.5.3,1,.3,1.6s0,1-.2,1.4c-.2.4-.4.8-.7,1.2-.3.3-.7.6-1.1.9-.4.2-.9.4-1.5.6.2.1.5.3.6.6l4.2,5.7Zm-6.6-7.4c.6,0,1.1,0,1.5-.2s.8-.3,1.1-.6.5-.5.7-.9c.1-.3.2-.7.2-1.1,0-.9-.3-1.5-.8-1.9-.6-.4-1.4-.6-2.5-.6h-2.1v5.4h2Z"/>
    <path class="cls-2" d="m153.6,122.7c0,0-.1.2-.2.2s-.2,0-.3,0-.2,0-.4-.2-.3-.2-.6-.4c-.2-.1-.5-.3-.8-.4s-.7-.2-1.2-.2-.8,0-1.1.2c-.3.1-.6.3-.8.5-.2.2-.4.4-.5.7-.1.3-.2.6-.2.9s0,.7.3,1c.2.3.5.5.8.7.3.2.7.3,1.1.5s.8.3,1.3.4c.4.1.9.3,1.3.5.4.2.8.4,1.1.7s.6.6.8,1c.2.4.3.9.3,1.5s-.1,1.2-.3,1.8c-.2.5-.5,1-.9,1.4-.4.4-.9.7-1.5,1-.6.2-1.3.4-2,.4s-1.8-.2-2.5-.5c-.8-.3-1.4-.8-2-1.4l.6-.9c0,0,.1-.1.2-.2,0,0,.2,0,.3,0s.2,0,.3.1c.1,0,.2.2.4.3.1.1.3.2.5.3.2.1.4.2.6.3.2.1.5.2.8.3.3,0,.6.1,1,.1s.9,0,1.2-.2c.4-.1.7-.3.9-.5.2-.2.4-.5.6-.8.1-.3.2-.7.2-1.1s0-.8-.3-1.1-.5-.5-.8-.7c-.3-.2-.7-.3-1.1-.5s-.8-.3-1.3-.4-.8-.3-1.3-.5c-.4-.2-.8-.4-1.1-.7-.3-.3-.6-.6-.8-1.1-.2-.4-.3-1-.3-1.6s0-1,.3-1.5c.2-.5.5-.9.9-1.3.4-.4.8-.7,1.4-.9.5-.2,1.2-.3,1.9-.3s1.5.1,2.2.4c.7.3,1.2.6,1.7,1.1l-.5.9Z"/>
  </g>
  <g>
    <path class="cls-1" d="m71.3,67.6c.5.5,1,.9,1.5,1.4.5.5.5.9,0,1.4-2.2,2.2-4.4,4.4-6.6,6.6-.5.5-.9.5-1.4,0-5.3-5.3-10.5-10.5-15.8-15.8-.5-.5-.5-.9,0-1.4,2.2-2.2,4.4-4.4,6.6-6.6.5-.5.9-.5,1.4,0,.5.5.9.9,1.4,1.5,1.7-1.7,3.4-3.3,5-4.9.6-.6,1.3-1.3,1.9-1.8,1.6-1.4,3.5-2.1,5.7-2.2,2.1,0,4.3,0,6.5,0,1.5,0,2.8.7,4,1.5.6.4,1.1.5,1.8.5,3.8,0,7.7,0,11.5,0,2.5,0,3.9.9,4.7,3.4,0,0,0,.1.1.2.9-.9,1.7-1.8,2.5-2.7,1.4-1.5,2.8-3,4.2-4.5,1.3-1.4,3.1-1.6,4.6-.4,1.5,1.2,1.7,3,.6,4.6-3,4.2-6,8.3-9.1,12.5-2.1,2.9-4.9,4.3-8.5,4.3-5.9,0-11.8,0-17.7,0-2.6,0-3.3.4-5,2.5Zm-1-1.3c0,0,0-.2.2-.2,1.5-2,3.4-2.7,5.8-2.7,5.9,0,11.8,0,17.7,0,3.1,0,5.4-1.2,7.2-3.6.9-1.2,1.8-2.5,2.7-3.7,2.1-2.9,4.2-5.8,6.3-8.7.4-.6.6-1.2.3-1.9-.5-.9-1.9-1.5-2.9-.4-2.9,3.2-5.9,6.3-8.8,9.5-1,1.1-2.3,1.7-3.8,1.7-3.5,0-7,0-10.5,0-1,0-1.4-.2-1.4-.8,0-.6.4-.8,1.4-.8,3.6,0,7.1,0,10.7,0,1.8,0,3-1.3,2.8-3-.1-1.4-1.3-2.3-2.9-2.3-4.1,0-8.3,0-12.4,0-.5,0-1-.1-1.4-.4-1.3-.7-2.6-1.5-4.2-1.6-2.2,0-4.3,0-6.5,0-1.7,0-3.2.8-4.5,2-.7.7-1.4,1.3-2.1,2-1.4,1.5-2.8,3-4.1,4.4,3.3,3.3,6.8,6.8,10.4,10.4Zm-14-11.4c-1.9,1.9-3.8,3.8-5.6,5.6,4.9,4.9,9.9,9.9,14.8,14.8,1.8-1.8,3.7-3.7,5.6-5.6-4.9-4.9-9.9-9.9-14.8-14.8Z"/>
    <path class="cls-1" d="m87.6,45.9c-9.8,0-17.8-8-17.8-17.8,0-9.8,8-17.8,17.8-17.8,9.8,0,17.8,8,17.8,17.8,0,9.8-8,17.8-17.8,17.8Zm-16.2-17.8c0,8.9,7.2,16.2,16.1,16.2,8.9,0,16.2-7.2,16.2-16.1,0-8.9-7.2-16.2-16.2-16.2-8.9,0-16.2,7.2-16.2,16.1Z"/>
    <path class="cls-2" d="m73.4,28c0-7.8,6.5-14.1,14.2-14.1,7.8,0,14.1,6.5,14.1,14.2,0,7.8-6.5,14.1-14.2,14.1-7.8,0-14.1-6.5-14.1-14.2Zm3.2,6.2c1-.7,1.9-1.5,2.9-2.2,1.1-.6,2.2-1,3.4-1.5-1.4-1.4-2.2-3.2-2.1-5.2,0-2.1.9-3.8,2.4-5.1,2.6-2.4,6.7-2.3,9.4,0,2.3,2,3.7,6.6.2,10.3,1,.4,2.1.8,3.1,1.3,1,.6,1.9,1.3,2.8,1.9,2.4-4,2.1-10.8-2.8-15.1-4.8-4.2-12-4.2-16.7.2-4.9,4.5-5,11.3-2.5,15.3Zm21.1,1.2c-.2-.3-.4-.5-.7-.8-1.7-1.6-3.8-2.3-6-2.7-.2,0-.4,0-.6,0-1.7.6-3.4.6-5.1,0-.2,0-.5-.1-.8,0-1.7.3-3.4.8-4.9,1.9-.8.6-1.4,1.3-2.1,1.9,5,6.6,15.1,6.7,20.1-.3Zm-15.3-10c0,3,2.4,5.4,5.4,5.5,3,0,5.5-2.4,5.5-5.4,0-3-2.4-5.5-5.4-5.5-3,0-5.4,2.4-5.4,5.4Z"/>
  </g>
</svg>