<?xml version="1.0" encoding="UTF-8"?>
<svg id="Layer_1" data-name="Layer 1" xmlns="http://www.w3.org/2000/svg" viewBox="0 0 150 150">
  <defs>
    <style>
      .cls-1 {
        fill: #c51724;
      }

      .cls-1, .cls-2 {
        stroke-width: 0px;
      }
    </style>
  </defs>
  <g>
    <path class="cls-1" d="m45.3,72.5c-.5-.4-.7-.9-.6-1.5v-7.5c0-6.2,3.7-11.4,9.6-13.4,3.4-1.2,6.8-2.4,10.3-3.6.4-.2.6-.4.6-.8v-3.2c0-.2,0-.5-.2-.6-2.5-2.3-4-5.1-4.2-8.5-.2-3.3-1.2-6.4-2.1-9.5-.5-1.5-.9-3-1.3-4.6-.6-2.2-.2-4.3,1.1-6.2,2.2-2.9,5-5,8.7-5.7,1.9-.4,3.8-.3,5.6.5.4.2.9.2,1.2,0,3.3-1.3,6.5-.8,9.5.9,1.8,1,3.2,2.3,4.5,3.8,1.7,2,2.1,4.3,1.4,6.9-.8,2.9-1.6,5.7-2.5,8.5-.6,1.8-.6,3.6-.8,5.4-.4,3.2-1.7,6-4.1,8.2-.3.3-.4.5-.4.9v1.2c0,.7-.4,1.2-1,1.2s-1-.4-1-1.2v-.4c-1.9,1-3.9,1.5-6.1,1.5s-4.1-.5-6.1-1.6v3.2c0,0,0,.2,0,.3,1.9,3.3,3.9,6.7,5.8,10h0c0-.1.2-.2.3-.3.8-1.3,1.5-2.6,2.2-3.8.4-.7,1-.9,1.5-.6.5.3.6.9.2,1.6-1,1.7-2,3.5-3,5.2,0,.2-.2.5-.2.7v10.7h1.6c.6,0,1.1,0,1.3.7.2.6-.2,1-.6,1.3h-31.3v.3Zm20.5-49.2v.5c-.2,2.4-1.2,4.5-3.3,5.9,0,0-.2.4-.2.6,0,1.2.2,2.5.4,3.7.7,4.8,4.6,8.5,9.7,9,4.7.5,9.5-2.5,10.9-7.1.6-1.8.6-3.8.9-5.7,0,0,0-.4-.2-.4-2-1.4-3-3.4-3.2-5.8,0-.4-.2-.6-.6-.7-1-.2-2-.4-3-.7-1.5-.5-2.8-1.4-3.9-2.5-2,2.1-4.5,3.1-7.4,3.3h-.1Zm18.8,4.4s0-.1,0-.2c.9-2.9,1.8-5.8,2.6-8.8.5-1.7,0-3.2-1-4.6-1.1-1.3-2.3-2.5-3.8-3.3-2.6-1.5-5.3-2.1-8.2-.9-.8.3-1.7.3-2.5,0-1.5-.7-3.1-.7-4.7-.4-2.7.6-4.8,2.1-6.6,4.1-1.5,1.6-1.9,3.5-1.3,5.6.8,2.6,1.6,5.2,2.3,7.9,0,.2,0,.4.3.8.5-.7,1-1.3,1.3-2,.5-1,.7-2.2.6-3.3,0-.8.3-1.2,1.1-1.3.5,0,1,0,1.5-.1,2.4-.3,4.5-1.3,5.9-3.3.5-.7,1.3-.7,1.8,0,.8,1.1,1.8,1.9,3,2.5,1.3.6,2.7.9,4.1.9s1.4.3,1.4,1.5v.7c0,1.6.6,3.1,1.9,4.2h.2Zm-27.7,42.8v-2.7c0-1,.3-1.3,1.3-1.3h9.6c1,0,1.3.3,1.3,1.3v2.7h3v-9.8c-.3,0-.6.2-.8.2-1.5.4-3.1.9-4.6,1.3-1,.3-1.5,0-1.7-1-.3-1.7-.6-3.4-.9-5.1,0-.2,0-.5-.3-.6-1.5-1.6-3.1-3.1-4.6-4.6s-.3-.2-.5,0c-1.9.7-3.8,1.3-5.6,2.1-1.1.5-2.1,1.3-2.9,2.2,1.6,1.9,2.9,4,3.3,6.4.3,1.4.3,2.8.3,4.2v4.8s3.1,0,3.1,0Zm-8.1-13.9c-1.1,1.6-1.9,3.3-2,5.1-.2,2.5,0,5.1,0,7.6v1.1h5.2c0-2.6,0-5.3-.2-7.8-.2-2.3-1.3-4.2-2.8-6h0Zm22.8,2.1c-2-3.5-4-6.9-6-10.4-1.5.5-2.9,1-4.5,1.6,1.2,1.2,2.3,2.4,3.5,3.4,1.1.9,1.6,2,1.7,3.4,0,1.1.4,2.2.5,3.3,1.6-.5,3.1-.9,4.8-1.4h0Zm-12.7,11.8h8.1v-2h-8.1v2Z"/>
    <path class="cls-2" d="m79.9,72.5c-.5-.4-.7-.9-.6-1.5v-3.4c0-.8.4-1.2,1.2-1.2h1.8v-8c0-.2,0-.5-.2-.6-1.6-.9-2.4-2.3-2.6-4-.2-1.5-.3-3.1,0-4.6.3-2.4,2.4-4.1,4.8-4.1h16.6c2.7,0,4.9,2.2,4.9,4.9s0,3.1-.4,4.5c-.4,1.3-1.1,2.5-2.4,3.2,0,0-.3.3-.3.5v8.3h1.8c.8,0,1.2.4,1.2,1.2v3.4c0,.6,0,1.1-.6,1.5h-25.2Zm8.6-6.1v-4.9c0-.8.4-1.2,1.2-1.2h5.7c.8,0,1.2.4,1.2,1.2v4.8h4v-8.1c-1.8,0-3.1-.8-4-2.3-1.7,2.8-6.1,3.2-8.2,0-.9,1.5-2.3,2.2-4,2.2v8.1h4v.2Zm-7.1,4.1h22.3v-2h-22.3v2Zm8.1-19.4h6.1v-4h-6.1v4Zm-8.1,0h6v-4h-3.2c-.7,0-1.4.3-1.9.9-.9.9-1,2-.9,3.1Zm22.4,0v-1.1c0-1.2-.8-2.5-2-2.7-1.3-.3-2.7-.2-4-.3v4.1h6.1,0Zm-13.2,11.3v4h4v-4h-4Zm-3.3-9.2h-5.8c.3,2,1.4,3.1,3,3,1.5,0,2.6-1.2,2.8-3Zm8.2,0h-5.8c.2,1.9,1.4,3,2.9,3s2.7-1.2,2.9-3Zm2.3,0c.3,2,1.4,3.1,3.1,3,1.5,0,2.6-1.4,2.7-3,0,0-5.8,0-5.8,0Z"/>
    <path class="cls-1" d="m73.2,38.8c-1.3,0-2.5-.3-3.5-1.1-.6-.5-.8-1.1-.4-1.6s.9-.5,1.6,0c1.3.9,3.3.9,4.6,0,.6-.4,1.2-.4,1.6,0s.2,1.1-.4,1.5c-1,.8-2.2,1.1-3.5,1.1Z"/>
    <path class="cls-1" d="m74.2,32.2v1.5c0,.6-.5,1.1-1,1.1s-1-.4-1-1v-3c0-.6.5-1.1,1-1.1s1,.4,1,1v1.5Z"/>
    <path class="cls-1" d="m71.2,28.1c0,.8-.7,1.5-1.5,1.5s-1.5-.7-1.5-1.5.7-1.5,1.5-1.5,1.5.7,1.6,1.5h0Z"/>
    <path class="cls-1" d="m76.8,29.7c-.8,0-1.5-.7-1.5-1.5s.7-1.5,1.5-1.5,1.5.7,1.6,1.5c0,.8-.7,1.5-1.5,1.5h0Z"/>
    <path class="cls-1" d="m68.6,11.3c.9.1,1.3.5,1.4,1.1,0,.6-.4,1-1.3,1.1-2.3.2-4.1,1.3-5.4,3.2,0,.1,0,.2-.2.3-.4.6-1,.7-1.5.4-.5-.3-.6-.9-.3-1.5,1-1.7,2.4-2.9,4.2-3.7,1-.4,2-.6,3.1-.9Z"/>
    <path class="cls-1" d="m70.6,15.9c0,.5-.3.9-.9.9-1.5,0-2.6.7-3.4,1.9-.3.5-.9.5-1.4.2-.4-.3-.6-.8-.3-1.3.7-1.6,3.4-3.1,5.1-2.8.5,0,.9.5.9,1h0Z"/>
  </g>
  <g>
    <path class="cls-2" d="m13.7,106.8h-1.5c-.2,0-.3,0-.4-.1-.1,0-.2-.2-.2-.3l-1.3-3.5H3.8l-1.3,3.5c0,.1-.1.2-.2.3-.1,0-.3.1-.4.1H.3l5.7-14.3h2l5.7,14.3Zm-4-5.3l-2.2-5.8c0-.2-.1-.4-.2-.6,0-.2-.1-.5-.2-.7-.1.5-.3,1-.4,1.4l-2.2,5.8h5.4Z"/>
    <path class="cls-2" d="m23.7,105.2v1.6h-8.1v-14.3h1.9v12.7h6.2Z"/>
    <path class="cls-2" d="m34,105.2v1.6h-8.1v-14.3h1.9v12.7h6.2Z"/>
    <path class="cls-2" d="m55.6,92.5v14.3h-1.7v-10.5c0-.1,0-.3,0-.5,0-.2,0-.3,0-.5l-4.9,9c-.2.3-.4.5-.7.5h-.3c-.3,0-.5-.2-.7-.5l-5-9c0,.4,0,.7,0,1v10.5h-1.7v-14.3h1.4c.2,0,.3,0,.4,0,0,0,.2.1.3.3l4.9,8.8c0,.2.2.3.2.5,0,.2.1.3.2.5,0-.2.1-.4.2-.5s.2-.3.2-.5l4.9-8.8c0-.2.2-.2.3-.3,0,0,.2,0,.4,0h1.4Z"/>
    <path class="cls-2" d="m68.1,105.3v1.6h-8.8v-14.3h8.8v1.6h-6.9v4.8h5.6v1.5h-5.6v4.9h6.9Z"/>
    <path class="cls-2" d="m81.4,106.8h-1.7c-.4,0-.6-.1-.8-.4l-3.7-5.1c-.1-.2-.2-.3-.4-.3s-.3-.1-.6-.1h-1.5v6h-1.9v-14.3h4c.9,0,1.7,0,2.4.3s1.2.4,1.6.8.7.8,1,1.3c.2.5.3,1,.3,1.6s0,1-.2,1.4c-.2.4-.4.8-.7,1.2-.3.3-.7.6-1.1.9-.4.2-.9.4-1.5.6.2.1.5.3.6.6l4.2,5.7Zm-6.6-7.4c.6,0,1.1,0,1.5-.2s.8-.3,1.1-.6.5-.5.7-.9c.1-.3.2-.7.2-1.1,0-.9-.3-1.5-.8-1.9-.6-.4-1.4-.6-2.5-.6h-2.1v5.4h2Z"/>
    <path class="cls-2" d="m93.2,103.9c.1,0,.2,0,.3.1l.8.8c-.6.7-1.3,1.2-2.1,1.6s-1.8.6-3,.6-2-.2-2.8-.5-1.6-.9-2.2-1.5c-.6-.6-1.1-1.4-1.4-2.3-.3-.9-.5-1.9-.5-3s.2-2.1.5-3c.3-.9.8-1.7,1.4-2.3.6-.6,1.4-1.1,2.2-1.5.9-.4,1.8-.5,2.9-.5s1.9.2,2.7.5c.8.3,1.5.8,2.1,1.3l-.6.9c0,0,0,.1-.2.2,0,0-.1,0-.3,0s-.3,0-.4-.2c-.2-.1-.4-.3-.7-.4s-.6-.3-1-.4-.9-.2-1.5-.2-1.4.1-2,.4-1.1.6-1.6,1.1c-.4.5-.8,1.1-1,1.8-.2.7-.4,1.5-.4,2.4s.1,1.7.4,2.4c.3.7.6,1.3,1.1,1.8.4.5,1,.9,1.6,1.1.6.3,1.3.4,2,.4s.8,0,1.2,0c.3,0,.7-.1,1-.2.3-.1.6-.2.8-.4.2-.2.5-.4.7-.6.1-.1.2-.2.3-.2Z"/>
    <path class="cls-2" d="m108.1,92.5v14.3h-1.9v-6.5h-7.7v6.5h-1.9v-14.3h1.9v6.4h7.7v-6.4h1.9Z"/>
    <path class="cls-2" d="m123.5,106.8h-1.5c-.2,0-.3,0-.4-.1s-.2-.2-.2-.3l-1.3-3.5h-6.4l-1.3,3.5c0,.1-.1.2-.2.3-.1,0-.3.1-.4.1h-1.5l5.7-14.3h2l5.7,14.3Zm-4-5.3l-2.2-5.8c0-.2-.1-.4-.2-.6,0-.2-.1-.5-.2-.7-.1.5-.3,1-.4,1.4l-2.2,5.8h5.3Z"/>
    <path class="cls-2" d="m137,92.5v14.3h-1c-.2,0-.3,0-.4,0-.1,0-.2-.1-.3-.3l-8.3-10.8c0,.2,0,.3,0,.5,0,.2,0,.3,0,.5v10.2h-1.7v-14.3h1c0,0,.2,0,.2,0,0,0,.1,0,.2,0s0,0,.1,0c0,0,0,0,.1.2l8.3,10.8c0-.2,0-.3,0-.5,0-.2,0-.3,0-.5v-10.2h1.7Z"/>
    <path class="cls-2" d="m150.3,94.1h-4.6v12.7h-1.9v-12.7h-4.7v-1.6h11.2v1.6Z"/>
  </g>
  <g>
    <path class="cls-2" d="m52.4,129.9c.6,0,1.1,0,1.6-.3.5-.2.9-.5,1.2-.8.3-.4.6-.8.7-1.3s.3-1,.3-1.7v-8.7h1.9v8.7c0,.8-.1,1.6-.4,2.3-.3.7-.6,1.3-1.1,1.8-.5.5-1.1.9-1.8,1.2-.7.3-1.5.4-2.4.4s-1.7-.1-2.4-.4c-.7-.3-1.3-.7-1.8-1.2-.5-.5-.9-1.1-1.1-1.8-.3-.7-.4-1.5-.4-2.3v-8.7h1.9v8.7c0,.6,0,1.1.3,1.6s.4.9.7,1.3c.3.4.7.6,1.2.8.5.2,1,.3,1.6.3Z"/>
    <path class="cls-2" d="m68.9,119.3c0,0-.1.2-.2.2,0,0-.2,0-.3,0s-.2,0-.4-.2-.3-.2-.6-.4-.5-.3-.8-.4c-.3-.1-.7-.2-1.2-.2s-.8,0-1.1.2c-.3.1-.6.3-.8.5-.2.2-.4.4-.5.7-.1.3-.2.6-.2.9s0,.7.3,1c.2.3.5.5.8.7.3.2.7.3,1.1.5.4.1.8.3,1.3.4.4.1.9.3,1.3.5.4.2.8.4,1.1.7s.6.6.8,1c.2.4.3.9.3,1.5s-.1,1.2-.3,1.8-.5,1-.9,1.4c-.4.4-.9.7-1.5,1-.6.2-1.3.4-2,.4s-1.8-.2-2.5-.5c-.8-.3-1.4-.8-1.9-1.4l.6-.9c0,0,.1-.1.2-.2,0,0,.2,0,.3,0s.2,0,.3.1c.1,0,.2.2.4.3.1.1.3.2.5.3.2.1.4.2.6.3.2.1.5.2.8.3.3,0,.6.1,1,.1s.9,0,1.2-.2c.4-.1.7-.3.9-.5.2-.2.4-.5.6-.8.1-.3.2-.7.2-1.1s0-.8-.3-1.1-.5-.5-.8-.7-.7-.3-1.1-.5c-.4-.1-.8-.3-1.3-.4-.4-.1-.8-.3-1.3-.5-.4-.2-.8-.4-1.1-.7-.3-.3-.6-.6-.8-1.1s-.3-1-.3-1.6,0-1,.3-1.5c.2-.5.5-.9.9-1.3.4-.4.8-.7,1.4-.9.6-.2,1.2-.3,1.9-.3s1.5.1,2.2.4c.7.3,1.2.6,1.7,1.1l-.5.9Z"/>
    <path class="cls-2" d="m81.2,129.8v1.6h-8.8v-14.3h8.8v1.6h-6.9v4.8h5.6v1.5h-5.6v4.9h6.9Z"/>
    <path class="cls-2" d="m94.5,131.4h-1.7c-.4,0-.6-.1-.8-.4l-3.7-5.1c-.1-.2-.2-.3-.4-.3s-.3-.1-.6-.1h-1.5v6h-1.9v-14.3h4c.9,0,1.7,0,2.4.3s1.2.4,1.6.8.7.8,1,1.3c.2.5.3,1,.3,1.6s0,1-.2,1.4c-.2.4-.4.8-.7,1.2-.3.3-.7.6-1.1.9-.4.2-.9.4-1.5.6.2.1.5.3.6.6l4.2,5.7Zm-6.6-7.4c.6,0,1.1,0,1.5-.2s.8-.3,1.1-.6.5-.5.7-.9c.1-.3.2-.7.2-1.1,0-.9-.3-1.5-.8-1.9-.6-.4-1.4-.6-2.5-.6h-2.1v5.4h2Z"/>
    <path class="cls-2" d="m103.8,119.3c0,0-.1.2-.2.2s-.2,0-.3,0-.2,0-.4-.2-.3-.2-.6-.4c-.2-.1-.5-.3-.8-.4-.3-.1-.7-.2-1.2-.2s-.8,0-1.1.2c-.3.1-.6.3-.8.5-.2.2-.4.4-.5.7-.1.3-.2.6-.2.9s0,.7.3,1c.2.3.5.5.8.7.3.2.7.3,1.1.5s.8.3,1.3.4c.4.1.9.3,1.3.5.4.2.8.4,1.1.7s.6.6.8,1c.2.4.3.9.3,1.5s-.1,1.2-.3,1.8c-.2.5-.5,1-.9,1.4-.4.4-.9.7-1.5,1-.6.2-1.3.4-2,.4s-1.8-.2-2.5-.5c-.8-.3-1.4-.8-1.9-1.4l.6-.9c0,0,.1-.1.2-.2,0,0,.2,0,.3,0s.2,0,.3.1.2.2.4.3c.1.1.3.2.5.3.2.1.4.2.6.3.2.1.5.2.8.3.3,0,.6.1,1,.1s.9,0,1.2-.2c.4-.1.7-.3.9-.5.2-.2.4-.5.6-.8s.2-.7.2-1.1,0-.8-.3-1.1c-.2-.3-.5-.5-.8-.7-.3-.2-.7-.3-1.1-.5-.4-.1-.8-.3-1.3-.4-.4-.1-.8-.3-1.3-.5-.4-.2-.8-.4-1.1-.7-.3-.3-.6-.6-.8-1.1-.2-.4-.3-1-.3-1.6s0-1,.3-1.5c.2-.5.5-.9.9-1.3.4-.4.8-.7,1.4-.9.6-.2,1.2-.3,1.9-.3s1.5.1,2.2.4c.7.3,1.2.6,1.7,1.1l-.5.9Z"/>
  </g>
</svg>