<?xml version="1.0" encoding="UTF-8"?>
<svg id="Layer_1" data-name="Layer 1" xmlns="http://www.w3.org/2000/svg" viewBox="0 0 150 150">
  <defs>
    <style>
      .cls-1 {
        fill: #c51724;
      }

      .cls-1, .cls-2 {
        stroke-width: 0px;
      }
    </style>
  </defs>
  <g>
    <path class="cls-2" d="m50.3,100.7v5h5.9v1.6h-5.9v6.2h-1.9v-14.3h8.8v1.6h-6.9Z"/>
    <path class="cls-2" d="m61.6,113.5h-1.9v-14.3h1.9v14.3Z"/>
    <path class="cls-2" d="m76.9,99.1v14.3h-1c-.2,0-.3,0-.4,0-.1,0-.2-.1-.3-.3l-8.3-10.8c0,.2,0,.3,0,.5,0,.2,0,.3,0,.5v10.2h-1.7v-14.3h1c0,0,.2,0,.2,0,0,0,.1,0,.2,0,0,0,0,0,.1,0,0,0,0,0,.1.2l8.3,10.8c0-.2,0-.3,0-.5,0-.2,0-.3,0-.5v-10.2h1.7Z"/>
    <path class="cls-2" d="m92.2,113.5h-1.5c-.2,0-.3,0-.4-.1s-.2-.2-.2-.3l-1.3-3.5h-6.4l-1.3,3.5c0,.1-.1.2-.2.3-.1,0-.3.1-.4.1h-1.5l5.7-14.3h2l5.7,14.3Zm-4-5.3l-2.2-5.8c0-.2-.1-.4-.2-.6,0-.2-.1-.5-.2-.7-.1.5-.3,1-.4,1.4l-2.2,5.8h5.3Z"/>
    <path class="cls-2" d="m102.2,111.8v1.6h-8.1v-14.3h1.9v12.7h6.2Z"/>
  </g>
  <g>
    <path class="cls-2" d="m61.4,123.4c.9,0,1.6,0,2.3.3.6.2,1.2.4,1.6.7.4.3.7.7.9,1.2.2.5.3,1,.3,1.6s0,.7-.2,1-.3.6-.5.9c-.2.3-.5.5-.8.8-.3.2-.7.4-1.2.5,1.1.2,1.8.6,2.4,1.1.5.5.8,1.3.8,2.2s-.1,1.2-.3,1.7c-.2.5-.6.9-1,1.3-.4.4-1,.6-1.6.8-.6.2-1.3.3-2.1.3h-5.1v-14.3h4.6Zm-2.6,1.5v4.9h2.6c.5,0,1,0,1.4-.2s.7-.3,1-.5c.3-.2.5-.5.6-.8.1-.3.2-.6.2-1,0-.8-.3-1.5-.8-1.9-.5-.4-1.3-.6-2.4-.6h-2.6Zm3.1,11.3c.6,0,1,0,1.4-.2.4-.1.7-.3,1-.5.3-.2.4-.5.6-.8.1-.3.2-.7.2-1,0-.7-.3-1.3-.8-1.8-.5-.4-1.3-.6-2.4-.6h-3.1v5h3.1Z"/>
    <path class="cls-2" d="m71.7,137.7h-1.9v-14.3h1.9v14.3Z"/>
    <path class="cls-2" d="m83.5,136.1v1.6h-8.1v-14.3h1.9v12.7h6.2Z"/>
    <path class="cls-2" d="m93.8,136.1v1.6h-8.1v-14.3h1.9v12.7h6.2Z"/>
  </g>
  <g>
    <path class="cls-1" d="m33.4,18.2c0,0,0-.1,0-.2,1.2-4.2,3.4-5.8,7.8-5.8,1.7,0,3.4,0,5,0,.3,0,.6,0,.9,0,0-.6,0-1.2,0-1.7,0-.9.4-1.3,1.2-1.3,6.2,0,12.4,0,18.7,0,.9,0,1.2.4,1.2,1.2,0,.5,0,1.1,0,1.7.3,0,.6,0,.9,0,1.9,0,3.8,0,5.8,0,4.2,0,7.1,2.9,7.2,7.2,0,3.7,0,7.4,0,11.1,0,.3,0,.6,0,1,.9,0,1.8,0,2.7,0,8,0,15.9,0,23.9,0,4.2,0,6.7,2.5,6.7,6.7,0,3,0,5.9,0,8.9,0,1.2-.3,1.5-1.5,1.5-2.9,0-5.7,0-8.7,0,0,.2,0,.5,0,.8,0,7.7,0,15.4-.1,23.1,0,3.6-2.1,6.3-5.4,7.1-.7.2-1.5.2-2.2.2-8.5,0-17,0-25.5,0-4.6,0-7.3-3.2-7.4-6.6,0-.1,0-.2,0-.4h-.9c-7.4,0-14.8,0-22.3,0-4.4,0-6.5-1.6-7.8-5.8,0,0,0-.1,0-.2,0-16.2,0-32.5,0-48.7Zm13.8-3.9c-.3,0-.5,0-.7,0-2,0-4,0-5.9,0-3.2,0-5.1,2.1-5.1,5.2,0,15.4,0,30.8,0,46.2,0,.5,0,.9.1,1.4.5,2.4,2.4,3.8,5.1,3.8,7.7,0,15.4,0,23.1,0,.2,0,.4,0,.7,0,0-.3,0-.6,0-.9,0-.9.4-1.2,1.3-1.2.4,0,.7,0,1.1,0,1.6,0,3.1,0,4.8,0,0-.4,0-.7,0-1,0-9.9,0-19.8.1-29.6,0-4,2.6-6.6,6.6-6.6.5,0,1.1,0,1.7,0,0-.4,0-.6,0-.9,0-3.7,0-7.4,0-11.1,0-3.2-2-5.2-5.3-5.3-1.9,0-3.8,0-5.8,0-.2,0-.5,0-.8,0,0,1,0,2,0,2.9,0,1.1-.3,1.4-1.4,1.4-6.1,0-12.2,0-18.3,0-1.1,0-1.4-.3-1.4-1.5,0-1,0-1.9,0-2.9Zm26.6,54.3c.4,0,.7,0,1,0,5.6,0,11.3,0,16.9,0,1.1,0,1.4.3,1.4,1.4,0,1,0,2.1,0,3.1.2,3.4,3.7,5.6,6.8,4.3,2.1-.9,3-2.7,3-5,0-11.4,0-22.8.1-34.1,0-.5,0-1,.1-1.5.3-1.1.8-2.1,1.1-3.2,0,0,0,0-.2,0-8.7,0-17.4,0-26-.1-2.5,0-4.2,1.7-4.2,4.3,0,10,0,20-.1,30,0,.3,0,.5,0,.9Zm17.3,2.1h-24.5c0,.7,0,1.4,0,2.1,0,3.1,1.9,5,5,5,6.9,0,13.7,0,20.6,0,.3,0,.5,0,1,0-2-2.1-2.2-4.5-2-7.1Zm14.1-24.3h8.2c0-3,0-5.9,0-8.9,0-2.1-1.7-3.8-3.8-3.9-2.2-.1-4.2,1.4-4.3,3.6-.1,3,0,6.1,0,9.3ZM49.3,11.3v5.2h16.9v-5.2h-16.9Z"/>
    <path class="cls-2" d="m57.8,31.2c6.2,0,11.3,5.1,11.3,11.3,0,6.2-5.1,11.3-11.3,11.3-6.3,0-11.3-5.1-11.3-11.3,0-6.3,5.1-11.3,11.3-11.3Zm-9.3,11.5c.2,5.3,4.5,9.3,9.5,9.1,5.2-.2,9.2-4.5,9-9.7-.2-5-4.5-9-9.5-8.9-5.1.2-9.2,4.5-9,9.4Z"/>
    <path class="cls-2" d="m82.3,57.4c0,.8-.2,1.3-.9,1.4-.6,0-1-.2-1.1-.9,0-.1,0-.3,0-.4-.2-.6-.6-1-1.2-.9-.6,0-1,.4-1.1,1.1,0,.7.4,1.1,1,1.2.3,0,.6,0,.9.1,1.3.3,2.2,1.4,2.4,2.6.2,1.4-.3,2.5-1.5,3.2-.4.2-.7.4-.8,1,0,.3-.6.7-.9.8-.5.1-.9-.2-1-.8,0-.5-.3-.7-.7-1-1-.6-1.5-1.5-1.6-2.6,0-.6.3-1,.9-1.1.6,0,1,.3,1.1.9,0,.1,0,.3,0,.4.2.6.6.9,1.3.9.6,0,1-.5,1-1.1,0-.7-.3-1-1-1.2-.3,0-.6,0-.9-.1-1.3-.3-2.3-1.4-2.4-2.7-.2-1.3.4-2.6,1.6-3.2.4-.2.6-.4.7-.9,0-.3.6-.7.9-.7.3,0,.8.4.9.7.1.6.4.8.8,1,.9.6,1.4,1.5,1.4,2.3Z"/>
    <path class="cls-1" d="m85.5,49.3c-2.8,0-5.7,0-8.5,0-.3,0-.8,0-1-.2-.2-.3-.5-.8-.4-1.1.2-.3.7-.7,1.1-.7,2.1,0,4.3,0,6.4,0,3.5,0,7.1,0,10.6,0,.1,0,.3,0,.4,0,.7,0,1.2.5,1.1,1.1,0,.7-.5,1-1.1,1-1.7,0-3.4,0-5,0-1.2,0-2.4,0-3.6,0h0Z"/>
    <path class="cls-1" d="m85.4,36.5c2.9,0,5.7,0,8.6,0,.4,0,1,.3,1.2.6.4.7-.2,1.4-1.1,1.4-1.8,0-3.6,0-5.4,0-3.8,0-7.6,0-11.4,0-.3,0-.5,0-.8,0-.5-.1-.8-.5-.8-1,0-.5.3-.9.9-.9.5,0,.9,0,1.4,0,2.5,0,5,0,7.5,0,0,0,0,0,0,0Z"/>
    <path class="cls-1" d="m85.4,43.9c-2.7,0-5.4,0-8.2,0-.3,0-.6,0-.8,0-.3-.2-.8-.6-.8-.9,0-.3.4-.7.7-1,.2-.2.6,0,.9,0,5.6,0,11.1,0,16.7,0,.2,0,.4,0,.5,0,.3.3.7.6.8.9.1.5-.2.9-.8,1-.2,0-.3,0-.5,0-2.9,0-5.8,0-8.6,0,0,0,0,0,0,0Z"/>
    <path class="cls-1" d="m90.8,64c1.7,0,3.4,0,5.1,0,.9,0,1.3.3,1.4,1,0,.7-.5,1.1-1.4,1.1-3.4,0-6.7,0-10.1,0-.2,0-.3,0-.5,0-.6,0-1-.5-1-1.1,0-.6.4-1,1.1-1,1.8,0,3.6,0,5.4,0h0Z"/>
    <path class="cls-1" d="m94.2,60.5c-1.7,0-3.4,0-5,0-.9,0-1.3-.4-1.3-1,0-.7.5-1,1.3-1,3.4,0,6.8,0,10.2,0,.9,0,1.4.4,1.4,1.1,0,.7-.5,1-1.4,1-1.7,0-3.4,0-5.1,0Z"/>
    <path class="cls-1" d="m99,38.5c-.4,0-.8,0-1.1,0-.5,0-.9-.4-.9-1,0-.6.3-1,.9-1.1.8,0,1.6,0,2.4,0,.6,0,.9.5.9,1.1,0,.6-.4.9-1,1-.4,0-.7,0-1.1,0,0,0,0,0,0,0Z"/>
    <path class="cls-1" d="m99,49.3c-.4,0-.8,0-1.2,0-.6,0-.9-.4-.9-.9,0-.5.2-1,.8-1,.9,0,1.8,0,2.6,0,.5,0,.9.5.7,1.1-.1.4-.5.7-.9.9-.3.1-.7,0-1.1,0Z"/>
    <path class="cls-1" d="m99,41.9c.4,0,.7,0,1.1,0,.6,0,.9.4,1,1,0,.6-.3,1-.8,1-.8,0-1.7,0-2.5,0-.6,0-.8-.5-.8-1,0-.5.4-.9.9-.9.4,0,.7,0,1.1,0,0,0,0,0,0,0Z"/>
    <path class="cls-1" d="m85.7,60.5c-.8,0-1.3-.4-1.3-1,0-.6.5-1,1.3-1,.8,0,1.3.4,1.3,1,0,.7-.5,1-1.2,1Z"/>
    <path class="cls-1" d="m99.5,66.1c-.8,0-1.3-.4-1.3-1,0-.6.5-1.1,1.2-1.1.8,0,1.2.4,1.2,1.1,0,.6-.4,1-1.2,1Z"/>
    <path class="cls-2" d="m56.4,44.7c1.9-1.8,3.8-3.6,5.6-5.4.9-.9,1.5-1,2-.4.5.5.3,1.1-.5,1.9-2,1.9-4,3.8-6,5.7-.9.9-1.3.9-2.1,0-1.1-1.1-2.2-2.2-3.3-3.3-.6-.6-.7-1.2-.2-1.7.4-.4,1.1-.3,1.6.2,1,1,1.9,1.9,2.9,3Z"/>
  </g>
</svg>