<?xml version="1.0" encoding="UTF-8"?>
<svg id="Layer_1" data-name="Layer 1" xmlns="http://www.w3.org/2000/svg" viewBox="0 0 150 150">
  <defs>
    <style>
      .cls-1 {
        fill: #c51724;
      }

      .cls-1, .cls-2 {
        stroke-width: 0px;
      }
    </style>
  </defs>
  <g>
    <path class="cls-2" d="m69.8,102.6v5.5c-.7.5-1.5.9-2.3,1.2-.8.3-1.7.4-2.7.4s-2.2-.2-3.1-.5-1.7-.9-2.4-1.5-1.2-1.4-1.5-2.3c-.4-.9-.5-1.9-.5-3s.2-2.1.5-3c.3-.9.8-1.7,1.5-2.3s1.4-1.1,2.3-1.5,1.9-.5,3-.5,1.1,0,1.6.1c.5,0,.9.2,1.4.4.4.2.8.3,1.1.6.4.2.7.5,1,.8l-.5.9c0,.1-.2.2-.3.3s-.3,0-.5,0c-.2,0-.3-.2-.5-.3-.2-.1-.5-.3-.8-.4-.3-.1-.6-.2-1-.3-.4,0-.9-.1-1.4-.1-.8,0-1.5.1-2.2.4s-1.2.6-1.7,1.1-.8,1.1-1.1,1.8-.4,1.5-.4,2.3.1,1.7.4,2.4c.3.7.6,1.3,1.1,1.8.5.5,1.1.9,1.7,1.1.7.3,1.4.4,2.3.4s1.3,0,1.8-.2c.5-.2,1-.4,1.5-.6v-3.2h-2.2c-.1,0-.2,0-.3-.1,0,0-.1-.2-.1-.3v-1.1h4.4Z"/>
    <path class="cls-2" d="m81.6,107.9v1.6h-8.8v-14.3h8.8v1.6h-6.9v4.8h5.6v1.5h-5.6v4.9h6.9Z"/>
    <path class="cls-2" d="m94,96.8h-4.6v12.7h-1.9v-12.7h-4.7v-1.6h11.2v1.6Z"/>
  </g>
  <g>
    <path class="cls-2" d="m24.6,134.8h-1.5c-.2,0-.3,0-.4-.1-.1,0-.2-.2-.2-.3l-1.3-3.5h-6.4l-1.3,3.5c0,.1-.1.2-.2.3-.1,0-.3.1-.4.1h-1.5l5.7-14.3h2l5.7,14.3Zm-4-5.3l-2.2-5.8c0-.2-.1-.4-.2-.6,0-.2-.1-.5-.2-.7-.1.5-.3,1-.4,1.4l-2.2,5.8h5.4Z"/>
    <path class="cls-2" d="m34.6,133.2v1.6h-8.1v-14.3h1.9v12.7h6.2Z"/>
    <path class="cls-2" d="m44.9,133.2v1.6h-8.1v-14.3h1.9v12.7h6.2Z"/>
    <path class="cls-2" d="m62.5,120.5l-5.8,14.3h-1.7l-5.8-14.3h1.5c.2,0,.3,0,.4.1.1,0,.2.2.2.3l4,10.1c0,.2.2.5.3.7s.2.5.2.8c0-.3.1-.6.2-.8,0-.3.2-.5.2-.7l4-10.1c0-.1.1-.2.2-.3.1,0,.3-.1.4-.1h1.6Z"/>
    <path class="cls-2" d="m73.2,133.3v1.6h-8.8v-14.3h8.8v1.6h-6.9v4.8h5.6v1.5h-5.6v4.9h6.9Z"/>
    <path class="cls-2" d="m87.6,120.5v14.3h-1c-.2,0-.3,0-.4,0-.1,0-.2-.1-.3-.3l-8.3-10.8c0,.2,0,.3,0,.5,0,.2,0,.3,0,.5v10.2h-1.7v-14.3h1c0,0,.2,0,.2,0,0,0,.1,0,.2,0s0,0,.1,0c0,0,0,0,.2.2l8.3,10.8c0-.2,0-.3,0-.5s0-.3,0-.5v-10.2h1.7Z"/>
    <path class="cls-2" d="m103.6,127.7c0,1.1-.2,2-.5,2.9-.3.9-.8,1.6-1.4,2.3-.6.6-1.4,1.1-2.2,1.5-.9.3-1.8.5-2.9.5h-5.3v-14.3h5.3c1.1,0,2,.2,2.9.5.9.3,1.6.8,2.2,1.5.6.6,1.1,1.4,1.4,2.3s.5,1.9.5,2.9Zm-2,0c0-.9-.1-1.7-.4-2.4-.2-.7-.6-1.3-1-1.8-.4-.5-1-.8-1.6-1.1-.6-.3-1.3-.4-2.1-.4h-3.4v11.2h3.4c.8,0,1.5-.1,2.1-.4.6-.3,1.2-.6,1.6-1.1.4-.5.8-1.1,1-1.8.2-.7.4-1.5.4-2.4Z"/>
    <path class="cls-2" d="m119.7,127.7c0,1.1-.2,2.1-.5,3-.3.9-.8,1.7-1.4,2.3s-1.4,1.1-2.2,1.5-1.8.5-2.9.5-2-.2-2.9-.5c-.9-.4-1.6-.9-2.2-1.5s-1.1-1.4-1.4-2.3-.5-1.9-.5-3,.2-2.1.5-3,.8-1.7,1.4-2.3c.6-.7,1.4-1.2,2.2-1.5.9-.4,1.8-.5,2.9-.5s2,.2,2.9.5c.9.4,1.6.9,2.2,1.5.6.6,1.1,1.4,1.4,2.3.3.9.5,1.9.5,3Zm-2,0c0-.9-.1-1.7-.4-2.4-.2-.7-.6-1.3-1-1.8-.4-.5-1-.9-1.6-1.1-.6-.3-1.3-.4-2.1-.4s-1.5.1-2.1.4c-.6.3-1.2.6-1.6,1.1s-.8,1.1-1,1.8c-.2.7-.4,1.5-.4,2.4s.1,1.7.4,2.4c.2.7.6,1.3,1,1.8.4.5,1,.9,1.6,1.1.6.3,1.3.4,2.1.4s1.5-.1,2.1-.4c.6-.3,1.2-.6,1.6-1.1.4-.5.8-1.1,1-1.8.2-.7.4-1.5.4-2.4Z"/>
    <path class="cls-2" d="m133,134.8h-1.7c-.4,0-.6-.1-.8-.4l-3.7-5.1c-.1-.2-.2-.3-.4-.3s-.3-.1-.6-.1h-1.5v6h-1.9v-14.3h4c.9,0,1.7,0,2.4.3.7.2,1.2.4,1.6.8.4.3.7.8,1,1.3.2.5.3,1,.3,1.6s0,1-.2,1.4c-.2.4-.4.8-.7,1.2-.3.3-.7.6-1.1.9-.4.2-.9.4-1.5.6.2.1.5.3.6.6l4.2,5.7Zm-6.6-7.4c.6,0,1.1,0,1.5-.2s.8-.3,1.1-.6.5-.5.7-.9c.1-.3.2-.7.2-1.1,0-.9-.3-1.5-.8-1.9-.6-.4-1.4-.6-2.5-.6h-2.1v5.4h2Z"/>
    <path class="cls-2" d="m142.3,122.7c0,0-.1.2-.2.2s-.2,0-.3,0-.2,0-.4-.2-.3-.2-.6-.4c-.2-.1-.5-.3-.8-.4s-.7-.2-1.2-.2-.8,0-1.1.2c-.3.1-.6.3-.8.5-.2.2-.4.4-.5.7-.1.3-.2.6-.2.9s0,.7.3,1c.2.3.5.5.8.7.3.2.7.3,1.1.5s.8.3,1.3.4c.4.1.9.3,1.3.5.4.2.8.4,1.1.7s.6.6.8,1c.2.4.3.9.3,1.5s-.1,1.2-.3,1.8c-.2.5-.5,1-.9,1.4-.4.4-.9.7-1.5,1-.6.2-1.3.4-2,.4s-1.8-.2-2.5-.5c-.8-.3-1.4-.8-2-1.4l.6-.9c0,0,.1-.1.2-.2,0,0,.2,0,.3,0s.2,0,.3.1c.1,0,.2.2.4.3.1.1.3.2.5.3.2.1.4.2.6.3.2.1.5.2.8.3.3,0,.6.1,1,.1s.9,0,1.2-.2c.4-.1.7-.3.9-.5.2-.2.4-.5.6-.8.1-.3.2-.7.2-1.1s0-.8-.3-1.1-.5-.5-.8-.7c-.3-.2-.7-.3-1.1-.5s-.8-.3-1.3-.4-.8-.3-1.3-.5c-.4-.2-.8-.4-1.1-.7-.3-.3-.6-.6-.8-1.1-.2-.4-.3-1-.3-1.6s0-1,.3-1.5c.2-.5.5-.9.9-1.3.4-.4.8-.7,1.4-.9.5-.2,1.2-.3,1.9-.3s1.5.1,2.2.4c.7.3,1.2.6,1.7,1.1l-.5.9Z"/>
  </g>
  <g>
    <path class="cls-1" d="m75.4,55.6c5,0,10,0,14.9,0,4.8,0,8.7,3.2,9.7,7.9.1.6.2,1.3.2,2,0,2.9,0,5.8,0,8.7,0,.9-.2,1.1-1.1,1.1-10.3,0-20.7,0-31,0-.9,0-1.1-.2-1.1-1.1,0-.7,0-1.3,0-2,0,0,0,0,0-.2h-.8c-6,0-12.1,0-18.1,0-1.7,0-2.4-.8-2.4-2.4,0-8.3,0-16.6,0-24.9,0-1.7.7-2.5,2.5-2.5,8.3,0,16.5,0,24.8,0,1.8,0,2.5.7,2.5,2.5,0,3.3,0,6.7,0,10v.8Zm-10.8-11.8c0,.4,0,.6,0,.9,0,2.6,0,5.2,0,7.8,0,.4-.2.9-.4,1-.3.1-.8,0-1.1-.3-.7-.5-1.5-1-2.2-1.6-.3-.3-.6-.3-.9,0-.7.5-1.3,1-2,1.5-.3.2-.9.4-1.1.3-.3-.1-.4-.7-.4-1.1,0-2.6,0-5.1,0-7.7,0-.2,0-.5,0-.8-.3,0-.5,0-.7,0-2.5,0-5.1,0-7.6,0-.9,0-1,.1-1,1,0,8.3,0,16.5,0,24.8,0,.9,0,1,1,1,6.1,0,12.1,0,18.2,0,.2,0,.4,0,.7,0,0-1.7,0-3.4,0-5,0-4.2,2.5-7.7,6.4-9.2.4-.2.5-.3.5-.7,0-3.6,0-7.2,0-10.8,0-.8-.1-.9-.9-.9-2.4,0-4.9,0-7.3,0-.3,0-.6,0-1,0Zm9.4,30c0-.3,0-.6,0-.9,0-1,0-2,0-3,0-.5.2-.8.7-.7.3,0,.6.3.8.6.1.1,0,.4,0,.6,0,1.1,0,2.3,0,3.4h16.3c0-.3,0-.5,0-.8,0-1,0-2,0-3,0-.5.2-.8.7-.8.5,0,.8.3.8.8,0,.2,0,.5,0,.7,0,1,0,2.1,0,3.1h5.5c0-3,.1-6.1,0-9-.3-4.1-3.6-7.4-7.8-7.6-4.8-.2-9.7-.2-14.5,0-4.5.1-7.9,3.8-7.9,8.4,0,2.5,0,5.1,0,7.7,0,.2,0,.4,0,.6h5.4Zm-10.9-30h-5.1v7.4c.6-.4,1-.7,1.5-1.1q1-.7,2,0c.5.4,1,.7,1.6,1.1v-7.5Z"/>
    <path class="cls-1" d="m49.1,33.7c.2-.3.3-.7.5-.9.8-1,.9-1.9.4-3.1-.5-1.2-1.1-1.7-2.4-1.8-1.2-.1-1.3-.3-1.3-1.5,0-.8,0-1.6,0-2.5,0-.5.3-.8.8-1,.7-.2,1.6-.1,2.2-.5.5-.4.5-1.4.9-2,.5-.7.3-1.3-.2-1.9-1.3-1.7-1.2-1.5.3-3,.4-.4.8-.8,1.1-1.2.4-.5.8-.5,1.4-.2.5.4,1,.7,1.6,1,.2.1.5.1.7,0,.7-.3,1.5-.6,2.2-.9.2-.1.4-.4.5-.6.2-.6.3-1.2.4-1.9,0-.5.4-.7.9-.7,1,0,2,0,2.9,0,.6,0,.9.3,1,.8.1.6.2,1.3.4,1.9,0,.2.3.4.5.5.7.3,1.5.6,2.2.9.2,0,.5,0,.7,0,.6-.3,1.1-.7,1.6-1.1.4-.3.8-.3,1.2.1.7.7,1.4,1.4,2.1,2.1.4.4.4.7.1,1.2-.4.6-1.1,1.3-1.2,2,0,.6.6,1.3.8,2.1.2.8.7,1.1,1.4,1.2,2.1.4,1.9.1,1.9,2.3,0,.6,0,1.2,0,1.8,0,.5-.2.8-.8,1-.7.1-1.6.1-2.2.5-.5.4-.5,1.3-.9,1.9-.5.8-.3,1.3.2,2,1.2,1.7,1.2,1.4-.2,2.9-.4.4-.8.8-1.1,1.2-.5.5-.9.6-1.5.2-.5-.3-1-.6-1.4-.9-.3-.2-.5-.2-.9,0-.7.3-1.4.6-2.1.9-.4.1-.5.3-.6.7,0,.6-.2,1.2-.3,1.8,0,.4-.3.7-.8.7-1,0-2,0-3.1,0-.5,0-.8-.2-.9-.7-.1-.6-.2-1.3-.4-1.9,0-.2-.3-.5-.6-.6-.7-.3-1.4-.6-2.1-.9-.3-.2-.6-.2-.9,0-.5.4-1,.8-1.6,1.1-.3.1-.8.1-1,0-.8-.7-1.6-1.5-2.4-2.3-.1-.1-.2-.3-.3-.5Zm12.5,4.3c.1-.7.3-1.4.4-2.1,0-.5.3-.7.8-.9,1-.4,2-.8,3-1.2.5-.2.8-.2,1.3,0,.6.4,1.2.8,1.7,1.1.6-.5,1-.9,1.5-1.4-.4-.6-.7-1.1-1.1-1.6-.4-.5-.3-.9,0-1.4.5-.9.9-1.9,1.2-2.9.2-.5.4-.8.9-.9.7-.1,1.4-.3,2-.4v-2c-.7-.1-1.4-.3-2.1-.4-.5,0-.7-.3-.8-.8-.4-1-.8-2.1-1.3-3.1-.2-.4-.2-.8,0-1.2.4-.6.8-1.2,1.1-1.7-.5-.5-.9-1-1.4-1.5-.6.4-1.2.8-1.7,1.2-.4.3-.8.3-1.3,0-1-.5-2-.9-3-1.3-.5-.2-.7-.4-.8-.9-.1-.7-.3-1.4-.5-2.1-.6,0-1.1,0-1.6,0-.2,0-.5.3-.5.4-.2.5-.2,1-.3,1.5,0,.5-.4.8-.9,1-1,.3-2,.8-2.9,1.2-.5.2-.8.3-1.3,0-.6-.4-1.2-.8-1.7-1.1-.5.5-1,.9-1.5,1.4.4.6.8,1.2,1.2,1.7.3.4.3.8,0,1.3-.5,1-.9,2-1.2,3-.2.4-.4.7-.8.8-.7.1-1.4.3-2.1.4q-.2,2,1.6,2.3c.2,0,.3,0,.5,0,.5,0,.7.4.9.9.3,1,.8,2,1.2,2.9.2.5.3.8,0,1.3-.4.6-.8,1.2-1.1,1.7q1.3,1.6,2.8.5c0,0,.2,0,.2-.2.5-.4.9-.4,1.4,0,.9.5,1.9.9,2.9,1.2.5.2.8.4.9.9.1.7.3,1.4.4,2h2Z"/>
    <path class="cls-1" d="m109.5,21.1c0,6.3-5.1,11.4-11.4,11.3-6.2,0-11.3-5.2-11.2-11.5,0-6.2,5.2-11.3,11.4-11.2,6.2,0,11.3,5.1,11.2,11.4Zm-1.5,0c0-5.5-4.4-9.8-9.9-9.8-5.4,0-9.8,4.4-9.7,9.9,0,5.4,4.4,9.8,9.8,9.8,5.4,0,9.8-4.4,9.8-9.9Z"/>
    <path class="cls-1" d="m76.4,42.7c0-3.7,1.8-6.4,5.1-7.4,4.8-1.5,9.1,1.6,9.4,6.6.1,2.3-.3,4.5-1.5,6.5-2.8,4.6-8.5,4.7-11.3,0-1.1-1.7-1.5-3.6-1.6-5.7Zm12.9,0c0-.3,0-.7,0-1-.2-3-2-5-4.9-5.3-2.9-.3-5.5,1.3-6.2,4.1-.7,2.9-.2,5.6,1.7,7.9,2,2.5,5.3,2.5,7.4,0,1.4-1.7,2-3.6,2-5.8Z"/>
    <path class="cls-2" d="m53.2,66.8c-.9,0-1.8,0-2.7,0-.5,0-.9-.1-.9-.7,0-.6.4-.8.9-.8,1.8,0,3.5,0,5.3,0,.5,0,.9.2.9.8,0,.5-.4.7-.9.7-.9,0-1.8,0-2.7,0Z"/>
    <path class="cls-2" d="m53.2,63.4c-.9,0-1.8,0-2.7,0-.5,0-.9-.2-.9-.7,0-.5.4-.8.8-.8,1.8,0,3.6,0,5.4,0,.5,0,.9.2.9.7,0,.5-.3.8-.9.7-.9,0-1.8,0-2.7,0Z"/>
    <path class="cls-2" d="m67.8,25.3c0,4-3.3,7.3-7.2,7.2-4,0-7.2-3.2-7.2-7.2,0-4,3.2-7.3,7.2-7.3,4,0,7.3,3.2,7.3,7.2Zm-1.5,0c0-3.2-2.5-5.7-5.7-5.8-3.2,0-5.8,2.5-5.8,5.7,0,3.1,2.5,5.7,5.7,5.8,3.1,0,5.7-2.5,5.8-5.7Z"/>
    <path class="cls-2" d="m96.7,22.6c1.6-1.5,3.2-3,4.8-4.5.7-.7,1.1-.8,1.5-.4.4.4.3.8-.4,1.4-1.6,1.6-3.2,3.3-4.8,4.9-.7.7-.9.7-1.6,0-.9-.8-1.8-1.7-2.7-2.5-.4-.4-.6-.8-.2-1.2.4-.5.8-.3,1.2,0,.8.7,1.6,1.5,2.2,2Z"/>
  </g>
</svg>