<?xml version="1.0" encoding="UTF-8"?>
<svg id="Layer_1" data-name="Layer 1" xmlns="http://www.w3.org/2000/svg" viewBox="0 0 619.27 284">
  <defs>
    <style>
      .cls-1 {
        fill: #fff;
      }
    </style>
  </defs>
  <g>
    <path class="cls-1" d="m44.29,157.87c-6.66,0-12.69-1.3-18.11-3.9-5.42-2.6-10.07-6.06-13.95-10.37-3.88-4.31-6.89-9.24-9.02-14.78-2.13-5.55-3.2-11.22-3.2-17.02s1.13-11.86,3.39-17.41c2.26-5.55,5.38-10.45,9.34-14.72,3.97-4.27,8.68-7.66,14.14-10.18,5.46-2.52,11.39-3.78,17.79-3.78s12.56,1.34,17.98,4.03c5.42,2.69,10.05,6.21,13.89,10.56,3.84,4.35,6.83,9.3,8.96,14.85,2.13,5.55,3.2,11.18,3.2,16.9,0,6.06-1.11,11.84-3.33,17.34-2.22,5.5-5.29,10.37-9.22,14.59-3.93,4.22-8.62,7.6-14.08,10.11-5.46,2.52-11.39,3.78-17.79,3.78Zm-26.37-46.08c0,3.93.6,7.72,1.79,11.39,1.19,3.67,2.92,6.91,5.18,9.73,2.26,2.82,5.03,5.08,8.32,6.78,3.28,1.71,7.02,2.56,11.2,2.56s8.04-.87,11.33-2.62c3.28-1.75,6.06-4.07,8.32-6.98,2.26-2.9,3.97-6.16,5.12-9.79,1.15-3.63,1.73-7.32,1.73-11.07s-.62-7.72-1.86-11.39c-1.24-3.67-2.99-6.91-5.25-9.73-2.26-2.82-5.04-5.06-8.32-6.72-3.29-1.66-6.98-2.5-11.07-2.5s-8.06.88-11.39,2.62c-3.33,1.75-6.1,4.05-8.32,6.91-2.22,2.86-3.9,6.1-5.06,9.73-1.15,3.63-1.73,7.32-1.73,11.07Z"/>
    <path class="cls-1" d="m140.54,105.01c-5.21.09-9.86,1.09-13.95,3.01-4.1,1.92-7.04,4.8-8.83,8.64v40.58h-17.15v-67.07h15.74v14.34c1.19-2.3,2.6-4.37,4.22-6.21,1.62-1.83,3.37-3.43,5.25-4.8,1.88-1.36,3.78-2.41,5.7-3.14,1.92-.72,3.78-1.09,5.57-1.09h2.11c.47,0,.92.04,1.34.13v15.62Z"/>
    <path class="cls-1" d="m174.59,158.51c-4.61,0-8.88-.9-12.8-2.69-3.93-1.79-7.3-4.27-10.11-7.42-2.82-3.16-5.01-6.85-6.59-11.07-1.58-4.22-2.37-8.77-2.37-13.63s.75-9.39,2.24-13.57c1.49-4.18,3.56-7.85,6.21-11.01,2.64-3.16,5.8-5.63,9.47-7.42,3.67-1.79,7.68-2.69,12.03-2.69,4.95,0,9.41,1.2,13.38,3.58,3.97,2.39,7.06,5.5,9.28,9.34v-38.14h17.15v73.73c0,1.79.3,3.07.9,3.84.6.77,1.62,1.2,3.07,1.28v14.59c-2.99.6-5.42.9-7.3.9-3.07,0-5.59-.77-7.55-2.3-1.96-1.54-3.07-3.54-3.33-6.02l-.38-4.22c-2.48,4.27-5.82,7.49-10.05,9.66-4.22,2.18-8.64,3.26-13.25,3.26Zm4.48-14.59c1.62,0,3.28-.28,4.99-.83,1.71-.55,3.28-1.34,4.74-2.37,1.45-1.02,2.75-2.22,3.9-3.58,1.15-1.36,2.03-2.86,2.62-4.48v-16c-.68-1.88-1.64-3.6-2.88-5.18-1.24-1.58-2.65-2.94-4.22-4.1-1.58-1.15-3.24-2.07-4.99-2.75-1.75-.68-3.48-1.02-5.18-1.02-2.56,0-4.93.56-7.1,1.66-2.18,1.11-4.03,2.62-5.57,4.54-1.54,1.92-2.73,4.12-3.58,6.59-.85,2.48-1.28,5.04-1.28,7.68,0,2.82.47,5.42,1.41,7.81.94,2.39,2.22,4.48,3.84,6.27,1.62,1.79,3.56,3.2,5.82,4.22,2.26,1.02,4.76,1.54,7.49,1.54Z"/>
    <path class="cls-1" d="m260.48,158.51c-5.38,0-10.24-.92-14.59-2.75s-8.06-4.33-11.14-7.49c-3.07-3.16-5.44-6.83-7.1-11.01-1.66-4.18-2.5-8.58-2.5-13.18s.81-9.28,2.43-13.5c1.62-4.22,3.97-7.94,7.04-11.14,3.07-3.2,6.8-5.74,11.2-7.62,4.39-1.88,9.32-2.82,14.78-2.82s10.35.94,14.66,2.82c4.31,1.88,7.98,4.4,11.01,7.55,3.03,3.16,5.33,6.83,6.91,11.01,1.58,4.18,2.37,8.53,2.37,13.06,0,1.11-.02,2.18-.06,3.2-.04,1.02-.15,1.88-.32,2.56h-51.84c.26,2.65.9,4.99,1.92,7.04,1.02,2.05,2.35,3.8,3.97,5.25,1.62,1.45,3.46,2.56,5.5,3.33,2.05.77,4.18,1.15,6.4,1.15,3.41,0,6.63-.83,9.66-2.5,3.03-1.66,5.1-3.86,6.21-6.59l14.72,4.1c-2.48,5.12-6.42,9.32-11.84,12.61-5.42,3.29-11.88,4.93-19.39,4.93Zm17.41-40.45c-.43-5.03-2.28-9.07-5.57-12.1-3.29-3.03-7.28-4.54-11.97-4.54-2.3,0-4.46.41-6.46,1.22-2.01.81-3.78,1.94-5.31,3.39-1.54,1.45-2.8,3.2-3.78,5.25-.98,2.05-1.56,4.31-1.73,6.78h34.82Z"/>
    <path class="cls-1" d="m345.98,105.01c-5.21.09-9.86,1.09-13.95,3.01-4.1,1.92-7.04,4.8-8.83,8.64v40.58h-17.15v-67.07h15.74v14.34c1.19-2.3,2.6-4.37,4.22-6.21,1.62-1.83,3.37-3.43,5.25-4.8,1.88-1.36,3.78-2.41,5.7-3.14,1.92-.72,3.78-1.09,5.57-1.09h2.11c.47,0,.92.04,1.34.13v15.62Z"/>
  </g>
  <g>
    <path class="cls-1" d="m392.65,66.82h5.63l38.4,90.88h-6.91l-12.67-29.95h-43.39l-12.67,29.95h-7.04l38.66-90.88Zm22.66,55.55l-19.84-47.62-20.22,47.62h40.06Z"/>
    <path class="cls-1" d="m481.1,158.98c-5.72,0-10.82-1.51-15.3-4.54-4.48-3.03-8.09-6.72-10.82-11.07v41.6h-6.4v-93.82h5.89v13.31c2.73-4.27,6.34-7.74,10.82-10.43,4.48-2.69,9.28-4.03,14.4-4.03,4.61,0,8.87.98,12.8,2.94,3.92,1.96,7.29,4.54,10.11,7.74,2.82,3.2,5.01,6.89,6.59,11.07,1.58,4.18,2.37,8.45,2.37,12.8,0,4.61-.73,9-2.18,13.18-1.45,4.18-3.52,7.85-6.21,11.01-2.69,3.16-5.91,5.65-9.66,7.49-3.76,1.83-7.89,2.75-12.42,2.75Zm-1.54-5.76c3.84,0,7.34-.81,10.5-2.43,3.16-1.62,5.84-3.78,8.06-6.46,2.22-2.69,3.92-5.76,5.12-9.22,1.19-3.46,1.79-6.98,1.79-10.56,0-3.84-.68-7.49-2.05-10.94-1.37-3.46-3.26-6.51-5.7-9.15-2.43-2.64-5.27-4.76-8.51-6.34-3.24-1.58-6.7-2.37-10.37-2.37-2.3,0-4.76.49-7.36,1.47-2.6.98-5.06,2.3-7.36,3.97-2.3,1.66-4.27,3.56-5.89,5.7-1.62,2.13-2.56,4.4-2.82,6.78v21.89c1.11,2.48,2.52,4.78,4.22,6.91,1.71,2.13,3.63,4.01,5.76,5.63,2.13,1.62,4.44,2.88,6.91,3.78s5.04,1.34,7.68,1.34Z"/>
    <path class="cls-1" d="m559.43,158.98c-5.72,0-10.82-1.51-15.3-4.54-4.48-3.03-8.09-6.72-10.82-11.07v41.6h-6.4v-93.82h5.89v13.31c2.73-4.27,6.34-7.74,10.82-10.43,4.48-2.69,9.28-4.03,14.4-4.03,4.61,0,8.87.98,12.8,2.94,3.92,1.96,7.29,4.54,10.11,7.74,2.82,3.2,5.01,6.89,6.59,11.07,1.58,4.18,2.37,8.45,2.37,12.8,0,4.61-.73,9-2.18,13.18-1.45,4.18-3.52,7.85-6.21,11.01-2.69,3.16-5.91,5.65-9.66,7.49-3.76,1.83-7.89,2.75-12.42,2.75Zm-1.54-5.76c3.84,0,7.34-.81,10.5-2.43,3.16-1.62,5.84-3.78,8.06-6.46,2.22-2.69,3.92-5.76,5.12-9.22,1.19-3.46,1.79-6.98,1.79-10.56,0-3.84-.68-7.49-2.05-10.94-1.37-3.46-3.26-6.51-5.7-9.15-2.43-2.64-5.27-4.76-8.51-6.34-3.24-1.58-6.7-2.37-10.37-2.37-2.3,0-4.76.49-7.36,1.47-2.6.98-5.06,2.3-7.36,3.97-2.3,1.66-4.27,3.56-5.89,5.7-1.62,2.13-2.56,4.4-2.82,6.78v21.89c1.11,2.48,2.52,4.78,4.22,6.91,1.71,2.13,3.63,4.01,5.76,5.63,2.13,1.62,4.44,2.88,6.91,3.78s5.04,1.34,7.68,1.34Z"/>
  </g>
  <rect class="cls-1" x="292.2" y="26.3" width="7.15" height="31.32"/>
  <rect class="cls-1" x="291.69" y="224.94" width="7.15" height="31.32"/>
  <rect class="cls-1" x="451.78" y="102.56" width="7.15" height="327.92" transform="translate(759.57 -164.56) rotate(94.87)"/>
  <polygon class="cls-1" points="619.27 282.55 612.12 282.55 612.05 .62 619.27 0 619.27 282.55"/>
  <polygon class="cls-1" points="292.53 33.48 291.95 26.35 618.82 .12 619.07 7.13 292.53 33.48"/>
  <g>
    <path class="cls-1" d="m156.29,209.31v6.55c0,.45-.17.84-.51,1.19-.34.35-.75.53-1.24.53s-.87-.17-1.22-.51c-.35-.34-.52-.74-.52-1.21v-19.11c0-.51.2-.95.59-1.34s.86-.57,1.42-.57h4.67c1.4,0,2.59.2,3.56.6s1.77.94,2.37,1.62c.6.68,1.04,1.45,1.3,2.32.27.87.4,1.78.4,2.74,0,1.14-.18,2.17-.54,3.07-.36.9-.87,1.65-1.54,2.26-.67.6-1.47,1.07-2.4,1.38-.93.32-1.98.48-3.15.48h-3.18Zm0-3.24h3.18c2.76,0,4.13-1.33,4.13-3.98,0-.49-.06-.97-.18-1.45-.12-.48-.33-.9-.64-1.27-.31-.37-.73-.67-1.26-.91-.53-.23-1.22-.35-2.07-.35h-3.18v7.95Z"/>
    <path class="cls-1" d="m170.79,216.34c-.11.38-.33.68-.68.89-.35.21-.67.32-.97.32-.49,0-.91-.15-1.27-.45-.36-.3-.54-.69-.54-1.18,0-.08,0-.19.02-.32.01-.13.03-.22.05-.29l6.2-18.86c.17-.55.41-1.01.73-1.37.32-.36.78-.54,1.4-.54s1.08.18,1.38.54c.31.36.56.82.75,1.37l6.2,18.86c.04.06.07.16.08.29.01.13.02.23.02.32,0,.49-.17.88-.52,1.18-.35.3-.78.45-1.29.45-.57,0-.99-.18-1.24-.54-.25-.36-.49-.83-.7-1.4l-1.02-3.08h-7.41l-1.18,3.82Zm4.93-16.54c-.4,1.7-.84,3.33-1.32,4.9-.48,1.57-.96,3.16-1.45,4.77h5.5c-.49-1.61-.98-3.21-1.48-4.8s-.92-3.21-1.26-4.87Z"/>
    <path class="cls-1" d="m190.45,209.31v6.55c0,.45-.17.84-.51,1.19-.34.35-.75.53-1.24.53s-.87-.17-1.22-.51c-.35-.34-.52-.74-.52-1.21v-19.11c0-.51.2-.95.59-1.34s.86-.57,1.42-.57h4.67c1.4,0,2.59.2,3.56.6s1.77.94,2.37,1.62c.6.68,1.04,1.45,1.3,2.32.27.87.4,1.78.4,2.74,0,1.14-.18,2.17-.54,3.07-.36.9-.87,1.65-1.54,2.26-.67.6-1.47,1.07-2.4,1.38-.93.32-1.98.48-3.15.48h-3.18Zm0-3.24h3.18c2.76,0,4.13-1.33,4.13-3.98,0-.49-.06-.97-.18-1.45-.12-.48-.33-.9-.64-1.27-.31-.37-.73-.67-1.26-.91-.53-.23-1.22-.35-2.07-.35h-3.18v7.95Z"/>
    <path class="cls-1" d="m217.09,215.57c0,.49-.17.89-.51,1.21-.34.32-.75.48-1.24.48h-8.43c-.66,0-1.23-.13-1.73-.4-.5-.26-.75-.76-.75-1.48v-18.67c0-.47.19-.9.56-1.29.37-.39.84-.59,1.42-.59h8.62c.49,0,.9.16,1.24.49.34.33.51.73.51,1.19s-.17.85-.51,1.14c-.34.3-.75.45-1.24.45h-7.09v6.26h6.49c.42,0,.82.15,1.18.46.36.31.54.69.54,1.16s-.16.86-.49,1.18c-.33.32-.74.48-1.22.48h-6.49v6.36h7.41c.47,0,.87.15,1.22.46.35.31.52.67.52,1.1Z"/>
    <path class="cls-1" d="m235.03,201.39c0,1.65-.42,2.99-1.26,4.01s-1.98,1.71-3.42,2.07c.78,1.27,1.57,2.52,2.35,3.74.78,1.22,1.57,2.46,2.35,3.74.08.08.15.22.19.41.04.19.06.34.06.45,0,.49-.2.9-.59,1.22-.39.33-.8.49-1.22.49-.66,0-1.15-.25-1.46-.76l-5.5-8.97h-2.89v8.08c0,.45-.17.84-.52,1.18s-.77.51-1.26.51-.87-.16-1.21-.49c-.34-.33-.51-.73-.51-1.19v-19.11c0-.51.19-.95.57-1.34.38-.38.84-.57,1.37-.57h5.53c1.4,0,2.57.19,3.51.57.94.38,1.71.88,2.29,1.5.58.61,1,1.31,1.24,2.1.24.78.37,1.58.37,2.38Zm-3.5,0c0-.4-.06-.8-.17-1.19-.12-.39-.32-.74-.62-1.05-.3-.31-.71-.56-1.22-.75s-1.19-.29-2.02-.29h-3.85v6.46h4.04c1.25,0,2.2-.27,2.86-.81.66-.54.99-1.33.99-2.37Z"/>
    <path class="cls-1" d="m251.15,215.64c0,.47-.16.85-.49,1.16-.33.31-.73.46-1.19.46h-8.97c-.51,0-.95-.17-1.34-.52-.38-.35-.57-.78-.57-1.29v-19.24c0-.45.17-.83.51-1.16.34-.33.75-.49,1.24-.49s.9.16,1.24.49c.34.33.51.71.51,1.16v17.84h7.38c.45,0,.84.15,1.18.46.34.31.51.68.51,1.13Z"/>
    <path class="cls-1" d="m266.35,215.57c0,.49-.17.89-.51,1.21-.34.32-.75.48-1.24.48h-8.43c-.66,0-1.23-.13-1.73-.4-.5-.26-.75-.76-.75-1.48v-18.67c0-.47.19-.9.56-1.29.37-.39.84-.59,1.42-.59h8.62c.49,0,.9.16,1.24.49.34.33.51.73.51,1.19s-.17.85-.51,1.14c-.34.3-.75.45-1.24.45h-7.09v6.26h6.49c.42,0,.82.15,1.18.46.36.31.54.69.54,1.16s-.16.86-.49,1.18c-.33.32-.74.48-1.22.48h-6.49v6.36h7.41c.47,0,.87.15,1.22.46.35.31.52.67.52,1.1Z"/>
    <path class="cls-1" d="m278.94,211c0-.85-.17-1.47-.52-1.86-.35-.39-.69-.67-1.03-.84-.53-.25-1.11-.48-1.73-.68-.63-.2-1.26-.41-1.89-.64-.64-.22-1.25-.48-1.84-.78-.59-.3-1.12-.67-1.57-1.13-.46-.46-.82-1.02-1.1-1.69-.28-.67-.41-1.48-.41-2.43,0-1.99.62-3.56,1.86-4.69,1.24-1.13,2.92-1.7,5.04-1.7.42,0,.97.03,1.64.1.67.06,1.32.19,1.96.37.64.18,1.18.43,1.64.76.46.33.68.76.68,1.29,0,.42-.15.79-.46,1.11-.31.32-.74.48-1.29.48-.28,0-.54-.04-.79-.13-.25-.08-.53-.19-.83-.3s-.63-.22-1-.3c-.37-.08-.82-.13-1.35-.13-.45,0-.88.05-1.3.14-.42.1-.8.25-1.13.48-.33.22-.59.53-.78.92s-.29.87-.29,1.45c0,.45.05.82.16,1.11.11.3.24.55.4.76.16.21.33.38.51.49.18.12.35.22.52.3.53.28,1.11.51,1.75.71.64.2,1.27.42,1.91.65.64.23,1.25.5,1.83.79.58.3,1.1.67,1.56,1.11.46.44.82,1,1.1,1.65.27.66.41,1.45.41,2.38,0,1.08-.19,2.04-.56,2.88-.37.84-.89,1.55-1.56,2.13-.67.58-1.46,1.02-2.37,1.32s-1.9.45-2.96.45c-.55,0-1.19-.05-1.92-.14-.73-.1-1.42-.25-2.07-.46-.65-.21-1.2-.49-1.65-.83-.46-.34-.68-.75-.68-1.24,0-.42.15-.8.46-1.13.31-.33.69-.49,1.16-.49.23,0,.49.05.78.16.29.11.61.23.99.37.37.14.8.26,1.29.37.49.11,1.05.16,1.69.16,1.27,0,2.22-.29,2.85-.86.62-.57.94-1.39.94-2.45Z"/>
    <path class="cls-1" d="m294.88,211c0-.85-.17-1.47-.52-1.86-.35-.39-.69-.67-1.03-.84-.53-.25-1.11-.48-1.73-.68-.63-.2-1.26-.41-1.89-.64-.64-.22-1.25-.48-1.84-.78-.59-.3-1.12-.67-1.57-1.13-.46-.46-.82-1.02-1.1-1.69-.28-.67-.41-1.48-.41-2.43,0-1.99.62-3.56,1.86-4.69,1.24-1.13,2.92-1.7,5.04-1.7.42,0,.97.03,1.64.1.67.06,1.32.19,1.96.37.64.18,1.18.43,1.64.76.46.33.68.76.68,1.29,0,.42-.15.79-.46,1.11-.31.32-.74.48-1.29.48-.28,0-.54-.04-.79-.13-.25-.08-.53-.19-.83-.3s-.63-.22-1-.3c-.37-.08-.82-.13-1.35-.13-.45,0-.88.05-1.3.14-.42.1-.8.25-1.13.48-.33.22-.59.53-.78.92s-.29.87-.29,1.45c0,.45.05.82.16,1.11.11.3.24.55.4.76.16.21.33.38.51.49.18.12.35.22.52.3.53.28,1.11.51,1.75.71.64.2,1.27.42,1.91.65.64.23,1.25.5,1.83.79.58.3,1.1.67,1.56,1.11.46.44.82,1,1.1,1.65.27.66.41,1.45.41,2.38,0,1.08-.19,2.04-.56,2.88-.37.84-.89,1.55-1.56,2.13-.67.58-1.46,1.02-2.37,1.32s-1.9.45-2.96.45c-.55,0-1.19-.05-1.92-.14-.73-.1-1.42-.25-2.07-.46-.65-.21-1.2-.49-1.65-.83-.46-.34-.68-.75-.68-1.24,0-.42.15-.8.46-1.13.31-.33.69-.49,1.16-.49.23,0,.49.05.78.16.29.11.61.23.99.37.37.14.8.26,1.29.37.49.11,1.05.16,1.69.16,1.27,0,2.22-.29,2.85-.86.62-.57.94-1.39.94-2.45Z"/>
    <path class="cls-1" d="m313.38,217.26c-.57,0-1.05-.19-1.43-.56-.38-.37-.57-.82-.57-1.35v-18.6c0-.55.2-1.01.59-1.37.39-.36.86-.54,1.42-.54h5.38c1.1,0,2.07.17,2.91.51.84.34,1.54.79,2.1,1.35s.98,1.2,1.26,1.92.41,1.46.41,2.23c0,.62-.1,1.17-.29,1.65-.19.49-.45.93-.78,1.32-.33.39-.72.74-1.18,1.03-.46.3-.95.56-1.48.79.51.19,1.02.41,1.53.67s.97.58,1.38.97c.41.39.75.87,1.02,1.43.26.56.4,1.24.4,2.02,0,.91-.17,1.76-.51,2.56-.34.79-.83,1.48-1.48,2.07-.65.58-1.43,1.04-2.34,1.38-.91.34-1.94.51-3.08.51h-5.25Zm5.15-13.26c.4,0,.8-.06,1.21-.19.4-.13.77-.32,1.1-.57.33-.25.59-.58.79-.97.2-.39.3-.85.3-1.38,0-.36-.05-.71-.16-1.05-.11-.34-.28-.64-.51-.89-.23-.25-.54-.46-.92-.62-.38-.16-.86-.24-1.43-.24h-4.04v5.92h3.66Zm-3.66,3.28v6.74h3.72c1.34,0,2.33-.3,2.97-.89.65-.59.97-1.39.97-2.38,0-1.12-.37-1.98-1.11-2.58s-1.67-.89-2.8-.89h-3.75Z"/>
    <path class="cls-1" d="m343.5,212.9c-.34.95-.83,1.78-1.48,2.46-.65.69-1.44,1.23-2.37,1.62-.93.39-1.98.59-3.15.59s-2.28-.2-3.21-.59c-.93-.39-1.72-.93-2.35-1.62-.64-.69-1.12-1.51-1.45-2.46-.33-.95-.49-1.99-.49-3.12v-13.52c0-.49.17-.9.51-1.22.34-.33.76-.49,1.27-.49.47,0,.87.16,1.21.49.34.33.51.74.51,1.22v13.52c0,1.33.32,2.42.97,3.26.65.84,1.66,1.26,3.04,1.26s2.36-.42,3-1.26c.65-.84.97-1.92.97-3.26v-13.52c0-.47.16-.87.49-1.21.33-.34.74-.51,1.22-.51s.94.17,1.29.51c.35.34.53.74.53,1.21v13.52c0,1.12-.17,2.16-.51,3.12Z"/>
    <path class="cls-1" d="m357.08,211c0-.85-.17-1.47-.52-1.86-.35-.39-.7-.67-1.03-.84-.53-.25-1.11-.48-1.73-.68-.63-.2-1.26-.41-1.89-.64s-1.25-.48-1.84-.78-1.12-.67-1.57-1.13c-.46-.46-.82-1.02-1.1-1.69-.28-.67-.41-1.48-.41-2.43,0-1.99.62-3.56,1.86-4.69,1.24-1.13,2.92-1.7,5.04-1.7.42,0,.97.03,1.64.1.67.06,1.32.19,1.96.37.64.18,1.18.43,1.64.76.46.33.68.76.68,1.29,0,.42-.15.79-.46,1.11-.31.32-.74.48-1.29.48-.28,0-.54-.04-.79-.13-.25-.08-.53-.19-.83-.3-.3-.12-.63-.22-1-.3s-.82-.13-1.35-.13c-.44,0-.88.05-1.3.14s-.8.25-1.13.48c-.33.22-.59.53-.78.92-.19.39-.29.87-.29,1.45,0,.45.05.82.16,1.11s.24.55.4.76c.16.21.33.38.51.49.18.12.36.22.53.3.53.28,1.11.51,1.75.71.64.2,1.27.42,1.91.65.64.23,1.25.5,1.83.79.58.3,1.1.67,1.56,1.11.46.44.82,1,1.1,1.65.28.66.41,1.45.41,2.38,0,1.08-.19,2.04-.56,2.88-.37.84-.89,1.55-1.56,2.13s-1.46,1.02-2.37,1.32c-.91.3-1.9.45-2.96.45-.55,0-1.19-.05-1.92-.14-.73-.1-1.42-.25-2.07-.46-.65-.21-1.2-.49-1.65-.83s-.68-.75-.68-1.24c0-.42.15-.8.46-1.13s.69-.49,1.16-.49c.23,0,.49.05.78.16s.61.23.99.37c.37.14.8.26,1.29.37.49.11,1.05.16,1.69.16,1.27,0,2.22-.29,2.85-.86.62-.57.94-1.39.94-2.45Z"/>
    <path class="cls-1" d="m364.04,196.21c0-.45.17-.83.51-1.16.34-.33.75-.49,1.24-.49s.9.16,1.24.49c.34.33.51.71.51,1.16v19.72c0,.42-.17.81-.51,1.15s-.75.51-1.24.51-.9-.17-1.24-.51-.51-.72-.51-1.15v-19.72Z"/>
    <path class="cls-1" d="m385.38,217.58c-.34,0-.67-.08-.99-.25-.32-.17-.56-.39-.73-.67l-8.27-14.91v14.15c0,.45-.17.84-.52,1.18s-.77.51-1.26.51-.9-.17-1.22-.51c-.33-.34-.49-.73-.49-1.18v-19.56c0-.51.17-.93.51-1.27s.78-.51,1.34-.51c.36,0,.7.08,1.02.25.32.17.56.4.73.7.23.4.57,1,1,1.78.43.79.92,1.65,1.45,2.61.53.95,1.09,1.96,1.67,3.02.58,1.06,1.14,2.08,1.67,3.05.53.98,1.01,1.86,1.45,2.64s.78,1.39,1.03,1.81v-14.18c0-.47.17-.86.53-1.19.35-.33.77-.49,1.26-.49s.9.16,1.22.49.49.73.49,1.19v19.56c0,.49-.17.91-.52,1.26-.35.35-.8.53-1.35.53Z"/>
    <path class="cls-1" d="m404.27,215.57c0,.49-.17.89-.51,1.21-.34.32-.75.48-1.24.48h-8.43c-.66,0-1.24-.13-1.73-.4-.5-.26-.75-.76-.75-1.48v-18.67c0-.47.19-.9.56-1.29.37-.39.84-.59,1.42-.59h8.62c.49,0,.9.16,1.24.49.34.33.51.73.51,1.19s-.17.85-.51,1.14c-.34.3-.75.45-1.24.45h-7.09v6.26h6.49c.42,0,.82.15,1.18.46.36.31.54.69.54,1.16s-.17.86-.49,1.18c-.33.32-.74.48-1.22.48h-6.49v6.36h7.41c.47,0,.88.15,1.22.46s.52.67.52,1.1Z"/>
    <path class="cls-1" d="m416.86,211c0-.85-.17-1.47-.52-1.86-.35-.39-.7-.67-1.03-.84-.53-.25-1.11-.48-1.73-.68-.63-.2-1.26-.41-1.89-.64s-1.25-.48-1.84-.78-1.12-.67-1.57-1.13c-.46-.46-.82-1.02-1.1-1.69-.28-.67-.41-1.48-.41-2.43,0-1.99.62-3.56,1.86-4.69,1.24-1.13,2.92-1.7,5.04-1.7.42,0,.97.03,1.64.1.67.06,1.32.19,1.96.37.64.18,1.18.43,1.64.76.46.33.68.76.68,1.29,0,.42-.15.79-.46,1.11-.31.32-.74.48-1.29.48-.28,0-.54-.04-.79-.13-.25-.08-.53-.19-.83-.3s-.63-.22-1-.3-.82-.13-1.35-.13c-.44,0-.88.05-1.3.14s-.8.25-1.13.48c-.33.22-.59.53-.78.92-.19.39-.29.87-.29,1.45,0,.45.05.82.16,1.11s.24.55.4.76c.16.21.33.38.51.49.18.12.36.22.53.3.53.28,1.11.51,1.75.71.64.2,1.27.42,1.91.65.64.23,1.25.5,1.83.79.58.3,1.1.67,1.56,1.11.46.44.82,1,1.1,1.65.28.66.41,1.45.41,2.38,0,1.08-.19,2.04-.56,2.88-.37.84-.89,1.55-1.56,2.13s-1.46,1.02-2.37,1.32c-.91.3-1.9.45-2.96.45-.55,0-1.19-.05-1.92-.14-.73-.1-1.42-.25-2.07-.46-.65-.21-1.2-.49-1.65-.83s-.68-.75-.68-1.24c0-.42.15-.8.46-1.13s.69-.49,1.16-.49c.23,0,.49.05.78.16s.61.23.99.37c.37.14.8.26,1.29.37.49.11,1.05.16,1.69.16,1.27,0,2.22-.29,2.85-.86.62-.57.94-1.39.94-2.45Z"/>
    <path class="cls-1" d="m432.79,211c0-.85-.17-1.47-.52-1.86-.35-.39-.7-.67-1.03-.84-.53-.25-1.11-.48-1.73-.68-.63-.2-1.26-.41-1.89-.64s-1.25-.48-1.84-.78-1.12-.67-1.57-1.13c-.46-.46-.82-1.02-1.1-1.69-.28-.67-.41-1.48-.41-2.43,0-1.99.62-3.56,1.86-4.69,1.24-1.13,2.92-1.7,5.04-1.7.42,0,.97.03,1.64.1.67.06,1.32.19,1.96.37.64.18,1.18.43,1.64.76.46.33.68.76.68,1.29,0,.42-.15.79-.46,1.11-.31.32-.74.48-1.29.48-.28,0-.54-.04-.79-.13-.25-.08-.53-.19-.83-.3s-.63-.22-1-.3-.82-.13-1.35-.13c-.44,0-.88.05-1.3.14s-.8.25-1.13.48c-.33.22-.59.53-.78.92-.19.39-.29.87-.29,1.45,0,.45.05.82.16,1.11s.24.55.4.76c.16.21.33.38.51.49.18.12.36.22.53.3.53.28,1.11.51,1.75.71.64.2,1.27.42,1.91.65.64.23,1.25.5,1.83.79.58.3,1.1.67,1.56,1.11.46.44.82,1,1.1,1.65.28.66.41,1.45.41,2.38,0,1.08-.19,2.04-.56,2.88-.37.84-.89,1.55-1.56,2.13s-1.46,1.02-2.37,1.32c-.91.3-1.9.45-2.96.45-.55,0-1.19-.05-1.92-.14-.73-.1-1.42-.25-2.07-.46-.65-.21-1.2-.49-1.65-.83s-.68-.75-.68-1.24c0-.42.15-.8.46-1.13s.69-.49,1.16-.49c.23,0,.49.05.78.16s.61.23.99.37c.37.14.8.26,1.29.37.49.11,1.05.16,1.69.16,1.27,0,2.22-.29,2.85-.86.62-.57.94-1.39.94-2.45Z"/>
  </g>
</svg>