<svg id="Group_17" data-name="Group 17" xmlns="http://www.w3.org/2000/svg" xmlns:xlink="http://www.w3.org/1999/xlink" width="315.197" height="168.281" viewBox="0 0 315.197 168.281">
  <defs>
    <clipPath id="clip-path">
      <rect id="Rectangle_1" data-name="Rectangle 1" width="315.197" height="168.281" fill="none"/>
    </clipPath>
  </defs>
  <g id="Group_2" data-name="Group 2">
    <g id="Group_1" data-name="Group 1" clip-path="url(#clip-path)">
      <path id="Path_1" data-name="Path 1" d="M24.143,285.262h.685v9.87h-.685a19.18,19.18,0,0,0-2.786-5.56,11.223,11.223,0,0,0-2.835-2.461,15.322,15.322,0,0,0-3.819-1.666,15.573,15.573,0,0,0-4.278-.6,8.224,8.224,0,0,0-2.888.471,5.686,5.686,0,0,0-2.142,1.4,5.4,5.4,0,0,0-.99,1.483,3.854,3.854,0,0,0-.373,1.584,3.417,3.417,0,0,0,1.052,2.494,5.377,5.377,0,0,0,1.4.984,14.611,14.611,0,0,0,2.335.929c.958.3,2.288.675,4.006,1.109a6.281,6.281,0,0,0,.958.268l.951.252,1.523.409a41.34,41.34,0,0,1,5.629,1.856,9.417,9.417,0,0,1,3.019,2.116,6.809,6.809,0,0,1,1.518,2.263,7.337,7.337,0,0,1,.532,2.8,8.189,8.189,0,0,1-2.322,5.6,8.881,8.881,0,0,1-3.553,2.348,13.89,13.89,0,0,1-4.823.78,15.153,15.153,0,0,1-3.559-.4,24.594,24.594,0,0,1-4.067-1.469,23.542,23.542,0,0,0-2.373-.9,5.655,5.655,0,0,0-1.543-.232,3.667,3.667,0,0,0-2.35.766,3.769,3.769,0,0,0-1.276,2.194H.406V300.651h.68A12.385,12.385,0,0,0,3.8,307.075a16.322,16.322,0,0,0,3.532,3.135,18.853,18.853,0,0,0,4.518,2.257,13.86,13.86,0,0,0,4.477.8,8.759,8.759,0,0,0,3.459-.661,5.715,5.715,0,0,0,2.448-1.826,4.343,4.343,0,0,0,.879-2.658,4.011,4.011,0,0,0-1.191-2.819,5.815,5.815,0,0,0-1.411-1.034,15.488,15.488,0,0,0-2.241-.963c-.919-.33-2.176-.724-3.772-1.173l-1.949-.556q-4.562-1.3-6.314-2.017a16.029,16.029,0,0,1-3.087-1.526A7.4,7.4,0,0,1,1.2,296.1,6.018,6.018,0,0,1,0,292.474a7.275,7.275,0,0,1,1.343-4.3,8.85,8.85,0,0,1,3.761-2.98,13.13,13.13,0,0,1,5.36-1.068,19.109,19.109,0,0,1,9.215,2.621,6.439,6.439,0,0,0,2.281.886q1.527,0,2.183-2.369m19.127,5.61-5.336,12.822h10.81Zm2.069-6.748h.719L57,309.3a8.4,8.4,0,0,0,1.176,1.941,4.023,4.023,0,0,0,1.471,1.1,5.067,5.067,0,0,0,1.937.337H62.3v.8H46.5v-.8h2.069a4.4,4.4,0,0,0,2.249-.441,1.5,1.5,0,0,0,.712-1.371,4.518,4.518,0,0,0-.278-1.4c-.193-.556-.607-1.545-1.238-2.994-.04-.077-.1-.218-.18-.409s-.16-.379-.252-.556l-.447-1.054H37.6l-.879,2.144a6.015,6.015,0,0,0-.432,2.208,3.912,3.912,0,0,0,.5,1.878,3.511,3.511,0,0,0,1.3,1.4,3.811,3.811,0,0,0,.945.445,6.024,6.024,0,0,0,1.2.153v.8H29.139v-.8a6.988,6.988,0,0,0,1.924-.456,7.073,7.073,0,0,0,1.59-1.027q2.065-1.688,4.032-6.369Zm11.424.59v.759h.957c1.969,0,3.587,1.434,4.83,4.3L73.1,314.071l.678-.044,9.048-21.511a21.949,21.949,0,0,1,2.042-3.867,8.016,8.016,0,0,1,2.243-2.22,6.687,6.687,0,0,1,2.787-.957v-.759H78.923v.759a4.251,4.251,0,0,1,2.893,1.154,3.84,3.84,0,0,1,1.045,2.819,7.713,7.713,0,0,1-.744,2.946l-6.235,14.847-7.425-17.216a6.265,6.265,0,0,1-.564-2.35,1.925,1.925,0,0,1,.757-1.622,3.357,3.357,0,0,1,2.082-.577h1.95v-.759Zm36.284,27.964h.759a4.913,4.913,0,0,0,3.731-1.286,5.553,5.553,0,0,0,1.218-3.943V290.064a8.642,8.642,0,0,0-.479-2.158,3.292,3.292,0,0,0-.964-1.344,4.992,4.992,0,0,0-3.506-1.09h-.759v-.759h17.145v.759h-.759a4.9,4.9,0,0,0-3.72,1.28,5.578,5.578,0,0,0-1.211,3.95v16.745a5.567,5.567,0,0,0,1.217,3.943,4.89,4.89,0,0,0,3.714,1.286h.759v.8H93.047Zm20.132-27.964h18.575v.759h-1.97a4.9,4.9,0,0,0-3.72,1.28,5.577,5.577,0,0,0-1.21,3.95v22.016h7.06a8.245,8.245,0,0,0,3.93-.977,9.947,9.947,0,0,0,3.219-2.726,21.729,21.729,0,0,0,1.438-2.165,16.452,16.452,0,0,0,1.191-2.595q.569-1.528,1.11-3.5h.725V313.48H113.179l-.041-.76h1.018q4.949,0,4.949-5.271V290.7q0-5.232-4.949-5.231h-.977Zm32.977,0h28.959v11.129h-.586a35,35,0,0,0-1.43-4.373,12.618,12.618,0,0,0-1.65-2.741,7.411,7.411,0,0,0-2.668-2.208,14.582,14.582,0,0,0-5.828-1.048h-5.362V299.14h1.443a5.813,5.813,0,0,0,5.1-2.924,10.832,10.832,0,0,0,1.444-3.579,19.522,19.522,0,0,0,.432-2.615h.678V308.89h-.678q-.24-1.519-.558-2.869a11.361,11.361,0,0,0-.719-2.193,10.438,10.438,0,0,0-1.024-1.687,5.92,5.92,0,0,0-4.99-2.285h-1.131v12.864h4.485a19.668,19.668,0,0,0,3.571-.294,11.283,11.283,0,0,0,2.861-.929,10.357,10.357,0,0,0,2.376-1.638,11.524,11.524,0,0,0,2.961-4.258,33.2,33.2,0,0,0,1.269-3.952h.719V313.48H146.19l-.034-.76h.738q4.949,0,4.949-5.271V290.7a5.57,5.57,0,0,0-1.21-3.95,4.927,4.927,0,0,0-3.739-1.28h-.738Zm64.112,14.678h-6.12v8.056a5.525,5.525,0,0,0,1.231,3.929,4.889,4.889,0,0,0,3.72,1.3h.8v.8H192.713v-.8h.738a4.913,4.913,0,0,0,3.731-1.286,5.56,5.56,0,0,0,1.217-3.943V290.7a5.577,5.577,0,0,0-1.21-3.95,4.93,4.93,0,0,0-3.739-1.28h-.738v-.759h21.1a27.509,27.509,0,0,1,6.78.661,8.046,8.046,0,0,1,3.958,2.221,6.578,6.578,0,0,1,1.331,2.1,6.279,6.279,0,0,1,.5,2.4,5.944,5.944,0,0,1-3.194,5.231,13.463,13.463,0,0,1-3.233,1.215,24.331,24.331,0,0,1-4.071.717q-1.547.128-4.7.127v.084c1.039.711,1.976,1.3,2.822,1.772a20,20,0,0,0,2.553,1.182,24.682,24.682,0,0,0,2.929.877l.637,1.028c.434.659.746,1.151.958,1.481s.447.71.719,1.133c.725,1.166,1.416,2.186,2.076,3.044a10.875,10.875,0,0,0,1.623,1.8,6.283,6.283,0,0,0,3.625.885h.759v.8H219.683Zm-6.12-.76h7.757a12.274,12.274,0,0,0,4.51-.709,5.2,5.2,0,0,0,2.634-2.166,7.183,7.183,0,0,0,.864-3.734q0-6.546-7.89-6.551h-7.876Zm45.345-14.508a18.3,18.3,0,0,1,6.985,1.293,15.68,15.68,0,0,1,8.548,8.449,13.761,13.761,0,0,1-1.1,12.752,15.492,15.492,0,0,1-5.9,5.413,17.074,17.074,0,0,1-8.17,2,17.965,17.965,0,0,1-6.386-1.131,16.5,16.5,0,0,1-5.269-3.206,14.9,14.9,0,0,1-3.553-4.828,13.7,13.7,0,0,1,.926-13.223,15.868,15.868,0,0,1,5.9-5.483,16.356,16.356,0,0,1,8.024-2.031m.506.759a8.734,8.734,0,0,0-3.346.647,7.192,7.192,0,0,0-2.634,1.841,12.189,12.189,0,0,0-2,3.079,17,17,0,0,0-1.245,3.972,25.3,25.3,0,0,0-.417,4.725,23.191,23.191,0,0,0,.665,5.779,14.488,14.488,0,0,0,1.909,4.485,8.748,8.748,0,0,0,2.98,2.868,8.069,8.069,0,0,0,8.875-.746,11,11,0,0,0,3.274-4.977,23.133,23.133,0,0,0,1.137-7.677,22.147,22.147,0,0,0-.626-5.392,14.841,14.841,0,0,0-1.789-4.372,9.481,9.481,0,0,0-2.829-2.953,6.9,6.9,0,0,0-1.888-.928,6.667,6.667,0,0,0-2.063-.351m19.572-.169h14.171l.039.759a5.381,5.381,0,0,0-2.547.493,1.591,1.591,0,0,0-.806,1.483,6.607,6.607,0,0,0,.353,2.082l5.747,16.821,5.555-14.6a21.929,21.929,0,0,0-1.2-3.085,7.2,7.2,0,0,0-1.31-1.793,4.088,4.088,0,0,0-1.458-1.09,4.791,4.791,0,0,0-1.816-.31v-.759h14.769v.759h-.718a5.037,5.037,0,0,0-2.728.626,2.042,2.042,0,0,0-.977,1.83,4.271,4.271,0,0,0,.273,1.517l5.867,16.906,5.749-15.487a7.114,7.114,0,0,0,.432-2.263,2.592,2.592,0,0,0-1.144-2.305,6.757,6.757,0,0,0-3.52-.824l-.032-.759H315.2v.759a5.994,5.994,0,0,0-1.762.359,6.375,6.375,0,0,0-1.471.921,10.3,10.3,0,0,0-2.788,4.379l-8.556,22.98h-.725l-7.444-21.428-8.1,21.428h-.766l-7.87-22.77a12.455,12.455,0,0,0-2.321-4.491,4.118,4.118,0,0,0-3.134-1.38h-.685Z" transform="translate(0 -173.589)"/>
    </g>
  </g>
  <path id="Path_2" data-name="Path 2" d="M241.708,402.26v11.488h8.45v-1.322h-7.1V402.26Z" transform="translate(-147.675 -245.767)"/>
  <rect id="Rectangle_2" data-name="Rectangle 2" width="1.371" height="11.551" transform="translate(128.615 156.43)"/>
  <path id="Path_3" data-name="Path 3" d="M170.735,402.26v1.322h4.578v10.166h1.352V403.582h4.578V402.26Z" transform="translate(-104.313 -245.767)"/>
  <g id="Group_4" data-name="Group 4">
    <g id="Group_3" data-name="Group 3" clip-path="url(#clip-path)">
      <path id="Path_4" data-name="Path 4" d="M300.781,407.376v-3.793h4.868a2.049,2.049,0,0,1,1.483.5,1.848,1.848,0,0,1,.528,1.405,1.791,1.791,0,0,1-.528,1.4,2.231,2.231,0,0,1-1.55.478Zm7.584.214a3.323,3.323,0,0,0,.7-2.135,3.066,3.066,0,0,0-.9-2.346,3.523,3.523,0,0,0-2.5-.848H299.43v11.488h1.351v-5.029H305l2.721,5.029h1.492L306.5,408.7a3.024,3.024,0,0,0,1.868-1.108" transform="translate(-182.941 -245.767)"/>
    </g>
  </g>
  <rect id="Rectangle_4" data-name="Rectangle 4" width="1.371" height="11.551" transform="translate(89.394 156.43)"/>
  <path id="Path_5" data-name="Path 5" d="M350.291,402.26v8.587l-7.057-8.587h-.709v11.488h1.352v-8.584l7.076,8.584h.688V402.26Z" transform="translate(-209.27 -245.767)"/>
  <path id="Path_6" data-name="Path 6" d="M200.94,404.229l2.406,5.085h-4.789Zm-.561-1.969-5.328,11.488h1.45l1.437-3.09h6.008l1.476,3.09h1.469L201.5,402.26Z" transform="translate(-119.169 -245.766)"/>
  <g id="Group_6" data-name="Group 6">
    <g id="Group_5" data-name="Group 5" clip-path="url(#clip-path)">
      <path id="Path_7" data-name="Path 7" d="M273.154,410.982a4.149,4.149,0,0,1-6.071,0,5.291,5.291,0,0,1,0-6.706,4.146,4.146,0,0,1,6.076-.008,5.3,5.3,0,0,1,0,6.714m-3.037-9.378a5.284,5.284,0,0,0-4.029,1.7,6.651,6.651,0,0,0-.006,8.639,5.653,5.653,0,0,0,8.085,0,6.615,6.615,0,0,0,0-8.632,5.314,5.314,0,0,0-4.046-1.709" transform="translate(-161.595 -245.366)"/>
    </g>
  </g>
  <rect id="Rectangle_6" data-name="Rectangle 6" width="1.371" height="11.551" transform="translate(222.229 156.43)"/>
  <g id="Group_8" data-name="Group 8">
    <g id="Group_7" data-name="Group 7" clip-path="url(#clip-path)">
      <path id="Path_8" data-name="Path 8" d="M378.3,408.554h2.967v1.682a4.626,4.626,0,0,1-1.54,1.549,3.986,3.986,0,0,1-2.034.517,3.928,3.928,0,0,1-3.034-1.32,5.291,5.291,0,0,1,0-6.706,3.919,3.919,0,0,1,3.034-1.328,4.09,4.09,0,0,1,2.154.582,3.823,3.823,0,0,1,1.479,1.613l1.13-.853a5.411,5.411,0,0,0-4.767-2.686,5.292,5.292,0,0,0-4.027,1.7,6.655,6.655,0,0,0,0,8.639,5.292,5.292,0,0,0,4.035,1.7,5.459,5.459,0,0,0,2.87-.765,5.7,5.7,0,0,0,2.054-2.2v-3.453H378.3Z" transform="translate(-227.32 -245.366)"/>
    </g>
  </g>
  <rect id="Rectangle_8" data-name="Rectangle 8" width="1.371" height="11.551" transform="translate(209.158 156.43)"/>
  <path id="Path_9" data-name="Path 9" d="M623.785,402.26v8.587l-7.057-8.587h-.709v11.488h1.351v-8.584l7.076,8.584h.689V402.26Z" transform="translate(-376.366 -245.767)"/>
  <g id="Group_10" data-name="Group 10">
    <g id="Group_9" data-name="Group 9" clip-path="url(#clip-path)">
      <path id="Path_10" data-name="Path 10" d="M589.589,410.982a4.149,4.149,0,0,1-6.071,0,5.286,5.286,0,0,1,0-6.706,4.146,4.146,0,0,1,6.075-.008,5.3,5.3,0,0,1,0,6.714m-3.037-9.378a5.284,5.284,0,0,0-4.029,1.7,6.65,6.65,0,0,0-.006,8.639,5.651,5.651,0,0,0,8.084,0,6.616,6.616,0,0,0,0-8.632,5.316,5.316,0,0,0-4.046-1.709" transform="translate(-354.925 -245.366)"/>
    </g>
  </g>
  <path id="Path_11" data-name="Path 11" d="M542.663,402.26v1.322h4.578v10.166h1.351V403.582h4.58V402.26Z" transform="translate(-331.548 -245.767)"/>
  <g id="Group_12" data-name="Group 12">
    <g id="Group_11" data-name="Group 11" clip-path="url(#clip-path)">
      <path id="Path_12" data-name="Path 12" d="M446.429,407.376v-3.793H451.3a2.045,2.045,0,0,1,1.483.5,1.843,1.843,0,0,1,.527,1.405,1.787,1.787,0,0,1-.527,1.4,2.227,2.227,0,0,1-1.55.478Zm5.715,1.322a3.026,3.026,0,0,0,1.869-1.108,3.334,3.334,0,0,0,.705-2.135,3.061,3.061,0,0,0-.9-2.346,3.52,3.52,0,0,0-2.5-.848h-6.24v11.488h1.352v-5.03h4.218l2.72,5.03h1.462l.014-.031Z" transform="translate(-271.926 -245.767)"/>
    </g>
  </g>
  <path id="Path_13" data-name="Path 13" d="M416.717,402.26v1.322H421.3v10.166h1.351V403.582h4.578V402.26Z" transform="translate(-254.599 -245.767)"/>
  <g id="Group_14" data-name="Group 14">
    <g id="Group_13" data-name="Group 13" clip-path="url(#clip-path)">
      <path id="Path_14" data-name="Path 14" d="M512.646,411.238a4.193,4.193,0,0,1-3.16,1.189h-3.311v-8.844h3.311a4.146,4.146,0,0,1,3.14,1.218,5.035,5.035,0,0,1,.021,6.437m-3.16-8.977h-4.662v11.488h4.662a5.341,5.341,0,0,0,5.7-5.712,5.713,5.713,0,0,0-1.571-4.173,5.523,5.523,0,0,0-4.134-1.6" transform="translate(-308.429 -245.767)"/>
    </g>
  </g>
  <path id="Path_15" data-name="Path 15" d="M476.058,404.229l2.4,5.085h-4.788Zm-.561-1.969-5.314,11.458.016.03h1.419l1.438-3.09h6.008l1.475,3.09h1.469l-5.39-11.488Z" transform="translate(-287.265 -245.766)"/>
  <g id="Group_16" data-name="Group 16">
    <g id="Group_15" data-name="Group 15" clip-path="url(#clip-path)">
      <path id="Path_16" data-name="Path 16" d="M673.284,415.37a3.005,3.005,0,1,0-2.841-3,2.929,2.929,0,0,0,2.841,3" transform="translate(-409.616 -250.109)"/>
      <path id="Path_17" data-name="Path 17" d="M128,415.37a3.005,3.005,0,1,0-2.841-3,2.929,2.929,0,0,0,2.841,3" transform="translate(-76.467 -250.109)"/>
      <path id="Path_18" data-name="Path 18" d="M332.974,48.822a23.615,23.615,0,0,1-7.13-5.169c-6.275-6.632-8.147-15.522-6.042-24.435a22.591,22.591,0,0,1,23.714,6.141,24.947,24.947,0,0,1,4.637,6.951A20.972,20.972,0,0,1,346,34.1a22.17,22.17,0,0,0-4.366-6.746,20.266,20.266,0,0,0-14.758-6.462,19.851,19.851,0,0,0-4.813.59,23.379,23.379,0,0,0-.451,4.585,22.63,22.63,0,0,0,6.112,15.6,20.854,20.854,0,0,0,7,4.884,21.874,21.874,0,0,1-1.745,2.274m39.012,0a23.62,23.62,0,0,0,7.132-5.169c6.274-6.632,8.147-15.522,6.041-24.435a22.59,22.59,0,0,0-23.714,6.141,24.956,24.956,0,0,0-4.639,6.951,20.992,20.992,0,0,0,2.158,1.788,22.131,22.131,0,0,1,4.364-6.746,20.269,20.269,0,0,1,14.76-6.462,19.837,19.837,0,0,1,4.811.59,23.351,23.351,0,0,1,.452,4.585,22.631,22.631,0,0,1-6.113,15.6,20.854,20.854,0,0,1-7,4.884,22.026,22.026,0,0,0,1.745,2.274m0,7.561a23.6,23.6,0,0,1,7.132,5.17c6.274,6.63,8.147,15.521,6.041,24.434a22.583,22.583,0,0,1-23.714-6.141,24.972,24.972,0,0,1-4.639-6.949,21.313,21.313,0,0,1,2.158-1.79,22.154,22.154,0,0,0,4.364,6.748,20.268,20.268,0,0,0,14.76,6.46,19.838,19.838,0,0,0,4.811-.589,23.364,23.364,0,0,0,.452-4.587,22.634,22.634,0,0,0-6.113-15.6,20.855,20.855,0,0,0-7-4.884,22.064,22.064,0,0,1,1.745-2.274m-39.012,0a23.6,23.6,0,0,0-7.13,5.17c-6.275,6.63-8.147,15.521-6.042,24.434a22.583,22.583,0,0,0,23.714-6.141,24.964,24.964,0,0,0,4.637-6.949A21.292,21.292,0,0,0,346,71.107a22.193,22.193,0,0,1-4.366,6.748,20.264,20.264,0,0,1-14.758,6.46,19.852,19.852,0,0,1-4.813-.589,23.392,23.392,0,0,1-.451-4.587,22.632,22.632,0,0,1,6.112-15.6,20.855,20.855,0,0,1,7-4.884,21.912,21.912,0,0,0-1.745-2.274" transform="translate(-194.881 -11.042)"/>
      <path id="Path_19" data-name="Path 19" d="M377.306,195.7a20.264,20.264,0,0,1-14.76-6.46l-.34-.365a22.453,22.453,0,0,1-2.6,1.17q.509.611,1.052,1.187a22.662,22.662,0,0,0,33.291,0c.363-.384.712-.78,1.052-1.187a22.481,22.481,0,0,1-2.6-1.17l-.34.365a20.263,20.263,0,0,1-14.76,6.46" transform="translate(-219.708 -115.394)"/>
      <path id="Path_20" data-name="Path 20" d="M328.236,153.63a23.035,23.035,0,0,0,7.335,3.924,25.355,25.355,0,0,0,3.136,6.932,19.982,19.982,0,0,0,2.564-1.039,22.38,22.38,0,0,1-2.653-5.155h0a26.213,26.213,0,0,1-.734-3.01,20.328,20.328,0,0,1-8.639-4.381,22.645,22.645,0,0,0-1.011,2.728" transform="translate(-200.54 -92.196)"/>
      <path id="Path_21" data-name="Path 21" d="M406.922,87.854a1.54,1.54,0,1,0,1.455,1.537,1.5,1.5,0,0,0-1.455-1.537" transform="translate(-247.725 -53.676)"/>
      <path id="Path_22" data-name="Path 22" d="M397.934,95.062a3.552,3.552,0,0,1-1.04.813,4.485,4.485,0,0,1-1.075.385V89.036h-2.911v7.423h-2.032V82.586h2.506a11.738,11.738,0,0,1,1.924.138,4.873,4.873,0,0,1,1.411.447,4.036,4.036,0,0,1,1.1.814,5.432,5.432,0,0,1,.973,1.437,7.686,7.686,0,0,1,.594,1.9,12.326,12.326,0,0,1,.2,2.283q0,3.685-1.654,5.461m2.936-10.451a7.024,7.024,0,0,0-2.82-1.822,11.79,11.79,0,0,0-3.922-.59h-9.216v.386h.508a2.513,2.513,0,0,1,1.908.653,2.843,2.843,0,0,1,.617,2.014v8.539a2.837,2.837,0,0,1-.621,2.012,2.506,2.506,0,0,1-1.9.655h-.508v.408h8v3.844a3.3,3.3,0,0,1-.349,1.581,2.321,2.321,0,0,1-1,1,3.849,3.849,0,0,1-3.41-.1c-.369-.237-.555-.449-.555-.63,0-.111.135-.215.407-.316a1.78,1.78,0,0,0,1.329-1.763,1.87,1.87,0,0,0-.475-1.314,1.613,1.613,0,0,0-1.241-.512,1.726,1.726,0,0,0-1.307.582,1.987,1.987,0,0,0-.54,1.39,2.49,2.49,0,0,0,.238,1.027,3.9,3.9,0,0,0,.634.982,4.173,4.173,0,0,0,1.6,1.033,6.145,6.145,0,0,0,2.168.362,6.884,6.884,0,0,0,2.394-.408,5.008,5.008,0,0,0,1.878-1.187,4.425,4.425,0,0,0,1.141-3.222V96.821a9.606,9.606,0,0,0,2.259-.472,7.894,7.894,0,0,0,2.628-1.478,6.576,6.576,0,0,0,1.714-2.265,6.734,6.734,0,0,0,.608-2.858,6.962,6.962,0,0,0-.564-2.742,7.693,7.693,0,0,0-1.594-2.395" transform="translate(-235.167 -50.221)"/>
      <path id="Path_23" data-name="Path 23" d="M390.21,70.572v.7a11.185,11.185,0,0,1-.709,3.889,11.992,11.992,0,0,1-2.01,3.48l-1.131,1.1a10.255,10.255,0,0,1-1.992,1.329,9.851,9.851,0,0,1-2.248.812l-.43.1-.24,1.2-.2.743a10.937,10.937,0,0,1-1.283,2.491l-1.058,1.3a10.292,10.292,0,0,1-3.337,2.364,9.8,9.8,0,0,1-3.874.82h-.129a9.806,9.806,0,0,1-3.875-.82,10.306,10.306,0,0,1-3.336-2.364l-1.058-1.3a10.885,10.885,0,0,1-1.283-2.491l-.206-.743-.239-1.2-.431-.1a9.849,9.849,0,0,1-2.246-.812,10.247,10.247,0,0,1-1.992-1.329l-1.131-1.1a12,12,0,0,1-2.01-3.48,11.177,11.177,0,0,1-.71-3.8v-.087a11.217,11.217,0,0,1,.71-3.8,11.975,11.975,0,0,1,2.025-3.5L356.9,62.89a10.253,10.253,0,0,1,1.992-1.329,9.982,9.982,0,0,1,2.247-.815l.431-.1.24-1.208.205-.742a10.563,10.563,0,0,1,.563-1.283,10.794,10.794,0,0,1,.721-1.209l1.058-1.3a10.285,10.285,0,0,1,3.339-2.364,9.807,9.807,0,0,1,3.936-.82h.667v-.683a10.674,10.674,0,0,1,7.08,3.368l1.107,1.363h0a11.777,11.777,0,0,1,1.392,2.706,13.666,13.666,0,0,1,.385,1.579,10.7,10.7,0,0,1,4.535,2.3c.025.03,1.136,1.1,1.159,1.13a12.49,12.49,0,0,1,2.9,7.082Zm2.044,0a13.363,13.363,0,0,0-3.6-8.441,12.845,12.845,0,0,0-1.329-1.2,12.15,12.15,0,0,0-3.851-2.06,13.329,13.329,0,0,0-1.646-3.638,13.839,13.839,0,0,0-1.463-1.862,12.034,12.034,0,0,0-8.071-3.805v-.723h-.667a12.374,12.374,0,0,0-4.981,1.047,13.013,13.013,0,0,0-4.229,2.983c-.091.1-.3.323-.6.692a14.048,14.048,0,0,0-2.564,4.748,12.485,12.485,0,0,0-1.777.782,13.133,13.133,0,0,0-1.944,1.277l-.721.608q-.352.316-.678.658a13.885,13.885,0,0,0-2.811,4.428,14.4,14.4,0,0,0-.982,4.511h-.022l0,.529,0,.173v.79h.023a14.364,14.364,0,0,0,.98,4.511A13.818,13.818,0,0,0,354.132,81c.213.228.439.446.677.661l.725.608a12.717,12.717,0,0,0,3.719,2.059,14.149,14.149,0,0,0,1.626,3.475,14.26,14.26,0,0,0,.94,1.273c.3.367.512.6.6.691a13.05,13.05,0,0,0,4.229,2.986,12.457,12.457,0,0,0,4.314,1.025V93.8H372.3v-.019a12.421,12.421,0,0,0,4.313-1.026,13.03,13.03,0,0,0,4.229-2.984c.089-.095.3-.324.6-.692a13.666,13.666,0,0,0,1.944-3.116,14.177,14.177,0,0,0,.62-1.63,12.8,12.8,0,0,0,1.778-.782,13.14,13.14,0,0,0,1.945-1.277l.722-.61c.234-.214.464-.432.677-.657a13.838,13.838,0,0,0,2.81-4.427,14.437,14.437,0,0,0,1-5.214v-.789Z" transform="translate(-214.03 -29.839)"/>
      <path id="Path_24" data-name="Path 24" d="M343.331,19a12.407,12.407,0,0,1,4.981,1.045,13.043,13.043,0,0,1,4.228,2.985c.089.1.3.323.6.692a13.806,13.806,0,0,1,.937,1.273,14.19,14.19,0,0,1,1.629,3.475,12.579,12.579,0,0,1,1.777.782,12.964,12.964,0,0,1,1.94,1.276l.725.608c.234.212.464.43.677.659a13.833,13.833,0,0,1,2.813,4.428,14.383,14.383,0,0,1,1,5.21l0,.793h-2.731v-.7a11.172,11.172,0,0,0-.711-3.888,11.955,11.955,0,0,0-2.026-3.5l-1.113-1.084a10.293,10.293,0,0,0-1.993-1.33,9.827,9.827,0,0,0-2.249-.814l-.431-.1-.239-1.206-.205-.742a10.926,10.926,0,0,0-.56-1.283,11.473,11.473,0,0,0-.724-1.209l-1.058-1.3a10.3,10.3,0,0,0-3.336-2.364,9.837,9.837,0,0,0-3.939-.82h-.667V19ZM360.2,11.869a22.351,22.351,0,0,1,2.652,5.155h0a26.232,26.232,0,0,1,.734,3.01,20.348,20.348,0,0,1,8.639,4.381,22.533,22.533,0,0,0,1.011-2.728,23,23,0,0,0-7.335-3.925,25.359,25.359,0,0,0-3.136-6.932,20.274,20.274,0,0,0-2.563,1.039M343.331,2.817a20.266,20.266,0,0,1,14.76,6.458l.34.365a22.462,22.462,0,0,1,2.6-1.169c-.34-.407-.689-.8-1.052-1.187a22.659,22.659,0,0,0-33.291,0q-.543.575-1.052,1.187a22.481,22.481,0,0,1,2.6,1.169l.34-.365a20.266,20.266,0,0,1,14.76-6.458m-16.868,9.051a22.413,22.413,0,0,0-2.652,5.155h0a26.3,26.3,0,0,0-.734,3.01,20.359,20.359,0,0,0-8.641,4.381,22.692,22.692,0,0,1-1.009-2.728,23,23,0,0,1,7.335-3.925A25.339,25.339,0,0,1,323.9,10.83a20.2,20.2,0,0,1,2.563,1.039M304,41.4a25.506,25.506,0,0,1,6.893-17.418l.331-.344a24.468,24.468,0,0,0,1.148,2.765,22.987,22.987,0,0,0,0,30.32,24.741,24.741,0,0,0-1.148,2.765l-.331-.342A25.513,25.513,0,0,1,304,41.724V41.4Zm9.428,20.036a23,23,0,0,0,7.335,3.924A25.357,25.357,0,0,0,323.9,72.29a19.918,19.918,0,0,0,2.563-1.039,22.4,22.4,0,0,1-2.652-5.153h0a26.449,26.449,0,0,1-.734-3.009,20.358,20.358,0,0,1-8.641-4.383,22.7,22.7,0,0,0-1.009,2.728m29.9,18.871a20.267,20.267,0,0,1-14.76-6.46l-.34-.365a22.826,22.826,0,0,1-2.6,1.17c.34.405.69.8,1.052,1.186a22.66,22.66,0,0,0,33.291,0c.363-.382.712-.78,1.052-1.186a22.806,22.806,0,0,1-2.6-1.17l-.34.365a20.267,20.267,0,0,1-14.76,6.46M360.2,71.251a22.34,22.34,0,0,0,2.652-5.153h0a26.385,26.385,0,0,0,.734-3.009,20.347,20.347,0,0,0,8.639-4.383,22.539,22.539,0,0,1,1.011,2.728,23,23,0,0,1-7.335,3.924,25.377,25.377,0,0,1-3.136,6.932,19.991,19.991,0,0,1-2.563-1.039m22.461-29.527a25.519,25.519,0,0,1-6.892,17.419l-.331.342a24.721,24.721,0,0,0-1.149-2.765,22.982,22.982,0,0,0,0-30.32,24.449,24.449,0,0,0,1.149-2.765l.331.344A25.512,25.512,0,0,1,382.661,41.4l0,.163ZM347.8,21.343A11.092,11.092,0,0,0,344,20.429v.07a11.087,11.087,0,0,1,3.778.912,11.622,11.622,0,0,1,3.774,2.666c.385.483.8.956,1.172,1.444a12.363,12.363,0,0,1,.833,1.387,12.828,12.828,0,0,1,.644,1.486l.237.856.089.389a11.243,11.243,0,0,1,2.119.819,11.487,11.487,0,0,1,2.271,1.517c.4.354.868.82,1.239,1.212a13.443,13.443,0,0,1,2.289,3.934,12.781,12.781,0,0,1,.782,3.7h.072a12.908,12.908,0,0,0-.884-4.056,12.43,12.43,0,0,0-2.526-3.971c-.186-.2-.387-.4-.595-.584l-.665-.557a11.42,11.42,0,0,0-1.741-1.146,11.179,11.179,0,0,0-1.9-.8l-.344-.11-.1-.362a12.622,12.622,0,0,0-1.556-3.443,13.424,13.424,0,0,0-.844-1.147c-.227-.276-.445-.511-.544-.615a11.691,11.691,0,0,0-3.794-2.683" transform="translate(-185.733 0)"/>
    </g>
  </g>
</svg>
