<?xml version="1.0" encoding="utf-8"?>
<!-- Generator: Adobe Illustrator 26.4.0, SVG Export Plug-In . SVG Version: 6.00 Build 0)  -->
<svg version="1.1" id="Layer_1" xmlns="http://www.w3.org/2000/svg" xmlns:xlink="http://www.w3.org/1999/xlink" x="0px" y="0px"
	 viewBox="0 0 20 20" style="enable-background:new 0 0 20 20;" xml:space="preserve">
<style type="text/css">
	.st0{fill:#FFFFFF;}
</style>
<g>
	<path class="st0" d="M18,10.1c-0.1-2.6-1-4.6-2.8-6.2c-0.3-0.3-0.5-0.6-0.4-1c0.1-0.4,0.3-0.6,0.7-0.7c0.4-0.1,0.7,0,1,0.3
		c1.3,1.2,2.3,2.6,2.9,4.2c2,5.8-1.5,12.1-7.5,13.3C7.8,20.6,3.4,18.7,1.4,15c-2.1-3.8-1.9-7.6,0.6-11.1c0.4-0.6,0.9-1,1.4-1.5
		c0.5-0.5,1.1-0.4,1.5,0c0.4,0.4,0.3,1.1-0.1,1.5C4,4.6,3.3,5.4,2.8,6.4c-2.3,4.8,0.5,10.5,5.8,11.5c4.4,0.8,8.5-2.2,9.2-6.6
		C18,10.8,18,10.4,18,10.1z"/>
	<path class="st0" d="M11,5c0,1.3,0,2.7,0,4c0,0.7-0.7,1.2-1.3,1C9.3,9.9,9,9.5,9,9.1C9,9.1,9,9,9,8.9c0-2.6,0-5.2,0-7.8
		c0-0.2,0-0.4,0.1-0.6C9.4,0.1,9.8-0.1,10.2,0C10.7,0.1,11,0.5,11,1C11,2.3,11,3.7,11,5C11,5,11,5,11,5z"/>
</g>
</svg>
