<?xml version="1.0" encoding="UTF-8"?>
<svg id="Layer_1" data-name="Layer 1" xmlns="http://www.w3.org/2000/svg" viewBox="0 0 127.7 58.3">
  <defs>
    <style>
      .cls-1 {
        fill: #fff;
        stroke-width: 0px;
      }
    </style>
  </defs>
  <rect class="cls-1" x="58.35" y="41.36" width="1.03" height="6.06"/>
  <polygon class="cls-1" points="58.35 47.43 58.48 46.4 124.61 50.39 124.47 51.38 58.35 47.43"/>
  <polygon class="cls-1" points="124.94 51.4 123.91 51.35 123.91 8.99 124.94 8.9 124.94 51.4"/>
  <polygon class="cls-1" points="58.47 13.76 58.35 12.73 124.42 8.96 124.42 9.99 58.47 13.76"/>
  <g>
    <g>
      <path class="cls-1" d="m92.39,17.99h.77l5.49,13.03h-1.03l-1.8-4.29h-6.26l-1.8,4.29h-1.03l5.66-13.03h0Zm3.26,7.97l-2.83-6.86-2.92,6.86h5.74Z"/>
      <path class="cls-1" d="m105.08,31.19c-.86,0-1.54-.26-2.23-.69-.6-.43-1.2-.94-1.54-1.54v6h-.94v-13.55h.86v1.89c.43-.6.94-1.11,1.54-1.46.6-.34,1.37-.6,2.06-.6s1.29.17,1.8.43c.6.26,1.03.69,1.46,1.11s.69.94.94,1.54c.26.6.34,1.2.34,1.8,0,.69-.09,1.29-.34,1.89-.17.6-.51,1.11-.86,1.54s-.86.77-1.37,1.11c-.43.34-1.03.51-1.71.51h0Zm-.17-.86c.51,0,1.03-.09,1.54-.34.43-.26.86-.51,1.11-.94.34-.34.6-.86.77-1.29.17-.51.26-1.03.26-1.54s-.09-1.11-.26-1.54c-.17-.51-.43-.94-.86-1.29-.34-.34-.77-.69-1.2-.94-.43-.26-.94-.34-1.46-.34-.34,0-.69.09-1.03.17-.34.17-.69.34-1.03.6s-.6.51-.86.86-.34.6-.43.94v3.17c.17.34.34.69.6,1.03.26.34.51.6.86.77.34.26.6.43,1.03.51.17.09.51.17.94.17h0Z"/>
      <path class="cls-1" d="m116.32,31.19c-.86,0-1.54-.26-2.23-.69-.6-.43-1.2-.94-1.54-1.54v6h-.94v-13.55h.86v1.89c.43-.6.94-1.11,1.54-1.46.6-.34,1.37-.6,2.06-.6s1.29.17,1.8.43c.6.26,1.03.69,1.46,1.11s.69.94.94,1.54c.26.6.34,1.2.34,1.8,0,.69-.09,1.29-.34,1.89-.17.6-.51,1.11-.86,1.54s-.86.77-1.37,1.11c-.43.34-1.03.51-1.71.51h0Zm-.17-.86c.51,0,1.03-.09,1.54-.34.43-.26.86-.51,1.11-.94.34-.34.6-.86.77-1.29.17-.51.26-1.03.26-1.54s-.09-1.11-.26-1.54c-.17-.51-.43-.94-.86-1.29-.34-.34-.77-.69-1.2-.94-.43-.26-.94-.34-1.46-.34-.34,0-.69.09-1.03.17-.34.17-.69.34-1.03.6s-.6.51-.86.86-.34.6-.43.94v3.17c.17.34.34.69.6,1.03.26.34.51.6.86.77.34.26.6.43,1.03.51.17.09.51.17.94.17h0Z"/>
    </g>
    <g>
      <path class="cls-1" d="m12.5,31.11v-7.76l-2.81,5.64h-1.61l-2.81-5.64v7.76h-2.99v-12.97h3.25l3.36,6.78,3.38-6.78h3.23v12.97h-2.99Z"/>
      <path class="cls-1" d="m22.2,31.29c-.8,0-1.52-.13-2.16-.39-.64-.26-1.18-.62-1.63-1.07-.44-.45-.78-.97-1.01-1.56-.23-.59-.35-1.21-.35-1.85,0-.69.12-1.35.35-1.96.23-.61.57-1.15,1-1.62.44-.46.98-.83,1.62-1.1.64-.27,1.37-.4,2.18-.4s1.54.13,2.17.4,1.17.63,1.61,1.09c.44.46.77.98,1,1.58s.34,1.22.34,1.88c0,.17,0,.34-.02.5-.01.16-.03.31-.06.43h-7.09c.05.65.28,1.14.7,1.47.42.33.9.5,1.43.5.43,0,.84-.1,1.23-.31.4-.21.66-.49.79-.84l2.48.69c-.38.76-.96,1.37-1.75,1.84-.79.47-1.74.71-2.85.71Zm2.03-5.88c-.06-.61-.28-1.09-.66-1.44s-.85-.53-1.41-.53-1.04.18-1.42.54c-.37.36-.59.84-.65,1.43h4.13Z"/>
      <path class="cls-1" d="m34.73,24.02c-.71.01-1.35.13-1.92.35-.57.22-.99.55-1.24.99v5.75h-2.92v-9.59h2.68v1.94c.33-.65.75-1.15,1.27-1.52.52-.37,1.07-.55,1.65-.57h.29c.06,0,.12,0,.18.02v2.63Z"/>
      <path class="cls-1" d="m34.91,26.3c0-.66.12-1.29.35-1.89.23-.6.57-1.13,1-1.59.44-.46.98-.82,1.62-1.09.64-.27,1.37-.4,2.18-.4,1.11,0,2.04.23,2.79.7.76.47,1.32,1.08,1.7,1.84l-2.85.86c-.38-.61-.93-.91-1.66-.91-.61,0-1.12.23-1.52.68s-.61,1.05-.61,1.81c0,.38.05.72.16,1.03s.26.58.46.79c.2.22.42.39.68.51.26.12.54.18.83.18.37,0,.7-.09,1-.26.3-.18.53-.4.68-.68l2.85.88c-.35.74-.92,1.35-1.69,1.83-.77.47-1.71.71-2.82.71-.8,0-1.52-.14-2.16-.41-.64-.27-1.18-.64-1.63-1.1-.44-.46-.78-.99-1.01-1.59-.23-.6-.35-1.23-.35-1.89Z"/>
      <path class="cls-1" d="m55.12,31.11h-2.92v-5.39c0-.62-.12-1.08-.37-1.37s-.58-.44-1-.44c-.17,0-.36.04-.56.12-.2.08-.4.2-.58.35-.19.15-.36.33-.52.54-.16.21-.28.44-.37.69v5.5h-2.92v-13.33h2.92v5.35c.35-.57.82-1.01,1.4-1.32.58-.31,1.21-.47,1.91-.47.65,0,1.17.11,1.56.34.4.23.7.51.91.86.21.35.36.74.43,1.17.07.43.11.86.11,1.27v6.14Z"/>
      <path class="cls-1" d="m59.78,31.29c-.47,0-.92-.08-1.32-.23s-.76-.37-1.05-.64-.52-.6-.69-.97c-.17-.37-.26-.78-.26-1.21,0-.47.1-.91.3-1.3.2-.39.48-.72.85-1s.8-.5,1.3-.66c.5-.16,1.05-.24,1.66-.24.4,0,.79.03,1.17.1.38.07.71.17.99.3v-.44c0-1.11-.64-1.66-1.92-1.66-.52,0-1.02.09-1.5.27-.47.18-.97.44-1.5.79l-.86-1.83c.63-.41,1.29-.72,1.97-.93.68-.21,1.41-.31,2.17-.31,1.45,0,2.57.34,3.36,1.02.79.68,1.19,1.68,1.19,2.99v2.47c0,.29.05.5.14.61.09.12.25.19.48.21v2.47c-.26.06-.49.1-.69.12-.21.02-.4.03-.57.03-.55,0-.96-.11-1.24-.32-.28-.21-.46-.51-.53-.9l-.06-.44c-.43.55-.93.97-1.52,1.26s-1.21.44-1.87.44Zm.86-2.1c.32,0,.62-.05.92-.16s.55-.26.74-.44c.28-.22.42-.45.42-.69v-.91c-.26-.1-.53-.17-.83-.23-.3-.05-.58-.08-.83-.08-.54,0-.98.12-1.32.37-.35.24-.52.56-.52.95,0,.35.13.64.4.87s.61.34,1.02.34Z"/>
      <path class="cls-1" d="m77,31.11h-2.92v-5.39c0-.63-.12-1.09-.36-1.38-.24-.29-.55-.43-.94-.43-.21,0-.41.04-.62.13-.21.09-.41.2-.6.36-.19.15-.37.33-.52.54-.15.21-.27.43-.36.68v5.5h-2.92v-9.59h2.63v1.61c.35-.57.85-1.01,1.5-1.32.64-.31,1.39-.47,2.23-.47.62,0,1.12.11,1.5.34.38.23.67.52.88.88s.34.75.41,1.18.1.84.1,1.24v6.14Z"/>
      <path class="cls-1" d="m85.06,30.6c-.4.17-.86.33-1.38.47-.52.15-1.04.22-1.56.22-.37,0-.71-.05-1.03-.14-.32-.09-.61-.24-.85-.44s-.44-.47-.58-.79c-.14-.33-.21-.72-.21-1.19v-5h-1.22v-2.21h1.22v-3.05h2.92v3.05h1.95v2.21h-1.95v4c0,.32.08.55.24.68s.36.21.6.21c.22,0,.44-.04.68-.11.23-.07.43-.15.6-.24l.57,2.32Z"/>
    </g>
  </g>
  <g>
    <path class="cls-1" d="m40.55,39.08v-2.74h1.15c.12,0,.24.03.34.08.1.05.19.12.27.2s.13.18.18.29c.04.11.06.22.06.33s-.02.23-.06.33-.1.2-.17.29c-.07.08-.16.15-.26.2-.1.05-.21.08-.34.08h-.74v.95h-.43Zm.43-1.34h.71c.06,0,.12-.01.17-.04.05-.03.09-.06.13-.11s.06-.1.08-.16c.02-.06.03-.13.03-.2s-.01-.15-.03-.21c-.02-.06-.06-.12-.1-.16-.04-.04-.09-.08-.14-.1-.05-.02-.11-.04-.16-.04h-.69v1.02Z"/>
    <path class="cls-1" d="m43.58,36.34h.38l1.08,2.74h-.46l-.29-.74h-1.06l-.29.74h-.46l1.09-2.74Zm.63,1.67l-.44-1.18-.46,1.18h.9Z"/>
    <path class="cls-1" d="m45.38,39.08v-2.74h1.15c.12,0,.24.03.34.08.1.05.19.12.27.2s.13.18.18.29c.04.11.06.22.06.33s-.02.23-.06.33-.1.2-.17.29c-.07.08-.16.15-.26.2-.1.05-.21.08-.34.08h-.74v.95h-.43Zm.43-1.34h.71c.06,0,.12-.01.17-.04.05-.03.09-.06.13-.11s.06-.1.08-.16c.02-.06.03-.13.03-.2s-.01-.15-.03-.21c-.02-.06-.06-.12-.1-.16-.04-.04-.09-.08-.14-.1-.05-.02-.11-.04-.16-.04h-.69v1.02Z"/>
    <path class="cls-1" d="m49.66,38.7v.38h-1.88v-2.74h1.84v.38h-1.41v.78h1.22v.36h-1.22v.84h1.45Z"/>
    <path class="cls-1" d="m50.11,39.08v-2.74h1.19c.12,0,.24.03.34.08.1.05.19.12.27.2.07.08.13.18.17.29.04.11.06.22.06.33,0,.09-.01.18-.04.27-.03.08-.06.16-.11.24s-.1.13-.17.19-.14.09-.22.12l.64,1.04h-.49l-.59-.95h-.63v.95h-.43Zm.43-1.34h.76c.06,0,.12-.01.17-.04.05-.03.09-.06.13-.11.04-.05.06-.1.08-.16.02-.06.03-.13.03-.2s-.01-.14-.04-.2c-.02-.06-.06-.12-.1-.16-.04-.05-.09-.08-.14-.11-.05-.03-.11-.04-.16-.04h-.73v1.02Z"/>
    <path class="cls-1" d="m52.66,39.08v-2.74h.43v2.36h1.47v.38h-1.9Z"/>
    <path class="cls-1" d="m56.79,38.7v.38h-1.88v-2.74h1.84v.38h-1.41v.78h1.22v.36h-1.22v.84h1.45Z"/>
    <path class="cls-1" d="m58.8,36.99s-.06-.06-.11-.09c-.05-.03-.11-.06-.17-.09-.07-.03-.14-.05-.22-.07-.08-.02-.16-.03-.24-.03-.18,0-.32.03-.4.1s-.13.16-.13.28c0,.07.01.12.04.16.03.04.07.08.13.11.06.03.13.06.21.08s.18.05.3.08c.14.03.26.07.38.11.11.04.21.09.28.15.08.06.14.13.18.22.04.09.06.19.06.31,0,.14-.03.26-.08.36-.05.1-.12.18-.22.24-.09.06-.2.11-.32.14-.12.03-.25.04-.39.04-.21,0-.41-.03-.6-.09-.19-.06-.37-.15-.53-.28l.2-.37s.08.07.14.11c.06.04.14.08.22.11s.17.06.27.09c.1.02.2.04.3.04.17,0,.3-.03.39-.09.09-.06.14-.15.14-.26,0-.07-.02-.13-.05-.17-.04-.05-.08-.09-.15-.12-.06-.03-.14-.07-.24-.09-.09-.03-.2-.06-.32-.09-.14-.04-.26-.07-.36-.11-.1-.04-.19-.09-.25-.14-.07-.06-.12-.12-.15-.2-.03-.08-.05-.17-.05-.28,0-.13.03-.25.08-.36.05-.1.12-.19.21-.26s.19-.12.31-.16.25-.05.39-.05c.19,0,.36.03.51.09.16.06.29.13.41.22l-.2.36Z"/>
    <path class="cls-1" d="m61.16,36.99s-.06-.06-.11-.09c-.05-.03-.11-.06-.17-.09-.07-.03-.14-.05-.22-.07-.08-.02-.16-.03-.24-.03-.18,0-.32.03-.4.1s-.13.16-.13.28c0,.07.01.12.04.16.03.04.07.08.13.11.06.03.13.06.21.08s.18.05.3.08c.14.03.26.07.38.11.11.04.21.09.28.15.08.06.14.13.18.22.04.09.06.19.06.31,0,.14-.03.26-.08.36-.05.1-.12.18-.22.24-.09.06-.2.11-.32.14-.12.03-.25.04-.39.04-.21,0-.41-.03-.6-.09-.19-.06-.37-.15-.53-.28l.2-.37s.08.07.14.11c.06.04.14.08.22.11s.17.06.27.09c.1.02.2.04.3.04.17,0,.3-.03.39-.09.09-.06.14-.15.14-.26,0-.07-.02-.13-.05-.17-.04-.05-.08-.09-.15-.12-.06-.03-.14-.07-.24-.09-.09-.03-.2-.06-.32-.09-.14-.04-.26-.07-.36-.11-.1-.04-.19-.09-.25-.14-.07-.06-.12-.12-.15-.2-.03-.08-.05-.17-.05-.28,0-.13.03-.25.08-.36.05-.1.12-.19.21-.26s.19-.12.31-.16.25-.05.39-.05c.19,0,.36.03.51.09.16.06.29.13.41.22l-.2.36Z"/>
    <path class="cls-1" d="m65,38.37c0,.11-.02.21-.07.3s-.11.16-.18.22c-.08.06-.17.11-.27.14-.1.03-.21.05-.33.05h-1.31v-2.74h1.41c.1,0,.18.02.26.06s.14.09.2.16c.05.07.1.14.13.22.03.08.04.17.04.25,0,.13-.03.26-.1.38-.07.12-.17.2-.29.26.16.05.28.13.37.25s.14.27.14.45Zm-1.72-1.66v.81h.79c.05,0,.1-.01.15-.03.05-.02.09-.05.12-.08.04-.03.06-.08.08-.13.02-.05.03-.1.03-.16,0-.12-.03-.22-.1-.29-.07-.08-.15-.11-.25-.11h-.82Zm1.28,1.58c0-.06-.01-.11-.03-.16s-.04-.1-.08-.14c-.03-.04-.07-.07-.12-.09-.05-.02-.1-.03-.15-.03h-.9v.84h.88c.06,0,.11-.01.16-.03.05-.02.09-.05.13-.09s.06-.08.08-.13c.02-.05.03-.1.03-.16Z"/>
    <path class="cls-1" d="m66.6,38.71c.14,0,.26-.03.36-.08.1-.06.17-.13.23-.22s.1-.2.12-.31c.02-.12.04-.24.04-.36v-1.39h.44v1.39c0,.19-.02.36-.07.53-.04.17-.11.31-.21.44s-.22.22-.37.3-.33.11-.54.11-.4-.04-.55-.11c-.15-.08-.27-.18-.36-.3-.09-.13-.16-.27-.2-.44s-.06-.34-.06-.51v-1.39h.43v1.39c0,.13.01.25.04.36.03.12.07.22.12.31s.13.16.23.22c.1.06.22.08.36.08Z"/>
    <path class="cls-1" d="m69.98,36.99s-.06-.06-.11-.09c-.05-.03-.11-.06-.17-.09-.07-.03-.14-.05-.22-.07-.08-.02-.16-.03-.24-.03-.18,0-.32.03-.4.1s-.13.16-.13.28c0,.07.01.12.04.16.03.04.07.08.13.11.06.03.13.06.21.08s.18.05.3.08c.14.03.26.07.38.11.11.04.21.09.28.15.08.06.14.13.18.22.04.09.06.19.06.31,0,.14-.03.26-.08.36-.05.1-.12.18-.22.24-.09.06-.2.11-.32.14-.12.03-.25.04-.39.04-.21,0-.41-.03-.6-.09-.19-.06-.37-.15-.53-.28l.2-.37s.08.07.14.11c.06.04.14.08.22.11s.17.06.27.09c.1.02.2.04.3.04.17,0,.3-.03.39-.09.09-.06.14-.15.14-.26,0-.07-.02-.13-.05-.17-.04-.05-.08-.09-.15-.12-.06-.03-.14-.07-.24-.09-.09-.03-.2-.06-.32-.09-.14-.04-.26-.07-.36-.11-.1-.04-.19-.09-.25-.14-.07-.06-.12-.12-.15-.2-.03-.08-.05-.17-.05-.28,0-.13.03-.25.08-.36.05-.1.12-.19.21-.26s.19-.12.31-.16.25-.05.39-.05c.19,0,.36.03.51.09.16.06.29.13.41.22l-.2.36Z"/>
    <path class="cls-1" d="m70.71,39.08v-2.74h.43v2.74h-.43Z"/>
    <path class="cls-1" d="m72.19,37.15v1.93h-.43v-2.74h.34l1.57,1.98v-1.97h.44v2.74h-.36l-1.55-1.93Z"/>
    <path class="cls-1" d="m76.6,38.7v.38h-1.88v-2.74h1.84v.38h-1.41v.78h1.22v.36h-1.22v.84h1.45Z"/>
    <path class="cls-1" d="m78.61,36.99s-.06-.06-.11-.09c-.05-.03-.11-.06-.17-.09-.07-.03-.14-.05-.22-.07-.08-.02-.16-.03-.24-.03-.18,0-.32.03-.4.1s-.13.16-.13.28c0,.07.01.12.04.16.03.04.07.08.13.11.06.03.13.06.21.08s.18.05.3.08c.14.03.26.07.38.11.11.04.21.09.28.15.08.06.14.13.18.22.04.09.06.19.06.31,0,.14-.03.26-.08.36-.05.1-.12.18-.22.24-.09.06-.2.11-.32.14-.12.03-.25.04-.39.04-.21,0-.41-.03-.6-.09-.19-.06-.37-.15-.53-.28l.2-.37s.08.07.14.11c.06.04.14.08.22.11s.17.06.27.09c.1.02.2.04.3.04.17,0,.3-.03.39-.09.09-.06.14-.15.14-.26,0-.07-.02-.13-.05-.17-.04-.05-.08-.09-.15-.12-.06-.03-.14-.07-.24-.09-.09-.03-.2-.06-.32-.09-.14-.04-.26-.07-.36-.11-.1-.04-.19-.09-.25-.14-.07-.06-.12-.12-.15-.2-.03-.08-.05-.17-.05-.28,0-.13.03-.25.08-.36.05-.1.12-.19.21-.26s.19-.12.31-.16.25-.05.39-.05c.19,0,.36.03.51.09.16.06.29.13.41.22l-.2.36Z"/>
    <path class="cls-1" d="m80.97,36.99s-.06-.06-.11-.09c-.05-.03-.11-.06-.17-.09-.07-.03-.14-.05-.22-.07-.08-.02-.16-.03-.24-.03-.18,0-.32.03-.4.1s-.13.16-.13.28c0,.07.01.12.04.16.03.04.07.08.13.11.06.03.13.06.21.08s.18.05.3.08c.14.03.26.07.38.11.11.04.21.09.28.15.08.06.14.13.18.22.04.09.06.19.06.31,0,.14-.03.26-.08.36-.05.1-.12.18-.22.24-.09.06-.2.11-.32.14-.12.03-.25.04-.39.04-.21,0-.41-.03-.6-.09-.19-.06-.37-.15-.53-.28l.2-.37s.08.07.14.11c.06.04.14.08.22.11s.17.06.27.09c.1.02.2.04.3.04.17,0,.3-.03.39-.09.09-.06.14-.15.14-.26,0-.07-.02-.13-.05-.17-.04-.05-.08-.09-.15-.12-.06-.03-.14-.07-.24-.09-.09-.03-.2-.06-.32-.09-.14-.04-.26-.07-.36-.11-.1-.04-.19-.09-.25-.14-.07-.06-.12-.12-.15-.2-.03-.08-.05-.17-.05-.28,0-.13.03-.25.08-.36.05-.1.12-.19.21-.26s.19-.12.31-.16.25-.05.39-.05c.19,0,.36.03.51.09.16.06.29.13.41.22l-.2.36Z"/>
  </g>
  <rect class="cls-1" x="58.35" y="12.73" width="1.03" height="6.15"/>
</svg>