<?xml version="1.0" encoding="UTF-8"?>
<svg id="Layer_1" data-name="Layer 1" xmlns="http://www.w3.org/2000/svg" viewBox="0 0 127.7 58.3">
  <defs>
    <style>
      .cls-1 {
        fill: #c51724;
        stroke-width: 0px;
      }
    </style>
  </defs>
  <g>
    <rect class="cls-1" x="63.8" y="7.4" width="1.4" height="5.9"/>
    <rect class="cls-1" x="63.7" y="44.7" width="1.4" height="5.9"/>
    <rect class="cls-1" x="93.7" y="21.8" width="1.4" height="61.7" transform="translate(34 142.2) rotate(-85.1)"/>
    <polygon class="cls-1" points="125.3 55.6 123.9 55.6 123.9 2.5 125.3 2.4 125.3 55.6"/>
    <polygon class="cls-1" points="63.8 8.7 63.7 7.4 125.3 2.4 125.3 3.8 63.8 8.7"/>
  </g>
  <g>
    <path class="cls-1" d="m6.4,15.9l3.4,10.2,3.3-10.2h3.5l-5.5,14.4h-2.8L2.9,15.9h3.5Z"/>
    <path class="cls-1" d="m21.5,30.5c-.9,0-1.7-.1-2.4-.4-.7-.3-1.3-.7-1.8-1.2s-.9-1.1-1.1-1.7c-.3-.7-.4-1.3-.4-2.1s.1-1.5.4-2.2c.3-.7.6-1.3,1.1-1.8.5-.5,1.1-.9,1.8-1.2.7-.3,1.5-.4,2.4-.4s1.7.1,2.4.4c.7.3,1.3.7,1.8,1.2s.9,1.1,1.1,1.8c.2.7.4,1.4.4,2.1s0,.4,0,.6c0,.2,0,.3,0,.5h-7.9c0,.7.3,1.3.8,1.6.5.4,1,.6,1.6.6s.9-.1,1.4-.3c.4-.2.7-.5.9-.9l2.8.8c-.4.8-1.1,1.5-1.9,2-.9.5-1.9.8-3.2.8Zm2.3-6.5c0-.7-.3-1.2-.7-1.6s-.9-.6-1.6-.6-1.2.2-1.6.6-.7.9-.7,1.6h4.6Z"/>
    <path class="cls-1" d="m38.9,30.3h-3.2v-6c0-.7-.1-1.2-.4-1.5s-.6-.5-1-.5-.5,0-.7.1c-.2,0-.5.2-.7.4-.2.2-.4.4-.6.6-.2.2-.3.5-.4.8v6.1h-3.2v-10.6h2.9v1.8c.4-.6.9-1.1,1.7-1.5.7-.3,1.5-.5,2.5-.5s1.2.1,1.7.4c.4.2.7.6,1,1,.2.4.4.8.5,1.3,0,.5.1.9.1,1.4v6.8Z"/>
    <path class="cls-1" d="m45.5,30.5c-.7,0-1.4-.1-2-.4-.6-.3-1.1-.7-1.6-1.2s-.8-1.1-1-1.8c-.3-.7-.4-1.4-.4-2.2s.1-1.5.3-2.2c.2-.7.6-1.3,1-1.8s.9-.9,1.5-1.2c.6-.3,1.2-.4,1.9-.4s1.4.2,2,.5c.6.4,1.1.8,1.4,1.4v-5.9h3.2v11.1c0,.3,0,.6.2.7.1.1.3.2.5.2v2.7c-.3,0-.6.1-.8.1-.2,0-.4,0-.6,0-.6,0-1-.1-1.4-.4-.4-.2-.6-.6-.6-1v-.5c-.4.7-.9,1.2-1.6,1.5-.6.3-1.3.5-2.1.5Zm.9-2.7c.4,0,.9-.1,1.3-.4.4-.3.7-.6.9-1.1v-2.2c-.2-.5-.5-1-1-1.3-.5-.3-.9-.5-1.4-.5s-.7,0-1,.2c-.3.2-.5.4-.8.6-.2.3-.4.6-.5.9-.1.3-.2.7-.2,1.1s0,.8.2,1.1c.1.3.3.6.5.9.2.2.5.4.8.6s.7.2,1,.2Z"/>
    <path class="cls-1" d="m59.4,30.5c-.9,0-1.7-.1-2.4-.4-.7-.3-1.3-.7-1.8-1.2s-.9-1.1-1.1-1.8-.4-1.4-.4-2.1.1-1.4.4-2.1.6-1.3,1.1-1.8c.5-.5,1.1-.9,1.8-1.2.7-.3,1.5-.5,2.4-.5s1.7.2,2.4.5c.7.3,1.3.7,1.8,1.2.5.5.9,1.1,1.1,1.8.3.7.4,1.4.4,2.1s-.1,1.4-.4,2.1c-.3.7-.6,1.3-1.1,1.8s-1.1.9-1.8,1.2c-.7.3-1.5.4-2.4.4Zm-2.4-5.5c0,.8.2,1.5.7,2,.4.5,1,.8,1.7.8s.6,0,.9-.2c.3-.1.5-.3.7-.6s.4-.5.5-.9.2-.7.2-1.1c0-.8-.2-1.5-.7-2-.4-.5-1-.8-1.7-.8s-.7,0-.9.2c-.3.1-.5.3-.8.6s-.4.5-.5.9-.2.7-.2,1.1Z"/>
    <path class="cls-1" d="m73.4,22.5c-.8,0-1.5.1-2.1.4-.6.2-1.1.6-1.4,1.1v6.4h-3.2v-10.6h3v2.1c.4-.7.8-1.3,1.4-1.7.6-.4,1.2-.6,1.8-.6h.3c0,0,.1,0,.2,0v2.9Z"/>
  </g>
  <g>
    <path class="cls-1" d="m82.2,15h1.1l7.4,17.6h-1.3l-2.5-5.8h-8.4l-2.5,5.8h-1.4l7.5-17.6Zm4.4,10.8l-3.8-9.2-3.9,9.2h7.8Z"/>
    <path class="cls-1" d="m99.3,32.8c-1.1,0-2.1-.3-3-.9-.9-.6-1.6-1.3-2.1-2.1v8.1h-1.2v-18.2h1.1v2.6c.5-.8,1.2-1.5,2.1-2,.9-.5,1.8-.8,2.8-.8s1.7.2,2.5.6,1.4.9,2,1.5c.5.6,1,1.3,1.3,2.1.3.8.5,1.6.5,2.5s-.1,1.7-.4,2.6c-.3.8-.7,1.5-1.2,2.1-.5.6-1.1,1.1-1.9,1.4-.7.4-1.5.5-2.4.5Zm-.3-1.1c.7,0,1.4-.2,2-.5.6-.3,1.1-.7,1.6-1.3.4-.5.8-1.1,1-1.8s.3-1.4.3-2-.1-1.4-.4-2.1c-.3-.7-.6-1.3-1.1-1.8-.5-.5-1-.9-1.6-1.2-.6-.3-1.3-.5-2-.5s-.9,0-1.4.3c-.5.2-1,.4-1.4.8-.4.3-.8.7-1.1,1.1-.3.4-.5.9-.5,1.3v4.2c.2.5.5.9.8,1.3.3.4.7.8,1.1,1.1.4.3.9.6,1.3.7.5.2,1,.3,1.5.3Z"/>
    <path class="cls-1" d="m114.4,32.8c-1.1,0-2.1-.3-3-.9-.9-.6-1.6-1.3-2.1-2.1v8.1h-1.2v-18.2h1.1v2.6c.5-.8,1.2-1.5,2.1-2,.9-.5,1.8-.8,2.8-.8s1.7.2,2.5.6,1.4.9,2,1.5c.5.6,1,1.3,1.3,2.1.3.8.5,1.6.5,2.5s-.1,1.7-.4,2.6c-.3.8-.7,1.5-1.2,2.1-.5.6-1.1,1.1-1.9,1.4-.7.4-1.5.5-2.4.5Zm-.3-1.1c.7,0,1.4-.2,2-.5.6-.3,1.1-.7,1.6-1.3.4-.5.8-1.1,1-1.8s.3-1.4.3-2-.1-1.4-.4-2.1c-.3-.7-.6-1.3-1.1-1.8-.5-.5-1-.9-1.6-1.2-.6-.3-1.3-.5-2-.5s-.9,0-1.4.3c-.5.2-1,.4-1.4.8-.4.3-.8.7-1.1,1.1-.3.4-.5.9-.5,1.3v4.2c.2.5.5.9.8,1.3.3.4.7.8,1.1,1.1.4.3.9.6,1.3.7.5.2,1,.3,1.5.3Z"/>
  </g>
  <g>
    <path class="cls-1" d="m37.9,40.2v-3.6h1.5c.2,0,.3,0,.4,0,.1,0,.2.2.3.3s.2.2.2.4c0,.1,0,.3,0,.4s0,.3,0,.4-.1.3-.2.4c0,.1-.2.2-.3.3-.1,0-.3,0-.4,0h-1.2v1.3h-.4Zm.4-1.6h1.2c.1,0,.2,0,.3,0,0,0,.2-.1.2-.2s.1-.2.1-.3c0,0,0-.2,0-.3s0-.2,0-.3c0,0,0-.2-.2-.3s-.1-.1-.2-.2c0,0-.2,0-.3,0h-1.1v1.6Z"/>
    <path class="cls-1" d="m41.9,36.6h.3l1.5,3.6h-.4l-.5-1.1h-1.6l-.5,1.1h-.4l1.5-3.6Zm.9,2.2l-.7-1.8-.7,1.8h1.5Z"/>
    <path class="cls-1" d="m44.2,40.2v-3.6h1.5c.2,0,.3,0,.4,0,.1,0,.2.2.3.3s.2.2.2.4c0,.1,0,.3,0,.4s0,.3,0,.4-.1.3-.2.4c0,.1-.2.2-.3.3-.1,0-.3,0-.4,0h-1.2v1.3h-.4Zm.4-1.6h1.2c.1,0,.2,0,.3,0,0,0,.2-.1.2-.2s.1-.2.1-.3c0,0,0-.2,0-.3s0-.2,0-.3c0,0,0-.2-.2-.3s-.1-.1-.2-.2c0,0-.2,0-.3,0h-1.1v1.6Z"/>
    <path class="cls-1" d="m49.8,39.9v.3h-2.4v-3.6h2.4v.3h-2v1.3h1.8v.3h-1.8v1.4h2.1Z"/>
    <path class="cls-1" d="m50.5,40.2v-3.6h1.5c.2,0,.3,0,.4,0,.1,0,.2.2.3.3,0,.1.2.2.2.4,0,.1,0,.3,0,.4s0,.3,0,.4c0,.1,0,.2-.2.3,0,0-.2.2-.3.2,0,0-.2.1-.3.1l.9,1.4h-.4l-.8-1.3h-1.1v1.3h-.4Zm.4-1.6h1.2c.1,0,.2,0,.3,0,0,0,.2-.1.2-.2,0,0,.1-.2.1-.3,0,0,0-.2,0-.3s0-.2,0-.3c0,0,0-.2-.2-.3,0,0-.1-.1-.2-.2,0,0-.2,0-.3,0h-1.1v1.6Z"/>
    <path class="cls-1" d="m53.8,40.2v-3.6h.4v3.3h2.1v.3h-2.4Z"/>
    <path class="cls-1" d="m59.1,39.9v.3h-2.4v-3.6h2.4v.3h-2v1.3h1.8v.3h-1.8v1.4h2.1Z"/>
    <path class="cls-1" d="m61.8,37.3c-.1-.1-.2-.2-.4-.3-.2,0-.4-.1-.6-.1-.3,0-.5,0-.7.2-.1.1-.2.3-.2.5s0,.2,0,.3c0,0,0,.1.2.2s.2,0,.3.1c.1,0,.3,0,.4.1.2,0,.4,0,.5.1.2,0,.3.1.4.2.1,0,.2.2.2.3,0,.1,0,.2,0,.4s0,.3,0,.4c0,.1-.2.2-.3.3-.1,0-.3.1-.4.2-.2,0-.3,0-.5,0-.6,0-1-.2-1.4-.5l.2-.3c0,0,.1.1.2.2,0,0,.2.1.3.2.1,0,.2,0,.4.1.1,0,.3,0,.4,0,.3,0,.5,0,.7-.2.2-.1.2-.3.2-.5s0-.2,0-.3c0,0-.1-.1-.2-.2,0,0-.2-.1-.3-.1-.1,0-.3,0-.5-.1-.2,0-.4,0-.5-.1-.1,0-.3-.1-.4-.2,0,0-.2-.2-.2-.3,0,0,0-.2,0-.4s0-.3,0-.4.2-.2.3-.3.2-.2.4-.2c.2,0,.3,0,.5,0s.5,0,.6.1c.2,0,.4.2.5.3l-.2.3Z"/>
    <path class="cls-1" d="m64.9,37.3c-.1-.1-.2-.2-.4-.3-.2,0-.4-.1-.6-.1-.3,0-.5,0-.7.2-.1.1-.2.3-.2.5s0,.2,0,.3c0,0,0,.1.2.2s.2,0,.3.1c.1,0,.3,0,.4.1.2,0,.4,0,.5.1.2,0,.3.1.4.2.1,0,.2.2.2.3,0,.1,0,.2,0,.4s0,.3,0,.4c0,.1-.2.2-.3.3-.1,0-.3.1-.4.2-.2,0-.3,0-.5,0-.6,0-1-.2-1.4-.5l.2-.3c0,0,.1.1.2.2,0,0,.2.1.3.2.1,0,.2,0,.4.1.1,0,.3,0,.4,0,.3,0,.5,0,.7-.2.2-.1.2-.3.2-.5s0-.2,0-.3c0,0-.1-.1-.2-.2,0,0-.2-.1-.3-.1-.1,0-.3,0-.5-.1-.2,0-.4,0-.5-.1-.1,0-.3-.1-.4-.2,0,0-.2-.2-.2-.3,0,0,0-.2,0-.4s0-.3,0-.4.2-.2.3-.3.2-.2.4-.2c.2,0,.3,0,.5,0s.5,0,.6.1c.2,0,.4.2.5.3l-.2.3Z"/>
    <path class="cls-1" d="m69.9,39.3c0,.1,0,.3,0,.4s-.1.2-.2.3c0,0-.2.1-.3.2-.1,0-.3,0-.4,0h-1.7v-3.6h1.7c.1,0,.2,0,.3,0,.1,0,.2.1.3.2s.1.2.2.3c0,.1,0,.2,0,.3,0,.2,0,.3-.1.5,0,.2-.2.3-.4.3.2,0,.4.2.5.3.1.2.2.4.2.6Zm-2.4-2.4v1.3h1.2c0,0,.2,0,.2,0s.1,0,.2-.1c0,0,0-.1.1-.2,0,0,0-.2,0-.3s0-.2,0-.3,0-.2-.1-.2c0,0-.1-.1-.2-.1,0,0-.1,0-.2,0h-1.3Zm2,2.3c0,0,0-.2,0-.3s0-.2-.1-.2-.1-.1-.2-.2-.2,0-.2,0h-1.4v1.4h1.3c0,0,.2,0,.3,0,0,0,.1,0,.2-.1,0,0,.1-.1.1-.2,0,0,0-.2,0-.3Z"/>
    <path class="cls-1" d="m72,39.9c.2,0,.4,0,.6-.1.2,0,.3-.2.4-.3,0-.1.2-.3.2-.5,0-.2,0-.4,0-.5v-1.8h.4v1.8c0,.2,0,.5,0,.7s-.1.4-.3.6c-.1.2-.3.3-.5.4-.2,0-.4.1-.7.1s-.5,0-.7-.2c-.2-.1-.4-.2-.5-.4s-.2-.4-.3-.6c0-.2,0-.4,0-.7v-1.8h.3v1.8c0,.2,0,.4,0,.6s.1.3.2.5c0,.1.2.2.4.3.1,0,.3.1.6.1Z"/>
    <path class="cls-1" d="m76.5,37.3c-.1-.1-.2-.2-.4-.3-.2,0-.4-.1-.6-.1-.3,0-.5,0-.7.2-.1.1-.2.3-.2.5s0,.2,0,.3,0,.1.2.2c0,0,.2,0,.3.1.1,0,.3,0,.4.1.2,0,.4,0,.5.1.2,0,.3.1.4.2s.2.2.2.3c0,.1,0,.2,0,.4s0,.3,0,.4c0,.1-.2.2-.3.3-.1,0-.3.1-.4.2-.2,0-.3,0-.5,0-.6,0-1-.2-1.4-.5l.2-.3c0,0,.1.1.2.2,0,0,.2.1.3.2.1,0,.2,0,.4.1.1,0,.3,0,.4,0,.3,0,.5,0,.7-.2.2-.1.2-.3.2-.5s0-.2,0-.3c0,0-.1-.1-.2-.2,0,0-.2-.1-.3-.1-.1,0-.3,0-.5-.1-.2,0-.4,0-.5-.1-.1,0-.3-.1-.4-.2,0,0-.2-.2-.2-.3,0,0,0-.2,0-.4s0-.3,0-.4.2-.2.3-.3c.1,0,.2-.2.4-.2.2,0,.3,0,.5,0s.5,0,.6.1c.2,0,.4.2.5.3l-.2.3Z"/>
    <path class="cls-1" d="m77.4,40.2v-3.6h.4v3.6h-.4Z"/>
    <path class="cls-1" d="m79.1,37.3v2.9h-.4v-3.6h.3l2.4,3v-3h.4v3.6h-.3l-2.3-2.9Z"/>
    <path class="cls-1" d="m85,39.9v.3h-2.4v-3.6h2.4v.3h-2v1.3h1.8v.3h-1.8v1.4h2.1Z"/>
    <path class="cls-1" d="m87.7,37.3c-.1-.1-.2-.2-.4-.3-.2,0-.4-.1-.6-.1-.3,0-.5,0-.7.2-.1.1-.2.3-.2.5s0,.2,0,.3,0,.1.2.2c0,0,.2,0,.3.1.1,0,.3,0,.4.1.2,0,.4,0,.5.1.2,0,.3.1.4.2s.2.2.2.3c0,.1,0,.2,0,.4s0,.3,0,.4c0,.1-.2.2-.3.3-.1,0-.3.1-.4.2-.2,0-.3,0-.5,0-.6,0-1-.2-1.4-.5l.2-.3c0,0,.1.1.2.2,0,0,.2.1.3.2.1,0,.2,0,.4.1.1,0,.3,0,.4,0,.3,0,.5,0,.7-.2.2-.1.2-.3.2-.5s0-.2,0-.3c0,0-.1-.1-.2-.2,0,0-.2-.1-.3-.1-.1,0-.3,0-.5-.1-.2,0-.4,0-.5-.1-.1,0-.3-.1-.4-.2,0,0-.2-.2-.2-.3,0,0,0-.2,0-.4s0-.3,0-.4.2-.2.3-.3c.1,0,.2-.2.4-.2.2,0,.3,0,.5,0s.5,0,.6.1c.2,0,.4.2.5.3l-.2.3Z"/>
    <path class="cls-1" d="m90.8,37.3c-.1-.1-.2-.2-.4-.3-.2,0-.4-.1-.6-.1-.3,0-.5,0-.7.2-.1.1-.2.3-.2.5s0,.2,0,.3,0,.1.2.2c0,0,.2,0,.3.1.1,0,.3,0,.4.1.2,0,.4,0,.5.1.2,0,.3.1.4.2s.2.2.2.3c0,.1,0,.2,0,.4s0,.3,0,.4c0,.1-.2.2-.3.3-.1,0-.3.1-.4.2-.2,0-.3,0-.5,0-.6,0-1-.2-1.4-.5l.2-.3c0,0,.1.1.2.2,0,0,.2.1.3.2.1,0,.2,0,.4.1.1,0,.3,0,.4,0,.3,0,.5,0,.7-.2.2-.1.2-.3.2-.5s0-.2,0-.3c0,0-.1-.1-.2-.2,0,0-.2-.1-.3-.1-.1,0-.3,0-.5-.1-.2,0-.4,0-.5-.1-.1,0-.3-.1-.4-.2,0,0-.2-.2-.2-.3,0,0,0-.2,0-.4s0-.3,0-.4.2-.2.3-.3c.1,0,.2-.2.4-.2.2,0,.3,0,.5,0s.5,0,.6.1c.2,0,.4.2.5.3l-.2.3Z"/>
  </g>
</svg>