<?xml version="1.0" encoding="UTF-8"?>
<svg id="Layer_1" data-name="Layer 1" xmlns="http://www.w3.org/2000/svg" xmlns:xlink="http://www.w3.org/1999/xlink" viewBox="0 0 25.79 25.66">
  <defs>
    <style>
      .cls-1 {
        fill: url(#linear-gradient);
      }

      .cls-1, .cls-2 {
        stroke-width: 0px;
      }

      .cls-2 {
        fill: #ff7900;
      }
    </style>
    <linearGradient id="linear-gradient" x1="3.04" y1="22.57" x2="17.84" y2="7.78" gradientUnits="userSpaceOnUse">
      <stop offset="0" stop-color="#ffc107"/>
      <stop offset=".68" stop-color="#ff9f07"/>
      <stop offset="1" stop-color="#ff9907"/>
    </linearGradient>
  </defs>
  <path class="cls-1" d="m10.35.91h.42c.6.22.84.66.79,1.29,0,.13.01.25,0,.38-.02.12-.04.25-.1.35-.75,1.12-1.24,2.33-1.35,3.68-.26,3.03.82,5.49,3.23,7.33,1.36,1.04,2.92,1.54,4.63,1.58.09,0,.23.05.26.12.44.93,1.08,1.71,1.84,2.4.51.46.66,1.06.49,1.72-.22.83-.91,1.31-1.84,1.31-5.44,0-10.87,0-16.31,0-.07,0-.14,0-.21,0-.8-.05-1.42-.53-1.64-1.27-.02-.07-.05-.15-.07-.22,0-.17,0-.35,0-.52.11-.46.34-.84.7-1.17,1.54-1.37,2.31-3.1,2.32-5.17,0-.94,0-1.89,0-2.83.03-2.91,1.91-5.54,4.65-6.51.45-.16.92-.26,1.39-.4,0-.26.02-.53,0-.81-.04-.62.21-1.05.81-1.25Z"/>
  <path class="cls-2" d="m10.17,25.01c-.49-.04-.98-.17-1.42-.41-1.02-.53-1.62-1.4-1.89-2.53h7.39c-.07.45-.25.86-.49,1.23-.77,1.2-2.2,1.82-3.58,1.7Z"/>
  <path class="cls-2" d="m25.07,5.44c-.03-.1-.06-.2-.09-.3-.78-2.43-2.98-4.2-5.51-4.48-.05,0-.1-.03-.16-.04h-1.09c-.06.01-.12.04-.18.04-3.07.32-5.55,2.85-5.81,5.93-.3,3.61,2.33,6.76,5.92,7.1,4.38.42,8.03-4.06,6.91-8.24Z"/>
</svg>