<?xml version="1.0" encoding="UTF-8"?>
<svg id="Layer_1" data-name="Layer 1" xmlns="http://www.w3.org/2000/svg" viewBox="0 0 104.6 48.8">
  <defs>
    <style>
      .cls-1 {
        fill: #fff;
        stroke-width: 0px;
      }
    </style>
  </defs>
  <g>
    <path class="cls-1" d="m7.9,27.1c-1.1,0-2.1-.2-3-.7s-1.7-1-2.3-1.7-1.1-1.5-1.5-2.5c-.4-.9-.5-1.9-.5-2.8s.2-2,.6-2.9c.4-.9.9-1.7,1.6-2.5.7-.7,1.4-1.3,2.4-1.7.9-.4,1.9-.6,3-.6s2.1.2,3,.7c.9.4,1.7,1,2.3,1.8.6.7,1.1,1.6,1.5,2.5s.5,1.9.5,2.8-.2,2-.6,2.9-.9,1.7-1.5,2.4c-.7.7-1.4,1.3-2.4,1.7-1,.4-2,.6-3.1.6h0Zm-4.4-7.7c0,.7.1,1.3.3,1.9s.5,1.2.9,1.6c.4.5.8.8,1.4,1.1.6.3,1.2.4,1.9.4s1.3-.1,1.9-.4,1-.7,1.4-1.2.7-1,.9-1.6c.2-.6.3-1.2.3-1.8s-.1-1.3-.3-1.9c-.2-.6-.5-1.2-.9-1.6-.4-.5-.8-.8-1.4-1.1-.6-.3-1.2-.4-1.8-.4s-1.3.1-1.9.4-1,.7-1.4,1.2-.7,1-.8,1.6c-.4.5-.5,1.2-.5,1.8h0Z"/>
    <path class="cls-1" d="m24,18.3c-.9,0-1.6.2-2.3.5s-1.2.8-1.5,1.4v6.8h-2.9v-11.2h2.6v2.4c.2-.4.4-.7.7-1,.3-.3.6-.6.9-.8.3-.2.6-.4,1-.5.3-.1.6-.2.9-.2h.6v2.6h0Z"/>
    <path class="cls-1" d="m29.7,27.2c-.8,0-1.5-.1-2.1-.4-.7-.3-1.2-.7-1.7-1.2s-.8-1.1-1.1-1.8-.4-1.6-.4-2.4,0-1.6.4-2.3.6-1.3,1-1.8,1-.9,1.6-1.2,1.3-.4,2-.4,1.6.2,2.2.6c.7.4,1.2.9,1.6,1.6v-6.4h2.9v12.3c0,.3,0,.5,0,.6s.3.2.5.2v2.4c-.5.1-.9.1-1.2.1-.5,0-.9-.1-1.3-.4-.3-.3-.5-.6-.6-1v-.7c-.5.7-1.1,1.3-1.8,1.6-.6.4-1.3.6-2.1.6h0Zm.7-2.4c.3,0,.6,0,.8-.1.3-.1.6-.2.8-.4.2-.2.5-.4.7-.6s.3-.5.4-.7v-2.7c0-.3-.3-.6-.5-.9s-.4-.5-.7-.7-.5-.3-.8-.5-.6-.2-.9-.2-.8.1-1.2.3c-.4.2-.7.4-.9.8-.3.3-.5.7-.6,1.1s-.2.8-.2,1.3,0,.9.2,1.3c.2.4.4.7.6,1,.3.3.6.5,1,.7.5.2.9.3,1.3.3h0Z"/>
    <path class="cls-1" d="m44,27.2c-.9,0-1.7-.2-2.4-.5s-1.3-.7-1.9-1.3c-.5-.5-.9-1.1-1.2-1.8-.3-.7-.4-1.4-.4-2.2s0-1.6.4-2.3c.3-.7.7-1.3,1.2-1.9s1.1-1,1.9-1.3c.7-.3,1.6-.5,2.5-.5s1.7.2,2.4.5,1.3.7,1.8,1.3c.5.5.9,1.1,1.2,1.8.3.7.4,1.4.4,2.2v.5c0,.1,0,.3,0,.4h-8.7c0,.4,0,.8.3,1.2.2.3.4.6.7.9s.6.4.9.6.7.2,1.1.2c.6,0,1.1-.1,1.6-.4s.8-.6,1-1.1l2.5.7c-.4.9-1.1,1.6-2,2.1-.8.6-1.9.9-3.2.9h0Zm3-6.8c0-.8-.4-1.5-.9-2-.6-.5-1.2-.8-2-.8s-.7.1-1.1.2c-.3.1-.6.3-.9.6-.3.2-.5.5-.6.9s-.3.7-.3,1.1h5.8Z"/>
    <path class="cls-1" d="m58.3,18.3c-.9,0-1.6.2-2.3.5-.7.3-1.2.8-1.5,1.4v6.8h-2.9v-11.2h2.6v2.4c.2-.4.4-.7.7-1,.3-.3.6-.6.9-.8.3-.2.6-.4,1-.5s.6-.2.9-.2h.6v2.6h0Z"/>
  </g>
  <g>
    <path class="cls-1" d="m66.1,11.9h.9l6.4,15.2h-1.2l-2.1-5h-7.3l-2.1,5h-1.2l6.6-15.2h0Zm3.8,9.3l-3.3-8-3.4,8h6.7Z"/>
    <path class="cls-1" d="m80.9,27.3c-1,0-1.8-.3-2.6-.8-.7-.5-1.4-1.1-1.8-1.8v7h-1.1v-15.8h1v2.2c.5-.7,1.1-1.3,1.8-1.7.7-.4,1.6-.7,2.4-.7s1.5.2,2.1.5c.7.3,1.2.8,1.7,1.3s.8,1.1,1.1,1.8c.3.7.4,1.4.4,2.1s0,1.5-.4,2.2c-.2.7-.6,1.3-1,1.8s-1,.9-1.6,1.3c-.5.4-1.2.6-2,.6h0Zm-.2-1c.6,0,1.2-.1,1.8-.4.5-.3,1-.6,1.3-1.1.4-.4.7-1,.9-1.5.2-.6.3-1.2.3-1.8s0-1.3-.3-1.8c-.2-.6-.5-1.1-1-1.5-.4-.4-.9-.8-1.4-1.1-.5-.3-1.1-.4-1.7-.4s-.8.1-1.2.2c-.4.2-.8.4-1.2.7s-.7.6-1,1-.4.7-.5,1.1v3.7c.2.4.4.8.7,1.2.3.4.6.7,1,.9.4.3.7.5,1.2.6.2,0,.6.2,1.1.2h0Z"/>
    <path class="cls-1" d="m94,27.3c-1,0-1.8-.3-2.6-.8-.7-.5-1.4-1.1-1.8-1.8v7h-1.1v-15.8h1v2.2c.5-.7,1.1-1.3,1.8-1.7.7-.4,1.6-.7,2.4-.7s1.5.2,2.1.5c.7.3,1.2.8,1.7,1.3s.8,1.1,1.1,1.8c.3.7.4,1.4.4,2.1s0,1.5-.4,2.2c-.2.7-.6,1.3-1,1.8s-1,.9-1.6,1.3c-.5.4-1.2.6-2,.6h0Zm-.2-1c.6,0,1.2-.1,1.8-.4.5-.3,1-.6,1.3-1.1.4-.4.7-1,.9-1.5.2-.6.3-1.2.3-1.8s0-1.3-.3-1.8c-.2-.6-.5-1.1-1-1.5-.4-.4-.9-.8-1.4-1.1-.5-.3-1.1-.4-1.7-.4s-.8.1-1.2.2c-.4.2-.8.4-1.2.7s-.7.6-1,1-.4.7-.5,1.1v3.7c.2.4.4.8.7,1.2.3.4.6.7,1,.9.4.3.7.5,1.2.6.2,0,.6.2,1.1.2h0Z"/>
  </g>
  <rect class="cls-1" x="49.4" y="5.1" width="1.2" height="5.2"/>
  <rect class="cls-1" x="49.3" y="38.3" width="1.2" height="5.2"/>
  <rect class="cls-1" x="76" y="17.9" width="1.2" height="54.8" transform="translate(24.9 117.8) rotate(-85.1)"/>
  <polygon class="cls-1" points="104 47.9 102.8 47.9 102.8 .8 104 .7 104 47.9"/>
  <polygon class="cls-1" points="49.4 6.3 49.3 5.1 104 .7 104 1.9 49.4 6.3"/>
  <g>
    <path class="cls-1" d="m26.6,35.7v1.1q0,0,0,.2t-.2,0-.2,0,0-.2v-3.2c0,0,0-.2,0-.2,0,0,.2,0,.3,0h.8c.2,0,.4,0,.6,0,.2,0,.3.2.4.3,0,0,.2.2.2.4s0,.3,0,.5,0,.4,0,.5,0,.3-.3.4c0,0-.2.2-.4.2-.2,0-.3,0-.5,0h-.6Zm0-.6h.5c.5,0,.7-.2.7-.7v-.2c0,0,0,0,0-.2q0,0-.2,0c0,0-.2,0-.3,0h-.5v1.3h-.1Z"/>
    <path class="cls-1" d="m29.1,36.9c0,0,0,0,0,0,0,0,0,0-.2,0s0,0-.2,0,0,0,0-.2h0c0,0,1-3.3,1-3.3,0,0,0-.2,0-.2q0,0,.2,0c0,0,.2,0,.2,0q0,0,0,.2l1,3.2h0q0,.2,0,.3t-.2,0c0,0-.2,0-.2,0s0,0,0-.2l-.2-.5h-1.2v.6h0Zm.8-2.8c0,.3,0,.6-.2.8,0,.3-.2.5-.2.8h.9c0-.3-.2-.5-.2-.8-.2-.3-.3-.5-.3-.8h0Z"/>
    <path class="cls-1" d="m32.3,35.7v1.1q0,0,0,.2t-.2,0-.2,0,0-.2v-3.2c0,0,0-.2,0-.2q0,0,.2,0h.8c.2,0,.4,0,.6,0,.2,0,.3.2.4.3,0,0,.2.2.2.4s0,.3,0,.5,0,.4,0,.5,0,.3-.3.4c0,0-.2.2-.4.2-.2,0-.3,0-.5,0h-.5Zm0-.6h.5c.5,0,.7-.2.7-.7v-.2c0,0,0,0,0-.2q0,0-.2,0c-.1,0-.2,0-.3,0h-.5v1.3h-.1Z"/>
    <path class="cls-1" d="m36.8,36.7q0,0,0,.2t-.2,0h-1.4c0,0-.2,0-.3,0,0,0,0,0,0-.2v-3.1q0,0,0-.2,0,0,.2,0h1.4q0,0,.2,0,0,0,0,.2,0,0,0,.2c0,0,0,0-.2,0h-1.2v1h1.2q0,0,.2,0,0,0,0,.2,0,0,0,.2,0,0-.2,0h-1.1v1.1h1.2q0,0,.2,0c0,0,0,0,0,0h0Z"/>
    <path class="cls-1" d="m39.8,34.4c0,.3,0,.5-.2.7,0,.2-.3.3-.6.3,0,.2.3.4.4.6,0,.2.3.4.4.6h0v.2q0,0,0,.2t-.2,0c0,0-.2,0-.2,0l-.9-1.6h-.5v1.4q0,0,0,.2,0,0-.2,0,0,0-.2,0,0,0,0-.2v-3.2c0,0,0-.2,0-.2q0,0,.2,0h.9c.2,0,.4,0,.6,0,.2,0,.3,0,.4.3,0,0,.2.2.2.4,0,0,0,.1,0,.3h0Zm-.6,0v-.2c0,0,0,0,0-.2s0,0-.2,0h-.9v1.1h.7c.2,0,.4,0,.5,0-.1-.2,0-.4,0-.5h0Z"/>
    <path class="cls-1" d="m42.5,36.8q0,0,0,.2t-.2,0h-1.5c0,0-.2,0-.2,0,0-.1,0-.2,0-.3v-3.2q0,0,0-.2,0,0,.2,0,.1,0,.2,0,0,0,0,.2v3h1.2q0,0,.2,0c0,0,0,.1,0,.2h0Z"/>
    <path class="cls-1" d="m45,36.7q0,0,0,.2t-.2,0h-1.4c0,0-.2,0-.3,0,0,0,0,0,0-.2v-3.1q0,0,0-.2,0-.1.2,0h1.4q0,0,.2,0,0,0,0,.2,0,0,0,.2c0,0,0,0-.2,0h-1.2v1h1.1q0,0,.2,0,0,0,0,.2,0,0,0,.2,0,0-.2,0h-1.1v1.1h1.2q0,0,.2,0c.2,0,.2,0,.2,0h0Z"/>
    <path class="cls-1" d="m47.1,36c0,0,0-.2,0-.3s0,0-.2,0-.2,0-.3,0-.2,0-.3,0-.2,0-.3,0-.2,0-.3-.2c0,0,0-.2-.2-.3,0,0,0-.2,0-.4,0-.3,0-.6.3-.8s.5-.3.8-.3h.3c0,0,.2,0,.3,0s.2,0,.3,0,0,0,0,.2,0,0,0,.2c0,0,0,0-.2,0h-.8q-.1,0-.2,0c0,0,0,0,0,.2v.4q0,.1,0,0c0,0,0,0,0,0h0c0,0,.2,0,.3,0s.2,0,.3,0,.2,0,.3,0,.2,0,.3.2c0,0,0,.2.2.3,0,0,0,.2,0,.4s0,.3,0,.5c0,0,0,.3-.3.4,0,0-.2.2-.4.2s-.3,0-.5,0h-.3c0,0-.2,0-.3,0,0,0-.2,0-.3,0q0,0,0-.2t0-.2.2,0h0s0,0,.2,0,0,0,.2,0h.3c.2,0,.4,0,.5,0,0-.4,0-.5,0-.7h0Z"/>
    <path class="cls-1" d="m49.8,36c0,0,0-.2,0-.3s0,0-.2,0-.2,0-.3,0-.2,0-.3,0-.2,0-.3,0-.2-.2-.2-.3c0,0,0-.2-.2-.3,0,0,0-.2,0-.4,0-.3,0-.6.3-.8s.5-.3.8-.3h.3c0,0,.2,0,.3,0s.2,0,.3,0,0,0,0,.2,0,0,0,.2c0,0,0,0-.2,0h-.8q-.1,0-.2,0c0,0,0,0,0,.2v.4q0,.1,0,0c0,0,0,0,0,0h0c0,0,.2,0,.3,0s.2,0,.3,0,.2,0,.3,0,.2,0,.3.2c0,0,0,.2.2.3,0,0,0,.2,0,.4s0,.3,0,.5c0,0,0,.3-.3.4,0,0-.2.2-.4.2s-.3,0-.5,0h-.3c0,0-.2,0-.3,0,0,0-.2,0-.3,0q0,0,0-.2t0-.2.2,0h0s0,0,.2,0,0,0,.2,0h.3c.2,0,.4,0,.5,0,0-.3,0-.4,0-.6h0Z"/>
    <path class="cls-1" d="m52.9,37c0,0-.2,0-.2,0q0,0,0-.2v-3.1c0,0,0-.2,0-.2s0,0,.2,0h.9c.2,0,.3,0,.5,0s.3,0,.4.2c0,0,.2.2.2.3s0,.2,0,.4v.3c0,0,0,.2,0,.2q0,0-.2.2c0,.1-.2,0-.2,0,0,0,.2,0,.3,0s.2,0,.2.2,0,0,.2.2c0,0,0,.2,0,.3s0,.3,0,.4c0,0,0,.2-.2.3s-.2.2-.4.2c0,0-.3,0-.5,0h-1.2Zm.9-2.2h.2c0,0,0,0,.2,0s0,0,0-.2v-.4q0,0,0,0s0,0-.2,0h-.9v1h.7Zm-.7.6v1.1h.6c.2,0,.4,0,.5,0s.2-.2.2-.4,0-.3-.2-.4c0,0-.3,0-.5,0,.1,0-.6,0-.6,0Z"/>
    <path class="cls-1" d="m57.9,36.3c0,.2,0,.3-.2.4,0,0-.2.2-.4.3-.2,0-.3,0-.5,0s-.4,0-.5,0c-.2,0-.3-.2-.4-.3s-.2-.3-.2-.4c0-.2,0-.3,0-.5v-2.3q0,0,0-.2t.2,0,.2,0,0,.2v2.3c0,.2,0,.4.2.5s.3.2.5.2.4,0,.5-.2c0,0,.2-.3.2-.5v-2.3q0,0,0-.2t.2,0c0,0,.2,0,.2,0q0,0,0,.2v2.3c-.2.2-.2.3-.3.5h0Z"/>
    <path class="cls-1" d="m60.2,36c0,0,0-.2,0-.3s0,0-.2,0-.2,0-.3,0-.2,0-.3,0-.2,0-.3,0-.2,0-.3-.2c0,0,0-.2-.2-.3,0,0,0-.2,0-.4,0-.3,0-.6.3-.8.2-.2.5-.3.8-.3h.3c0,0,.2,0,.3,0s.2,0,.3,0q0,0,0,.2t0,.2c0,0,0,0-.2,0h-.8q0,0-.2,0c0,0,0,0,0,.2v.4s0,0,0,0,0,0,0,0h0c0,0,.2,0,.3,0s.2,0,.3,0,.2,0,.3,0,.2,0,.3.2c0,0,0,.2.2.3,0,0,0,.2,0,.4s0,.3,0,.5c0,0,0,.3-.3.4,0,0-.2.2-.4.2s-.3,0-.5,0h-.3c-.1,0-.2,0-.3,0s-.2,0-.3,0q0,0,0-.2,0,0,0-.2c0,0,0,0,.2,0h0s0,0,.2,0q0,0,.2,0c0,0,.2,0,.3,0,.2,0,.4,0,.5,0,0-.4,0-.5,0-.7h0Z"/>
    <path class="cls-1" d="m61.4,33.5q0,0,0-.2t.2,0,.2,0,0,.2v3.3q0,0,0,.2,0,0-.2,0,0,0-.2,0,0-.1,0-.2v-3.3Z"/>
    <path class="cls-1" d="m64.9,37.1h-.2c0,0,0,0,0,0l-1.4-2.5v2.4q0,0,0,.2t-.2,0-.2,0,0-.2v-3.3c0,0,0-.2,0-.2q0,0,.2,0h.2c0,0,0,0,0,0,0,0,0,.2.2.3s.2.3.2.4c0,.2.2.3.3.5,0,.2.2.3.3.5,0,.2.2.3.2.4,0,0,0,.2.2.3v-2.4q0,0,0-.2,0,0,.2,0,0,0,.2,0,0,0,0,.2v3.3q0,0,0,.2c0,.2,0,.2-.2.2h0Z"/>
    <path class="cls-1" d="m68.1,36.7q0,0,0,.2t-.2,0h-1.4c0,0-.2,0-.3,0,0,0,0,0,0-.2v-3.1q0,0,0-.2,0,0,.2,0h1.4q0,0,.2,0,0,0,0,.2,0,0,0,.2c0,0,0,0-.2,0h-1.2v1h1.1q0,0,.2,0,0,0,0,.2,0,0,0,.2,0,.1-.2,0h-1.1v1.1h1.2q0,0,.2,0c0,0,.2,0,.2,0h0Z"/>
    <path class="cls-1" d="m70.2,36c0,0,0-.2,0-.3s0,0-.2,0-.2,0-.3,0-.2,0-.3,0-.2,0-.3,0-.2,0-.3-.2c0,0,0-.2-.2-.3,0,0,0-.2,0-.4,0-.3,0-.6.3-.8.2-.2.5-.3.8-.3h.3c0,0,.2,0,.3,0,0,0,.2,0,.3,0s0,0,0,.2,0,0,0,.2c0,0,0,0-.2,0h-.8q0,0-.2,0c0,0,0,0,0,.2v.4s0,0,0,0,0,0,0,0h0c0,0,.2,0,.3,0s.2,0,.3,0,.2,0,.3,0,.2,0,.3.2c0,0,0,.2.2.3,0,0,0,.2,0,.4s0,.3,0,.5c0,0,0,.3-.3.4,0,0-.2.2-.4.2s-.3,0-.5,0h-.3c-.1,0-.2,0-.3,0s-.2,0-.3,0q0,0,0-.2t0-.2.2,0h0s0,0,.2,0q0,0,.2,0c0,0,.2,0,.3,0,.2,0,.4,0,.5,0,0-.4,0-.5,0-.7h0Z"/>
    <path class="cls-1" d="m72.9,36c0,0,0-.2,0-.3s0,0-.2,0-.2,0-.3,0-.2,0-.3,0-.2,0-.3,0-.2,0-.3-.2c0,0,0-.2-.2-.3,0,0,0-.2,0-.4,0-.3,0-.6.3-.8.2-.2.5-.3.8-.3h.3c0,0,.2,0,.3,0,0,0,.2,0,.3,0q0,0,0,.2t0,.2c0,0,0,0-.2,0h-.8q0,0-.2,0c0,0,0,0,0,.2v.4s0,0,0,0,0,0,0,0h0c0,0,.2,0,.3,0s.2,0,.3,0,.2,0,.3,0,.2,0,.3.2c0,0,0,.2.2.3,0,0,0,.2,0,.4s0,.3,0,.5c0,0,0,.3-.3.4,0,0-.2.2-.4.2s-.3,0-.5,0h-.3c0,0-.2,0-.3,0,0,0-.2,0-.3,0q0,0,0-.2,0,0,0-.2c0,0,0,0,.2,0h0s0,0,.2,0q0,0,.2,0h.3c.2,0,.4,0,.5,0-.1-.4,0-.5,0-.7h0Z"/>
  </g>
</svg>