<?xml version="1.0" encoding="UTF-8"?>
<svg id="Layer_1" data-name="Layer 1" xmlns="http://www.w3.org/2000/svg" viewBox="0 0 150 150">
  <defs>
    <style>
      .cls-1 {
        fill: #c51724;
      }

      .cls-1, .cls-2 {
        stroke-width: 0px;
      }
    </style>
  </defs>
  <g>
    <path class="cls-2" d="m57.1,106.3c0,1.1-.2,2.1-.5,3s-.8,1.7-1.4,2.3-1.4,1.1-2.2,1.5c-.9.4-1.8.5-2.9.5s-2-.2-2.9-.5c-.9-.4-1.6-.9-2.2-1.5-.6-.6-1.1-1.4-1.4-2.3-.3-.9-.5-1.9-.5-3s.2-2.1.5-3c.3-.9.8-1.7,1.4-2.3.6-.7,1.4-1.2,2.2-1.5.9-.4,1.8-.5,2.9-.5s2,.2,2.9.5c.9.4,1.6.9,2.2,1.5.6.6,1.1,1.4,1.4,2.3.3.9.5,1.9.5,3Zm-2,0c0-.9-.1-1.7-.4-2.4-.2-.7-.6-1.3-1-1.8-.4-.5-1-.9-1.6-1.1-.6-.3-1.3-.4-2.1-.4s-1.5.1-2.1.4c-.6.3-1.2.6-1.6,1.1-.4.5-.8,1.1-1,1.8-.2.7-.4,1.5-.4,2.4s.1,1.7.4,2.4c.2.7.6,1.3,1,1.8.4.5,1,.9,1.6,1.1.6.3,1.3.4,2.1.4s1.5-.1,2.1-.4c.6-.3,1.2-.6,1.6-1.1.4-.5.8-1.1,1-1.8.2-.7.4-1.5.4-2.4Z"/>
    <path class="cls-2" d="m70.5,113.5h-1.7c-.4,0-.6-.1-.8-.4l-3.7-5.1c-.1-.2-.2-.3-.4-.3-.1,0-.3-.1-.6-.1h-1.5v6h-1.9v-14.3h4c.9,0,1.7,0,2.4.3s1.2.4,1.6.8c.4.3.7.8,1,1.3s.3,1,.3,1.6,0,1-.2,1.4c-.2.4-.4.8-.7,1.2-.3.4-.7.6-1.1.9-.4.2-.9.4-1.5.6.2.1.5.3.6.6l4.2,5.7Zm-6.6-7.4c.6,0,1.1,0,1.5-.2.4-.1.8-.3,1.1-.6.3-.2.5-.5.7-.9.1-.3.2-.7.2-1.2,0-.9-.3-1.5-.8-1.9-.6-.4-1.4-.7-2.5-.7h-2.1v5.4h2Z"/>
    <path class="cls-2" d="m84.9,106.3c0,1.1-.2,2.1-.5,2.9-.3.9-.8,1.6-1.4,2.3-.6.6-1.4,1.1-2.2,1.5-.9.3-1.8.5-2.9.5h-5.3v-14.3h5.3c1.1,0,2,.2,2.9.5.9.3,1.6.8,2.2,1.5s1.1,1.4,1.4,2.3c.3.9.5,1.9.5,2.9Zm-2,0c0-.9-.1-1.7-.4-2.4-.2-.7-.6-1.3-1-1.8-.4-.5-1-.8-1.6-1.1-.6-.3-1.3-.4-2.1-.4h-3.4v11.2h3.4c.8,0,1.5-.1,2.1-.4.6-.3,1.2-.6,1.6-1.1.4-.5.8-1.1,1-1.8.2-.7.4-1.5.4-2.4Z"/>
    <path class="cls-2" d="m96.5,111.9v1.6h-8.8v-14.3h8.8v1.6h-6.9v4.8h5.6v1.5h-5.6v4.9h6.9Z"/>
    <path class="cls-2" d="m109.8,113.5h-1.7c-.4,0-.6-.1-.8-.4l-3.7-5.1c-.1-.2-.2-.3-.4-.3-.1,0-.3-.1-.6-.1h-1.5v6h-1.9v-14.3h4c.9,0,1.7,0,2.4.3s1.2.4,1.6.8.7.8,1,1.3c.2.5.3,1,.3,1.6s0,1-.2,1.4c-.2.4-.4.8-.7,1.2-.3.4-.7.6-1.1.9-.4.2-.9.4-1.5.6.2.1.5.3.6.6l4.2,5.7Zm-6.6-7.4c.6,0,1.1,0,1.5-.2s.8-.3,1.1-.6.5-.5.7-.9c.1-.3.2-.7.2-1.2,0-.9-.3-1.5-.8-1.9-.6-.4-1.4-.7-2.5-.7h-2.1v5.4h2Z"/>
  </g>
  <g>
    <path class="cls-2" d="m51.5,130.5c0,1.1-.2,2-.5,2.9-.3.9-.8,1.6-1.4,2.3-.6.6-1.4,1.1-2.2,1.5-.9.3-1.8.5-2.9.5h-5.4v-14.3h5.4c1.1,0,2,.2,2.9.5.9.3,1.6.8,2.2,1.5.6.6,1.1,1.4,1.4,2.3.3.9.5,1.9.5,2.9Zm-2,0c0-.9-.1-1.7-.4-2.4-.2-.7-.6-1.3-1-1.8-.4-.5-1-.8-1.6-1.1-.6-.3-1.3-.4-2.1-.4h-3.4v11.2h3.4c.8,0,1.5-.1,2.1-.4.6-.3,1.2-.6,1.6-1.1s.8-1.1,1-1.8c.2-.7.4-1.5.4-2.4Z"/>
    <path class="cls-2" d="m63.1,136.1v1.6h-8.8v-14.3h8.8v1.6h-6.9v4.8h5.6v1.5h-5.6v4.9h6.9Z"/>
    <path class="cls-2" d="m75.5,125h-4.6v12.7h-1.9v-12.7h-4.7v-1.6h11.2v1.6Z"/>
    <path class="cls-2" d="m87.9,137.7h-1.5c-.2,0-.3,0-.4-.1-.1,0-.2-.2-.2-.3l-1.3-3.5h-6.4l-1.3,3.5c0,.1-.1.2-.2.3-.1,0-.3.1-.4.1h-1.5l5.7-14.3h2l5.7,14.3Zm-4-5.3l-2.2-5.8c0-.2-.1-.4-.2-.6,0-.2-.1-.5-.2-.7-.1.5-.3,1-.4,1.4l-2.2,5.8h5.4Z"/>
    <path class="cls-2" d="m91.7,137.7h-1.9v-14.3h1.9v14.3Z"/>
    <path class="cls-2" d="m103.5,136.1v1.6h-8.1v-14.3h1.9v12.7h6.2Z"/>
    <path class="cls-2" d="m113,125.6c0,0-.1.2-.2.2s-.2,0-.3,0-.2,0-.4-.2-.3-.2-.6-.4c-.2-.1-.5-.3-.8-.4-.3-.1-.7-.2-1.2-.2s-.8,0-1.1.2c-.3.1-.6.3-.8.5-.2.2-.4.4-.5.7-.1.3-.2.6-.2.9s0,.7.3,1c.2.3.5.5.8.7.3.2.7.3,1.1.5s.8.3,1.3.4c.4.1.9.3,1.3.5.4.2.8.4,1.1.7s.6.6.8,1c.2.4.3.9.3,1.5s-.1,1.2-.3,1.8c-.2.5-.5,1-.9,1.4-.4.4-.9.7-1.5,1-.6.2-1.3.4-2,.4s-1.8-.2-2.5-.5c-.8-.3-1.4-.8-1.9-1.4l.6-.9c0,0,.1-.1.2-.2,0,0,.2,0,.3,0s.2,0,.3.1.2.2.4.3c.1.1.3.2.5.3.2.1.4.2.6.3.2.1.5.2.8.3.3,0,.6.1,1,.1s.9,0,1.2-.2c.4-.1.7-.3.9-.5.2-.2.4-.5.6-.8.1-.3.2-.7.2-1.1s0-.8-.3-1.1-.5-.5-.8-.7c-.3-.2-.7-.3-1.1-.5-.4-.1-.8-.3-1.3-.4-.4-.1-.8-.3-1.3-.5-.4-.2-.8-.4-1.1-.7-.3-.3-.6-.6-.8-1.1-.2-.4-.3-1-.3-1.6s0-1,.3-1.5c.2-.5.5-.9.9-1.3.4-.4.8-.7,1.4-.9.6-.2,1.2-.3,1.9-.3s1.5.1,2.2.4c.7.3,1.2.6,1.7,1.1l-.5.9Z"/>
  </g>
  <g>
    <path class="cls-1" d="m50.5,13c0-1,0-1.9,0-2.8,0-.8.4-1.2,1-1.2.7,0,1,.5.9,1.2,0,.9,0,1.8,0,2.7h8.2c0-.8,0-1.6,0-2.4,0-1.1.3-1.5,1-1.5.6,0,.9.5.9,1.5,0,.8,0,1.6,0,2.4h8c0-.9,0-1.8,0-2.7,0-.8.4-1.2,1-1.2.6,0,.9.5.9,1.2,0,.9,0,1.8,0,2.7h8.2c0-.9,0-1.8,0-2.7,0-.8.4-1.2,1-1.2.6,0,.9.5,1,1.2,0,.9,0,1.8,0,2.7,2.1,0,4.1,0,6.2,0,2.9,0,5.2,2.1,5.7,4.9,0,.4,0,.9,0,1.4,0,11.5,0,23,0,34.5v1.1c.3-.2.6-.3.8-.5,3-2,6-4,9.1-6,3.1-2,7-.4,7.7,3.2.4,2-.4,4-2.4,5.3-3.6,2.4-7.3,4.8-11,7.2-1.3.8-2.5,1.7-3.8,2.5-.4.3-.6.5-.6,1,0,3,0,5.9,0,8.9,0,3.7-2.5,6.2-6.2,6.2-14.2,0-28.4,0-42.7,0-3.7,0-6.2-2.5-6.2-6.1,0-19.2,0-38.4,0-57.6,0-3.6,2.4-6,6-6,1.6,0,3.2,0,4.9,0Zm0,1.9c-1.8,0-3.5,0-5.2,0-2.2,0-3.9,1.6-3.9,3.9,0,19.3,0,38.6,0,58,0,2.3,1.7,4,4,4,14.4,0,28.7,0,43.1,0,2.4,0,4.1-1.7,4.1-4.1,0-2.5,0-5,0-7.6,0-.2,0-.5,0-.8-.3.2-.5.3-.7.4-2.6,1.7-5.2,3.4-7.8,5.1-.3.2-.8.4-1.2.4-2.6.1-5.1.2-7.7.2-1,0-1.4-.7-1-1.6.3-.6.6-1.2,1-1.9-3.9,0-7.6,0-11.3,0-.3,0-.6,0-.8,0-.3-.2-.8-.6-.7-.9,0-.3.4-.7.8-1,.1-.1.5,0,.7,0,3.8,0,7.6,0,11.3,0,1.2,0,1.3,0,1.6-1.3h-.9c-4,0-8,0-12.1,0-.2,0-.6,0-.7,0-.3-.3-.7-.6-.8-1,0-.3.4-.6.7-.9.2-.1.5,0,.7,0,4.5,0,9,0,13.5,0,.4,0,.8-.1,1.2-.3,1.6-1,3.2-2.1,4.8-3.2.5-.4,1.1-.4,1.5.2.3.6.1,1-.4,1.4-.2.2-.4.3-.7.4-1.2.8-2.5,1.6-3.8,2.5.4.6.8,1.2,1.2,1.8,8.1-5.3,16.2-10.6,24.3-16-.4-.6-.8-1.2-1.2-1.8-.3.2-.5.3-.7.4-4.5,2.9-8.9,5.9-13.4,8.8-.7.5-1.3.4-1.6-.1-.4-.7,0-1.1.5-1.5,1-.6,1.9-1.2,2.9-1.9.2-.2.5-.6.5-.9,0-12.3,0-24.6,0-36.9,0-2-1.4-3.7-3.3-3.8-2.2-.2-4.4,0-6.7,0,0,.3,0,.6,0,.9,0,.8,0,1.4,1,1.9,1.6.8,2.1,2.8,1.4,4.4-.7,1.6-2.4,2.5-4.2,2.1-1.6-.4-2.6-1.6-2.8-3.2-.2-1.5.7-2.9,2.1-3.6.2-.1.5-.3.5-.6,0-.6,0-1.3,0-1.9h-8.2c0,.4,0,.7,0,1,0,.8,0,1.3.9,1.7,1.6.8,2.2,2.7,1.5,4.4-.6,1.7-2.3,2.6-4.1,2.3-1.6-.3-2.7-1.5-2.9-3-.2-1.6.6-3,2-3.8.2-.1.5-.3.6-.5,0-.7,0-1.3,0-2h-8c0,.3,0,.6,0,.9,0,.8,0,1.4,1,1.9,1.5.8,2.1,2.8,1.4,4.4-.7,1.6-2.5,2.5-4.2,2.1-1.5-.4-2.6-1.6-2.8-3.2-.2-1.5.7-2.9,2.1-3.6.2-.1.6-.4.6-.6,0-.6,0-1.3,0-1.9h-8.2c0,.6,0,1.1,0,1.6,0,.5.1.7.6.9,1.6.7,2.4,2.3,2,4-.3,1.6-1.7,2.8-3.3,3-1.6.1-3.1-.9-3.7-2.5-.5-1.5,0-3.3,1.5-4.1.9-.5,1.1-1.1,1-1.9,0-.3,0-.5,0-.9Zm31.9,55.3c.4.6.8,1.2,1.2,1.8,8.1-5.3,16.2-10.7,24.3-16-.4-.6-.8-1.2-1.2-1.8-8.1,5.3-16.2,10.6-24.3,16Zm27.1-15.3c1.2-1.3,1.3-2.9.3-4.1-.9-1.1-2.3-1.5-3.6-.9,1.1,1.7,2.2,3.3,3.3,5Zm-27.9,17.6c-.9-1.4-1.8-2.7-2.6-4-.7,1.4-1.4,2.7-2.1,4h4.8Zm-18.3-51.7c0-1-.7-1.7-1.7-1.7-1,0-1.7.8-1.7,1.7,0,.9.8,1.7,1.7,1.7.9,0,1.7-.8,1.7-1.7Zm20.1,0c0-1-.7-1.7-1.6-1.7-1,0-1.8.7-1.8,1.7,0,.9.8,1.7,1.7,1.7.9,0,1.7-.8,1.7-1.7Zm-33.6-.1c0,.9.6,1.7,1.6,1.8.9,0,1.8-.7,1.8-1.6,0-.9-.7-1.7-1.5-1.7-1,0-1.8.6-1.9,1.6Zm20.1.1c0,.9.7,1.7,1.7,1.7.9,0,1.7-.8,1.7-1.7,0-.9-.8-1.7-1.7-1.7-1,0-1.7.7-1.7,1.7Z"/>
    <path class="cls-2" d="m52.2,43c-3.6,0-6.6-2.9-6.6-6.5,0-3.6,2.9-6.6,6.6-6.5,3.6,0,6.5,2.9,6.6,6.5,0,3.6-2.9,6.5-6.6,6.5Zm0-1.9c2.6,0,4.7-2.1,4.6-4.7,0-2.5-2.1-4.6-4.7-4.6-2.5,0-4.6,2.1-4.6,4.6,0,2.6,2.1,4.6,4.6,4.6Z"/>
    <path class="cls-2" d="m52.2,59.1c-3.6,0-6.6-2.9-6.6-6.5,0-3.6,2.9-6.6,6.5-6.6,3.6,0,6.6,2.9,6.6,6.5,0,3.6-2.9,6.5-6.6,6.5Zm0-1.9c2.6,0,4.7-2.1,4.7-4.6,0-2.5-2.1-4.6-4.6-4.6-2.5,0-4.6,2.1-4.6,4.6,0,2.5,2,4.6,4.6,4.6Z"/>
    <path class="cls-2" d="m52.2,75.2c-3.6,0-6.6-2.9-6.6-6.5,0-3.6,2.9-6.6,6.5-6.6,3.6,0,6.6,2.9,6.6,6.5,0,3.6-2.9,6.6-6.5,6.6Zm0-1.9c2.6,0,4.7-2.1,4.6-4.7,0-2.5-2.1-4.6-4.7-4.6-2.5,0-4.6,2.1-4.6,4.6,0,2.6,2.1,4.6,4.6,4.6Z"/>
    <path class="cls-1" d="m75.5,35.6c-3.8,0-7.7,0-11.5,0-.2,0-.6,0-.7,0-.3-.2-.8-.6-.7-.9,0-.3.4-.7.8-1,.1-.1.5,0,.7,0,7.7,0,15.3,0,23,0,.2,0,.6,0,.7,0,.3.3.8.6.8.9,0,.3-.5.7-.8.9-.2.1-.5,0-.7,0-3.8,0-7.7,0-11.5,0Z"/>
    <path class="cls-1" d="m75.4,51.7c-3.8,0-7.6,0-11.4,0-.2,0-.6,0-.7,0-.3-.2-.8-.6-.7-.9,0-.3.4-.7.8-1,.1-.1.5,0,.7,0,7.7,0,15.3,0,23,0,.2,0,.6,0,.7,0,.3.3.8.6.8.9,0,.3-.5.7-.8.9-.2.1-.5,0-.7,0-3.9,0-7.7,0-11.6,0Z"/>
    <path class="cls-1" d="m69.9,36.9c2,0,4,0,6,0,.9,0,1.3.3,1.3,1,0,.6-.4,1-1.3,1-4.1,0-8.1,0-12.2,0-.8,0-1.3-.4-1.3-1,0-.7.6-.9,1.3-.9,2.1,0,4.1,0,6.2,0Z"/>
    <path class="cls-1" d="m69.8,54.9c-2,0-4,0-6,0-.9,0-1.3-.3-1.3-.9,0-.6.5-1,1.3-1,4.1,0,8.1,0,12.2,0,.9,0,1.3.3,1.3,1,0,.6-.4.9-1.3.9-2,0-4.1,0-6.1,0Z"/>
    <path class="cls-2" d="m45.2,29.6c0,1.4,0,2.8,0,4.3,0,.7-.2,1.2-.9,1.2-.6,0-1-.4-1-1.2,0-2.9,0-5.8,0-8.8,0-.8.4-1.2,1-1.2.6,0,1,.4,1,1.2,0,1.5,0,3,0,4.5Z"/>
    <path class="cls-2" d="m45.3,21.3c0,.4,0,.8-.3,1-.2.2-.7.4-1,.4-.7-.1-.7-.8-.7-1.3,0-.6,0-1.3.7-1.4.3,0,.8.1,1,.4.2.2.2.7.3,1Z"/>
    <path class="cls-2" d="m51.4,36.6c.8-.8,1.4-1.4,2.1-2,.6-.5,1.1-.6,1.5-.1.5.5.3,1-.2,1.5-.9.8-1.7,1.6-2.5,2.4-.5.5-1.1.5-1.6,0-.5-.5-.9-.9-1.4-1.4-.4-.5-.5-1,0-1.4.4-.4,1-.4,1.4,0,.2.2.4.5.7.9Z"/>
    <path class="cls-2" d="m51.4,52.7c.8-.8,1.5-1.4,2.1-2,.5-.4,1-.6,1.5-.1.5.4.4,1-.2,1.5-.8.8-1.7,1.6-2.5,2.4-.5.5-1.1.5-1.6,0-.5-.5-.9-.9-1.4-1.4-.4-.5-.5-1,0-1.4.4-.4.9-.4,1.4,0,.3.3.5.6.7,1Z"/>
    <path class="cls-2" d="m51.4,68.8c.9-.8,1.5-1.4,2.1-2,.5-.4,1-.6,1.5-.1.5.4.4,1-.2,1.5-.8.8-1.7,1.6-2.5,2.4-.5.5-1.1.5-1.6,0-.5-.5-.9-.9-1.4-1.4-.4-.5-.5-1,0-1.4.4-.4.9-.4,1.4,0,.3.3.5.6.7,1Z"/>
  </g>
</svg>