<?xml version="1.0" encoding="UTF-8"?>
<svg id="Layer_1" data-name="Layer 1" xmlns="http://www.w3.org/2000/svg" viewBox="0 0 104.6 48.8">
  <defs>
    <style>
      .cls-1 {
        fill: #c51724;
        stroke-width: 0px;
      }
    </style>
  </defs>
  <rect class="cls-1" x="49.4" y="5.1" width="1.2" height="5.2"/>
  <rect class="cls-1" x="49.3" y="38.3" width="1.2" height="5.2"/>
  <rect class="cls-1" x="76" y="17.9" width="1.2" height="54.8" transform="translate(24.9 117.8) rotate(-85.1)"/>
  <polygon class="cls-1" points="104 47.9 102.8 47.9 102.8 .8 104 .7 104 47.9"/>
  <polygon class="cls-1" points="49.4 6.3 49.3 5.1 104 .7 104 1.9 49.4 6.3"/>
  <g>
    <path class="cls-1" d="m8,27.1c-1.1,0-2.1-.2-3-.7-.9-.4-1.7-1-2.3-1.7-.6-.7-1.1-1.5-1.5-2.4-.4-.9-.5-1.8-.5-2.8s.2-1.9.6-2.8c.4-.9.9-1.7,1.6-2.4.7-.7,1.5-1.2,2.4-1.7.9-.4,1.9-.6,3-.6s2.1.2,3,.7,1.7,1,2.3,1.7,1.1,1.5,1.5,2.4c.3.9.5,1.8.5,2.8s-.2,1.9-.6,2.8c-.4.9-.9,1.7-1.5,2.4-.7.7-1.4,1.2-2.4,1.7s-1.9.6-3,.6Zm-3.9-7.6c0,.6,0,1.1.3,1.7.2.5.4,1,.7,1.4.3.4.7.8,1.2,1s1.1.4,1.7.4,1.2-.1,1.7-.4c.5-.3.9-.6,1.2-1,.3-.4.6-.9.7-1.4.2-.5.2-1.1.2-1.6s0-1.1-.3-1.7c-.2-.5-.4-1-.8-1.4-.3-.4-.7-.7-1.2-1-.5-.2-1-.4-1.7-.4s-1.2.1-1.7.4c-.5.3-.9.6-1.2,1s-.6.9-.7,1.4c-.2.5-.2,1.1-.2,1.6Z"/>
    <path class="cls-1" d="m24.1,18.9c-.8,0-1.5.1-2.2.4s-1.1.6-1.4,1.1v6.6h-3.4v-11h3.1v2.2c.4-.7.9-1.3,1.5-1.7.6-.4,1.2-.6,1.9-.7h.3c0,0,.1,0,.2,0v3Z"/>
    <path class="cls-1" d="m29.5,27.2c-.8,0-1.5-.1-2.1-.4-.6-.3-1.2-.7-1.6-1.2-.5-.5-.8-1.1-1.1-1.8-.3-.7-.4-1.5-.4-2.3s.1-1.5.4-2.2c.2-.7.6-1.3,1-1.8.4-.5.9-.9,1.5-1.2.6-.3,1.2-.4,2-.4s1.5.2,2.1.5c.6.4,1.1.9,1.4,1.5v-6.1h3.4v11.6c0,.3,0,.6.2.7.1.1.3.2.6.2v2.8c-.3,0-.6.1-.8.1-.2,0-.4,0-.6,0-.6,0-1.1-.1-1.4-.4-.4-.2-.6-.6-.6-1.1v-.6c-.5.7-1,1.2-1.6,1.5s-1.4.5-2.1.5Zm.9-2.8c.5,0,.9-.1,1.3-.4.4-.3.8-.6,1-1.1v-2.3c-.2-.6-.5-1-1-1.4-.5-.4-1-.5-1.5-.5s-.7,0-1,.2c-.3.2-.6.4-.8.6-.2.3-.4.6-.5.9-.1.4-.2.7-.2,1.1s0,.8.2,1.1c.1.4.3.7.5.9s.5.4.8.6c.3.1.7.2,1.1.2Z"/>
    <path class="cls-1" d="m44,27.2c-.9,0-1.8-.2-2.5-.5-.7-.3-1.4-.7-1.9-1.2-.5-.5-.9-1.1-1.2-1.8-.3-.7-.4-1.4-.4-2.1s.1-1.6.4-2.3.7-1.3,1.2-1.9c.5-.5,1.1-1,1.9-1.3.7-.3,1.6-.5,2.5-.5s1.8.2,2.5.5c.7.3,1.3.7,1.8,1.2s.9,1.1,1.1,1.8c.3.7.4,1.4.4,2.2s0,.4,0,.6c0,.2,0,.4,0,.5h-8.1c0,.7.3,1.3.8,1.7.5.4,1,.6,1.6.6s1-.1,1.4-.4c.5-.2.8-.6.9-1l2.9.8c-.4.9-1.1,1.6-2,2.1-.9.5-2,.8-3.3.8Zm2.3-6.8c0-.7-.3-1.3-.8-1.7-.4-.4-1-.6-1.6-.6s-1.2.2-1.6.6c-.4.4-.7,1-.7,1.6h4.7Z"/>
    <path class="cls-1" d="m58.4,18.9c-.8,0-1.5.1-2.2.4s-1.1.6-1.4,1.1v6.6h-3.4v-11h3.1v2.2c.4-.7.9-1.3,1.5-1.7s1.2-.6,1.9-.7h.3c0,0,.1,0,.2,0v3Z"/>
  </g>
  <g>
    <path class="cls-1" d="m66.1,12.2h.9l6.3,14.9h-1.1l-2.1-4.9h-7.1l-2.1,4.9h-1.2l6.3-14.9Zm3.7,9.1l-3.3-7.8-3.3,7.8h6.6Z"/>
    <path class="cls-1" d="m80.6,27.3c-.9,0-1.8-.2-2.5-.7-.7-.5-1.3-1.1-1.8-1.8v6.8h-1v-15.4h1v2.2c.4-.7,1-1.3,1.8-1.7.7-.4,1.5-.7,2.4-.7s1.5.2,2.1.5,1.2.7,1.7,1.3.8,1.1,1.1,1.8c.3.7.4,1.4.4,2.1s-.1,1.5-.4,2.2-.6,1.3-1,1.8c-.4.5-1,.9-1.6,1.2s-1.3.5-2,.5Zm-.3-.9c.6,0,1.2-.1,1.7-.4.5-.3,1-.6,1.3-1.1.4-.4.6-.9.8-1.5.2-.6.3-1.1.3-1.7s-.1-1.2-.3-1.8c-.2-.6-.5-1.1-.9-1.5-.4-.4-.9-.8-1.4-1-.5-.3-1.1-.4-1.7-.4s-.8,0-1.2.2c-.4.2-.8.4-1.2.7s-.7.6-1,.9c-.3.4-.4.7-.5,1.1v3.6c.2.4.4.8.7,1.1.3.4.6.7.9.9.3.3.7.5,1.1.6.4.1.8.2,1.3.2Z"/>
    <path class="cls-1" d="m93.5,27.3c-.9,0-1.8-.2-2.5-.7-.7-.5-1.3-1.1-1.8-1.8v6.8h-1v-15.4h1v2.2c.4-.7,1-1.3,1.8-1.7.7-.4,1.5-.7,2.4-.7s1.5.2,2.1.5c.6.3,1.2.7,1.7,1.3s.8,1.1,1.1,1.8c.3.7.4,1.4.4,2.1s-.1,1.5-.4,2.2c-.2.7-.6,1.3-1,1.8-.4.5-1,.9-1.6,1.2s-1.3.5-2,.5Zm-.3-.9c.6,0,1.2-.1,1.7-.4.5-.3,1-.6,1.3-1.1.4-.4.6-.9.8-1.5s.3-1.1.3-1.7-.1-1.2-.3-1.8-.5-1.1-.9-1.5c-.4-.4-.9-.8-1.4-1-.5-.3-1.1-.4-1.7-.4s-.8,0-1.2.2-.8.4-1.2.7c-.4.3-.7.6-1,.9-.3.4-.4.7-.5,1.1v3.6c.2.4.4.8.7,1.1.3.4.6.7.9.9.3.3.7.5,1.1.6.4.1.8.2,1.3.2Z"/>
  </g>
  <g>
    <path class="cls-1" d="m26.2,35.6v-3.2h1.3c.1,0,.3,0,.4,0,.1,0,.2.1.3.2s.1.2.2.3c0,.1,0,.2,0,.4s0,.3,0,.4-.1.2-.2.3c0,0-.2.2-.3.2-.1,0-.2,0-.4,0h-1v1.2h-.3Zm.3-1.5h1c0,0,.2,0,.3,0,0,0,.1,0,.2-.2s0-.1.1-.2,0-.2,0-.3,0-.2,0-.3c0,0,0-.2-.1-.2,0,0-.1-.1-.2-.2,0,0-.2,0-.2,0h-1v1.5Z"/>
    <path class="cls-1" d="m29.8,32.4h.3l1.3,3.2h-.3l-.4-1h-1.4l-.4,1h-.3l1.3-3.2Zm.8,1.9l-.6-1.6-.7,1.6h1.3Z"/>
    <path class="cls-1" d="m31.8,35.6v-3.2h1.3c.1,0,.3,0,.4,0,.1,0,.2.1.3.2s.1.2.2.3c0,.1,0,.2,0,.4s0,.3,0,.4-.1.2-.2.3c0,0-.2.2-.3.2-.1,0-.2,0-.4,0h-1v1.2h-.3Zm.3-1.5h1c0,0,.2,0,.3,0,0,0,.1,0,.2-.2s0-.1.1-.2,0-.2,0-.3,0-.2,0-.3c0,0,0-.2-.1-.2,0,0-.1-.1-.2-.2,0,0-.2,0-.2,0h-1v1.5Z"/>
    <path class="cls-1" d="m36.8,35.3v.3h-2.1v-3.2h2.1v.3h-1.8v1.2h1.6v.3h-1.6v1.2h1.8Z"/>
    <path class="cls-1" d="m37.3,35.6v-3.2h1.4c.1,0,.3,0,.4,0,.1,0,.2.1.3.2s.1.2.2.3c0,.1,0,.2,0,.4s0,.2,0,.3c0,.1,0,.2-.1.3,0,0-.1.2-.2.2s-.2,0-.3.1l.8,1.2h-.4l-.8-1.2h-.9v1.2h-.3Zm.3-1.5h1c0,0,.2,0,.3,0,0,0,.1,0,.2-.2,0,0,0-.1.1-.2s0-.2,0-.3,0-.2,0-.3c0,0,0-.2-.1-.2,0,0-.1-.1-.2-.2,0,0-.2,0-.2,0h-1v1.5Z"/>
    <path class="cls-1" d="m40.3,35.6v-3.2h.3v2.9h1.8v.3h-2.2Z"/>
    <path class="cls-1" d="m45.1,35.3v.3h-2.1v-3.2h2.1v.3h-1.8v1.2h1.6v.3h-1.6v1.2h1.8Z"/>
    <path class="cls-1" d="m47.5,33c0-.1-.2-.2-.4-.2-.2,0-.3,0-.5,0-.3,0-.5,0-.6.2s-.2.3-.2.4,0,.2,0,.2,0,.1.2.2c0,0,.2,0,.3.1.1,0,.2,0,.4,0,.2,0,.3,0,.5.1.1,0,.3.1.3.2,0,0,.2.1.2.2s0,.2,0,.4,0,.3,0,.4c0,.1-.1.2-.2.3s-.2.1-.4.2c-.1,0-.3,0-.5,0-.5,0-.9-.2-1.3-.5l.2-.3c0,0,.1.1.2.2,0,0,.2.1.3.1,0,0,.2,0,.3,0s.2,0,.4,0c.3,0,.5,0,.6-.1s.2-.2.2-.4,0-.2,0-.2-.1-.1-.2-.2c0,0-.2,0-.3-.1-.1,0-.3,0-.4-.1-.2,0-.3,0-.4-.1s-.2,0-.3-.2c0,0-.2-.1-.2-.2,0,0,0-.2,0-.3s0-.3,0-.4.1-.2.2-.3.2-.1.4-.2c.1,0,.3,0,.5,0s.4,0,.6,0,.3.2.5.3l-.2.3Z"/>
    <path class="cls-1" d="m50.2,33c0-.1-.2-.2-.4-.2-.2,0-.3,0-.5,0-.3,0-.5,0-.6.2s-.2.3-.2.4,0,.2,0,.2,0,.1.2.2c0,0,.2,0,.3.1.1,0,.2,0,.4,0,.2,0,.3,0,.5.1.1,0,.3.1.3.2,0,0,.2.1.2.2s0,.2,0,.4,0,.3,0,.4c0,.1-.1.2-.2.3s-.2.1-.4.2c-.1,0-.3,0-.5,0-.5,0-.9-.2-1.3-.5l.2-.3c0,0,.1.1.2.2,0,0,.2.1.3.1,0,0,.2,0,.3,0s.2,0,.4,0c.3,0,.5,0,.6-.1s.2-.2.2-.4,0-.2,0-.2-.1-.1-.2-.2c0,0-.2,0-.3-.1-.1,0-.3,0-.4-.1-.2,0-.3,0-.4-.1s-.2,0-.3-.2c0,0-.2-.1-.2-.2,0,0,0-.2,0-.3s0-.3,0-.4.1-.2.2-.3.2-.1.4-.2c.1,0,.3,0,.5,0s.4,0,.6,0,.3.2.5.3l-.2.3Z"/>
    <path class="cls-1" d="m54.6,34.7c0,.1,0,.2,0,.3s-.1.2-.2.3c0,0-.2.1-.3.2-.1,0-.2,0-.3,0h-1.5v-3.2h1.5c.1,0,.2,0,.3,0,0,0,.2.1.2.2,0,0,.1.2.1.3,0,0,0,.2,0,.3,0,.2,0,.3-.1.4s-.2.2-.3.3c.2,0,.3.2.4.3.1.1.2.3.2.5Zm-2.1-2.1v1.2h1.1c0,0,.2,0,.2,0s.1,0,.2-.1c0,0,0-.1.1-.2s0-.1,0-.2,0-.2,0-.2,0-.1-.1-.2c0,0-.1,0-.2-.1,0,0-.1,0-.2,0h-1.1Zm1.8,2c0,0,0-.2,0-.2,0,0,0-.1-.1-.2,0,0-.1-.1-.2-.1s-.1,0-.2,0h-1.2v1.2h1.2c0,0,.2,0,.2,0s.1,0,.2-.1,0-.1.1-.2,0-.1,0-.2Z"/>
    <path class="cls-1" d="m56.5,35.3c.2,0,.4,0,.5-.1.1,0,.2-.2.3-.3,0-.1.1-.3.2-.4s0-.3,0-.5v-1.6h.3v1.6c0,.2,0,.4,0,.6s-.1.4-.2.5c-.1.1-.2.3-.4.4-.2,0-.4.1-.6.1s-.5,0-.6-.1c-.2,0-.3-.2-.4-.4-.1-.1-.2-.3-.2-.5s0-.4,0-.6v-1.6h.3v1.6c0,.2,0,.3,0,.5s0,.3.2.4c0,.1.2.2.3.3.1,0,.3.1.5.1Z"/>
    <path class="cls-1" d="m60.5,33c0-.1-.2-.2-.4-.2-.2,0-.3,0-.5,0-.3,0-.5,0-.6.2s-.2.3-.2.4,0,.2,0,.2c0,0,0,.1.2.2,0,0,.2,0,.3.1.1,0,.2,0,.4,0,.2,0,.3,0,.5.1.1,0,.3.1.3.2,0,0,.2.1.2.2s0,.2,0,.4,0,.3,0,.4c0,.1-.1.2-.2.3-.1,0-.2.1-.4.2-.1,0-.3,0-.5,0-.5,0-.9-.2-1.3-.5l.2-.3c0,0,.1.1.2.2,0,0,.2.1.3.1,0,0,.2,0,.3,0,.1,0,.2,0,.4,0,.3,0,.5,0,.6-.1s.2-.2.2-.4,0-.2,0-.2c0,0-.1-.1-.2-.2,0,0-.2,0-.3-.1s-.3,0-.4-.1c-.2,0-.3,0-.4-.1s-.2,0-.3-.2c0,0-.2-.1-.2-.2,0,0,0-.2,0-.3s0-.3,0-.4.1-.2.2-.3c.1,0,.2-.1.4-.2.1,0,.3,0,.5,0s.4,0,.6,0c.2,0,.3.2.5.3l-.2.3Z"/>
    <path class="cls-1" d="m61.3,35.6v-3.2h.3v3.2h-.3Z"/>
    <path class="cls-1" d="m62.8,32.9v2.6h-.3v-3.2h.2l2.1,2.7v-2.7h.3v3.2h-.3l-2.1-2.6Z"/>
    <path class="cls-1" d="m68.1,35.3v.3h-2.1v-3.2h2.1v.3h-1.8v1.2h1.6v.3h-1.6v1.2h1.8Z"/>
    <path class="cls-1" d="m70.4,33c0-.1-.2-.2-.4-.2-.2,0-.3,0-.5,0-.3,0-.5,0-.6.2s-.2.3-.2.4,0,.2,0,.2c0,0,0,.1.2.2,0,0,.2,0,.3.1.1,0,.2,0,.4,0,.2,0,.3,0,.5.1s.3.1.3.2c0,0,.2.1.2.2s0,.2,0,.4,0,.3,0,.4c0,.1-.1.2-.2.3-.1,0-.2.1-.4.2-.1,0-.3,0-.5,0-.5,0-.9-.2-1.3-.5l.2-.3c0,0,.1.1.2.2,0,0,.2.1.3.1,0,0,.2,0,.3,0,.1,0,.2,0,.3,0,.3,0,.5,0,.6-.1.1,0,.2-.2.2-.4s0-.2,0-.2-.1-.1-.2-.2c0,0-.2,0-.3-.1-.1,0-.3,0-.4-.1-.2,0-.3,0-.4-.1s-.2,0-.3-.2c0,0-.2-.1-.2-.2,0,0,0-.2,0-.3s0-.3,0-.4.1-.2.2-.3c.1,0,.2-.1.4-.2.1,0,.3,0,.5,0s.4,0,.6,0,.3.2.5.3l-.2.3Z"/>
    <path class="cls-1" d="m73.2,33c0-.1-.2-.2-.4-.2-.2,0-.3,0-.5,0-.3,0-.5,0-.6.2s-.2.3-.2.4,0,.2,0,.2,0,.1.2.2c0,0,.2,0,.3.1.1,0,.2,0,.4,0,.2,0,.3,0,.5.1s.3.1.3.2c0,0,.2.1.2.2s0,.2,0,.4,0,.3,0,.4c0,.1-.1.2-.2.3-.1,0-.2.1-.4.2-.1,0-.3,0-.5,0-.5,0-.9-.2-1.3-.5l.2-.3c0,0,.1.1.2.2,0,0,.2.1.3.1,0,0,.2,0,.3,0,.1,0,.2,0,.4,0,.3,0,.5,0,.6-.1.1,0,.2-.2.2-.4s0-.2,0-.2c0,0-.1-.1-.2-.2,0,0-.2,0-.3-.1s-.3,0-.4-.1c-.2,0-.3,0-.4-.1s-.2,0-.3-.2c0,0-.2-.1-.2-.2,0,0,0-.2,0-.3s0-.3,0-.4c0-.1.1-.2.2-.3.1,0,.2-.1.4-.2.1,0,.3,0,.5,0s.4,0,.6,0,.3.2.5.3l-.2.3Z"/>
  </g>
</svg>