<?xml version="1.0" encoding="utf-8"?>
<!-- Generator: Adobe Illustrator 28.2.0, SVG Export Plug-In . SVG Version: 6.00 Build 0)  -->
<svg version="1.1" id="Layer_1" xmlns="http://www.w3.org/2000/svg" xmlns:xlink="http://www.w3.org/1999/xlink" x="0px" y="0px"
	 viewBox="0 0 150 150" style="enable-background:new 0 0 150 150;" xml:space="preserve">
<style type="text/css">
	.st0{fill:#FFFFFF;}
</style>
<path class="st0" d="M89.4,89.8c0,8.9,0,17.7,0,25.8c0,5.9,0,11.1,0,17c0,8.1-6.6,14.8-14.8,14.8s-14-6.6-14-14.8
	c0-12.6,0-25.1,0-37.7c0-1.5,0-3,0-5.2H41.4c-7.4,0-14,0-21.4,0C8.9,89.8,2.3,83.9,3,75c0-8.9,6.6-14,17-14c11.8,0,23.6,0,35.4,0
	c1.5,0,3,0,5.2,0c0-2.2,0-3.7,0-5.2c0-12.6,0-25.1,0-37.7c0-8.9,5.9-15.5,14-15.5s14,6.6,14.8,15.5c0,14,0,28.1,0,42.8
	c1.5,0,3.7,0,5.2,0c12.6,0,24.4,0,36.9,0c8.9,0,15.5,5.9,15.5,14c0,8.9-6.6,14.8-16.2,14.8C117.5,89.8,103.5,89.8,89.4,89.8z"/>
</svg>
