<?xml version="1.0" encoding="UTF-8"?>
<svg id="Layer_1" data-name="Layer 1" xmlns="http://www.w3.org/2000/svg" viewBox="0 0 150 150">
  <defs>
    <style>
      .cls-1, .cls-2 {
        stroke-width: 0px;
      }

      .cls-2 {
        fill: #fb0000;
      }
    </style>
  </defs>
  <g>
    <path class="cls-1" d="m8.7,84.1c1.3,0,2.4.1,3.4.4s1.7.7,2.4,1.3c.6.5,1.1,1.2,1.4,2,.3.8.5,1.6.5,2.6s-.2,1.8-.5,2.6c-.3.8-.8,1.5-1.4,2-.6.6-1.4,1-2.4,1.3-.9.3-2,.5-3.3.5h-3.1v7.4h-3v-20.1h6.1Zm0,10.3c.8,0,1.4,0,2-.3.6-.2,1.1-.5,1.4-.8.4-.4.7-.8.9-1.3.2-.5.3-1.1.3-1.7,0-1.2-.4-2.2-1.1-2.9-.8-.7-1.9-1-3.5-1h-3.1v8h3.1Z"/>
    <path class="cls-1" d="m34.6,104.1h-2.7c-.5,0-.9-.2-1.2-.6l-5-7c-.2-.2-.3-.4-.5-.5-.2,0-.5-.1-.8-.1h-1.9v8.2h-3v-20.1h5.8c1.3,0,2.4.1,3.3.4.9.3,1.7.6,2.3,1.1.6.5,1.1,1.1,1.4,1.8.3.7.4,1.5.4,2.3s-.1,1.4-.3,2c-.2.6-.5,1.2-.9,1.7-.4.5-.9.9-1.5,1.3-.6.4-1.3.6-2,.8.4.2.7.5,1,.9l5.6,7.8Zm-9.4-10.4c.8,0,1.4,0,2-.3s1.1-.5,1.5-.8.7-.7.9-1.2.3-1,.3-1.6c0-1.2-.4-2-1.1-2.6-.8-.6-1.9-.9-3.4-.9h-2.8v7.3h2.7Z"/>
    <path class="cls-1" d="m55.7,94.1c0,1.5-.2,2.9-.7,4.1s-1.2,2.3-2,3.2c-.9.9-1.9,1.6-3.1,2.1-1.2.5-2.6.8-4.1.8s-2.8-.3-4.1-.8c-1.2-.5-2.3-1.2-3.1-2.1-.9-.9-1.5-2-2-3.2-.5-1.3-.7-2.6-.7-4.1s.2-2.9.7-4.1c.5-1.3,1.2-2.3,2-3.3.9-.9,1.9-1.6,3.1-2.1s2.6-.8,4.1-.8,2.8.3,4.1.8,2.3,1.2,3.1,2.1c.9.9,1.6,2,2,3.3.5,1.3.7,2.6.7,4.1Zm-3,0c0-1.2-.2-2.3-.5-3.2-.3-1-.8-1.8-1.4-2.4-.6-.7-1.3-1.2-2.2-1.5-.9-.4-1.8-.5-2.9-.5s-2,.2-2.9.5-1.6.9-2.2,1.5c-.6.7-1.1,1.5-1.4,2.4-.3,1-.5,2-.5,3.2s.2,2.3.5,3.2c.3.9.8,1.8,1.4,2.4.6.7,1.3,1.2,2.2,1.5.9.3,1.8.5,2.9.5s2-.2,2.9-.5c.9-.3,1.6-.9,2.2-1.5.6-.7,1.1-1.5,1.4-2.4.3-.9.5-2,.5-3.2Z"/>
    <path class="cls-1" d="m76.9,94.1c0,1.5-.2,2.9-.7,4.1-.5,1.2-1.2,2.3-2,3.2-.9.9-1.9,1.6-3.1,2-1.2.5-2.6.7-4.1.7h-7.6v-20.1h7.6c1.5,0,2.8.2,4.1.7,1.2.5,2.3,1.2,3.1,2,.9.9,1.6,1.9,2,3.2.5,1.2.7,2.6.7,4.1Zm-3,0c0-1.2-.2-2.3-.5-3.2-.3-.9-.8-1.7-1.4-2.4-.6-.7-1.3-1.2-2.2-1.5-.9-.3-1.8-.5-2.9-.5h-4.6v15.3h4.6c1.1,0,2-.2,2.9-.5.9-.3,1.6-.8,2.2-1.5.6-.7,1.1-1.5,1.4-2.4s.5-2,.5-3.2Z"/>
    <path class="cls-1" d="m88.5,101.8c.8,0,1.5-.1,2.2-.4s1.2-.7,1.6-1.1c.4-.5.8-1.1,1-1.7.2-.7.3-1.4.3-2.2v-12.1h3v12.1c0,1.2-.2,2.3-.6,3.3-.4,1-.9,1.9-1.6,2.6-.7.7-1.5,1.3-2.5,1.7-1,.4-2.1.6-3.4.6s-2.4-.2-3.4-.6c-1-.4-1.8-1-2.5-1.7-.7-.7-1.2-1.6-1.6-2.6-.4-1-.6-2.1-.6-3.3v-12.1h3v12.1c0,.8.1,1.6.3,2.3.2.7.6,1.3,1,1.8.4.5,1,.9,1.6,1.1s1.4.4,2.2.4Z"/>
    <path class="cls-1" d="m115.3,99.8c.2,0,.3,0,.4.2l1.2,1.3c-.8,1-1.8,1.7-3,2.3-1.2.5-2.6.8-4.3.8s-2.8-.3-4-.8c-1.2-.5-2.2-1.2-3-2.1s-1.5-2-1.9-3.2c-.5-1.3-.7-2.6-.7-4.2s.2-2.9.7-4.2c.5-1.3,1.2-2.3,2-3.2.9-.9,1.9-1.6,3.1-2.1,1.2-.5,2.5-.8,4-.8s2.7.2,3.8.7c1.1.5,2.1,1.1,2.9,1.9l-1,1.4c0,.1-.1.2-.2.3s-.2,0-.4,0-.4,0-.6-.3c-.2-.2-.5-.4-.9-.6-.4-.2-.9-.4-1.4-.6-.6-.2-1.3-.3-2.1-.3s-1.9.2-2.7.5c-.8.3-1.5.9-2.1,1.5-.6.7-1.1,1.5-1.4,2.4s-.5,2-.5,3.2.2,2.3.5,3.3c.3,1,.8,1.8,1.4,2.4.6.7,1.3,1.2,2.1,1.5.8.3,1.7.5,2.7.5s1.1,0,1.6-.1c.5,0,.9-.2,1.3-.3.4-.1.8-.3,1.1-.5.3-.2.7-.5,1-.8,0,0,.2-.1.2-.2s.2,0,.3,0Z"/>
    <path class="cls-1" d="m133.6,86.6h-6.4v17.6h-3v-17.6h-6.4v-2.5h15.7v2.5Z"/>
    <path class="cls-1" d="m146.8,87.3c0,.2-.2.3-.3.3s-.2.1-.4.1-.4,0-.6-.2c-.2-.2-.5-.3-.8-.5-.3-.2-.7-.4-1.2-.5-.4-.2-1-.2-1.6-.2s-1.1,0-1.5.2c-.4.2-.8.4-1.1.6-.3.3-.5.6-.7.9-.2.4-.2.7-.2,1.2s.1,1,.4,1.3c.3.4.6.7,1.1.9.4.3,1,.5,1.5.7s1.2.4,1.7.6c.6.2,1.2.4,1.7.7.6.3,1.1.6,1.5,1s.8.9,1.1,1.5c.3.6.4,1.3.4,2.1s-.2,1.7-.5,2.5-.7,1.4-1.3,2-1.3,1-2.1,1.4-1.8.5-2.9.5-1.3,0-1.9-.2c-.6-.1-1.2-.3-1.7-.5-.5-.2-1-.5-1.5-.8s-.9-.7-1.3-1.1l.9-1.4c0-.1.2-.2.3-.3.1,0,.2-.1.4-.1s.4.1.7.3c.3.2.6.4,1,.7.4.2.8.5,1.4.7s1.2.3,1.9.3,1.2,0,1.6-.2c.5-.2.9-.4,1.2-.7s.6-.7.8-1.1.3-.9.3-1.4-.1-1.1-.4-1.4-.6-.7-1.1-.9c-.4-.3-1-.5-1.5-.6s-1.2-.4-1.7-.6c-.6-.2-1.2-.4-1.7-.7-.6-.3-1.1-.6-1.5-1s-.8-.9-1.1-1.5c-.3-.6-.4-1.4-.4-2.3s.1-1.4.4-2.1c.3-.7.7-1.3,1.2-1.8.5-.5,1.2-.9,2-1.2.8-.3,1.7-.5,2.7-.5s2.2.2,3.1.5,1.8.9,2.5,1.5l-.7,1.4Z"/>
  </g>
  <g>
    <path class="cls-1" d="m22.8,129.6c0,1.5-.2,2.9-.7,4.1s-1.2,2.3-2,3.2c-.9.9-1.9,1.6-3.1,2.1-1.2.5-2.6.8-4.1.8s-2.8-.3-4.1-.8c-1.2-.5-2.3-1.2-3.1-2.1-.9-.9-1.5-2-2-3.2-.5-1.3-.7-2.6-.7-4.1s.2-2.9.7-4.1c.5-1.3,1.2-2.3,2-3.3.9-.9,1.9-1.6,3.1-2.1s2.6-.8,4.1-.8,2.8.3,4.1.8,2.3,1.2,3.1,2.1c.9.9,1.6,2,2,3.3.5,1.3.7,2.6.7,4.1Zm-3,0c0-1.2-.2-2.3-.5-3.2-.3-1-.8-1.8-1.4-2.4-.6-.7-1.3-1.2-2.2-1.5-.9-.4-1.8-.5-2.9-.5s-2,.2-2.9.5-1.6.9-2.2,1.5c-.6.7-1.1,1.5-1.4,2.4-.3,1-.5,2-.5,3.2s.2,2.3.5,3.2c.3.9.8,1.8,1.4,2.4.6.7,1.3,1.2,2.2,1.5.9.3,1.8.5,2.9.5s2-.2,2.9-.5c.9-.3,1.6-.9,2.2-1.5.6-.7,1.1-1.5,1.4-2.4.3-.9.5-2,.5-3.2Z"/>
    <path class="cls-1" d="m42.5,119.6l-8.2,20.1h-2.7l-8.2-20.1h2.4c.3,0,.5,0,.6.2.2.1.3.3.4.5l5.4,13.6c.1.3.3.7.4,1.1.1.4.2.8.3,1.3,0-.4.2-.9.3-1.3.1-.4.2-.8.4-1.1l5.4-13.6c0-.2.2-.3.4-.5.2-.1.4-.2.6-.2h2.4Z"/>
    <path class="cls-1" d="m57.5,137.2v2.4h-12.5v-20.1h12.4v2.4h-9.5v6.4h7.6v2.3h-7.6v6.5h9.5Z"/>
    <path class="cls-1" d="m76.2,139.6h-2.7c-.5,0-.9-.2-1.2-.6l-5-7c-.2-.2-.3-.4-.5-.5-.2,0-.5-.1-.8-.1h-1.9v8.2h-3v-20.1h5.8c1.3,0,2.4.1,3.3.4.9.3,1.7.6,2.3,1.1.6.5,1.1,1.1,1.4,1.8.3.7.4,1.5.4,2.3s-.1,1.4-.3,2c-.2.6-.5,1.2-.9,1.7-.4.5-.9.9-1.5,1.3-.6.4-1.3.6-2,.8.4.2.7.5,1,.9l5.6,7.8Zm-9.4-10.4c.8,0,1.4,0,2-.3s1.1-.5,1.5-.8.7-.7.9-1.2.3-1,.3-1.6c0-1.2-.4-2-1.1-2.6-.8-.6-1.9-.9-3.4-.9h-2.8v7.3h2.7Z"/>
    <path class="cls-1" d="m94.8,119.6l-8.2,20.1h-2.7l-8.2-20.1h2.4c.3,0,.5,0,.6.2.2.1.3.3.4.5l5.4,13.6c.1.3.3.7.4,1.1.1.4.2.8.3,1.3,0-.4.2-.9.3-1.3.1-.4.2-.8.4-1.1l5.4-13.6c0-.2.2-.3.4-.5.2-.1.4-.2.6-.2h2.4Z"/>
    <path class="cls-1" d="m100.3,139.6h-3v-20.1h3v20.1Z"/>
    <path class="cls-1" d="m117.7,137.2v2.4h-12.5v-20.1h12.4v2.4h-9.5v6.4h7.6v2.3h-7.6v6.5h9.5Z"/>
    <path class="cls-1" d="m147.6,119.6l-6.3,20.1h-2.7l-4.9-14.9c-.1-.3-.2-.7-.3-1.1-.1.4-.2.8-.3,1.1l-4.9,14.9h-2.7l-6.3-20.1h2.5c.3,0,.5,0,.7.2.2.1.3.3.3.5l4,13.4c0,.3.1.5.2.9s.1.6.2,1c0-.3.1-.7.2-1s.2-.6.2-.9l4.5-13.4c0-.2.2-.3.4-.5.2-.1.4-.2.7-.2h.9c.3,0,.5,0,.6.2.2.1.3.3.4.5l4.5,13.4c.2.5.3,1.1.4,1.7.1-.6.2-1.2.4-1.7l4-13.4c0-.2.2-.3.3-.5.2-.1.4-.2.7-.2h2.3Z"/>
  </g>
  <g>
    <path class="cls-2" d="m45.7,30.3c-1.2-.5-2.4-.9-3.6-1.4-2.4-.9-3.2-3.3-1.9-5.5,1.8-3.1,3.7-6.1,5.5-9.2.3-.5.7-.8,1.4-1,9-1.9,17.9-3.9,26.9-5.8,1.1-.2,2.3,0,3.4.3,8.3,1.8,16.7,3.6,25,5.4.8.2,1.4.6,1.8,1.3,1.7,2.9,3.5,5.8,5.2,8.7,1.5,2.5.7,4.7-2,5.8-1.1.5-2.3.9-3.4,1.3v.8c0,3.9,0,7.8,0,11.7,0,2-.8,3.1-2.6,3.8-4,1.6-7.9,3.1-11.9,4.7-.2,0-.3.1-.6.2.2.2.3.4.5.5,1.4,1.4,2.8,2.8,4.2,4.2,1.2,1.2,1.2,2.7,0,3.9-1.5,1.5-3.1,3.1-4.6,4.6-1.3,1.3-2.7,1.3-4,0-3.1-3.1-6.2-6.1-9.2-9.2-.2-.2-.3-.5-.5-.7-1.4,1.4-2.6,2.7-3.9,3.9-.3.3-.7.6-1,.7-3.5,1.4-7.1,2.7-10.6,4.1-.6.2-1.1.3-1.6-.3-.4-.5-.3-1-.1-1.5,1.2-3,2.3-6,3.5-9,0-.3.2-.5.3-.8-1.5-.6-2.9-1.2-4.4-1.7-3-1.2-6-2.4-9-3.5-1.8-.7-2.6-1.9-2.6-3.8,0-3.9,0-7.8,0-11.8,0-.3,0-.6,0-.8Zm5.5-15.5c.2.1.3.1.4.2,7.6,3,15.2,6,22.8,8.9.3.1.7,0,1.1,0,5.3-2,10.5-4.1,15.8-6.2,2.4-.9,4.7-1.9,7.2-2.8-.3,0-.4-.2-.6-.2-7-1.5-14-3-20.9-4.5-1-.2-2-.5-3-.3-5.3,1.2-10.5,2.3-15.8,3.4-2.2.5-4.5,1-6.9,1.5Zm29.2,17.6c.1,0,.1,0,.2,0,1.3-1.3,2.6-2.6,4-4,1.6-1.6,3.8-1.6,5.4,0,1,1,2.1,2,3,3.1.3.4.6.4,1,.2,1.1-.5,2.2-.9,3.3-1.3,3.1-1.2,6.1-2.4,9.2-3.6,1.2-.5,1.5-1.1.8-2.3-.3-.6-.7-1.2-1.1-1.8-1.3-2.2-2.7-4.4-4-6.7-8.6,3.3-17.1,6.7-25.6,10,1.3,2.2,2.6,4.3,3.8,6.4Zm-7.4-6.4c-8.6-3.4-17.1-6.7-25.6-10-1.8,2.9-3.5,5.8-5.2,8.7-.5.8-.2,1.6.7,2,4,1.6,7.9,3.1,11.9,4.7.4.2.6,0,.9-.2,1.4-1.4,2.8-2.9,4.3-4.3,1.3-1.3,2.7-1.3,4,0,1.6,1.6,3.2,3.2,4.8,4.8.2.2.3.3.5.5,1.2-2,2.4-4,3.6-6.1Zm-24.9,5.2c0,4.1,0,8,0,11.9,0,.6.3,1,.9,1.2,4.6,1.8,9.1,3.6,13.7,5.3.2,0,.5,0,.6,0,1.1-1,2.1-2.1,3.3-3.3-.3-.2-.5-.3-.7-.5-3.3-3.3-6.7-6.7-10-10-.5-.5-.8-1.2-1.3-1.8,0-.1-.2-.3-.3-.3-2-.8-4-1.6-6.2-2.4Zm53.4,0c-2.4.9-4.6,1.8-6.9,2.7-.2,0-.3.3-.3.5,0,1.1-.7,2-1.5,2.7-2.9,2.9-5.8,5.7-8.6,8.6-.2.2-.4.4-.6.6,1,1,2,2,3,3,.1.1.5.2.6.1,4.4-1.7,8.9-3.5,13.3-5.2.5-.2.9-.6.9-1.2,0-3.9,0-7.8,0-11.9Z"/>
    <path class="cls-1" d="m62.4,38.8c.6.6,1.1,1.2,1.8,1.8.5-.6,1-1.1,1.5-1.6.6-.6,1.3-.7,1.8-.2.5.5.5,1.3-.1,1.9-.5.5-1.1,1-1.5,1.4.9.9,1.7,1.7,2.3,2.4,1.7-1.7,3.4-3.3,4.9-4.9-3.7-3.7-7.4-7.4-11.1-11.1-1.6,1.6-3.3,3.3-4.9,4.9,1.2,1.2,2.4,2.4,3.7,3.7.7-.7,1.5-1.5,2.2-2.3.7-.7,1.4-.8,2-.2.5.5.4,1.3-.2,1.9-.8.8-1.6,1.5-2.3,2.3Z"/>
    <path class="cls-1" d="m81.9,48.3c-1.7,1.7-3.3,3.3-4.9,4.9.6.6,1.2,1.3,1.9,2.1.8-.9,1.7-1.7,2.5-2.6.5-.5,1.2-.4,1.7,0,.4.5.5,1.1,0,1.6-.2.2-.4.4-.6.7-.7.6-1.3,1.3-1.9,1.8.6.6,1.2,1.2,1.8,1.8.5-.5,1-1,1.5-1.5.6-.6,1.3-.6,1.8-.1.5.5.5,1.2-.1,1.9-.5.5-1,1-1.5,1.5,1,1,2,2,2.8,2.8,1.7-1.6,3.4-3.3,5-4.9-3.3-3.3-6.6-6.6-9.9-9.9Z"/>
    <path class="cls-1" d="m83.1,33.5c-5.8,5.8-11.6,11.6-17.4,17.4.6.4,1.2.8,1.8,1.1,5.7-5.7,11.4-11.4,17.1-17.1-.5-.5-1-1-1.5-1.5Z"/>
    <path class="cls-1" d="m70.5,55.8c5.8-5.8,11.6-11.6,17.4-17.4-.5-.5-1-1-1.5-1.5-5.7,5.7-11.4,11.4-17.1,17.1.4.6.8,1.3,1.1,1.8Z"/>
    <path class="cls-1" d="m89.9,36.7c.5-.5,1.1-1,1.6-1.6.5-.5.5-1.2,0-1.7-1.1-1.2-2.3-2.3-3.4-3.4-.5-.5-1.1-.5-1.6,0-.6.5-1.2,1.1-1.8,1.7,1.7,1.7,3.4,3.4,5.2,5.2Z"/>
    <path class="cls-1" d="m68.6,57.5c-.9-2.2-2.4-3.7-4.6-4.6-.4,1-.8,1.9-1.1,2.8,0,.2,0,.5.2.7.6.7,1.3,1.3,2,2,.2.2.5.3.7.2.9-.3,1.8-.7,2.8-1Z"/>
    <path class="cls-1" d="m76.1,36.9c.9-.9,1.6-1.6,2.4-2.4.1-.1,0-.5,0-.6-.4-.8-.9-1.5-1.3-2.2-.3-.5-.6-1-1-1.7v6.9Z"/>
    <path class="cls-1" d="m73.5,36.2v-6.3c-.9,1.4-1.6,2.7-2.3,3.9.8.8,1.5,1.6,2.3,2.4Z"/>
    <path class="cls-1" d="m61,60.4c.8-.3,1.4-.5,2-.8-.4-.4-.8-.8-1.2-1.3-.3.7-.5,1.3-.8,2.1Z"/>
  </g>
</svg>