<?xml version="1.0" encoding="UTF-8"?>
<svg id="Layer_1" data-name="Layer 1" xmlns="http://www.w3.org/2000/svg" viewBox="0 0 150 150">
  <defs>
    <style>
      .cls-1 {
        fill: #c51724;
      }

      .cls-1, .cls-2 {
        stroke-width: 0px;
      }
    </style>
  </defs>
  <g>
    <path class="cls-2" d="m26.7,95.2c.9,0,1.7.1,2.4.3.7.2,1.2.5,1.7.9s.8.9,1,1.4c.2.5.3,1.2.3,1.8s-.1,1.3-.4,1.8c-.2.6-.6,1-1,1.4-.4.4-1,.7-1.7.9-.7.2-1.4.3-2.3.3h-2.3v5.4h-1.9v-14.3h4.2Zm0,7.4c.6,0,1,0,1.5-.2s.8-.4,1.1-.6c.3-.3.5-.6.7-.9.1-.4.2-.8.2-1.2,0-.9-.3-1.6-.8-2.1-.6-.5-1.4-.8-2.6-.8h-2.3v5.9h2.3Z"/>
    <path class="cls-2" d="m45.1,109.5h-1.7c-.4,0-.6-.1-.8-.4l-3.7-5.1c-.1-.2-.2-.3-.4-.3s-.3-.1-.6-.1h-1.5v6h-1.9v-14.3h4c.9,0,1.7,0,2.4.3s1.2.4,1.6.8c.4.3.7.8,1,1.3s.3,1,.3,1.6,0,1-.2,1.4c-.2.4-.4.8-.7,1.2-.3.3-.7.6-1.1.9-.4.2-.9.4-1.5.6.2.1.5.3.6.6l4.2,5.7Zm-6.6-7.4c.6,0,1.1,0,1.5-.2.4-.1.8-.3,1.1-.6.3-.2.5-.5.7-.9.1-.3.2-.7.2-1.1,0-.9-.3-1.5-.8-1.9-.6-.4-1.4-.6-2.5-.6h-2.1v5.4h2Z"/>
    <path class="cls-2" d="m60.2,102.3c0,1.1-.2,2.1-.5,3s-.8,1.7-1.4,2.3-1.4,1.1-2.2,1.5c-.9.4-1.8.5-2.9.5s-2-.2-2.9-.5c-.9-.4-1.6-.9-2.2-1.5-.6-.6-1.1-1.4-1.4-2.3-.3-.9-.5-1.9-.5-3s.2-2.1.5-3c.3-.9.8-1.7,1.4-2.3.6-.7,1.4-1.2,2.2-1.5.9-.4,1.8-.5,2.9-.5s2,.2,2.9.5c.9.4,1.6.9,2.2,1.5.6.6,1.1,1.4,1.4,2.3s.5,1.9.5,3Zm-2,0c0-.9-.1-1.7-.4-2.4-.2-.7-.6-1.3-1-1.8-.4-.5-1-.9-1.6-1.1-.6-.3-1.3-.4-2.1-.4s-1.5.1-2.1.4c-.6.3-1.2.6-1.6,1.1-.4.5-.8,1.1-1,1.8-.2.7-.4,1.5-.4,2.4s.1,1.7.4,2.4c.2.7.6,1.3,1,1.8.4.5,1,.9,1.6,1.1.6.3,1.3.4,2.1.4s1.5-.1,2.1-.4c.6-.3,1.2-.6,1.6-1.1.4-.5.8-1.1,1-1.8.2-.7.4-1.5.4-2.4Z"/>
    <path class="cls-2" d="m75.3,102.3c0,1.1-.2,2-.5,2.9-.3.9-.8,1.6-1.4,2.3-.6.6-1.4,1.1-2.2,1.5-.9.3-1.8.5-2.9.5h-5.4v-14.3h5.4c1.1,0,2,.2,2.9.5.9.3,1.6.8,2.2,1.5.6.6,1.1,1.4,1.4,2.3.3.9.5,1.9.5,2.9Zm-2,0c0-.9-.1-1.7-.4-2.4-.2-.7-.6-1.3-1-1.8-.4-.5-1-.8-1.6-1.1-.6-.3-1.3-.4-2.1-.4h-3.4v11.2h3.4c.8,0,1.5-.1,2.1-.4.6-.3,1.2-.6,1.6-1.1s.8-1.1,1-1.8c.2-.7.4-1.5.4-2.4Z"/>
    <path class="cls-2" d="m83.7,107.9c.6,0,1.1,0,1.6-.3s.9-.5,1.2-.8c.3-.4.6-.8.7-1.3s.3-1,.3-1.7v-8.7h1.9v8.7c0,.8-.1,1.6-.4,2.3-.3.7-.6,1.3-1.1,1.8s-1.1.9-1.8,1.2c-.7.3-1.5.4-2.4.4s-1.7-.1-2.4-.4c-.7-.3-1.3-.7-1.8-1.2-.5-.5-.9-1.1-1.1-1.8-.3-.7-.4-1.5-.4-2.3v-8.7h1.9v8.7c0,.6,0,1.1.3,1.6s.4.9.7,1.3c.3.4.7.6,1.2.8.5.2,1,.3,1.6.3Z"/>
    <path class="cls-2" d="m102.9,106.5c.1,0,.2,0,.3.1l.8.8c-.6.7-1.3,1.2-2.1,1.6-.8.4-1.8.6-3,.6s-2-.2-2.8-.5c-.8-.4-1.6-.9-2.2-1.5-.6-.6-1.1-1.4-1.4-2.3-.3-.9-.5-1.9-.5-3s.2-2.1.5-3c.3-.9.8-1.7,1.4-2.3.6-.6,1.4-1.1,2.2-1.5s1.8-.5,2.8-.5,1.9.2,2.7.5c.8.3,1.5.8,2.1,1.3l-.6.9c0,0,0,.1-.2.2,0,0-.1,0-.3,0s-.3,0-.4-.2c-.2-.1-.4-.3-.7-.4-.3-.2-.6-.3-1-.4s-.9-.2-1.5-.2-1.4.1-2,.4-1.1.6-1.6,1.1c-.4.5-.8,1.1-1,1.8-.2.7-.4,1.5-.4,2.4s.1,1.7.4,2.4c.3.7.6,1.3,1,1.8s1,.9,1.6,1.1c.6.3,1.3.4,2,.4s.8,0,1.2,0c.3,0,.7-.1,1-.2.3-.1.6-.2.8-.4.2-.2.5-.4.7-.6.1-.1.2-.2.3-.2Z"/>
    <path class="cls-2" d="m115.9,96.8h-4.6v12.7h-1.9v-12.7h-4.6v-1.6h11.2v1.6Z"/>
    <path class="cls-2" d="m125.3,97.4c0,0-.1.2-.2.2s-.2,0-.3,0-.2,0-.4-.2-.3-.2-.6-.4c-.2-.1-.5-.3-.8-.4s-.7-.2-1.2-.2-.8,0-1.1.2c-.3.1-.6.3-.8.5-.2.2-.4.4-.5.7-.1.3-.2.6-.2.9s0,.7.3,1c.2.3.5.5.8.7.3.2.7.3,1.1.5s.8.3,1.3.4c.4.1.9.3,1.3.5.4.2.8.4,1.1.7s.6.6.8,1c.2.4.3.9.3,1.5s-.1,1.2-.3,1.8c-.2.5-.5,1-.9,1.4-.4.4-.9.7-1.5,1-.6.2-1.3.4-2,.4s-1.8-.2-2.5-.5c-.8-.3-1.4-.8-2-1.4l.6-.9c0,0,.1-.1.2-.2,0,0,.2,0,.3,0s.2,0,.3.1c.1,0,.2.2.4.3.1.1.3.2.5.3.2.1.4.2.6.3.2.1.5.2.8.3.3,0,.6.1,1,.1s.9,0,1.2-.2c.4-.1.7-.3.9-.5.2-.2.4-.5.6-.8.1-.3.2-.7.2-1.1s0-.8-.3-1.1-.5-.5-.8-.7c-.3-.2-.7-.3-1.1-.5s-.8-.3-1.3-.4-.8-.3-1.3-.5c-.4-.2-.8-.4-1.1-.7-.3-.3-.6-.6-.8-1.1-.2-.4-.3-1-.3-1.6s0-1,.3-1.5c.2-.5.5-.9.9-1.3.4-.4.8-.7,1.4-.9.5-.2,1.2-.3,1.9-.3s1.5.1,2.2.4c.7.3,1.2.6,1.7,1.1l-.5.9Z"/>
  </g>
  <g>
    <path class="cls-2" d="m36.9,127.7c0,1.1-.2,2.1-.5,3s-.8,1.7-1.4,2.3-1.4,1.1-2.2,1.5c-.9.4-1.8.5-2.9.5s-2-.2-2.9-.5c-.9-.4-1.6-.9-2.2-1.5-.6-.6-1.1-1.4-1.4-2.3-.3-.9-.5-1.9-.5-3s.2-2.1.5-3c.3-.9.8-1.7,1.4-2.3.6-.7,1.4-1.2,2.2-1.5.9-.4,1.8-.5,2.9-.5s2,.2,2.9.5c.9.4,1.6.9,2.2,1.5.6.6,1.1,1.4,1.4,2.3s.5,1.9.5,3Zm-2,0c0-.9-.1-1.7-.4-2.4-.2-.7-.6-1.3-1-1.8-.4-.5-1-.9-1.6-1.1-.6-.3-1.3-.4-2.1-.4s-1.5.1-2.1.4c-.6.3-1.2.6-1.6,1.1-.4.5-.8,1.1-1,1.8-.2.7-.4,1.5-.4,2.4s.1,1.7.4,2.4c.2.7.6,1.3,1,1.8.4.5,1,.9,1.6,1.1.6.3,1.3.4,2.1.4s1.5-.1,2.1-.4c.6-.3,1.2-.6,1.6-1.1.4-.5.8-1.1,1-1.8.2-.7.4-1.5.4-2.4Z"/>
    <path class="cls-2" d="m50.9,120.5l-5.8,14.3h-1.7l-5.8-14.3h1.5c.2,0,.3,0,.4.1.1,0,.2.2.2.3l4,10.1c0,.2.2.5.3.7s.2.5.2.8c0-.3.1-.6.2-.8s.2-.5.2-.7l4-10.1c0-.1.1-.2.2-.3s.3-.1.4-.1h1.5Z"/>
    <path class="cls-2" d="m61.7,133.3v1.6h-8.8v-14.3h8.8v1.6h-6.9v4.8h5.6v1.5h-5.6v4.9h6.9Z"/>
    <path class="cls-2" d="m75,134.8h-1.7c-.4,0-.6-.1-.8-.4l-3.7-5.1c-.1-.2-.2-.3-.4-.3-.1,0-.3-.1-.6-.1h-1.5v6h-1.9v-14.3h4c.9,0,1.7,0,2.4.3.7.2,1.2.4,1.6.8.4.3.7.8,1,1.3.2.5.3,1,.3,1.6s0,1-.2,1.4c-.2.4-.4.8-.7,1.2-.3.3-.7.6-1.1.9-.4.2-.9.4-1.5.6.2.1.5.3.6.6l4.2,5.7Zm-6.6-7.4c.6,0,1.1,0,1.5-.2s.8-.3,1.1-.6c.3-.2.5-.5.7-.9s.2-.7.2-1.1c0-.9-.3-1.5-.8-1.9-.6-.4-1.4-.6-2.5-.6h-2.1v5.4h2Z"/>
    <path class="cls-2" d="m88.2,120.5l-5.8,14.3h-1.7l-5.8-14.3h1.6c.2,0,.3,0,.4.1.1,0,.2.2.2.3l4,10.1c0,.2.2.5.3.7,0,.3.2.5.2.8,0-.3.1-.6.2-.8s.2-.5.2-.7l4-10.1c0-.1.1-.2.2-.3s.3-.1.4-.1h1.6Z"/>
    <path class="cls-2" d="m92,134.8h-1.9v-14.3h1.9v14.3Z"/>
    <path class="cls-2" d="m104.5,133.3v1.6h-8.8v-14.3h8.8v1.6h-6.9v4.8h5.6v1.5h-5.6v4.9h6.9Z"/>
    <path class="cls-2" d="m125.8,120.5l-4.5,14.3h-1.7l-3.6-10.9c0-.1,0-.2,0-.3,0-.1,0-.2,0-.4,0,.1,0,.3-.1.4,0,.1,0,.2,0,.3l-3.7,10.9h-1.7l-4.5-14.3h1.6c.2,0,.3,0,.4.1.1,0,.2.2.2.3l3,10c0,.2,0,.4.1.6,0,.2,0,.4.1.7,0-.2,0-.5.1-.7,0-.2.1-.4.2-.6l3.4-10c0-.1.1-.2.2-.3.1,0,.3-.1.4-.1h.6c.2,0,.3,0,.4.1.1,0,.2.2.2.3l3.4,10c0,.2.1.4.2.6,0,.2,0,.4.1.6,0-.2,0-.4.1-.6,0-.2,0-.4.1-.6l3-10c0-.1.1-.2.2-.3.1,0,.3-.1.4-.1h1.5Z"/>
  </g>
  <g>
    <path class="cls-1" d="m84.5,57.4c-.7-.7-1.3-1.3-1.9-1.9-1.8,1-3.5,2.1-5.3,2.9-1.8.8-3.8,1.2-5.8,1.9,0,1,0,2.2,0,3.3,0,2.2,0,4.4,0,6.6,0,1.6-.9,2.5-2.4,2.5-7.4,0-14.8,0-22.3,0-1.6,0-2.4-.9-2.4-2.5,0-6.3,0-12.6,0-18.9,0-1.6.9-2.5,2.5-2.5.3,0,.6,0,.9,0-3.4-6-4.3-12.3-2.4-18.9,1.5-5,4.4-9.1,8.5-12.3,8.2-6.2,20.3-6.6,29.3.7,4.9-3.4,10-3.8,14.8-.2,3.9,3,5.3,7.2,4.2,11.9-1.3,5.5-5.1,8.3-10.6,9.1-.5,4.3-2.1,8.3-4.7,11.7.7.7,1.4,1.4,2.1,2.1,0,0,0,0,0,0,1.5-1.3,2.6-1.2,3.9.1,3.3,3.3,6.5,6.5,9.8,9.8,1.3,1.3,1.3,2.5,0,3.9-1.5,1.5-3,3-4.5,4.5-1.1,1.1-2.5,1.2-3.6,0-3.4-3.3-6.7-6.7-10-10-1.2-1.2-1.3-2.4,0-3.7,0,0,0,0,.1-.2Zm-1.2-19.2c-.9.2-1.8.3-2.6.5-1.1.2-1.6-.4-1.4-1.5.3-1.2.6-2.5.8-3.7,0-.3,0-.7,0-1-.9-1.9-1.2-3.9-1-5.9,0-.5-.1-.9-.5-1.2-3.9-3.4-8.3-4.9-13.4-3.9-6.2,1.3-10.4,5.1-12,11.2-1.6,6.1.1,11.4,4.8,15.7.3.3.7.4,1.1.4,3.3,0,6.7,0,10,0,1.4,0,2.3.9,2.4,2.3,0,.2,0,.4,0,.6,6.3-1.2,11.5-7.3,11.9-13.4Zm-25.5,15.7c-.9.7-1.7,1.4-2.5,2-.5.4-1,.6-1.5.3-.6-.3-.8-.8-.8-1.4,0-1.3,0-2.7,0-4,0-.2,0-.4,0-.7-2.1,0-4.1,0-6.1,0-1,0-1.2.2-1.2,1.2,0,6.3,0,12.5,0,18.8,0,.9.3,1.2,1.2,1.2,7.4,0,14.7,0,22.1,0,.9,0,1.2-.3,1.2-1.2,0-6.3,0-12.6,0-18.9,0-.9-.3-1.2-1.1-1.2-1.9,0-3.8,0-5.7,0-.2,0-.4,0-.6,0,0,1.6,0,3.1,0,4.6,0,.6-.1,1.2-.7,1.4-.6.3-1.1,0-1.6-.3-.8-.7-1.6-1.3-2.5-2Zm-1.5-5.2c-3.2-3.2-4.9-6.9-5.1-11.3-.2-4.4,1.1-8.3,3.9-11.7,2.5-3,5.7-4.9,9.5-5.6,5.6-1.1,10.5.4,14.7,4.1.6-1.9,1.5-3.5,2.7-4.8,0,0,0-.1,0-.1-.1,0-.2-.2-.3-.3-4.7-3.6-10.1-5.2-16-4.6-6,.6-10.9,3.3-14.8,7.9-6.1,7.2-6.9,18-1.9,26,.2.3.4.4.8.4,2,0,4,0,6,0,.2,0,.3,0,.6,0Zm46,16.1c-.2-.3-.3-.6-.5-.8-3.4-3.4-6.8-6.8-10.2-10.2-.6-.6-1-.6-1.6,0-1.6,1.6-3.1,3.1-4.7,4.7-.5.6-.5,1.1,0,1.6,3.4,3.4,6.8,6.8,10.2,10.2.6.6,1,.6,1.6,0,1.6-1.6,3.1-3.1,4.7-4.7.2-.2.3-.5.5-.8Zm-30.9-6.3c10.3-1.4,17.9-10.3,18.7-19.4-1.6-.1-3.2-.5-4.7-1.2-.3-.2-.6,0-.7.4-1,7.1-5,11.9-11.7,14.3-.5.2-1.2.2-1.5.5-.3.4,0,1,0,1.6,0,1.3,0,2.6,0,3.8Zm9.3-21.3c1.5-.3,2.8-.5,4.1-.7.5-.1.9,0,1.4.2,1.8.9,3.7,1.2,5.7,1,5.5-.6,9.5-5.3,9.3-10.6-.2-5.6-4.6-9.9-10.2-10.1-7.8-.2-13,8-9.6,14.9.3.5.3,1,.2,1.5-.3,1.2-.6,2.4-.9,3.8Zm-26.3,17.7c.8-.7,1.6-1.3,2.3-1.9.8-.7,1.3-.7,2.2,0,.8.6,1.6,1.2,2.4,1.9v-4.8h-6.9v4.8Zm33.4-.8c-.7-.7-1.3-1.3-1.9-1.9-.7.7-1.5,1.5-2.2,2.2.6.6,1.2,1.3,1.8,1.9.7-.7,1.5-1.5,2.2-2.2Z"/>
    <path class="cls-2" d="m76.4,34.1c0-1.1,0-2.1,0-3.2,0-.5.1-.9.7-.9.5,0,.7.4.7.8,0,2.2,0,4.3,0,6.5,0,.5-.2.8-.7.8-.5,0-.7-.4-.7-.9,0-1.1,0-2.1,0-3.2Z"/>
    <path class="cls-2" d="m66.7,34.1c0,1.1,0,2.1,0,3.2,0,.5-.1.8-.7.9-.5,0-.7-.4-.7-.8,0-2.2,0-4.3,0-6.5,0-.5.2-.8.7-.8.5,0,.7.4.7.9,0,1.1,0,2.1,0,3.2Z"/>
    <path class="cls-2" d="m59.4,34.1c0,1.1,0,2.1,0,3.2,0,.5-.1.8-.7.8-.5,0-.7-.4-.7-.8,0-2.2,0-4.3,0-6.5,0-.5.2-.8.7-.8.5,0,.7.4.6.8,0,1.1,0,2.2,0,3.3Z"/>
    <path class="cls-2" d="m72.7,33.9c0-1,0-2,0-3,0-.5.2-.8.7-.9.5,0,.7.4.7.8,0,2,0,4,0,6,0,.5-.1.8-.7.8-.5,0-.7-.4-.7-.8,0-1,0-2,0-3Z"/>
    <path class="cls-2" d="m61.7,33.3c0-.8,0-1.7,0-2.5,0-.5.2-.8.6-.8.5,0,.7.4.7.8,0,1.7,0,3.3,0,5,0,.5-.2.8-.7.8-.5,0-.6-.4-.6-.8,0-.8,0-1.7,0-2.5Z"/>
    <path class="cls-2" d="m70.4,32.3c0,.5,0,1,0,1.5,0,.4-.2.7-.7.7-.5,0-.7-.3-.7-.8,0-1,0-1.9,0-2.9,0-.4.2-.7.6-.8.5,0,.7.3.7.7,0,.5,0,1,0,1.5Z"/>
    <path class="cls-2" d="m61.7,42.1c0,0,0-.2,0-.2,0-.5.1-.9.7-.9.5,0,.7.4.7.9,0,.2,0,.5,0,.7,0,.4-.2.8-.7.7-.5,0-.6-.3-.6-.8,0-.1,0-.3,0-.4Z"/>
    <path class="cls-2" d="m74.1,42.1c0,.5,0,.9-.7.9-.6,0-.8-.5-.7-1,0-.3.2-.8.4-.9.5-.4,1,.1,1,1Z"/>
    <path class="cls-2" d="m66.7,42c0,.6-.2,1-.7,1-.6,0-.7-.5-.7-1,0-.4,0-.8.5-1,.6-.2.9.2.9,1Z"/>
    <path class="cls-2" d="m59.4,42c0,.6-.2,1-.7,1-.6,0-.7-.5-.7-1,0-.4,0-.8.5-1,.6-.2.9.2.9,1Z"/>
    <path class="cls-2" d="m68.9,42c.2-.3.2-.7.5-.9.2-.1.6,0,.8.1.3.2.3,1.3,0,1.5-.2.1-.6.2-.8.1-.2-.1-.3-.5-.5-.9Z"/>
    <path class="cls-2" d="m76.4,42c0-.7.3-1,.7-1,.6,0,.6.5.6,1,0,.5,0,.9-.6,1-.5,0-.7-.3-.7-1Z"/>
    <path class="cls-1" d="m52.1,64.1c1,0,2,0,3,0,.8,0,1.2.4,1.2,1.2,0,.9,0,1.8,0,2.7,0,.8-.4,1.2-1.2,1.2-2,0-4.1,0-6.1,0-.8,0-1.2-.4-1.2-1.2,0-.9,0-1.8,0-2.7,0-.8.4-1.2,1.2-1.2,1,0,2,0,3,0Zm-2.9,1.4v2.3h5.7v-2.3h-5.7Z"/>
    <path class="cls-2" d="m90.8,19c4.6,0,8.4,3.8,8.4,8.4,0,4.7-3.8,8.4-8.4,8.4-4.7,0-8.4-3.8-8.4-8.5,0-4.6,3.8-8.4,8.4-8.4Zm0,1.4c-3.9,0-7,3.2-7,7.1,0,3.9,3.2,7.1,7.1,7,3.9,0,7-3.2,7-7.1,0-3.9-3.2-7.1-7.1-7Z"/>
    <path class="cls-1" d="m89.9,27.5c.8-.5,1.6-.9,2.4-1.4.6-.3,1-.3,1.2.2.3.5,0,.8-.5,1-.9.5-1.9,1.1-2.8,1.6-.6.3-.9.3-1.2-.3-.3-.4-.5-.9-.8-1.3-.2-.4-.2-.7.2-1,.4-.2.8-.1,1,.3.2.3.3.6.6.9Z"/>
  </g>
</svg>