<?xml version="1.0" encoding="UTF-8"?>
<svg id="Layer_1" data-name="Layer 1" xmlns="http://www.w3.org/2000/svg" viewBox="0 0 150 150">
  <defs>
    <style>
      .cls-1 {
        fill: #c51724;
      }

      .cls-1, .cls-2 {
        stroke-width: 0px;
      }
    </style>
  </defs>
  <g>
    <path class="cls-2" d="m41.5,109.5h-1.7c-.4,0-.6-.1-.8-.4l-3.7-5.1c-.1-.2-.2-.3-.4-.3s-.3-.1-.6-.1h-1.5v6h-1.9v-14.3h4c.9,0,1.7,0,2.4.3s1.2.4,1.6.8c.4.3.7.8,1,1.3s.3,1,.3,1.6,0,1-.2,1.4c-.2.4-.4.8-.7,1.2-.3.3-.7.6-1.1.9-.4.2-.9.4-1.5.6.2.1.5.3.6.6l4.2,5.7Zm-6.6-7.4c.6,0,1.1,0,1.5-.2.4-.1.8-.3,1.1-.6.3-.2.5-.5.7-.9.1-.3.2-.7.2-1.1,0-.9-.3-1.5-.8-1.9-.6-.4-1.4-.6-2.5-.6h-2.1v5.4h2Z"/>
    <path class="cls-2" d="m52.2,107.9v1.6h-8.8v-14.3h8.8v1.6h-6.9v4.8h5.6v1.5h-5.6v4.9h6.9Z"/>
    <path class="cls-2" d="m66.3,102.6v5.5c-.7.5-1.5.9-2.3,1.2-.8.3-1.7.4-2.7.4s-2.2-.2-3.1-.5-1.7-.9-2.4-1.5-1.2-1.4-1.5-2.3c-.4-.9-.5-1.9-.5-3s.2-2.1.5-3c.3-.9.8-1.7,1.5-2.3s1.4-1.1,2.3-1.5,1.9-.5,3-.5,1.1,0,1.6.1c.5,0,.9.2,1.4.4.4.2.8.3,1.1.6.4.2.7.5,1,.8l-.5.9c0,.1-.2.2-.3.3s-.3,0-.5,0c-.2,0-.3-.2-.5-.3-.2-.1-.5-.3-.8-.4-.3-.1-.6-.2-1-.3-.4,0-.9-.1-1.4-.1-.8,0-1.5.1-2.2.4s-1.2.6-1.7,1.1-.8,1.1-1.1,1.8-.4,1.5-.4,2.3.1,1.7.4,2.4c.3.7.6,1.3,1.1,1.8.5.5,1.1.9,1.7,1.1.7.3,1.4.4,2.3.4s1.3,0,1.8-.2c.5-.2,1-.4,1.5-.6v-3.2h-2.2c-.1,0-.2,0-.3-.1,0,0-.1-.2-.1-.3v-1.1h4.4Z"/>
    <path class="cls-2" d="m71.2,109.5h-1.9v-14.3h1.9v14.3Z"/>
    <path class="cls-2" d="m82.2,97.4c0,0-.1.2-.2.2s-.2,0-.3,0-.2,0-.4-.2-.3-.2-.6-.4c-.2-.1-.5-.3-.8-.4-.3-.1-.7-.2-1.2-.2s-.8,0-1.1.2c-.3.1-.6.3-.8.5-.2.2-.4.4-.5.7-.1.3-.2.6-.2.9s0,.7.3,1c.2.3.5.5.8.7.3.2.7.3,1.1.5s.8.3,1.3.4c.4.1.9.3,1.3.5.4.2.8.4,1.1.7s.6.6.8,1c.2.4.3.9.3,1.5s-.1,1.2-.3,1.8c-.2.5-.5,1-.9,1.4-.4.4-.9.7-1.5,1-.6.2-1.3.4-2,.4s-1.8-.2-2.5-.5c-.8-.3-1.4-.8-1.9-1.4l.6-.9c0,0,.1-.1.2-.2,0,0,.2,0,.3,0s.2,0,.3.1c.1,0,.2.2.4.3.1.1.3.2.5.3.2.1.4.2.6.3.2.1.5.2.8.3.3,0,.6.1,1,.1s.9,0,1.2-.2c.4-.1.7-.3.9-.5.2-.2.4-.5.6-.8s.2-.7.2-1.1,0-.8-.3-1.1c-.2-.3-.5-.5-.8-.7-.3-.2-.7-.3-1.1-.5-.4-.1-.8-.3-1.3-.4-.4-.1-.8-.3-1.3-.5-.4-.2-.8-.4-1.1-.7-.3-.3-.6-.6-.8-1.1s-.3-1-.3-1.6,0-1,.3-1.5c.2-.5.5-.9.9-1.3.4-.4.8-.7,1.4-.9.6-.2,1.2-.3,1.9-.3s1.5.1,2.2.4c.7.3,1.2.6,1.7,1.1l-.5.9Z"/>
    <path class="cls-2" d="m95.4,96.8h-4.6v12.7h-1.9v-12.7h-4.7v-1.6h11.2v1.6Z"/>
    <path class="cls-2" d="m106.3,107.9v1.6h-8.8v-14.3h8.8v1.6h-6.9v4.8h5.6v1.5h-5.6v4.9h6.9Z"/>
    <path class="cls-2" d="m119.6,109.5h-1.7c-.4,0-.6-.1-.8-.4l-3.7-5.1c-.1-.2-.2-.3-.4-.3s-.3-.1-.6-.1h-1.5v6h-1.9v-14.3h4c.9,0,1.7,0,2.4.3.7.2,1.2.4,1.6.8.4.3.7.8,1,1.3.2.5.3,1,.3,1.6s0,1-.2,1.4c-.2.4-.4.8-.7,1.2-.3.3-.7.6-1.1.9-.4.2-.9.4-1.5.6.2.1.5.3.6.6l4.2,5.7Zm-6.6-7.4c.6,0,1.1,0,1.5-.2s.8-.3,1.1-.6.5-.5.7-.9c.1-.3.2-.7.2-1.1,0-.9-.3-1.5-.8-1.9-.6-.4-1.4-.6-2.5-.6h-2.1v5.4h2Z"/>
  </g>
  <g>
    <path class="cls-2" d="m56.9,133.3c.6,0,1.1,0,1.6-.3.5-.2.9-.5,1.2-.8.3-.4.6-.8.7-1.3s.3-1,.3-1.7v-8.7h1.9v8.7c0,.8-.1,1.6-.4,2.3-.3.7-.6,1.3-1.1,1.8-.5.5-1.1.9-1.8,1.2-.7.3-1.5.4-2.4.4s-1.7-.1-2.4-.4c-.7-.3-1.3-.7-1.8-1.2-.5-.5-.9-1.1-1.1-1.8-.3-.7-.4-1.5-.4-2.3v-8.7h1.9v8.7c0,.6,0,1.1.3,1.6s.4.9.7,1.3c.3.4.7.6,1.2.8.5.2,1,.3,1.6.3Z"/>
    <path class="cls-2" d="m73.4,122.7c0,0-.1.2-.2.2,0,0-.2,0-.3,0s-.2,0-.4-.2-.3-.2-.6-.4-.5-.3-.8-.4c-.3-.1-.7-.2-1.2-.2s-.8,0-1.1.2c-.3.1-.6.3-.8.5-.2.2-.4.4-.5.7-.1.3-.2.6-.2.9s0,.7.3,1c.2.3.5.5.8.7.3.2.7.3,1.1.5.4.1.8.3,1.3.4.4.1.9.3,1.3.5.4.2.8.4,1.1.7s.6.6.8,1c.2.4.3.9.3,1.5s-.1,1.2-.3,1.8-.5,1-.9,1.4c-.4.4-.9.7-1.5,1-.6.2-1.3.4-2,.4s-1.8-.2-2.5-.5c-.8-.3-1.4-.8-1.9-1.4l.6-.9c0,0,.1-.1.2-.2,0,0,.2,0,.3,0s.2,0,.3.1c.1,0,.2.2.4.3.1.1.3.2.5.3.2.1.4.2.6.3.2.1.5.2.8.3.3,0,.6.1,1,.1s.9,0,1.2-.2c.4-.1.7-.3.9-.5.2-.2.4-.5.6-.8.1-.3.2-.7.2-1.1s0-.8-.3-1.1-.5-.5-.8-.7-.7-.3-1.1-.5c-.4-.1-.8-.3-1.3-.4-.4-.1-.8-.3-1.3-.5-.4-.2-.8-.4-1.1-.7-.3-.3-.6-.6-.8-1.1s-.3-1-.3-1.6,0-1,.3-1.5c.2-.5.5-.9.9-1.3.4-.4.8-.7,1.4-.9.6-.2,1.2-.3,1.9-.3s1.5.1,2.2.4c.7.3,1.2.6,1.7,1.1l-.5.9Z"/>
    <path class="cls-2" d="m85.8,133.3v1.6h-8.8v-14.3h8.8v1.6h-6.9v4.8h5.6v1.5h-5.6v4.9h6.9Z"/>
    <path class="cls-2" d="m99.1,134.8h-1.7c-.4,0-.6-.1-.8-.4l-3.7-5.1c-.1-.2-.2-.3-.4-.3-.1,0-.3-.1-.6-.1h-1.5v6h-1.9v-14.3h4c.9,0,1.7,0,2.4.3.7.2,1.2.4,1.6.8.4.3.7.8,1,1.3.2.5.3,1,.3,1.6s0,1-.2,1.4c-.2.4-.4.8-.7,1.2-.3.3-.7.6-1.1.9-.4.2-.9.4-1.5.6.2.1.5.3.6.6l4.2,5.7Zm-6.6-7.4c.6,0,1.1,0,1.5-.2s.8-.3,1.1-.6c.3-.2.5-.5.7-.9s.2-.7.2-1.1c0-.9-.3-1.5-.8-1.9-.6-.4-1.4-.6-2.5-.6h-2.1v5.4h2Z"/>
  </g>
  <g>
    <path class="cls-1" d="m102.2,71.2h-55.7V15.5h42.6v6.5h6.6v6.6h6.5v42.6Zm-52.4-3.3h36V18.8h-36v49.1Zm42.6,0v-.7c0-13.7,0-27.4,0-41,0-.2,0-.3,0-.5,0-.1-.2-.3-.3-.3-1,0-1.9,0-3,0v42.6h3.2Zm3.3-36v36h3.2V31.9h-3.2Z"/>
    <path class="cls-2" d="m77.6,40h-19.5c-.4-3.7.9-8.1,5.5-10.5-.7-1.3-.9-2.8-.4-4.2.4-1,1-1.9,2-2.5,1.8-1.2,4.2-1,5.9.4,1.4,1.2,2.4,3.6,1,6.2,4.2,2.3,5.9,5.8,5.6,10.5Zm-3.5-3.3c-.5-3-3.7-5.1-7-4.9-2.6.2-5.5,2.7-5.5,4.9h12.5Zm-7.9-9.8c0,.9.7,1.6,1.6,1.6.9,0,1.7-.7,1.7-1.6,0-.9-.8-1.6-1.6-1.6-.9,0-1.6.7-1.6,1.6Z"/>
    <path class="cls-2" d="m67.9,48.2v-3.2h14.7v3.2h-14.7Z"/>
    <path class="cls-2" d="m82.5,56.4h-14.6v-3.2h14.6v3.2Z"/>
    <path class="cls-2" d="m67.9,64.6v-3.2h14.7v3.2h-14.7Z"/>
    <path class="cls-2" d="m57.8,48.4c1.3-1.7,2.6-3.4,3.8-5.1.9.7,1.7,1.3,2.6,2-2,2.7-4,5.4-6,8-1.5-1.5-3.1-3.1-4.5-4.5.7-.7,1.4-1.4,2.2-2.3.6.6,1.2,1.3,1.8,1.9Z"/>
    <path class="cls-2" d="m58.2,64.5c-1.6-1.6-3.1-3.1-4.5-4.5.7-.7,1.5-1.5,2.3-2.3.6.6,1.1,1.3,1.8,2,1.3-1.8,2.6-3.4,3.8-5.1.9.7,1.7,1.3,2.6,2-2,2.7-4,5.3-6,8Z"/>
  </g>
</svg>