<?xml version="1.0" encoding="UTF-8"?>
<svg id="Layer_1" data-name="Layer 1" xmlns="http://www.w3.org/2000/svg" viewBox="0 0 88.7 119.5">
  <defs>
    <style>
      .cls-1 {
        fill: #c51724;
      }

      .cls-1, .cls-2 {
        stroke-width: 0px;
      }
    </style>
  </defs>
  <g>
    <path class="cls-2" d="m10.6,94h-1.7c-.4,0-.6,0-.8-.4l-3.7-5.1c0-.2-.2-.3-.4-.3s-.3,0-.6,0h-1.5v6H0v-14.3h4c.9,0,1.7,0,2.4.3s1.2.4,1.6.8c.4.3.7.8,1,1.3s.3,1,.3,1.6,0,1-.2,1.4-.4.8-.7,1.2c-.3.3-.7.6-1.1.9-.4.2-.9.4-1.5.6.2,0,.5.3.6.6l4.2,5.7v-.2Zm-6.6-7.4c.6,0,1.1,0,1.5-.2.4,0,.8-.3,1.1-.6.3-.2.5-.5.7-.9,0-.3.2-.7.2-1.1,0-.9-.3-1.5-.8-1.9-.6-.4-1.4-.6-2.5-.6h-2.1v5.4h2-.1Z"/>
    <path class="cls-2" d="m21.3,92.4v1.6h-8.8v-14.3h8.8v1.6h-6.9v4.8h5.6v1.5h-5.6v4.9h6.9Z"/>
    <path class="cls-2" d="m35.4,87.1v5.5c-.7.5-1.5.9-2.3,1.2-.8.3-1.7.4-2.7.4s-2.2-.2-3.1-.5-1.7-.9-2.4-1.5-1.2-1.4-1.5-2.3c-.4-.9-.5-1.9-.5-3s.2-2.1.5-3,.8-1.7,1.5-2.3,1.4-1.1,2.3-1.5,1.9-.5,3-.5,1.1,0,1.6,0c.5,0,.9.2,1.4.4.4.2.8.3,1.1.6.4.2.7.5,1,.8l-.5.9c0,0-.2.2-.3.3s-.3,0-.5,0-.3-.2-.5-.3c-.2,0-.5-.3-.8-.4s-.6-.2-1-.3c-.4,0-.9,0-1.4,0-.8,0-1.5,0-2.2.4s-1.2.6-1.7,1.1-.8,1.1-1.1,1.8-.4,1.5-.4,2.3,0,1.7.4,2.4c.3.7.6,1.3,1.1,1.8s1.1.9,1.7,1.1c.7.3,1.4.4,2.3.4s1.3,0,1.8-.2,1-.4,1.5-.6v-3.2h-2.2c0,0-.2,0-.3,0,0,0,0-.2,0-.3v-1.1h4.4v-.3Z"/>
    <path class="cls-2" d="m40.3,94h-1.9v-14.3h1.9v14.3Z"/>
    <path class="cls-2" d="m51.3,81.9s0,.2-.2.2h-.3c-.1,0-.2,0-.4-.2s-.3-.2-.6-.4c-.2,0-.5-.3-.8-.4s-.7-.2-1.2-.2-.8,0-1.1.2c-.3,0-.6.3-.8.5-.2.2-.4.4-.5.7,0,.3-.2.6-.2.9s0,.7.3,1c.2.3.5.5.8.7s.7.3,1.1.5.8.3,1.3.4c.4,0,.9.3,1.3.5s.8.4,1.1.7.6.6.8,1c.2.4.3.9.3,1.5s0,1.2-.3,1.8c-.2.5-.5,1-.9,1.4s-.9.7-1.5,1c-.6.2-1.3.4-2,.4s-1.8-.2-2.5-.5c-.8-.3-1.4-.8-1.9-1.4l.6-.9.2-.2h.3c.1,0,.2,0,.3,0,0,0,.2.2.4.3,0,0,.3.2.5.3.2,0,.4.2.6.3.2,0,.5.2.8.3.3,0,.6,0,1,0s.9,0,1.2-.2c.4,0,.7-.3.9-.5.2-.2.4-.5.6-.8s.2-.7.2-1.1,0-.8-.3-1.1c-.2-.3-.5-.5-.8-.7s-.7-.3-1.1-.5c-.4,0-.8-.3-1.3-.4-.4,0-.8-.3-1.3-.5-.4-.2-.8-.4-1.1-.7s-.6-.6-.8-1.1-.3-1-.3-1.6,0-1,.3-1.5c.2-.5.5-.9.9-1.3s.8-.7,1.4-.9c.6-.2,1.2-.3,1.9-.3s1.5,0,2.2.4,1.2.6,1.7,1.1l-.5.9-.3.2Z"/>
    <path class="cls-2" d="m64.5,81.3h-4.6v12.7h-1.9v-12.7h-4.7v-1.6h11.2v1.6Z"/>
    <path class="cls-2" d="m75.4,92.4v1.6h-8.8v-14.3h8.8v1.6h-6.9v4.8h5.6v1.5h-5.6v4.9h6.9Z"/>
    <path class="cls-2" d="m88.7,94h-1.7c-.4,0-.6,0-.8-.4l-3.7-5.1c0-.2-.2-.3-.4-.3s-.3,0-.6,0h-1.5v6h-1.9v-14.3h4c.9,0,1.7,0,2.4.3.7.2,1.2.4,1.6.8.4.3.7.8,1,1.3.2.5.3,1,.3,1.6s0,1-.2,1.4-.4.8-.7,1.2c-.3.3-.7.6-1.1.9-.4.2-.9.4-1.5.6.2,0,.5.3.6.6l4.2,5.7v-.2Zm-6.6-7.4c.6,0,1.1,0,1.5-.2s.8-.3,1.1-.6.5-.5.7-.9c0-.3.2-.7.2-1.1,0-.9-.3-1.5-.8-1.9-.6-.4-1.4-.6-2.5-.6h-2.1v5.4h2,0Z"/>
  </g>
  <g>
    <path class="cls-2" d="m26.1,117.8c.6,0,1.1,0,1.6-.3.5-.2.9-.5,1.2-.8.3-.4.6-.8.7-1.3s.3-1,.3-1.7v-8.7h1.9v8.7c0,.8,0,1.6-.4,2.3-.3.7-.6,1.3-1.1,1.8s-1.1.9-1.8,1.2-1.5.4-2.4.4-1.7-.1-2.4-.4c-.7-.3-1.3-.7-1.8-1.2s-.9-1.1-1.1-1.8c-.3-.7-.4-1.5-.4-2.3v-8.7h1.9v8.7c0,.6,0,1.1.3,1.6s.4.9.7,1.3c.3.4.7.6,1.2.8s1,.3,1.6.3h0Z"/>
    <path class="cls-2" d="m42.6,107.2s0,.2-.2.2h-.3c-.1,0-.2,0-.4-.2s-.3-.2-.6-.4-.5-.3-.8-.4-.7-.2-1.2-.2-.8,0-1.1.2c-.3,0-.6.3-.8.5-.2.2-.4.4-.5.7,0,.3-.2.6-.2.9s0,.7.3,1c.2.3.5.5.8.7s.7.3,1.1.5c.4,0,.8.3,1.3.4.4,0,.9.3,1.3.5s.8.4,1.1.7c.3.3.6.6.8,1,.2.4.3.9.3,1.5s0,1.2-.3,1.8-.5,1-.9,1.4-.9.7-1.5,1c-.6.2-1.3.4-2,.4s-1.8-.2-2.5-.5c-.8-.3-1.4-.8-1.9-1.4l.6-.9s0-.1.2-.2h.3c.1,0,.2,0,.3.1,0,0,.2.2.4.3,0,.1.3.2.5.3s.4.2.6.3.5.2.8.3c.3,0,.6.1,1,.1s.9,0,1.2-.2c.4-.1.7-.3.9-.5.2-.2.4-.5.6-.8,0-.3.2-.7.2-1.1s0-.8-.3-1.1-.5-.5-.8-.7-.7-.3-1.1-.5c-.4-.1-.8-.3-1.3-.4-.4,0-.8-.3-1.3-.5-.4-.2-.8-.4-1.1-.7s-.6-.6-.8-1.1-.3-1-.3-1.6,0-1,.3-1.5c.2-.5.5-.9.9-1.3s.8-.7,1.4-.9c.6-.2,1.2-.3,1.9-.3s1.5,0,2.2.4,1.2.6,1.7,1.1l-.5.9-.3.2Z"/>
    <path class="cls-2" d="m55,117.8v1.6h-8.8v-14.3h8.8v1.6h-6.9v4.8h5.6v1.5h-5.6v4.9h6.9Z"/>
    <path class="cls-2" d="m68.3,119.3h-1.7c-.4,0-.6-.1-.8-.4l-3.7-5.1c0-.2-.2-.3-.4-.3s-.3-.1-.6-.1h-1.5v6h-1.9v-14.3h4c.9,0,1.7,0,2.4.3.7.2,1.2.4,1.6.8.4.3.7.8,1,1.3.2.5.3,1,.3,1.6s0,1-.2,1.4-.4.8-.7,1.2c-.3.3-.7.6-1.1.9-.4.2-.9.4-1.5.6.2.1.5.3.6.6l4.2,5.7v-.2Zm-6.6-7.4c.6,0,1.1,0,1.5-.2s.8-.3,1.1-.6c.3-.2.5-.5.7-.9s.2-.7.2-1.1c0-.9-.3-1.5-.8-1.9-.6-.4-1.4-.6-2.5-.6h-2.1v5.4h2,0Z"/>
  </g>
  <g>
    <path class="cls-1" d="m54.7,0c.5.3,1.1.6,1.5,1,.5.5.6,1.1.6,1.8,0,.2,0,.4,0,.7.3,0,.6,0,.9,0,1.7,0,2.8,1.1,2.8,2.8,0,2.5,0,4.9,0,7.4,0,5.9,0,11.8,0,17.7v.8c.4,0,.7,0,1.1,0,1.2,0,2.4,0,3.6.1,2.5.4,4.3,2.5,4.5,5,0,.8,0,1.5,0,2.3,0,.6-.3,1-.8,1-.5,0-.8-.3-.8-1,0-.7,0-1.4,0-2.1-.1-2-1.7-3.5-3.7-3.5-4.8,0-9.6,0-14.3,0-2.1,0-3.7,1.6-3.8,3.8,0,4.8,0,9.5,0,14.3,0,2.3,1.7,3.8,4,3.8,4.6,0,9.2,0,13.8,0,2.4,0,4-1.6,4-4,0-2.5,0-5.1,0-7.6,0-.2,0-.3,0-.5,0-.5.3-.9.8-.9.5,0,.9.3.9.9,0,2.9,0,5.7,0,8.6,0,2.5-2,4.6-4.4,5.1-.1,0-.2,0-.3.1h-15.7c-1-.3-1.9-.6-2.7-1.2-1.4-1.2-2-2.6-2.1-4.4,0-.2,0-.5,0-.7,0,0,0,0,0-.2h-.6c-6,0-11.9,0-17.9,0-.5,0-1.1,0-1.6-.3-.9-.4-1.4-1.1-1.4-2.1,0-.4,0-.7,0-1.2-.4,0-.7,0-1,0-1.5,0-2.6-1.1-2.7-2.6,0-.2,0-.4,0-.6,0-9.8,0-19.6,0-29.4,0-.2,0-.5,0-.7,0-.4.4-.7.8-.7.4,0,.7.2.8.7,0,.3,0,.5,0,.8,0,9.8,0,19.5,0,29.3,0,.2,0,.4,0,.6,0,.7.4,1,1,1,7.4,0,14.9,0,22.3,0,0,0,.1,0,.3,0,0-.2,0-.4,0-.7,0-2.4,0-4.7,0-7.1,0-3,1.9-5.2,4.8-5.6,1-.1,2.1,0,3.1,0,.9,0,1.8,0,2.7,0,0-.3,0-.5,0-.7,0-9.5,0-19,0-28.5,0-1.1-.3-1.4-1.3-1.4-7.6,0-15.2,0-22.8,0h-.7c0,.2,0,.4,0,.6,0,1.9,0,3.9,0,5.8,0,1.9-1.1,3-3,3-2.3,0-4.7,0-7,0-.5,0-.9,0-1.1-.5-.2-.5,0-.8.4-1.1,3-3,6-6,9-9C28.7.3,28.8.2,29,0c8.6,0,17.1,0,25.7,0Zm4.1,32.2c0-.2,0-.4,0-.6,0-8.3,0-16.6,0-24.9,0-.1,0-.3,0-.4,0-.5-.4-.9-.9-.9-.3,0-.7,0-1.1,0v26.9h2Zm-34.2,15.2c-.2,1.5.1,1.9,1.6,1.9,5.9,0,11.7,0,17.6,0h.7v-1.9h-19.9Zm-2.4-38c1.7,0,3.5,0,5.2,0,.9,0,1.3-.3,1.3-1.2,0-1.6,0-3.2,0-4.8,0-.1,0-.2,0-.3-2.1,2.1-4.2,4.3-6.4,6.4Z"/>
    <path class="cls-2" d="m33.6,13.4c0-2.1,0-4.1,0-6.2,0-1.5.9-2.5,2.5-2.5,4.1,0,8.3,0,12.4,0,1.5,0,2.5,1,2.5,2.4,0,4.2,0,8.3,0,12.5,0,1.5-1,2.4-2.4,2.4-4.2,0-8.4,0-12.6,0-1.4,0-2.4-1-2.4-2.4,0-2.1,0-4.2,0-6.3Zm11.2,1.3c.1,0,.2.1.3.2,1.3.8,2,1.9,2.1,3.5,0,.6,0,1.1,0,1.7,0,.1,0,.3,0,.4.4,0,.8,0,1.2,0,.8,0,.9-.2.9-.9,0-4.1,0-8.1,0-12.2,0-.8-.2-.9-1-.9-4,0-8.1,0-12.1,0-.8,0-1,.1-1,1,0,4,0,8,0,12.1,0,.1,0,.3,0,.4.2.2.4.5.6.6.5,0,1,0,1.6,0-.1-2.3-.1-4.6,2.4-5.7-.5-.9-.5-1.8-.4-2.7.1-1.4,1.3-2.5,2.6-2.5,1.4,0,2.7.8,3,2.2.2,1,.2,2-.3,3Zm-5.6,5.7h6.2c0-.8,0-1.5,0-2.3,0-1.1-1-2-2.1-2-.6,0-1.3,0-1.9,0-1.1,0-2.1.8-2.2,2,0,.8,0,1.6,0,2.4Zm1.9-7.7c0,.1,0,.3,0,.4,0,.7.5,1.2,1.2,1.3.7,0,1.2-.5,1.2-1.2,0-.3,0-.5,0-.8,0-.7-.5-1.2-1.2-1.3-.7,0-1.2.5-1.2,1.3,0,.1,0,.2,0,.3Z"/>
    <path class="cls-1" d="m37.8,28.7c-3.9,0-7.7,0-11.6,0-.2,0-.4,0-.5,0-.3-.2-.6-.4-.7-.7-.1-.4.1-.7.5-.9.2,0,.4,0,.6,0,7.8,0,15.6,0,23.4,0,.1,0,.3,0,.4,0,.5,0,.7.4.7.9,0,.5-.3.8-.8.8-.4,0-.9,0-1.3,0-3.6,0-7.2,0-10.8,0Z"/>
    <path class="cls-1" d="m32.4,39.8c2.1,0,4.2,0,6.3,0,.2,0,.4,0,.6,0,.4.1.7.4.7.9,0,.4-.3.7-.7.8,0,0-.2,0-.3,0-4.3,0-8.6,0-12.9,0,0,0-.1,0-.2,0-.5,0-.8-.4-.8-.8,0-.5.3-.8.8-.8.4,0,.9,0,1.3,0,1.8,0,3.6,0,5.4,0Z"/>
    <path class="cls-1" d="m32.4,32.9c-2.2,0-4.3,0-6.5,0-.5,0-.9-.2-1-.7,0-.5.2-.8.7-.9.2,0,.4,0,.6,0,4.2,0,8.4,0,12.6,0,0,0,.2,0,.3,0,.6,0,1,.4.9.9,0,.5-.4.8-1,.8-2.2,0-4.4,0-6.6,0Z"/>
    <path class="cls-1" d="m29.1,37.2c-1.1,0-2.1,0-3.2,0-.6,0-1-.3-1-.8,0-.5.4-.8.9-.8,2.2,0,4.3,0,6.5,0,.6,0,.9.4.9.9,0,.5-.3.8-.9.8-1.1,0-2.2,0-3.2,0Z"/>
    <path class="cls-1" d="m29.5,18.4c-.2.3-.3.6-.4.7-.9.9-1.7,1.8-2.6,2.6-.4.4-.9.4-1.2,0-.4-.3-.3-.8,0-1.2.9-.9,1.7-1.8,2.7-2.6.2-.2.7-.3.9-.2.2,0,.4.4.6.7Z"/>
    <path class="cls-1" d="m37.7,37.2c-.4,0-.9,0-1.3,0-.5,0-.8-.4-.8-.8,0-.4.3-.8.8-.9,1,0,1.9,0,2.9,0,.5,0,.8.4.8.9,0,.4-.4.8-.9.8-.5,0-.9,0-1.4,0Z"/>
    <path class="cls-2" d="m55.4,45c1.6-1.6,3.2-3.1,4.6-4.7,1.3-1.4,2.6-1.5,3.9,0,.3.3.6.6.8.8.7.8.8,1.9,0,2.7-2.5,2.5-5,5-7.5,7.5-1.1,1-2.7,1-3.8,0-1.3-1.3-2.6-2.6-3.9-3.9-.8-.8-.7-1.9,0-2.7.5-.5,1-1,1.5-1.5.8-.8,1.9-.8,2.8,0,.5.5,1,1.1,1.6,1.7Zm-.1,5.5c.3-.2.7-.3.9-.5,2.4-2.4,4.8-4.8,7.2-7.2.2-.2.2-.4,0-.7-.3-.3-.7-.6-.9-1-.3-.4-.5-.4-.9,0-1.7,1.8-3.5,3.5-5.2,5.2-.7.7-1,.7-1.7,0-.6-.6-1.2-1.2-1.8-1.8-.3-.3-.6-.3-.9,0-.3.4-.7.7-1,1-.3.3-.3.5,0,.8,1.2,1.2,2.3,2.3,3.5,3.5.2.2.6.3.9.5Z"/>
  </g>
</svg>