<?xml version="1.0" encoding="UTF-8"?>
<svg id="Layer_1" data-name="Layer 1" xmlns="http://www.w3.org/2000/svg" viewBox="0 0 150 150">
  <defs>
    <style>
      .cls-1 {
        fill: #c51724;
      }

      .cls-1, .cls-2 {
        stroke-width: 0px;
      }
    </style>
  </defs>
  <g>
    <path class="cls-2" d="m44.2,110.8h-1.7c-.4,0-.6,0-.8-.4l-3.7-5.1c0-.2-.2-.3-.4-.3h-2.1v6h-1.9v-14.3h4c.9,0,1.7,0,2.4.3s1.2.4,1.6.8c.4.3.7.8,1,1.3s.3,1,.3,1.6,0,1-.2,1.4-.4.8-.7,1.2c-.3.3-.7.6-1.1.9-.4.2-.9.4-1.5.6.2,0,.5.3.6.6l4.2,5.7v-.2h0Zm-6.6-7.4c.6,0,1.1,0,1.5-.2.4,0,.8-.3,1.1-.6.3-.2.5-.5.7-.9,0-.3.2-.7.2-1.1,0-.9-.3-1.5-.8-1.9-.6-.4-1.4-.6-2.5-.6h-2.1v5.4h2,0,0Z"/>
    <path class="cls-2" d="m54.9,109.2v1.6h-8.8v-14.3h8.8v1.6h-6.9v4.8h5.6v1.5h-5.6v4.9h6.9Z"/>
    <path class="cls-2" d="m69,103.9v5.5c-.7.5-1.5.9-2.3,1.2-.8.3-1.7.4-2.7.4s-2.2-.2-3.1-.5-1.7-.9-2.4-1.5-1.2-1.4-1.5-2.3c-.4-.9-.5-1.9-.5-3s.2-2.1.5-3,.8-1.7,1.5-2.3,1.4-1.1,2.3-1.5,1.9-.5,3-.5h1.6c.5,0,.9.2,1.4.4.4.2.8.3,1.1.6.4.2.7.5,1,.8l-.5.9s-.2.2-.3.3-.3,0-.5,0-.3-.2-.5-.3c-.2,0-.5-.3-.8-.4s-.6-.2-1-.3h-1.4c-.8,0-1.5,0-2.2.4s-1.2.6-1.7,1.1-.8,1.1-1.1,1.8-.4,1.5-.4,2.3,0,1.7.4,2.4c.3.7.6,1.3,1.1,1.8s1.1.9,1.7,1.1c.7.3,1.4.4,2.3.4s1.3,0,1.8-.2c.5-.2,1-.4,1.5-.6v-3.2h-2.5v-1.4h4.4v-.3h-.2Z"/>
    <path class="cls-2" d="m73.9,110.8h-1.9v-14.3h1.9v14.3Z"/>
    <path class="cls-2" d="m84.9,98.7s0,.2-.2.2h-.3c0,0-.2,0-.4-.2s-.3-.2-.6-.4c-.2,0-.5-.3-.8-.4s-.7-.2-1.2-.2-.8,0-1.1.2c-.3,0-.6.3-.8.5s-.4.4-.5.7c0,.3-.2.6-.2.9s0,.7.3,1c.2.3.5.5.8.7s.7.3,1.1.5.8.3,1.3.4c.4,0,.9.3,1.3.5s.8.4,1.1.7.6.6.8,1,.3.9.3,1.5,0,1.2-.3,1.8c-.2.5-.5,1-.9,1.4s-.9.7-1.5,1c-.6.2-1.3.4-2,.4s-1.8-.2-2.5-.5c-.8-.3-1.4-.8-1.9-1.4l.6-.9.2-.2h.6s.2.2.4.3c0,0,.3.2.5.3.2,0,.4.2.6.3.2,0,.5.2.8.3h1c.4,0,.9,0,1.2-.2.4,0,.7-.3.9-.5s.4-.5.6-.8.2-.7.2-1.1,0-.8-.3-1.1c-.2-.3-.5-.5-.8-.7s-.7-.3-1.1-.5c-.4,0-.8-.3-1.3-.4-.4,0-.8-.3-1.3-.5-.4-.2-.8-.4-1.1-.7s-.6-.6-.8-1.1-.3-1-.3-1.6,0-1,.3-1.5c.2-.5.5-.9.9-1.3s.8-.7,1.4-.9c.6-.2,1.2-.3,1.9-.3s1.5,0,2.2.4,1.2.6,1.7,1.1l-.5.9-.3.2v.2Z"/>
    <path class="cls-2" d="m98.1,98.1h-4.6v12.7h-1.9v-12.7h-4.7v-1.6h11.2v1.6Z"/>
    <path class="cls-2" d="m109,109.2v1.6h-8.8v-14.3h8.8v1.6h-6.9v4.8h5.6v1.5h-5.6v4.9h6.9Z"/>
    <path class="cls-2" d="m122.3,110.8h-1.7c-.4,0-.6,0-.8-.4l-3.7-5.1c0-.2-.2-.3-.4-.3h-2.1v6h-1.9v-14.3h4c.9,0,1.7,0,2.4.3.7.2,1.2.4,1.6.8.4.3.7.8,1,1.3.2.5.3,1,.3,1.6s0,1-.2,1.4-.4.8-.7,1.2c-.3.3-.7.6-1.1.9-.4.2-.9.4-1.5.6.2,0,.5.3.6.6l4.2,5.7v-.2h0Zm-6.6-7.4c.6,0,1.1,0,1.5-.2s.8-.3,1.1-.6.5-.5.7-.9c0-.3.2-.7.2-1.1,0-.9-.3-1.5-.8-1.9-.6-.4-1.4-.6-2.5-.6h-2.1v5.4h2,0Z"/>
  </g>
  <g>
    <path class="cls-2" d="m59.7,134.6c.6,0,1.1,0,1.6-.3.5-.2.9-.5,1.2-.8.3-.4.6-.8.7-1.3s.3-1,.3-1.7v-8.7h1.9v8.7c0,.8,0,1.6-.4,2.3-.3.7-.6,1.3-1.1,1.8s-1.1.9-1.8,1.2-1.5.4-2.4.4-1.7,0-2.4-.4c-.7-.3-1.3-.7-1.8-1.2s-.9-1.1-1.1-1.8c-.3-.7-.4-1.5-.4-2.3v-8.7h1.9v8.7c0,.6,0,1.1.3,1.6s.4.9.7,1.3c.3.4.7.6,1.2.8s1,.3,1.6.3h0Z"/>
    <path class="cls-2" d="m76.2,124s0,.2-.2.2h-.3c0,0-.2,0-.4-.2s-.3-.2-.6-.4-.5-.3-.8-.4-.7-.2-1.2-.2-.8,0-1.1.2c-.3,0-.6.3-.8.5s-.4.4-.5.7c0,.3-.2.6-.2.9s0,.7.3,1c.2.3.5.5.8.7s.7.3,1.1.5c.4,0,.8.3,1.3.4.4,0,.9.3,1.3.5s.8.4,1.1.7c.3.3.6.6.8,1s.3.9.3,1.5,0,1.2-.3,1.8-.5,1-.9,1.4-.9.7-1.5,1c-.6.2-1.3.4-2,.4s-1.8-.2-2.5-.5c-.8-.3-1.4-.8-1.9-1.4l.6-.9s0,0,.2-.2h.3c0,0,.2,0,.3,0,0,0,.2.2.4.3,0,0,.3.2.5.3s.4.2.6.3.5.2.8.3c.3,0,.6,0,1,0s.9,0,1.2-.2c.4,0,.7-.3.9-.5s.4-.5.6-.8c0-.3.2-.7.2-1.1s0-.8-.3-1.1-.5-.5-.8-.7-.7-.3-1.1-.5c-.4,0-.8-.3-1.3-.4-.4,0-.8-.3-1.3-.5-.4-.2-.8-.4-1.1-.7s-.6-.6-.8-1.1-.3-1-.3-1.6,0-1,.3-1.5c.2-.5.5-.9.9-1.3s.8-.7,1.4-.9c.6-.2,1.2-.3,1.9-.3s1.5,0,2.2.4,1.2.6,1.7,1.1l-.5.9s-.3.2-.3.2Z"/>
    <path class="cls-2" d="m88.6,134.6v1.6h-8.8v-14.3h8.8v1.6h-6.9v4.8h5.6v1.5h-5.6v4.9h6.9Z"/>
    <path class="cls-2" d="m101.9,136.1h-1.7c-.4,0-.6,0-.8-.4l-3.7-5.1c0-.2-.2-.3-.4-.3s-.3,0-.6,0h-1.5v6h-1.9v-14.3h4c.9,0,1.7,0,2.4.3.7.2,1.2.4,1.6.8.4.3.7.8,1,1.3.2.5.3,1,.3,1.6s0,1-.2,1.4-.4.8-.7,1.2c-.3.3-.7.6-1.1.9-.4.2-.9.4-1.5.6.2,0,.5.3.6.6l4.2,5.7v-.2Zm-6.6-7.4c.6,0,1.1,0,1.5-.2s.8-.3,1.1-.6c.3-.2.5-.5.7-.9s.2-.7.2-1.1c0-.9-.3-1.5-.8-1.9-.6-.4-1.4-.6-2.5-.6h-2.1v5.4h2,0Z"/>
  </g>
  <g>
    <path class="cls-1" d="m88.2,16.8c.5.3,1.1.6,1.5,1,.5.5.6,1.1.6,1.8v.7h.9c1.7,0,2.8,1.1,2.8,2.8v25.9h1.1c1.2,0,2.4,0,3.6,0,2.5.4,4.3,2.5,4.5,5v2.3c0,.6-.3,1-.8,1s-.8-.3-.8-1v-2.1c0-2-1.7-3.5-3.7-3.5h-14.3c-2.1,0-3.7,1.6-3.8,3.8v14.3c0,2.3,1.7,3.8,4,3.8h13.8c2.4,0,4-1.6,4-4v-8.1c0-.5.3-.9.8-.9s.9.3.9.9v8.6c0,2.5-2,4.6-4.4,5.1,0,0-.2,0-.3,0h-15.7c-1-.3-1.9-.6-2.7-1.2-1.4-1.2-2-2.6-2.1-4.4v-.9h-18.5c-.5,0-1.1,0-1.6-.3-.9-.4-1.4-1.1-1.4-2.1v-1.2h-1c-1.5,0-2.6-1.1-2.7-2.6v-30.7c0-.4.4-.7.8-.7s.7.2.8.7v30.7c0,.7.4,1,1,1h22.6v-7.8c0-3,1.9-5.2,4.8-5.6,1,0,2.1,0,3.1,0h2.7v-29.2c0-1.1-.3-1.4-1.3-1.4h-23.5v6.4c0,1.9-1.1,3-3,3h-7c-.5,0-.9,0-1.1-.5s0-.8.4-1.1l9-9c0-.4.1-.5.3-.7h25.7Zm4.1,32.2v-25.9c0-.5-.4-.9-.9-.9h-1.1v26.9h2Zm-34.2,15.2c-.2,1.5.1,1.9,1.6,1.9h18.3v-1.9h-19.9Zm-2.4-38h5.2c.9,0,1.3-.3,1.3-1.2v-5.1c-2.1,2.1-4.2,4.3-6.4,6.4h0Z"/>
    <path class="cls-2" d="m67.1,30.2v-6.2c0-1.5.9-2.5,2.5-2.5h12.4c1.5,0,2.5,1,2.5,2.4v12.5c0,1.5-1,2.4-2.4,2.4h-12.6c-1.4,0-2.4-1-2.4-2.4v-6.3h0Zm11.2,1.3c0,0,.2.1.3.2,1.3.8,2,1.9,2.1,3.5v2.1h1.2c.8,0,.9-.2.9-.9v-12.2c0-.8-.2-.9-1-.9h-12.1c-.8,0-1,0-1,1v12.5c.2.2.4.5.6.6h1.6c0-2.3,0-4.6,2.4-5.7-.5-.9-.5-1.8-.4-2.7,0-1.4,1.3-2.5,2.6-2.5s2.7.8,3,2.2c.2,1,.2,2-.3,3v-.2Zm-5.6,5.7h6.2v-2.3c0-1.1-1-2-2.1-2h-1.9c-1.1,0-2.1.8-2.2,2v2.4h0Zm1.9-7.7v.4c0,.7.5,1.2,1.2,1.3.7,0,1.2-.5,1.2-1.2v-.8c0-.7-.5-1.2-1.2-1.3-.7,0-1.2.5-1.2,1.3v.3Z"/>
    <path class="cls-1" d="m71.3,45.5h-12.1c-.3-.2-.6-.4-.7-.7-.1-.4.1-.7.5-.9h24.4c.5,0,.7.4.7.9s-.3.8-.8.8h-12.1,0Z"/>
    <path class="cls-1" d="m65.9,56.6h6.9c.4,0,.7.4.7.9s-.3.7-.7.8h-13.4c-.5,0-.8-.4-.8-.8s.3-.8.8-.8h6.7-.2Z"/>
    <path class="cls-1" d="m65.9,49.7h-6.5c-.5,0-.9-.2-1-.7,0-.5.2-.8.7-.9h13.5c.6,0,1,.4.9.9,0,.5-.4.8-1,.8h-6.6Z"/>
    <path class="cls-1" d="m62.6,54h-3.2c-.6,0-1-.3-1-.8s.4-.8.9-.8h6.5c.6,0,.9.4.9.9s-.3.8-.9.8h-3.2,0Z"/>
    <path class="cls-1" d="m63,35.2c-.2.3-.3.6-.4.7-.9.9-1.7,1.8-2.6,2.6-.4.4-.9.4-1.2,0-.4-.3-.3-.8,0-1.2.9-.9,1.7-1.8,2.7-2.6.2-.2.7-.3.9-.2.2,0,.4.4.6.7Z"/>
    <path class="cls-1" d="m71.2,54h-1.3c-.5,0-.8-.4-.8-.8s.3-.8.8-.9h2.9c.5,0,.8.4.8.9s-.4.8-.9.8h-1.5Z"/>
    <path class="cls-2" d="m88.9,61.8c1.6-1.6,3.2-3.1,4.6-4.7,1.3-1.4,2.6-1.5,3.9,0,.3.3.6.6.8.8.7.8.8,1.9,0,2.7l-7.5,7.5c-1.1,1-2.7,1-3.8,0l-3.9-3.9c-.8-.8-.7-1.9,0-2.7l1.5-1.5c.8-.8,1.9-.8,2.8,0,.5.5,1,1.1,1.6,1.7h0Zm0,5.5c.3-.2.7-.3.9-.5l7.2-7.2c.2-.2.2-.4,0-.7-.3-.3-.7-.6-.9-1-.3-.4-.5-.4-.9,0-1.7,1.8-3.5,3.5-5.2,5.2s-1,.7-1.7,0l-1.8-1.8c-.3-.3-.6-.3-.9,0-.3.4-.7.7-1,1s-.3.5,0,.8l3.5,3.5c.2.2.6.3.9.5v.2Z"/>
  </g>
</svg>