<?xml version="1.0" encoding="UTF-8"?><svg id="Layer_1" xmlns="http://www.w3.org/2000/svg" width="150" height="150" viewBox="0 0 150 150"><defs><style>.cls-1{fill:#c51724;}.cls-1,.cls-2{stroke-width:0px;}</style></defs><path class="cls-2" d="M27.1,103.9h-1.5c-.2,0-.3,0-.4-.1-.1,0-.2-.2-.2-.3l-1.3-3.5h-6.4l-1.3,3.5c0,.1-.1.2-.2.3-.1,0-.3.1-.4.1h-1.5l5.7-14.3h2l5.7,14.3ZM23.1,98.6l-2.2-5.8c0-.2-.1-.4-.2-.6,0-.2-.1-.5-.2-.7-.1.5-.3,1-.4,1.4l-2.2,5.8h5.4Z"/><path class="cls-2" d="M37.2,102.3v1.6h-8.1v-14.3h1.9v12.7h6.2Z"/><path class="cls-2" d="M47.4,102.3v1.6h-8.1v-14.3h1.9v12.7h6.2Z"/><path class="cls-2" d="M64.7,103.9h-1.7c-.4,0-.6-.1-.8-.4l-3.7-5.1c-.1-.2-.2-.3-.4-.3s-.3-.1-.6-.1h-1.5v6h-1.9v-14.3h4c.9,0,1.7,0,2.4.3.7.2,1.2.4,1.6.8.4.3.7.8,1,1.3.2.5.3,1,.3,1.6s0,1-.2,1.4c-.2.4-.4.8-.7,1.2-.3.3-.7.6-1.1.9-.4.2-.9.4-1.5.6.2.1.5.3.6.6l4.2,5.7ZM58.1,96.5c.6,0,1.1,0,1.5-.2s.8-.3,1.1-.6.5-.5.7-.9c.1-.3.2-.7.2-1.1,0-.9-.3-1.5-.8-1.9-.6-.4-1.4-.6-2.5-.6h-2.1v5.4h2Z"/><path class="cls-2" d="M75.5,102.3v1.6h-8.8v-14.3h8.8v1.6h-6.9v4.8h5.6v1.5h-5.6v4.9h6.9Z"/><path class="cls-2" d="M91.8,106.9h-1.6c-.2,0-.5,0-.6,0-.2,0-.4-.2-.5-.4l-2.5-2.7c-.8.3-1.6.4-2.5.4s-2-.2-2.9-.5-1.6-.9-2.2-1.5c-.6-.6-1.1-1.4-1.4-2.3s-.5-1.9-.5-3,.2-2.1.5-3,.8-1.7,1.4-2.3c.6-.7,1.4-1.2,2.2-1.5.9-.4,1.8-.5,2.9-.5s2,.2,2.9.5c.9.4,1.6.9,2.2,1.5.6.6,1.1,1.4,1.4,2.3s.5,1.9.5,3,0,1.3-.2,1.9c-.1.6-.3,1.2-.6,1.7-.3.5-.6,1-1,1.4s-.8.8-1.3,1.1l3.7,4ZM79,96.7c0,.9.1,1.7.4,2.4s.6,1.3,1,1.8c.4.5,1,.9,1.6,1.1s1.3.4,2.1.4,1.5-.1,2.1-.4c.6-.3,1.2-.6,1.6-1.1.4-.5.8-1.1,1-1.8.2-.7.4-1.5.4-2.4s-.1-1.7-.4-2.4c-.2-.7-.6-1.3-1-1.8s-1-.9-1.6-1.1c-.6-.3-1.3-.4-2.1-.4s-1.5.1-2.1.4-1.2.6-1.6,1.1c-.4.5-.8,1.1-1,1.8s-.4,1.5-.4,2.4Z"/><path class="cls-2" d="M99.4,102.4c.6,0,1.1,0,1.6-.3s.9-.5,1.2-.8c.3-.4.6-.8.7-1.3s.3-1,.3-1.7v-8.7h1.9v8.7c0,.8-.1,1.6-.4,2.3-.3.7-.6,1.3-1.1,1.8s-1.1.9-1.8,1.2c-.7.3-1.5.4-2.4.4s-1.7-.1-2.4-.4c-.7-.3-1.3-.7-1.8-1.2s-.9-1.1-1.1-1.8c-.3-.7-.4-1.5-.4-2.3v-8.7h1.9v8.7c0,.6,0,1.1.3,1.6s.4.9.7,1.3c.3.4.7.6,1.2.8.5.2,1,.3,1.6.3Z"/><path class="cls-2" d="M117.4,102.3v1.6h-8.8v-14.3h8.8v1.6h-6.9v4.8h5.6v1.5h-5.6v4.9h6.9Z"/><path class="cls-2" d="M127.5,91.8c0,0-.1.2-.2.2s-.2,0-.3,0-.2,0-.4-.2-.3-.2-.6-.4c-.2-.1-.5-.3-.8-.4s-.7-.2-1.2-.2-.8,0-1.1.2c-.3.1-.6.3-.8.5-.2.2-.4.4-.5.7-.1.3-.2.6-.2.9s0,.7.3,1c.2.3.5.5.8.7.3.2.7.3,1.1.5s.8.3,1.3.4c.4.1.9.3,1.3.5.4.2.8.4,1.1.7s.6.6.8,1c.2.4.3.9.3,1.5s-.1,1.2-.3,1.8c-.2.5-.5,1-.9,1.4-.4.4-.9.7-1.5,1-.6.2-1.3.4-2,.4s-1.8-.2-2.5-.5c-.8-.3-1.4-.8-2-1.4l.6-.9c0,0,.1-.1.2-.2,0,0,.2,0,.3,0s.2,0,.3.1c.1,0,.2.2.4.3.1.1.3.2.5.3.2.1.4.2.6.3.2.1.5.2.8.3.3,0,.6.1,1,.1s.9,0,1.2-.2c.4-.1.7-.3.9-.5.2-.2.4-.5.6-.8.1-.3.2-.7.2-1.1s0-.8-.3-1.1-.5-.5-.8-.7c-.3-.2-.7-.3-1.1-.5s-.8-.3-1.3-.4-.8-.3-1.3-.5c-.4-.2-.8-.4-1.1-.7-.3-.3-.6-.6-.8-1.1-.2-.4-.3-1-.3-1.6s0-1,.3-1.5c.2-.5.5-.9.9-1.3.4-.4.8-.7,1.4-.9.5-.2,1.2-.3,1.9-.3s1.5.1,2.2.4c.7.3,1.2.6,1.7,1.1l-.5.9Z"/><path class="cls-2" d="M140.7,91.2h-4.6v12.7h-1.9v-12.7h-4.7v-1.6h11.2v1.6Z"/><path class="cls-1" d="M91.7,69.8h-38.1c-.5-.3-.9-.6-1.2-1.2V16.6c.4-.7.9-1.2,1.8-1.2,12.3,0,24.5,0,36.8,0,.2,0,.4,0,.6,0,.8.2,1.2.8,1.2,1.8,0,16.8,0,33.5,0,50.3,0,1-.3,1.7-1.2,2.1ZM55.6,18.7v47.9h34V18.7h-34Z"/><path class="cls-1" d="M101.7,69.8h-.8c-.4-.4-.9-.7-1.1-1.1-1.3-2.6-2.5-5.3-3.7-8-.2-.5-.3-1,0-1.5.4-1,.7-2,1.1-3,0-.2.1-.3.2-.5-1.1-.4-1.4-.8-1.4-2,0-10.8,0-21.6,0-32.4,0-.2,0-.4,0-.6.2-3.5,3.6-5.9,6.9-4.9,2.4.7,3.9,2.8,3.9,5.4,0,10.9,0,21.7,0,32.6,0,1.2-.3,1.6-1.4,2,0,.2.1.4.2.5.3.9.7,1.9,1,2.8.3.6.2,1.2,0,1.8-1.2,2.5-2.3,5-3.4,7.5-.3.6-.6,1.1-1.3,1.4ZM103.5,52.4v-23.6h-4.4v23.6h4.4ZM103.5,25.5c0-1.6,0-3.1,0-4.6,0-1.3-1-2.2-2.2-2.3-1.2,0-2.2,1-2.3,2.3,0,1.1,0,2.3,0,3.4,0,.4,0,.8,0,1.2h4.4ZM101.3,64.3c.7-1.5,1.4-2.9,2-4.4,0-.2,0-.4,0-.5-.4-1.1-.8-2.3-1.2-3.4-.1-.4-.4-.4-.7-.4-.3,0-.6,0-.7.4-.4,1.2-.8,2.3-1.2,3.4,0,.2-.1.4,0,.6.6,1.4,1.3,2.8,2,4.4Z"/><path class="cls-2" d="M79.2,27.5c1.7,0,3.4,0,5.1,0,.8,0,1.4.6,1.5,1.3.1.8-.3,1.5-1,1.7-.2,0-.5.1-.7.1-3.3,0-6.5,0-9.8,0-1,0-1.7-.7-1.7-1.6,0-.9.7-1.6,1.7-1.6,1.6,0,3.3,0,4.9,0,0,0,0,0,0,0Z"/><path class="cls-2" d="M79.2,37.2c1.6,0,3.2,0,4.8,0,1.1,0,1.8.6,1.8,1.6,0,1-.7,1.6-1.8,1.6-3.3,0-6.5,0-9.8,0-.9,0-1.6-.6-1.7-1.4,0-.7.4-1.5,1.1-1.7.2,0,.5,0,.8,0,1.6,0,3.2,0,4.8,0Z"/><path class="cls-2" d="M79.2,46.8c1.7,0,3.4,0,5.1,0,.8,0,1.4.6,1.5,1.3.1.8-.3,1.5-1,1.7-.2,0-.5.1-.7.1-3.3,0-6.5,0-9.8,0-1,0-1.7-.7-1.7-1.6,0-.9.7-1.6,1.7-1.6,1.6,0,3.3,0,4.9,0,0,0,0,0,0,0Z"/><path class="cls-2" d="M79.2,60c-1.6,0-3.2,0-4.8,0-1.1,0-1.8-.7-1.8-1.6,0-.9.7-1.6,1.8-1.6,3.2,0,6.4,0,9.6,0,1.1,0,1.8.6,1.8,1.6,0,1-.7,1.6-1.9,1.6-1.6,0-3.2,0-4.8,0Z"/><path class="cls-2" d="M63.1,28.8c1.3-1.3,2.5-2.5,3.7-3.7.5-.5,1-.6,1.6-.5.6.2,1,.6,1.1,1.2.1.5,0,1-.4,1.4-1.6,1.6-3.2,3.2-4.8,4.8-.7.7-1.6.7-2.4,0-.7-.7-1.5-1.4-2.2-2.2-.7-.7-.7-1.7,0-2.3.6-.6,1.6-.6,2.3,0,.4.4.7.7,1.1,1.1Z"/><path class="cls-2" d="M63.1,38.4c1.3-1.3,2.5-2.5,3.7-3.7.5-.5,1-.6,1.6-.4.6.2,1,.6,1.1,1.2.1.5,0,1-.4,1.4-1.6,1.6-3.2,3.2-4.8,4.8-.7.7-1.6.7-2.3,0-.8-.7-1.5-1.5-2.2-2.2-.7-.7-.7-1.7,0-2.3.6-.6,1.6-.6,2.3,0,.4.4.7.7,1.1,1.1Z"/><path class="cls-2" d="M63.1,48.1c1.3-1.3,2.5-2.5,3.7-3.7.5-.5,1-.7,1.6-.5.6.2,1,.6,1.1,1.2.1.5,0,1-.4,1.4-1.6,1.6-3.2,3.2-4.8,4.8-.7.7-1.6.6-2.3,0-.8-.7-1.5-1.5-2.2-2.2-.6-.7-.6-1.6,0-2.2.6-.6,1.6-.6,2.2,0,.4.4.7.8,1.2,1.2Z"/></svg>