<?xml version="1.0" encoding="UTF-8"?>
<svg id="Layer_1" data-name="Layer 1" xmlns="http://www.w3.org/2000/svg" viewBox="0 0 150 150">
  <defs>
    <style>
      .cls-1 {
        fill: #c51724;
      }

      .cls-1, .cls-2 {
        stroke-width: 0px;
      }
    </style>
  </defs>
  <g>
    <path class="cls-1" d="m39.8,27.2c-.6,0-1.1,0-1.6,0-.6,0-1-.3-1-1,0-4.5,0-8.9,0-13.4,0-.8.3-1,1.2-1,4.9,0,9.7,0,14.6,0,.7,0,1.5-.2,2.2-.4,7.1-2.8,14.3-2.8,21.4,0,.6.2,1.2.4,1.8.4,10.1,0,20.2,0,30.2,0,1.4,0,1.5.1,1.5,1.5,0,4.1,0,8.3,0,12.4,0,1.2-.2,1.4-1.4,1.4-.4,0-.7,0-1.2,0v.9c0,13.9,0,27.9,0,41.8,0,.5.2.9.5,1.3.8.8,1.6,1.5,2.3,2.3.8.8.8,1.7,0,2.6-1.9,1.9-3.8,3.8-5.7,5.7-.8.8-1.7.8-2.6,0-1.3-1.3-2.6-2.5-3.8-3.8-.4-.4-.8-.6-1.4-.6-18.4,0-36.9,0-55.3,0-.3,0-.5,0-.8,0-.6,0-.9-.3-.9-.9,0-.3,0-.5,0-.8,0-9.2,0-18.4,0-27.6,0-.4,0-.9-.2-1.3-2.2-6.3-2.2-12.6,0-19,0-.1,0-.3.2-.6Zm43.1,31.9c-6.7,5.1-14.2,7-22.5,5.4-8.3-1.6-14.5-6.3-18.9-13.6v24.8h54.5c-.3-.3-.5-.5-.7-.7-2.7-2.7-5.4-5.4-8.1-8.1-1.4-1.4-1.4-1.9,0-3.4,0,0,0,0,0,0-1.4-1.4-2.9-2.9-4.3-4.3Zm-17.1-48.2c-14.4,0-26.2,11.6-26.2,26.1,0,14.4,11.7,26.3,26,26.4,14.5,0,26.4-11.8,26.4-26.2,0-14.5-11.7-26.3-26.2-26.3Zm26.1,16.3c3.4,9.8,1.9,18.9-4.1,27.1,1.5,1.5,2.9,2.9,4.3,4.3,1.8-1.4,2-1.4,3.6.3,3.2,3.2,6.3,6.3,9.5,9.5.2.2.4.3.6.6V27.3h-14Zm-11.1-13.7c0,.1,0,.2.1.2.1,0,.3.2.4.3,4.2,2.8,7.4,6.4,9.6,10.9.2.5.5.6,1,.6,5.3,0,10.6,0,15.9,0,.3,0,.5,0,.8,0v-12h-27.7Zm28.5,61.4c-5.2-5.2-10.4-10.3-15.4-15.4-1.9,1.9-3.9,3.8-5.8,5.7,5.1,5.1,10.3,10.3,15.5,15.4,1.9-1.9,3.8-3.8,5.7-5.8ZM38.9,25.5c1.6.2,1.6.2,1.9-.6,2.2-4.5,5.4-8.1,9.6-10.9.2-.1.3-.3.6-.5h-12.1v11.9Zm47.8,30.3c-.8.8-1.5,1.5-2.2,2.2,1.3,1.3,2.7,2.7,4.1,4.1.7-.7,1.5-1.5,2.2-2.2-1.4-1.4-2.7-2.7-4.1-4.1Z"/>
    <path class="cls-1" d="m43.6,37.2c0-12.3,10.1-22.3,22.3-22.2,12.3,0,22.1,10.1,22.1,22.4,0,12.3-10,22.1-22.3,22-12.2,0-22.1-10.1-22-22.2Zm1.6,0c0,11.4,9.2,20.6,20.5,20.6,11.4,0,20.6-9.2,20.6-20.6,0-11.4-9.2-20.6-20.6-20.6-11.4,0-20.6,9.2-20.6,20.6Z"/>
    <path class="cls-2" d="m65.1,36c0-.4,0-.7,0-.9,0-3.3,0-6.5,0-9.8,0-.2,0-.4,0-.6,0-.6.2-1,.8-1,.6,0,.8.4.8,1,0,.8,0,1.5,0,2.3,0,2.9,0,5.9,0,8.9.3,0,.6,0,.9,0,3.3,0,6.7,0,10,0,.3,0,.6,0,.8,0,.3.2.6.5.6.8,0,.3-.4.6-.7.7-.2.1-.5,0-.8,0-3.3,0-6.6,0-9.8,0h-.9c0,.4,0,.6,0,.9,0,3.3,0,6.6,0,9.9,0,.2,0,.5,0,.7-.2.3-.5.7-.8.7-.3,0-.7-.4-.7-.7-.1-.6,0-1.3,0-2,0-2.9,0-5.7,0-8.6,0-.3,0-.6,0-1-.4,0-.7,0-1,0-3.3,0-6.6,0-9.8,0-.3,0-.6,0-.8,0-.3-.1-.6-.4-.6-.7,0-.3.3-.6.5-.8.2-.1.5,0,.8,0,3.3,0,6.6,0,9.9,0,.3,0,.6,0,1,0Z"/>
    <path class="cls-2" d="m63.4,29.1c0,1.4,0,2.7,0,4.1,0,.9-.2,1.1-1.1,1.1-2.8,0-5.6,0-8.3,0-.9,0-1.1-.2-1.1-1.1,0-2.8,0-5.6,0-8.3,0-.8.3-1.1,1.1-1.1,2.8,0,5.6,0,8.4,0,.8,0,1.1.3,1.1,1.1,0,1.4,0,2.8,0,4.2Zm-1.6-3.7h-7.3v7.2h7.3v-7.2Z"/>
    <path class="cls-2" d="m73.7,34.3c-1.4,0-2.7,0-4.1,0-1,0-1.2-.2-1.2-1.2,0-2.8,0-5.5,0-8.3,0-.9.2-1.1,1.1-1.1,2.8,0,5.6,0,8.3,0,.8,0,1.1.3,1.1,1.2,0,2.8,0,5.5,0,8.3,0,.9-.2,1.2-1.2,1.2-1.4,0-2.7,0-4.1,0Zm3.6-8.9h-7.3v7.2h7.3v-7.2Z"/>
    <path class="cls-2" d="m63.4,44.5c0,1.4,0,2.8,0,4.2,0,.9-.2,1.1-1.1,1.1-2.8,0-5.6,0-8.3,0-.9,0-1.1-.2-1.1-1.1,0-2.8,0-5.6,0-8.3,0-.9.3-1.1,1.1-1.1,2.8,0,5.5,0,8.3,0,.9,0,1.2.3,1.2,1.2,0,1.4,0,2.7,0,4.1Zm-8.9,3.6h7.3v-7.2h-7.3v7.2Z"/>
    <path class="cls-2" d="m73.7,49.8c-1.4,0-2.8,0-4.2,0-.9,0-1.1-.2-1.1-1.1,0-2.8,0-5.6,0-8.3,0-.9.2-1.1,1.1-1.1,2.8,0,5.6,0,8.3,0,.9,0,1.1.3,1.1,1.1,0,2.8,0,5.6,0,8.3,0,.8-.3,1.1-1.1,1.1-1.4,0-2.8,0-4.2,0Zm-3.7-8.9v7.3h7.2v-7.3h-7.2Z"/>
  </g>
  <g>
    <path class="cls-2" d="m56.8,101.4c0,0-.1.2-.2.2,0,0-.2,0-.3,0s-.2,0-.4-.2-.3-.2-.6-.4-.5-.3-.8-.4c-.3-.1-.7-.2-1.2-.2s-.8,0-1.1.2c-.3.1-.6.3-.8.5-.2.2-.4.4-.5.7-.1.3-.2.6-.2.9s0,.7.3,1c.2.3.5.5.8.7.3.2.7.3,1.1.5.4.1.8.3,1.3.4.4.1.9.3,1.3.5.4.2.8.4,1.1.7s.6.6.8,1c.2.4.3.9.3,1.5s-.1,1.2-.3,1.8-.5,1-.9,1.4c-.4.4-.9.7-1.5,1-.6.2-1.3.4-2,.4s-1.8-.2-2.5-.5c-.8-.3-1.4-.8-1.9-1.4l.6-.9c0,0,.1-.1.2-.2,0,0,.2,0,.3,0s.2,0,.3.1c.1,0,.2.2.4.3.1.1.3.2.5.3.2.1.4.2.6.3.2.1.5.2.8.3.3,0,.6.1,1,.1s.9,0,1.2-.2c.4-.1.7-.3.9-.5.2-.2.4-.5.6-.8.1-.3.2-.7.2-1.1s0-.8-.3-1.1-.5-.5-.8-.7c-.3-.2-.7-.3-1.1-.5-.4-.1-.8-.3-1.3-.4-.4-.1-.8-.3-1.3-.5s-.8-.4-1.1-.7c-.3-.3-.6-.6-.8-1.1-.2-.4-.3-1-.3-1.6s0-1,.3-1.5.5-.9.9-1.3c.4-.4.8-.7,1.4-.9.6-.2,1.2-.3,1.9-.3s1.5.1,2.2.4c.7.3,1.2.6,1.7,1.1l-.5.9Z"/>
    <path class="cls-2" d="m70.3,110.5c.1,0,.2,0,.3.1l.8.8c-.6.7-1.3,1.2-2.1,1.6-.8.4-1.8.6-3,.6s-2-.2-2.8-.5c-.8-.4-1.6-.9-2.2-1.5s-1.1-1.4-1.4-2.3c-.3-.9-.5-1.9-.5-3s.2-2.1.5-3c.3-.9.8-1.7,1.4-2.3.6-.6,1.4-1.1,2.2-1.5.9-.4,1.8-.5,2.9-.5s1.9.2,2.7.5c.8.3,1.5.8,2.1,1.3l-.6.9c0,0,0,.1-.2.2,0,0-.1,0-.3,0s-.3,0-.4-.2-.4-.3-.7-.4c-.3-.2-.6-.3-1-.4-.4-.1-.9-.2-1.5-.2s-1.4.1-2,.4-1.1.6-1.6,1.1-.8,1.1-1,1.8c-.2.7-.4,1.5-.4,2.4s.1,1.7.4,2.4c.3.7.6,1.3,1.1,1.8.4.5,1,.9,1.6,1.1.6.3,1.3.4,2,.4s.8,0,1.2,0,.7-.1,1-.2c.3-.1.6-.2.8-.4.2-.2.5-.4.7-.6.1-.1.2-.2.3-.2Z"/>
    <path class="cls-2" d="m85.3,113.5h-1.5c-.2,0-.3,0-.4-.1s-.2-.2-.2-.3l-1.3-3.5h-6.4l-1.3,3.5c0,.1-.1.2-.2.3-.1,0-.3.1-.4.1h-1.5l5.7-14.3h2l5.7,14.3Zm-4-5.3l-2.2-5.8c0-.2-.1-.4-.2-.6,0-.2-.1-.5-.2-.7-.1.5-.3,1-.4,1.4l-2.2,5.8h5.3Z"/>
    <path class="cls-2" d="m98.8,99.1v14.3h-1c-.2,0-.3,0-.4,0-.1,0-.2-.1-.3-.3l-8.3-10.8c0,.2,0,.3,0,.5,0,.2,0,.3,0,.5v10.2h-1.7v-14.3h1c0,0,.2,0,.2,0,0,0,.1,0,.2,0s0,0,.1,0c0,0,0,0,.1.2l8.3,10.8c0-.2,0-.3,0-.5,0-.2,0-.3,0-.5v-10.2h1.7Z"/>
  </g>
  <g>
    <path class="cls-2" d="m27,123.4c.9,0,1.7.1,2.4.3.7.2,1.2.5,1.7.9s.8.9,1,1.4c.2.5.3,1.2.3,1.8s-.1,1.3-.4,1.8c-.2.6-.6,1-1,1.4-.4.4-1,.7-1.7.9-.7.2-1.4.3-2.3.3h-2.3v5.4h-1.9v-14.3h4.2Zm0,7.4c.6,0,1,0,1.5-.2s.8-.4,1.1-.6c.3-.3.5-.6.7-.9.1-.4.2-.8.2-1.2,0-.9-.3-1.6-.8-2.1-.6-.5-1.4-.8-2.6-.8h-2.3v5.9h2.3Z"/>
    <path class="cls-2" d="m45.4,137.7h-1.7c-.4,0-.6-.1-.8-.4l-3.7-5.1c-.1-.2-.2-.3-.4-.3s-.3-.1-.6-.1h-1.5v6h-1.9v-14.3h4c.9,0,1.7,0,2.4.3s1.2.4,1.6.8c.4.3.7.8,1,1.3s.3,1,.3,1.6,0,1-.2,1.4c-.2.4-.4.8-.7,1.2-.3.3-.7.6-1.1.9-.4.2-.9.4-1.5.6.2.1.5.3.6.6l4.2,5.7Zm-6.6-7.4c.6,0,1.1,0,1.5-.2.4-.1.8-.3,1.1-.6.3-.2.5-.5.7-.9.1-.3.2-.7.2-1.1,0-.9-.3-1.5-.8-1.9-.6-.4-1.4-.6-2.5-.6h-2.1v5.4h2Z"/>
    <path class="cls-2" d="m60.4,130.5c0,1.1-.2,2.1-.5,3s-.8,1.7-1.4,2.3-1.4,1.1-2.2,1.5c-.9.4-1.8.5-2.9.5s-2-.2-2.9-.5c-.9-.4-1.6-.9-2.2-1.5-.6-.6-1.1-1.4-1.4-2.3-.3-.9-.5-1.9-.5-3s.2-2.1.5-3c.3-.9.8-1.7,1.4-2.3.6-.7,1.4-1.2,2.2-1.5.9-.4,1.8-.5,2.9-.5s2,.2,2.9.5c.9.4,1.6.9,2.2,1.5.6.6,1.1,1.4,1.4,2.3s.5,1.9.5,3Zm-2,0c0-.9-.1-1.7-.4-2.4-.2-.7-.6-1.3-1-1.8-.4-.5-1-.9-1.6-1.1-.6-.3-1.3-.4-2.1-.4s-1.5.1-2.1.4c-.6.3-1.2.6-1.6,1.1-.4.5-.8,1.1-1,1.8-.2.7-.4,1.5-.4,2.4s.1,1.7.4,2.4c.2.7.6,1.3,1,1.8.4.5,1,.9,1.6,1.1.6.3,1.3.4,2.1.4s1.5-.1,2.1-.4c.6-.3,1.2-.6,1.6-1.1.4-.5.8-1.1,1-1.8.2-.7.4-1.5.4-2.4Z"/>
    <path class="cls-2" d="m75.6,130.5c0,1.1-.2,2-.5,2.9-.3.9-.8,1.6-1.4,2.3-.6.6-1.4,1.1-2.2,1.5-.9.3-1.8.5-2.9.5h-5.4v-14.3h5.4c1.1,0,2,.2,2.9.5.9.3,1.6.8,2.2,1.5.6.6,1.1,1.4,1.4,2.3.3.9.5,1.9.5,2.9Zm-2,0c0-.9-.1-1.7-.4-2.4-.2-.7-.6-1.3-1-1.8-.4-.5-1-.8-1.6-1.1-.6-.3-1.3-.4-2.1-.4h-3.4v11.2h3.4c.8,0,1.5-.1,2.1-.4.6-.3,1.2-.6,1.6-1.1s.8-1.1,1-1.8c.2-.7.4-1.5.4-2.4Z"/>
    <path class="cls-2" d="m84,136.2c.6,0,1.1,0,1.6-.3s.9-.5,1.2-.8c.3-.4.6-.8.7-1.3s.3-1,.3-1.7v-8.7h1.9v8.7c0,.8-.1,1.6-.4,2.3-.3.7-.6,1.3-1.1,1.8s-1.1.9-1.8,1.2c-.7.3-1.5.4-2.4.4s-1.7-.1-2.4-.4c-.7-.3-1.3-.7-1.8-1.2-.5-.5-.9-1.1-1.1-1.8-.3-.7-.4-1.5-.4-2.3v-8.7h1.9v8.7c0,.6,0,1.1.3,1.6s.4.9.7,1.3c.3.4.7.6,1.2.8.5.2,1,.3,1.6.3Z"/>
    <path class="cls-2" d="m103.2,134.7c.1,0,.2,0,.3.1l.8.8c-.6.7-1.3,1.2-2.1,1.6-.8.4-1.8.6-3,.6s-2-.2-2.8-.5-1.6-.9-2.1-1.5c-.6-.6-1.1-1.4-1.4-2.3-.3-.9-.5-1.9-.5-3s.2-2.1.5-3c.3-.9.8-1.7,1.4-2.3.6-.6,1.4-1.1,2.2-1.5.9-.4,1.8-.5,2.8-.5s1.9.2,2.7.5c.8.3,1.5.8,2.1,1.3l-.6.9c0,0,0,.1-.2.2,0,0-.1,0-.3,0s-.3,0-.4-.2c-.2-.1-.4-.3-.7-.4s-.6-.3-1-.4-.9-.2-1.5-.2-1.4.1-2,.4-1.1.6-1.6,1.1c-.4.5-.8,1.1-1,1.8-.2.7-.4,1.5-.4,2.4s.1,1.7.4,2.4c.3.7.6,1.3,1,1.8s1,.9,1.6,1.1c.6.3,1.3.4,2,.4s.8,0,1.2,0,.7-.1,1-.2c.3-.1.6-.2.8-.4.2-.2.5-.4.7-.6.1-.1.2-.2.3-.2Z"/>
    <path class="cls-2" d="m116.2,125h-4.6v12.7h-1.9v-12.7h-4.7v-1.6h11.2v1.6Z"/>
    <path class="cls-2" d="m125.6,125.6c0,0-.1.2-.2.2s-.2,0-.3,0-.2,0-.4-.2-.3-.2-.6-.4c-.2-.1-.5-.3-.8-.4s-.7-.2-1.2-.2-.8,0-1.1.2c-.3.1-.6.3-.8.5-.2.2-.4.4-.5.7-.1.3-.2.6-.2.9s0,.7.3,1c.2.3.5.5.8.7.3.2.7.3,1.1.5s.8.3,1.3.4c.4.1.9.3,1.3.5.4.2.8.4,1.1.7s.6.6.8,1c.2.4.3.9.3,1.5s-.1,1.2-.3,1.8c-.2.5-.5,1-.9,1.4-.4.4-.9.7-1.5,1-.6.2-1.3.4-2,.4s-1.8-.2-2.5-.5c-.8-.3-1.4-.8-2-1.4l.6-.9c0,0,.1-.1.2-.2,0,0,.2,0,.3,0s.2,0,.3.1c.1,0,.2.2.4.3.1.1.3.2.5.3.2.1.4.2.6.3.2.1.5.2.8.3.3,0,.6.1,1,.1s.9,0,1.2-.2c.4-.1.7-.3.9-.5.2-.2.4-.5.6-.8.1-.3.2-.7.2-1.1s0-.8-.3-1.1-.5-.5-.8-.7c-.3-.2-.7-.3-1.1-.5s-.8-.3-1.3-.4-.8-.3-1.3-.5c-.4-.2-.8-.4-1.1-.7-.3-.3-.6-.6-.8-1.1-.2-.4-.3-1-.3-1.6s0-1,.3-1.5c.2-.5.5-.9.9-1.3.4-.4.8-.7,1.4-.9.5-.2,1.2-.3,1.9-.3s1.5.1,2.2.4c.7.3,1.2.6,1.7,1.1l-.5.9Z"/>
  </g>
</svg>