<?xml version="1.0" encoding="UTF-8"?>
<svg id="Layer_1" data-name="Layer 1" xmlns="http://www.w3.org/2000/svg" viewBox="0 0 150 150">
  <defs>
    <style>
      .cls-1 {
        letter-spacing: 0em;
      }

      .cls-2 {
        letter-spacing: 0em;
      }

      .cls-3 {
        fill: #c51724;
      }

      .cls-3, .cls-4 {
        stroke-width: 0px;
      }

      .cls-5 {
        letter-spacing: 0em;
      }

      .cls-6 {
        letter-spacing: 0em;
      }

      .cls-7 {
        letter-spacing: 0em;
      }

      .cls-8 {
        letter-spacing: 0em;
      }

      .cls-9 {
        font-family: Lato-Regular, Lato;
        font-size: 20px;
      }
    </style>
  </defs>
  <text class="cls-9" transform="translate(2.5 106.8)"><tspan x="0" y="0">TRAN</tspan><tspan class="cls-6" x="53.1" y="0">S</tspan><tspan class="cls-8" x="63.7" y="0">A</tspan><tspan x="76.9" y="0">CTION</tspan></text>
  <text class="cls-9" transform="translate(46.6 131.4)"><tspan class="cls-7" x="0" y="0">D</tspan><tspan class="cls-1" x="14.8" y="0">A</tspan><tspan class="cls-2" x="27" y="0">T</tspan><tspan class="cls-5" x="37.4" y="0">A</tspan></text>
  <g>
    <path class="cls-3" d="m105.1,66.7c-.5,1.4-1.4,1.8-2.8,1.8-20.2,0-40.4,0-60.6,0-2,0-2.8-.8-2.8-2.8,0-11.1,0-22.2,0-33.4,0-1.2.4-2.1,1.5-2.7,4.2-2.6,8.3-5.2,12.4-7.8.2-.1.4-.3.6-.4.5-.2.9,0,1.2.4.3.4.2.9-.2,1.2-.2.1-.3.3-.5.4-4.2,2.6-8.3,5.2-12.5,7.8-.5.3-.6.6-.6,1.1,0,11.1,0,22.2,0,33.2q0,.9.9.9c1,0,2.1,0,3.2,0,0-.6,0-1.2,0-1.8,0-.8.3-1.2,1-1.2.6,0,1,.4,1,1.2,0,.6,0,1.2,0,1.8h50.2v-22.1h-50.2c0,.3,0,.5,0,.8,0,4.8,0,9.5,0,14.3,0,1-.3,1.5-1,1.5-.7,0-1-.5-1-1.5,0-5.9,0-11.8,0-17.7,0-2.3,1.1-3.4,3.4-3.4,15.8,0,31.6,0,47.4,0,2.3,0,3.4,1.1,3.4,3.4,0,8,0,15.9,0,23.9v.9c1.3,0,2.5,0,3.7,0,.1,0,.3-.3.4-.4,0-.1,0-.3,0-.4,0-11.1,0-22.2,0-33.2,0-.5-.1-.9-.6-1.1-10-6.2-19.9-12.4-29.9-18.7-.5-.3-.9-.3-1.4,0-4.2,2.7-8.4,5.3-12.7,7.9-.1,0-.3.2-.4.3-.5.2-.9.1-1.2-.3-.3-.4-.2-1,.3-1.3.2-.1.3-.2.5-.3,4.3-2.7,8.5-5.3,12.8-8,1.1-.7,2-.7,3.1,0,10.1,6.3,20.1,12.6,30.2,18.9.7.4,1.1.9,1.4,1.7v35.3Zm-8-24.3c0-.4,0-.8,0-1.2,0-.5-.3-.8-.8-.9-.2,0-.5,0-.7,0-15.7,0-31.5,0-47.2,0-.3,0-.6,0-.8,0-.3.2-.6.4-.7.7-.1.4,0,.8,0,1.3h50.2Z"/>
    <path class="cls-4" d="m95.1,55.4c0,1.5,0,3.1,0,4.6,0,1.4-.6,2.4-1.7,3.1-1.3.9-2.8,1.2-4.4,1.3-2,.1-3.9,0-5.7-1-1.5-.8-2.4-1.9-2.3-3.7,0-2.9,0-5.9,0-8.9,0-1.4.6-2.4,1.7-3.1,1.1-.7,2.3-1.1,3.6-1.2,2.1-.2,4.3-.1,6.3.8,1.6.8,2.6,1.9,2.4,3.8,0,1.4,0,2.8,0,4.3Zm-7.1-7.2c-1.2.3-2.3.5-3.5.9-.6.2-1.4.6-1.4,1.3,0,.8.8,1.1,1.4,1.4,1.6.7,3.3.8,5.1.6,1.1-.1,2.2-.4,3.1-1.1.7-.5.7-1.1,0-1.6-.4-.3-.8-.6-1.2-.7-1.1-.3-2.2-.5-3.4-.7Zm-5,10.1c0,.6,0,1.1,0,1.6,0,.8.3,1.3.9,1.6,1,.4,2.1.8,3.2.9,1.7.2,3.4,0,4.9-.8.4-.2.9-.6,1-1,.2-.7,0-1.5,0-2.2-3.4,1.5-6.7,1.5-10.1,0Zm10.1-5c-3.4,1.5-6.7,1.5-10.1,0,0,.5,0,.9,0,1.3-.2,1.2.5,1.8,1.5,2.2,1.5.6,3.1.8,4.7.6,1.1-.1,2.3-.3,3.2-1,.3-.2.7-.6.7-1,.1-.7,0-1.4,0-2.1Z"/>
    <path class="cls-4" d="m48.9,55.4c0-1.6,0-3.1,0-4.7,0-1.3.5-2.2,1.6-2.9,1.6-1,3.3-1.4,5.2-1.4,1.7,0,3.4.2,5,1,1.5.8,2.3,1.9,2.3,3.7,0,3,0,5.9,0,8.9,0,1.3-.5,2.2-1.5,2.9-1.9,1.3-4.2,1.6-6.4,1.4-1.5,0-2.9-.4-4.2-1.2-1.2-.7-1.9-1.7-1.8-3.2,0-1.5,0-3,0-4.5Zm7-7.1c-1.6,0-3,.2-3.9.8-.4.3-.9.7-1.1,1.2-.1.6.5,1,1,1.2,2.7,1.2,5.3,1.2,8,0,.4-.2,1-.8,1-1.1,0-.4-.6-.9-1-1.2-1.2-.7-2.6-.9-4-.9Zm-5,4.9c0,.6,0,1.1,0,1.6,0,.8.3,1.3.9,1.5,1,.4,2,.8,3,.9,1.8.3,3.6,0,5.2-.8.4-.2.9-.6,1-1,.2-.7,0-1.5,0-2.2-3.4,1.5-6.7,1.5-10.1,0Zm10.1,5c-3.4,1.5-6.7,1.5-10.1,0,0,.6,0,1.1,0,1.6,0,.8.3,1.4,1,1.6,1,.4,2.1.7,3.1.9,1.7.2,3.4,0,4.9-.8.4-.2.9-.7,1.1-1.2.2-.7,0-1.4,0-2.1Z"/>
    <path class="cls-4" d="m65,55.4c0-1.6,0-3.1,0-4.7,0-1.2.5-2,1.4-2.7,1.6-1.2,3.5-1.5,5.5-1.6,1.7,0,3.3.2,4.8.9,1.6.8,2.4,1.9,2.4,3.8,0,3,0,5.9,0,8.9,0,1.3-.5,2.2-1.5,2.9-1.4,1-3.1,1.3-4.8,1.4-1.9.1-3.7-.1-5.4-1-1.5-.8-2.4-1.9-2.3-3.7,0-1.4,0-2.9,0-4.3Zm7-3c1.3,0,2.6-.2,3.8-.8.5-.3,1.2-.6,1.2-1.2,0-.7-.6-1-1.2-1.3-2.6-1.1-5.2-1.1-7.8,0-.5.2-1,.7-1.1,1.2-.1.6.6,1,1.1,1.2,1.2.6,2.6.8,3.9.8Zm5,5.9c-3.4,1.5-6.7,1.5-10.1,0,0,.6,0,1.1,0,1.6,0,.8.3,1.4,1,1.6,1,.4,2.1.7,3.2.9,1.7.2,3.4,0,4.9-.8.4-.2.9-.7,1-1.1.2-.7,0-1.4,0-2.2Zm-10.1-5c0,.6,0,1.1,0,1.6,0,.8.3,1.3.9,1.6,1,.4,2,.8,3,.9,1.8.3,3.6,0,5.2-.8.4-.2.9-.7,1-1.1.2-.7,0-1.4,0-2.2-3.4,1.5-6.7,1.5-10.1,0Z"/>
    <path class="cls-3" d="m72,20.3c2.2,0,4.4,0,6.5,0,1.5,0,2.4.9,2.5,2.4,0,.4,0,.7,0,1.1,0,1.5-1,2.4-2.5,2.5-2.5,0-5.1,0-7.6,0-1.8,0-3.6,0-5.4,0-1.6,0-2.5-.9-2.5-2.5,0-.4,0-.7,0-1.1,0-1.4,1-2.3,2.4-2.3,2.2,0,4.4,0,6.7,0Zm0,1.9c-2,0-4,0-5.9,0-1.2,0-1.2-.2-1.2,1.2,0,.8,0,.8.8.8,4,0,8,0,12,0,1.4,0,1.3.2,1.4-1.4,0-.6-.2-.7-.8-.7-2.1,0-4.2,0-6.3,0Z"/>
    <path class="cls-3" d="m72,28.4c2.2,0,4.4,0,6.5,0,1.5,0,2.4.9,2.5,2.4,0,.5,0,1,0,1.4-.1,1.4-1.4,2.4-3.1,2-.5,0-.8-.5-.7-1,0-.5.4-.8.9-.9.3,0,.9,0,.9-.2.1-.5,0-1.1,0-1.6,0-.1-.4-.2-.6-.2-2.8,0-5.6,0-8.5,0-1.4,0-2.9,0-4.3,0-.5,0-.7.2-.7.6,0,1.7,0,1.4,1.4,1.4,2.4,0,4.7,0,7.1,0,.5,0,.9.2,1.1.7.2.6-.2,1.2-.9,1.3-2.8,0-5.7,0-8.5,0-1.1,0-1.9-.8-2-1.9,0-.7,0-1.3,0-2,.1-1.2,1-2,2.3-2,2.2,0,4.5,0,6.7,0Z"/>
  </g>
</svg>