<?xml version="1.0" encoding="UTF-8"?>
<svg id="Layer_1" data-name="Layer 1" xmlns="http://www.w3.org/2000/svg" viewBox="0 0 150 150">
  <defs>
    <style>
      .cls-1 {
        fill: #c51724;
      }

      .cls-1, .cls-2 {
        stroke-width: 0px;
      }
    </style>
  </defs>
  <g>
    <path class="cls-2" d="m79.5,109.7c.2-.4.4-.8.8-1.3,3.8-4.9,8.4-9.1,13.7-12.2,3.6-2.1,7.4-3.4,11.6-3.8,3.8-.2,7.4.4,11,2.1,5.1,2.1,9.3,5.3,13.1,9.1,1.5,1.5,3,3.4,4.4,5.1.8.8.8,1.7,0,2.7-4,4.9-8.4,9.3-13.9,12.4-4.4,2.5-8.9,4-13.9,3.8-3.4,0-6.7-1.1-9.9-2.5-6.5-3.2-11.8-8-16.2-13.5-.2-.2-.4-.6-.6-1.1v-.6h0v-.2Zm51.3.4c-1.1-1.3-2.1-2.3-3.2-3.4-3.6-3.6-7.4-6.7-12.2-8.6-2.3-1.1-4.9-1.7-7.4-1.9-3.8,0-7.6.8-11,2.7-3.8,2.1-7.2,4.6-10.1,7.8-1.1,1.1-2.1,2.3-3.2,3.6,1.1,1.3,2.1,2.3,3.2,3.4,3.6,3.6,7.4,6.7,12,8.6,4.6,1.9,4.9,1.7,7.4,1.9,3.8,0,7.6-.8,11-2.7,3.4-1.7,6.3-4,9.1-6.5,1.5-1.5,3-3.2,4.4-4.6h0v-.2Z"/>
    <path class="cls-2" d="m117.9,110.1c0,6.1-4.9,11-11,11s-10.8-4.9-10.8-11,4.9-11,11-11,10.8,4.9,10.8,11Zm-3.6,0c0-4-3.2-7.2-7.2-7.2s-7.2,3.2-7.2,7.2,3.4,7.4,7.2,7.2c4,0,7.2-3.2,7.2-7.2Z"/>
  </g>
  <path class="cls-1" d="m47.7,137.8c-2.1,0-4.2-.2-6.7-.6-4.9-.6-9.3-1.1-13.7-3-8-3.2-11.8-9.1-12-17.3,0-8,2.3-15.2,7-21.9,7-10.1,16.2-17.1,27.4-21.5.6,0,1.1-.6,1.7-.6-1.7-1.9-3.2-3.4-4.6-5.3-15-19.4-5.3-47.7,18.8-54.2,21.9-5.7,44.1,12.2,42.6,35.2-.6,9.1-4.2,16.9-11,23.2-.2.2-.6.6-1.1,1.1,5.3,2.1,10.3,4.6,15.2,8-.8,1.1-1.7,2.1-2.3,3.4-6.7-4.9-13.9-7.8-22.1-9.9.8-.6,1.1-.8,1.7-1.1,4.6-3,8.4-6.3,11.2-11.2,10.8-18.1-.2-41.3-21.1-44.9-16.9-3-32.9,8.9-35,25.5-1.7,12,3,21.5,12.9,28.9,1.1.8,2.3,1.7,3.8,2.3h0c-1.9.8-3.4,1.3-5.3,1.9-11.4,3.8-21.3,10.1-28.5,20-4,5.3-6.7,11.4-7,18.1,0,2.3,0,5.1.8,7.4,1.3,4.9,4.9,7.4,9.3,9.1,5.1,1.7,10.1,2.3,15.2,2.3h43.7v4.2h-41.1.2l.2.8Z"/>
</svg>