<?xml version="1.0" encoding="UTF-8"?>
<svg id="Layer_1" data-name="Layer 1" xmlns="http://www.w3.org/2000/svg" viewBox="0 0 150 150">
  <defs>
    <style>
      .cls-1 {
        fill: #c51724;
      }

      .cls-1, .cls-2 {
        stroke-width: 0px;
      }
    </style>
  </defs>
  <g>
    <path class="cls-2" d="m62.6,95.2l-5.8,14.3h-1.7l-5.8-14.3h1.5c.2,0,.3,0,.4.1.1,0,.2.2.2.3l4,10.1c0,.2.2.5.3.7s.2.5.2.8c0-.3.1-.6.2-.8s.2-.5.2-.7l4-10.1c0-.1.1-.2.2-.3s.3-.1.4-.1h1.5Z"/>
    <path class="cls-2" d="m66.4,109.5h-1.9v-14.3h1.9v14.3Z"/>
    <path class="cls-2" d="m78.9,107.9v1.6h-8.8v-14.3h8.8v1.6h-6.9v4.8h5.6v1.5h-5.6v4.9h6.9Z"/>
    <path class="cls-2" d="m100.2,95.2l-4.5,14.3h-1.7l-3.6-10.9c0-.1,0-.2,0-.3,0-.1,0-.2,0-.4,0,.1,0,.3,0,.4,0,.1,0,.2-.1.3l-3.6,10.9h-1.7l-4.5-14.3h1.6c.2,0,.3,0,.4.1.1,0,.2.2.2.3l3,10c0,.2,0,.4.1.6,0,.2,0,.4.1.7,0-.2,0-.5.1-.7s.1-.4.2-.6l3.4-10c0-.1.1-.2.2-.3.1,0,.3-.1.4-.1h.6c.2,0,.3,0,.4.1.1,0,.2.2.2.3l3.4,10c0,.2.1.4.2.6,0,.2,0,.4.1.6,0-.2,0-.4.1-.6,0-.2,0-.4.1-.6l3-10c0-.1.1-.2.2-.3.1,0,.3-.1.4-.1h1.5Z"/>
  </g>
  <g>
    <path class="cls-2" d="m38.6,134.8h-1.5c-.2,0-.3,0-.4-.1-.1,0-.2-.2-.2-.3l-1.3-3.5h-6.4l-1.3,3.5c0,.1-.1.2-.2.3-.1,0-.3.1-.4.1h-1.5l5.7-14.3h2l5.7,14.3Zm-4-5.3l-2.2-5.8c0-.2-.1-.4-.2-.6,0-.2-.1-.5-.2-.7-.1.5-.3,1-.4,1.4l-2.2,5.8h5.4Z"/>
    <path class="cls-2" d="m48.6,133.2v1.6h-8.1v-14.3h1.9v12.7h6.2Z"/>
    <path class="cls-2" d="m58.9,133.2v1.6h-8.1v-14.3h1.9v12.7h6.2Z"/>
    <path class="cls-2" d="m71.1,133.3c.6,0,1.1,0,1.6-.3s.9-.5,1.2-.8c.3-.4.6-.8.7-1.3s.3-1,.3-1.7v-8.7h1.9v8.7c0,.8-.1,1.6-.4,2.3-.3.7-.6,1.3-1.1,1.8s-1.1.9-1.8,1.2c-.7.3-1.5.4-2.4.4s-1.7-.1-2.4-.4c-.7-.3-1.3-.7-1.8-1.2-.5-.5-.9-1.1-1.1-1.8-.3-.7-.4-1.5-.4-2.3v-8.7h1.9v8.7c0,.6,0,1.1.3,1.6s.4.9.7,1.3c.3.4.7.6,1.2.8s1,.3,1.6.3Z"/>
    <path class="cls-2" d="m87.6,122.7c0,0-.1.2-.2.2s-.2,0-.3,0-.2,0-.4-.2-.3-.2-.6-.4c-.2-.1-.5-.3-.8-.4s-.7-.2-1.2-.2-.8,0-1.1.2c-.3.1-.6.3-.8.5-.2.2-.4.4-.5.7-.1.3-.2.6-.2.9s0,.7.3,1c.2.3.5.5.8.7.3.2.7.3,1.1.5s.8.3,1.3.4c.4.1.9.3,1.3.5.4.2.8.4,1.1.7s.6.6.8,1c.2.4.3.9.3,1.5s-.1,1.2-.3,1.8c-.2.5-.5,1-.9,1.4-.4.4-.9.7-1.5,1-.6.2-1.3.4-2,.4s-1.8-.2-2.5-.5c-.8-.3-1.4-.8-2-1.4l.6-.9c0,0,.1-.1.2-.2,0,0,.2,0,.3,0s.2,0,.3.1c.1,0,.2.2.4.3.1.1.3.2.5.3.2.1.4.2.6.3.2.1.5.2.8.3.3,0,.6.1,1,.1s.9,0,1.2-.2c.4-.1.7-.3.9-.5.2-.2.4-.5.6-.8.1-.3.2-.7.2-1.1s0-.8-.3-1.1-.5-.5-.8-.7c-.3-.2-.7-.3-1.1-.5s-.8-.3-1.3-.4-.8-.3-1.3-.5c-.4-.2-.8-.4-1.1-.7-.3-.3-.6-.6-.8-1.1-.2-.4-.3-1-.3-1.6s0-1,.3-1.5c.2-.5.5-.9.9-1.3.4-.4.8-.7,1.4-.9.5-.2,1.2-.3,1.9-.3s1.5.1,2.2.4c.7.3,1.2.6,1.7,1.1l-.5.9Z"/>
    <path class="cls-2" d="m100,133.3v1.6h-8.8v-14.3h8.8v1.6h-6.9v4.8h5.6v1.5h-5.6v4.9h6.9Z"/>
    <path class="cls-2" d="m113.3,134.8h-1.7c-.4,0-.6-.1-.8-.4l-3.7-5.1c-.1-.2-.2-.3-.4-.3s-.3-.1-.6-.1h-1.5v6h-1.9v-14.3h4c.9,0,1.7,0,2.4.3.7.2,1.2.4,1.6.8.4.3.7.8,1,1.3.2.5.3,1,.3,1.6s0,1-.2,1.4c-.2.4-.4.8-.7,1.2-.3.3-.7.6-1.1.9-.4.2-.9.4-1.5.6.2.1.5.3.6.6l4.2,5.7Zm-6.6-7.4c.6,0,1.1,0,1.5-.2s.8-.3,1.1-.6.5-.5.7-.9c.1-.3.2-.7.2-1.1,0-.9-.3-1.5-.8-1.9-.6-.4-1.4-.6-2.5-.6h-2.1v5.4h2Z"/>
    <path class="cls-2" d="m122.5,122.7c0,0-.1.2-.2.2s-.2,0-.3,0-.2,0-.4-.2-.3-.2-.6-.4c-.2-.1-.5-.3-.8-.4s-.7-.2-1.2-.2-.8,0-1.1.2c-.3.1-.6.3-.8.5-.2.2-.4.4-.5.7-.1.3-.2.6-.2.9s0,.7.3,1c.2.3.5.5.8.7.3.2.7.3,1.1.5s.8.3,1.3.4c.4.1.9.3,1.3.5.4.2.8.4,1.1.7s.6.6.8,1c.2.4.3.9.3,1.5s-.1,1.2-.3,1.8c-.2.5-.5,1-.9,1.4-.4.4-.9.7-1.5,1-.6.2-1.3.4-2,.4s-1.8-.2-2.5-.5c-.8-.3-1.4-.8-2-1.4l.6-.9c0,0,.1-.1.2-.2,0,0,.2,0,.3,0s.2,0,.3.1c.1,0,.2.2.4.3.1.1.3.2.5.3.2.1.4.2.6.3.2.1.5.2.8.3.3,0,.6.1,1,.1s.9,0,1.2-.2c.4-.1.7-.3.9-.5.2-.2.4-.5.6-.8.1-.3.2-.7.2-1.1s0-.8-.3-1.1-.5-.5-.8-.7c-.3-.2-.7-.3-1.1-.5s-.8-.3-1.3-.4-.8-.3-1.3-.5c-.4-.2-.8-.4-1.1-.7-.3-.3-.6-.6-.8-1.1-.2-.4-.3-1-.3-1.6s0-1,.3-1.5c.2-.5.5-.9.9-1.3.4-.4.8-.7,1.4-.9.5-.2,1.2-.3,1.9-.3s1.5.1,2.2.4c.7.3,1.2.6,1.7,1.1l-.5.9Z"/>
  </g>
  <g>
    <g>
      <path class="cls-2" d="m76.8,58.4c.1-.2.2-.4.4-.6,1.8-2.3,4-4.3,6.5-5.8,1.7-1,3.5-1.6,5.5-1.8,1.8-.1,3.5.2,5.2,1,2.4,1,4.4,2.5,6.2,4.3.7.7,1.4,1.6,2.1,2.4.4.4.4.8,0,1.3-1.9,2.3-4,4.4-6.6,5.9-2.1,1.2-4.2,1.9-6.6,1.8-1.6,0-3.2-.5-4.7-1.2-3.1-1.5-5.6-3.8-7.7-6.4-.1-.1-.2-.3-.3-.5v-.3h0Zm24.3.2c-.5-.6-1-1.1-1.5-1.6-1.7-1.7-3.5-3.2-5.8-4.1-1.1-.5-2.3-.8-3.5-.9-1.8,0-3.6.4-5.2,1.3-1.8,1-3.4,2.2-4.8,3.7-.5.5-1,1.1-1.5,1.7.5.6,1,1.1,1.5,1.6,1.7,1.7,3.5,3.2,5.7,4.1s2.3.8,3.5.9c1.8,0,3.6-.4,5.2-1.3,1.6-.8,3-1.9,4.3-3.1.7-.7,1.4-1.5,2.1-2.2h0Z"/>
      <path class="cls-2" d="m95,58.6c0,2.9-2.3,5.2-5.2,5.2s-5.1-2.3-5.1-5.2,2.3-5.2,5.2-5.2,5.1,2.3,5.1,5.2Zm-1.7,0c0-1.9-1.5-3.4-3.4-3.4s-3.4,1.5-3.4,3.4,1.6,3.5,3.4,3.4c1.9,0,3.4-1.5,3.4-3.4Z"/>
    </g>
    <path class="cls-1" d="m61.7,71.7c-1,0-2-.1-3.2-.3-2.3-.3-4.4-.5-6.5-1.4-3.8-1.5-5.6-4.3-5.7-8.2,0-3.8,1.1-7.2,3.3-10.4,3.3-4.8,7.7-8.1,13-10.2.3,0,.5-.3.8-.3-.8-.9-1.5-1.6-2.2-2.5-7.1-9.2-2.5-22.6,8.9-25.7,10.4-2.7,20.9,5.8,20.2,16.7-.3,4.3-2,8-5.2,11-.1.1-.3.3-.5.5,2.5,1,4.9,2.2,7.2,3.8-.4.5-.8,1-1.1,1.6-3.2-2.3-6.6-3.7-10.5-4.7.4-.3.5-.4.8-.5,2.2-1.4,4-3,5.3-5.3,5.1-8.6-.1-19.6-10-21.3-8-1.4-15.6,4.2-16.6,12.1-.8,5.7,1.4,10.2,6.1,13.7.5.4,1.1.8,1.8,1.1h0c-.9.4-1.6.6-2.5.9-5.4,1.8-10.1,4.8-13.5,9.5-1.9,2.5-3.2,5.4-3.3,8.6,0,1.1,0,2.4.4,3.5.6,2.3,2.3,3.5,4.4,4.3,2.4.8,4.8,1.1,7.2,1.1h20.7v2h-19.5.1Z"/>
  </g>
</svg>